G04 EAGLE Gerber RS-274X export*
G75*
%MOMM*%
%FSLAX34Y34*%
%LPD*%
%INSilkscreen Top*%
%IPPOS*%
%AMOC8*
5,1,8,0,0,1.08239X$1,22.5*%
G01*
%ADD10C,0.050800*%
%ADD11R,0.150000X0.300000*%
%ADD12R,0.300000X0.300000*%
%ADD13R,0.300000X0.300000*%
%ADD14R,0.300000X0.150000*%
%ADD15C,0.203200*%
%ADD16R,0.762000X0.863600*%
%ADD17C,0.101600*%
%ADD18C,0.152400*%
%ADD19C,0.127000*%
%ADD20C,0.254000*%


D10*
X99246Y281538D02*
X99246Y280296D01*
X99244Y280226D01*
X99238Y280157D01*
X99228Y280088D01*
X99215Y280020D01*
X99197Y279952D01*
X99176Y279886D01*
X99151Y279821D01*
X99123Y279757D01*
X99091Y279695D01*
X99056Y279635D01*
X99017Y279577D01*
X98975Y279522D01*
X98930Y279468D01*
X98882Y279418D01*
X98832Y279370D01*
X98778Y279325D01*
X98723Y279283D01*
X98665Y279244D01*
X98605Y279209D01*
X98543Y279177D01*
X98479Y279149D01*
X98414Y279124D01*
X98348Y279103D01*
X98280Y279085D01*
X98212Y279072D01*
X98143Y279062D01*
X98074Y279056D01*
X98004Y279054D01*
X94900Y279054D01*
X94830Y279056D01*
X94761Y279062D01*
X94692Y279072D01*
X94624Y279085D01*
X94556Y279103D01*
X94490Y279124D01*
X94425Y279149D01*
X94361Y279177D01*
X94299Y279209D01*
X94239Y279244D01*
X94181Y279283D01*
X94126Y279325D01*
X94072Y279370D01*
X94022Y279418D01*
X93974Y279468D01*
X93929Y279522D01*
X93887Y279577D01*
X93848Y279635D01*
X93813Y279695D01*
X93781Y279757D01*
X93753Y279821D01*
X93728Y279886D01*
X93707Y279952D01*
X93689Y280020D01*
X93676Y280088D01*
X93666Y280157D01*
X93660Y280226D01*
X93658Y280296D01*
X93658Y281538D01*
X94900Y283642D02*
X93658Y285194D01*
X99246Y285194D01*
X99246Y283642D02*
X99246Y286747D01*
X312742Y80837D02*
X312742Y79595D01*
X312740Y79525D01*
X312734Y79456D01*
X312724Y79387D01*
X312711Y79319D01*
X312693Y79251D01*
X312672Y79185D01*
X312647Y79120D01*
X312619Y79056D01*
X312587Y78994D01*
X312552Y78934D01*
X312513Y78876D01*
X312471Y78821D01*
X312426Y78767D01*
X312378Y78717D01*
X312328Y78669D01*
X312274Y78624D01*
X312219Y78582D01*
X312161Y78543D01*
X312101Y78508D01*
X312039Y78476D01*
X311975Y78448D01*
X311910Y78423D01*
X311844Y78402D01*
X311776Y78384D01*
X311708Y78371D01*
X311639Y78361D01*
X311570Y78355D01*
X311500Y78353D01*
X308396Y78353D01*
X308326Y78355D01*
X308257Y78361D01*
X308188Y78371D01*
X308120Y78384D01*
X308052Y78402D01*
X307986Y78423D01*
X307921Y78448D01*
X307857Y78476D01*
X307795Y78508D01*
X307735Y78543D01*
X307677Y78582D01*
X307622Y78624D01*
X307568Y78669D01*
X307518Y78717D01*
X307470Y78767D01*
X307425Y78821D01*
X307383Y78876D01*
X307344Y78934D01*
X307309Y78994D01*
X307277Y79056D01*
X307249Y79120D01*
X307224Y79185D01*
X307203Y79251D01*
X307185Y79319D01*
X307172Y79387D01*
X307162Y79456D01*
X307156Y79525D01*
X307154Y79595D01*
X307154Y80837D01*
X307154Y84649D02*
X307156Y84722D01*
X307162Y84795D01*
X307171Y84868D01*
X307185Y84939D01*
X307202Y85011D01*
X307222Y85081D01*
X307247Y85150D01*
X307275Y85217D01*
X307306Y85283D01*
X307341Y85348D01*
X307379Y85410D01*
X307421Y85470D01*
X307465Y85528D01*
X307513Y85584D01*
X307563Y85637D01*
X307616Y85687D01*
X307672Y85735D01*
X307730Y85779D01*
X307790Y85821D01*
X307853Y85859D01*
X307917Y85894D01*
X307983Y85925D01*
X308050Y85953D01*
X308119Y85978D01*
X308189Y85998D01*
X308261Y86015D01*
X308332Y86029D01*
X308405Y86038D01*
X308478Y86044D01*
X308551Y86046D01*
X307154Y84649D02*
X307156Y84565D01*
X307162Y84482D01*
X307171Y84399D01*
X307185Y84316D01*
X307202Y84235D01*
X307224Y84154D01*
X307249Y84074D01*
X307277Y83996D01*
X307309Y83918D01*
X307345Y83843D01*
X307384Y83769D01*
X307427Y83697D01*
X307473Y83627D01*
X307522Y83560D01*
X307575Y83494D01*
X307630Y83432D01*
X307688Y83372D01*
X307749Y83314D01*
X307812Y83260D01*
X307878Y83208D01*
X307946Y83160D01*
X308017Y83115D01*
X308089Y83073D01*
X308164Y83035D01*
X308240Y83000D01*
X308317Y82969D01*
X308396Y82941D01*
X309637Y85580D02*
X309584Y85634D01*
X309527Y85685D01*
X309468Y85733D01*
X309407Y85778D01*
X309344Y85819D01*
X309278Y85858D01*
X309211Y85893D01*
X309142Y85925D01*
X309071Y85953D01*
X309000Y85977D01*
X308927Y85998D01*
X308853Y86015D01*
X308778Y86029D01*
X308703Y86038D01*
X308627Y86044D01*
X308551Y86046D01*
X309638Y85580D02*
X312742Y82942D01*
X312742Y86046D01*
X284037Y214308D02*
X282795Y214308D01*
X282725Y214310D01*
X282656Y214316D01*
X282587Y214326D01*
X282519Y214339D01*
X282451Y214357D01*
X282385Y214378D01*
X282320Y214403D01*
X282256Y214431D01*
X282194Y214463D01*
X282134Y214498D01*
X282076Y214537D01*
X282021Y214579D01*
X281967Y214624D01*
X281917Y214672D01*
X281869Y214722D01*
X281824Y214776D01*
X281782Y214831D01*
X281743Y214889D01*
X281708Y214949D01*
X281676Y215011D01*
X281648Y215075D01*
X281623Y215140D01*
X281602Y215206D01*
X281584Y215274D01*
X281571Y215342D01*
X281561Y215411D01*
X281555Y215480D01*
X281553Y215550D01*
X281553Y218654D01*
X281555Y218724D01*
X281561Y218793D01*
X281571Y218862D01*
X281584Y218930D01*
X281602Y218998D01*
X281623Y219064D01*
X281648Y219129D01*
X281676Y219193D01*
X281708Y219255D01*
X281743Y219315D01*
X281782Y219373D01*
X281824Y219428D01*
X281869Y219482D01*
X281917Y219532D01*
X281967Y219580D01*
X282021Y219625D01*
X282076Y219667D01*
X282134Y219706D01*
X282194Y219741D01*
X282256Y219773D01*
X282320Y219801D01*
X282385Y219826D01*
X282451Y219847D01*
X282519Y219865D01*
X282587Y219878D01*
X282656Y219888D01*
X282725Y219894D01*
X282795Y219896D01*
X284037Y219896D01*
X286142Y214308D02*
X287694Y214308D01*
X287771Y214310D01*
X287849Y214316D01*
X287925Y214325D01*
X288002Y214339D01*
X288077Y214356D01*
X288151Y214377D01*
X288225Y214402D01*
X288297Y214430D01*
X288367Y214462D01*
X288436Y214497D01*
X288503Y214536D01*
X288568Y214578D01*
X288631Y214623D01*
X288692Y214671D01*
X288750Y214722D01*
X288805Y214776D01*
X288858Y214833D01*
X288907Y214892D01*
X288954Y214954D01*
X288998Y215018D01*
X289038Y215084D01*
X289075Y215152D01*
X289109Y215222D01*
X289139Y215293D01*
X289165Y215366D01*
X289188Y215440D01*
X289207Y215515D01*
X289222Y215590D01*
X289234Y215667D01*
X289242Y215744D01*
X289246Y215821D01*
X289246Y215899D01*
X289242Y215976D01*
X289234Y216053D01*
X289222Y216130D01*
X289207Y216205D01*
X289188Y216280D01*
X289165Y216354D01*
X289139Y216427D01*
X289109Y216498D01*
X289075Y216568D01*
X289038Y216636D01*
X288998Y216702D01*
X288954Y216766D01*
X288907Y216828D01*
X288858Y216887D01*
X288805Y216944D01*
X288750Y216998D01*
X288692Y217049D01*
X288631Y217097D01*
X288568Y217142D01*
X288503Y217184D01*
X288436Y217223D01*
X288367Y217258D01*
X288297Y217290D01*
X288225Y217318D01*
X288151Y217343D01*
X288077Y217364D01*
X288002Y217381D01*
X287925Y217395D01*
X287849Y217404D01*
X287771Y217410D01*
X287694Y217412D01*
X288004Y219896D02*
X286142Y219896D01*
X288004Y219896D02*
X288074Y219894D01*
X288143Y219888D01*
X288212Y219878D01*
X288280Y219865D01*
X288348Y219847D01*
X288414Y219826D01*
X288479Y219801D01*
X288543Y219773D01*
X288605Y219741D01*
X288665Y219706D01*
X288723Y219667D01*
X288778Y219625D01*
X288832Y219580D01*
X288882Y219532D01*
X288930Y219482D01*
X288975Y219428D01*
X289017Y219373D01*
X289056Y219315D01*
X289091Y219255D01*
X289123Y219193D01*
X289151Y219129D01*
X289176Y219064D01*
X289197Y218998D01*
X289215Y218930D01*
X289228Y218862D01*
X289238Y218793D01*
X289244Y218724D01*
X289246Y218654D01*
X289244Y218584D01*
X289238Y218515D01*
X289228Y218446D01*
X289215Y218378D01*
X289197Y218310D01*
X289176Y218244D01*
X289151Y218179D01*
X289123Y218115D01*
X289091Y218053D01*
X289056Y217993D01*
X289017Y217935D01*
X288975Y217880D01*
X288930Y217826D01*
X288882Y217776D01*
X288832Y217728D01*
X288778Y217683D01*
X288723Y217641D01*
X288665Y217602D01*
X288605Y217567D01*
X288543Y217535D01*
X288479Y217507D01*
X288414Y217482D01*
X288348Y217461D01*
X288280Y217443D01*
X288212Y217430D01*
X288143Y217420D01*
X288074Y217414D01*
X288004Y217412D01*
X286762Y217412D01*
D11*
X603600Y364720D03*
X615600Y364720D03*
D12*
X609600Y364720D03*
D10*
X600456Y352044D02*
X594868Y352044D01*
X600456Y352044D02*
X600456Y354528D01*
X600456Y356799D02*
X600456Y359282D01*
X600456Y356799D02*
X594868Y356799D01*
X594868Y359282D01*
X597352Y358661D02*
X597352Y356799D01*
X594868Y361543D02*
X600456Y361543D01*
X594868Y361543D02*
X594868Y363095D01*
X594870Y363171D01*
X594875Y363247D01*
X594885Y363323D01*
X594898Y363398D01*
X594915Y363472D01*
X594935Y363546D01*
X594959Y363618D01*
X594986Y363689D01*
X595017Y363759D01*
X595051Y363827D01*
X595089Y363893D01*
X595130Y363957D01*
X595173Y364020D01*
X595220Y364080D01*
X595270Y364137D01*
X595323Y364192D01*
X595378Y364245D01*
X595435Y364295D01*
X595495Y364342D01*
X595558Y364385D01*
X595622Y364426D01*
X595688Y364464D01*
X595756Y364498D01*
X595826Y364529D01*
X595897Y364556D01*
X595970Y364580D01*
X596043Y364600D01*
X596117Y364617D01*
X596192Y364630D01*
X596268Y364640D01*
X596344Y364645D01*
X596420Y364647D01*
X598904Y364647D01*
X598980Y364645D01*
X599056Y364640D01*
X599132Y364630D01*
X599207Y364617D01*
X599281Y364600D01*
X599355Y364580D01*
X599427Y364556D01*
X599498Y364529D01*
X599568Y364498D01*
X599636Y364464D01*
X599702Y364426D01*
X599766Y364385D01*
X599829Y364342D01*
X599889Y364295D01*
X599946Y364245D01*
X600001Y364192D01*
X600054Y364137D01*
X600104Y364080D01*
X600151Y364020D01*
X600194Y363957D01*
X600235Y363893D01*
X600273Y363827D01*
X600307Y363759D01*
X600338Y363689D01*
X600365Y363618D01*
X600389Y363546D01*
X600409Y363472D01*
X600426Y363398D01*
X600439Y363323D01*
X600449Y363247D01*
X600454Y363171D01*
X600456Y363095D01*
X600456Y361543D01*
X596110Y367212D02*
X594868Y368764D01*
X600456Y368764D01*
X600456Y367212D02*
X600456Y370316D01*
D11*
G36*
X673198Y338993D02*
X672138Y340053D01*
X674258Y342173D01*
X675318Y341113D01*
X673198Y338993D01*
G37*
G36*
X681683Y330508D02*
X680623Y331568D01*
X682743Y333688D01*
X683803Y332628D01*
X681683Y330508D01*
G37*
D13*
G36*
X677971Y334220D02*
X675850Y336341D01*
X677971Y338462D01*
X680092Y336341D01*
X677971Y334220D01*
G37*
D10*
X662760Y333099D02*
X658808Y337050D01*
X662760Y333099D02*
X664516Y334855D01*
X666122Y336461D02*
X667878Y338217D01*
X666122Y336461D02*
X662170Y340413D01*
X663926Y342169D01*
X665244Y339974D02*
X663926Y338656D01*
X665525Y343767D02*
X669476Y339816D01*
X665525Y343767D02*
X666622Y344864D01*
X666623Y344864D02*
X666680Y344919D01*
X666739Y344970D01*
X666801Y345018D01*
X666866Y345063D01*
X666933Y345104D01*
X667001Y345143D01*
X667072Y345177D01*
X667144Y345208D01*
X667218Y345236D01*
X667293Y345259D01*
X667369Y345279D01*
X667446Y345295D01*
X667524Y345307D01*
X667602Y345315D01*
X667681Y345319D01*
X667759Y345319D01*
X667838Y345315D01*
X667916Y345307D01*
X667994Y345295D01*
X668071Y345279D01*
X668147Y345259D01*
X668222Y345236D01*
X668296Y345208D01*
X668368Y345177D01*
X668439Y345143D01*
X668507Y345104D01*
X668574Y345063D01*
X668639Y345018D01*
X668701Y344970D01*
X668760Y344919D01*
X668817Y344864D01*
X670574Y343108D01*
X670573Y343108D02*
X670626Y343053D01*
X670676Y342996D01*
X670723Y342936D01*
X670766Y342873D01*
X670807Y342809D01*
X670845Y342743D01*
X670879Y342675D01*
X670910Y342605D01*
X670937Y342534D01*
X670961Y342462D01*
X670981Y342388D01*
X670998Y342314D01*
X671011Y342239D01*
X671021Y342163D01*
X671026Y342087D01*
X671028Y342011D01*
X671026Y341935D01*
X671021Y341859D01*
X671011Y341783D01*
X670998Y341708D01*
X670981Y341634D01*
X670961Y341560D01*
X670937Y341488D01*
X670910Y341417D01*
X670879Y341347D01*
X670845Y341279D01*
X670807Y341213D01*
X670766Y341149D01*
X670723Y341086D01*
X670676Y341026D01*
X670626Y340969D01*
X670573Y340914D01*
X670574Y340913D02*
X669476Y339816D01*
X670740Y348983D02*
X670793Y349033D01*
X670849Y349081D01*
X670907Y349125D01*
X670967Y349167D01*
X671030Y349205D01*
X671094Y349240D01*
X671160Y349271D01*
X671227Y349299D01*
X671296Y349324D01*
X671366Y349344D01*
X671438Y349361D01*
X671509Y349375D01*
X671582Y349384D01*
X671655Y349390D01*
X671728Y349392D01*
X671801Y349390D01*
X671874Y349384D01*
X671947Y349375D01*
X672018Y349361D01*
X672090Y349344D01*
X672160Y349324D01*
X672229Y349299D01*
X672296Y349271D01*
X672362Y349240D01*
X672426Y349205D01*
X672489Y349167D01*
X672549Y349125D01*
X672607Y349081D01*
X672663Y349033D01*
X672716Y348983D01*
X670741Y348983D02*
X670683Y348923D01*
X670628Y348860D01*
X670576Y348794D01*
X670528Y348726D01*
X670482Y348656D01*
X670440Y348584D01*
X670401Y348510D01*
X670366Y348434D01*
X670334Y348357D01*
X670306Y348278D01*
X670281Y348198D01*
X670261Y348117D01*
X670244Y348035D01*
X670231Y347953D01*
X670222Y347869D01*
X670216Y347786D01*
X670215Y347702D01*
X670218Y347619D01*
X670224Y347535D01*
X670234Y347453D01*
X670248Y347370D01*
X670266Y347288D01*
X670288Y347208D01*
X670313Y347128D01*
X670342Y347050D01*
X670375Y346973D01*
X670411Y346897D01*
X673156Y347886D02*
X673155Y347961D01*
X673152Y348037D01*
X673144Y348113D01*
X673132Y348188D01*
X673117Y348262D01*
X673098Y348336D01*
X673075Y348408D01*
X673049Y348479D01*
X673019Y348549D01*
X672985Y348617D01*
X672948Y348684D01*
X672908Y348748D01*
X672865Y348811D01*
X672818Y348871D01*
X672769Y348928D01*
X672716Y348983D01*
X673155Y347885D02*
X673485Y343824D01*
X675680Y346019D01*
D14*
X707620Y272700D03*
X707620Y260700D03*
D12*
X707620Y266700D03*
D10*
X697484Y274574D02*
X697484Y280162D01*
X697484Y274574D02*
X699968Y274574D01*
X702239Y274574D02*
X704722Y274574D01*
X702239Y274574D02*
X702239Y280162D01*
X704722Y280162D01*
X704101Y277678D02*
X702239Y277678D01*
X706983Y280162D02*
X706983Y274574D01*
X706983Y280162D02*
X708535Y280162D01*
X708611Y280160D01*
X708687Y280155D01*
X708763Y280145D01*
X708838Y280132D01*
X708912Y280115D01*
X708986Y280095D01*
X709058Y280071D01*
X709129Y280044D01*
X709199Y280013D01*
X709267Y279979D01*
X709333Y279941D01*
X709397Y279900D01*
X709460Y279857D01*
X709520Y279810D01*
X709577Y279760D01*
X709632Y279707D01*
X709685Y279652D01*
X709735Y279595D01*
X709782Y279535D01*
X709825Y279472D01*
X709866Y279408D01*
X709904Y279342D01*
X709938Y279274D01*
X709969Y279204D01*
X709996Y279133D01*
X710020Y279060D01*
X710040Y278987D01*
X710057Y278913D01*
X710070Y278838D01*
X710080Y278762D01*
X710085Y278686D01*
X710087Y278610D01*
X710087Y276126D01*
X710085Y276047D01*
X710079Y275969D01*
X710069Y275891D01*
X710055Y275814D01*
X710037Y275737D01*
X710016Y275661D01*
X709990Y275587D01*
X709961Y275514D01*
X709928Y275443D01*
X709892Y275373D01*
X709852Y275305D01*
X709809Y275239D01*
X709762Y275176D01*
X709713Y275115D01*
X709660Y275057D01*
X709604Y275001D01*
X709546Y274948D01*
X709485Y274899D01*
X709422Y274852D01*
X709356Y274809D01*
X709288Y274769D01*
X709219Y274733D01*
X709147Y274700D01*
X709074Y274671D01*
X709000Y274645D01*
X708924Y274624D01*
X708847Y274606D01*
X708770Y274592D01*
X708692Y274582D01*
X708614Y274576D01*
X708535Y274574D01*
X706983Y274574D01*
X712652Y274574D02*
X714204Y274574D01*
X714281Y274576D01*
X714359Y274582D01*
X714435Y274591D01*
X714512Y274605D01*
X714587Y274622D01*
X714661Y274643D01*
X714735Y274668D01*
X714807Y274696D01*
X714877Y274728D01*
X714946Y274763D01*
X715013Y274802D01*
X715078Y274844D01*
X715141Y274889D01*
X715202Y274937D01*
X715260Y274988D01*
X715315Y275042D01*
X715368Y275099D01*
X715417Y275158D01*
X715464Y275220D01*
X715508Y275284D01*
X715548Y275350D01*
X715585Y275418D01*
X715619Y275488D01*
X715649Y275559D01*
X715675Y275632D01*
X715698Y275706D01*
X715717Y275781D01*
X715732Y275856D01*
X715744Y275933D01*
X715752Y276010D01*
X715756Y276087D01*
X715756Y276165D01*
X715752Y276242D01*
X715744Y276319D01*
X715732Y276396D01*
X715717Y276471D01*
X715698Y276546D01*
X715675Y276620D01*
X715649Y276693D01*
X715619Y276764D01*
X715585Y276834D01*
X715548Y276902D01*
X715508Y276968D01*
X715464Y277032D01*
X715417Y277094D01*
X715368Y277153D01*
X715315Y277210D01*
X715260Y277264D01*
X715202Y277315D01*
X715141Y277363D01*
X715078Y277408D01*
X715013Y277450D01*
X714946Y277489D01*
X714877Y277524D01*
X714807Y277556D01*
X714735Y277584D01*
X714661Y277609D01*
X714587Y277630D01*
X714512Y277647D01*
X714435Y277661D01*
X714359Y277670D01*
X714281Y277676D01*
X714204Y277678D01*
X714514Y280162D02*
X712652Y280162D01*
X714514Y280162D02*
X714584Y280160D01*
X714653Y280154D01*
X714722Y280144D01*
X714790Y280131D01*
X714858Y280113D01*
X714924Y280092D01*
X714989Y280067D01*
X715053Y280039D01*
X715115Y280007D01*
X715175Y279972D01*
X715233Y279933D01*
X715288Y279891D01*
X715342Y279846D01*
X715392Y279798D01*
X715440Y279748D01*
X715485Y279694D01*
X715527Y279639D01*
X715566Y279581D01*
X715601Y279521D01*
X715633Y279459D01*
X715661Y279395D01*
X715686Y279330D01*
X715707Y279264D01*
X715725Y279196D01*
X715738Y279128D01*
X715748Y279059D01*
X715754Y278990D01*
X715756Y278920D01*
X715754Y278850D01*
X715748Y278781D01*
X715738Y278712D01*
X715725Y278644D01*
X715707Y278576D01*
X715686Y278510D01*
X715661Y278445D01*
X715633Y278381D01*
X715601Y278319D01*
X715566Y278259D01*
X715527Y278201D01*
X715485Y278146D01*
X715440Y278092D01*
X715392Y278042D01*
X715342Y277994D01*
X715288Y277949D01*
X715233Y277907D01*
X715175Y277868D01*
X715115Y277833D01*
X715053Y277801D01*
X714989Y277773D01*
X714924Y277748D01*
X714858Y277727D01*
X714790Y277709D01*
X714722Y277696D01*
X714653Y277686D01*
X714584Y277680D01*
X714514Y277678D01*
X713273Y277678D01*
D11*
G36*
X680623Y204372D02*
X681683Y205432D01*
X683803Y203312D01*
X682743Y202252D01*
X680623Y204372D01*
G37*
G36*
X672138Y195887D02*
X673198Y196947D01*
X675318Y194827D01*
X674258Y193767D01*
X672138Y195887D01*
G37*
D13*
G36*
X675850Y199599D02*
X677971Y201720D01*
X680092Y199599D01*
X677971Y197478D01*
X675850Y199599D01*
G37*
D10*
X677269Y212271D02*
X681221Y216222D01*
X677269Y212271D02*
X679025Y210514D01*
X680631Y208908D02*
X682387Y207152D01*
X680631Y208908D02*
X684583Y212860D01*
X686339Y211104D01*
X684144Y209786D02*
X682826Y211103D01*
X687937Y209505D02*
X683986Y205554D01*
X687937Y209505D02*
X689035Y208408D01*
X689034Y208407D02*
X689089Y208350D01*
X689140Y208291D01*
X689188Y208229D01*
X689233Y208164D01*
X689274Y208097D01*
X689313Y208029D01*
X689347Y207958D01*
X689378Y207886D01*
X689406Y207812D01*
X689429Y207737D01*
X689449Y207661D01*
X689465Y207584D01*
X689477Y207506D01*
X689485Y207428D01*
X689489Y207349D01*
X689489Y207271D01*
X689485Y207192D01*
X689477Y207114D01*
X689465Y207036D01*
X689449Y206959D01*
X689429Y206883D01*
X689406Y206808D01*
X689378Y206734D01*
X689347Y206662D01*
X689313Y206591D01*
X689274Y206523D01*
X689233Y206456D01*
X689188Y206391D01*
X689140Y206329D01*
X689089Y206270D01*
X689034Y206213D01*
X689035Y206212D02*
X687278Y204456D01*
X687278Y204457D02*
X687223Y204404D01*
X687166Y204354D01*
X687106Y204307D01*
X687043Y204264D01*
X686979Y204223D01*
X686913Y204185D01*
X686845Y204151D01*
X686775Y204120D01*
X686704Y204093D01*
X686632Y204069D01*
X686558Y204049D01*
X686484Y204032D01*
X686409Y204019D01*
X686333Y204009D01*
X686257Y204004D01*
X686181Y204002D01*
X686105Y204004D01*
X686029Y204009D01*
X685953Y204019D01*
X685878Y204032D01*
X685804Y204049D01*
X685730Y204069D01*
X685658Y204093D01*
X685587Y204120D01*
X685517Y204151D01*
X685449Y204185D01*
X685383Y204223D01*
X685319Y204264D01*
X685256Y204307D01*
X685196Y204354D01*
X685139Y204404D01*
X685084Y204457D01*
X685083Y204456D02*
X683986Y205554D01*
X688872Y202423D02*
X692824Y204618D01*
X688872Y202423D02*
X691068Y200228D01*
X691287Y201765D02*
X689531Y200009D01*
D11*
X615600Y168680D03*
X603600Y168680D03*
D12*
X609600Y168680D03*
D10*
X618744Y161814D02*
X624332Y161814D01*
X624332Y164297D01*
X624332Y166569D02*
X624332Y169052D01*
X624332Y166569D02*
X618744Y166569D01*
X618744Y169052D01*
X621228Y168431D02*
X621228Y166569D01*
X618744Y171312D02*
X624332Y171312D01*
X618744Y171312D02*
X618744Y172865D01*
X618746Y172941D01*
X618751Y173017D01*
X618761Y173093D01*
X618774Y173168D01*
X618791Y173242D01*
X618811Y173316D01*
X618835Y173388D01*
X618862Y173459D01*
X618893Y173529D01*
X618927Y173597D01*
X618965Y173663D01*
X619006Y173727D01*
X619049Y173790D01*
X619096Y173850D01*
X619146Y173907D01*
X619199Y173962D01*
X619254Y174015D01*
X619311Y174065D01*
X619371Y174112D01*
X619434Y174155D01*
X619498Y174196D01*
X619564Y174234D01*
X619632Y174268D01*
X619702Y174299D01*
X619773Y174326D01*
X619846Y174350D01*
X619919Y174370D01*
X619993Y174387D01*
X620068Y174400D01*
X620144Y174410D01*
X620220Y174415D01*
X620296Y174417D01*
X622780Y174417D01*
X622856Y174415D01*
X622932Y174410D01*
X623008Y174400D01*
X623083Y174387D01*
X623157Y174370D01*
X623231Y174350D01*
X623303Y174326D01*
X623374Y174299D01*
X623444Y174268D01*
X623512Y174234D01*
X623578Y174196D01*
X623642Y174155D01*
X623705Y174112D01*
X623765Y174065D01*
X623822Y174015D01*
X623877Y173962D01*
X623930Y173907D01*
X623980Y173850D01*
X624027Y173790D01*
X624070Y173727D01*
X624111Y173663D01*
X624149Y173597D01*
X624183Y173529D01*
X624214Y173459D01*
X624241Y173388D01*
X624265Y173316D01*
X624285Y173242D01*
X624302Y173168D01*
X624315Y173093D01*
X624325Y173017D01*
X624330Y172941D01*
X624332Y172865D01*
X624332Y171312D01*
X624332Y176982D02*
X624332Y178844D01*
X624330Y178914D01*
X624324Y178983D01*
X624314Y179052D01*
X624301Y179120D01*
X624283Y179188D01*
X624262Y179254D01*
X624237Y179319D01*
X624209Y179383D01*
X624177Y179445D01*
X624142Y179505D01*
X624103Y179563D01*
X624061Y179618D01*
X624016Y179672D01*
X623968Y179722D01*
X623918Y179770D01*
X623864Y179815D01*
X623809Y179857D01*
X623751Y179896D01*
X623691Y179931D01*
X623629Y179963D01*
X623565Y179991D01*
X623500Y180016D01*
X623434Y180037D01*
X623366Y180055D01*
X623298Y180068D01*
X623229Y180078D01*
X623160Y180084D01*
X623090Y180086D01*
X622469Y180086D01*
X622399Y180084D01*
X622330Y180078D01*
X622261Y180068D01*
X622193Y180055D01*
X622125Y180037D01*
X622059Y180016D01*
X621994Y179991D01*
X621930Y179963D01*
X621868Y179931D01*
X621808Y179896D01*
X621750Y179857D01*
X621695Y179815D01*
X621641Y179770D01*
X621591Y179722D01*
X621543Y179672D01*
X621498Y179618D01*
X621456Y179563D01*
X621417Y179505D01*
X621382Y179445D01*
X621350Y179383D01*
X621322Y179319D01*
X621297Y179254D01*
X621276Y179188D01*
X621258Y179120D01*
X621245Y179052D01*
X621235Y178983D01*
X621229Y178914D01*
X621227Y178844D01*
X621228Y178844D02*
X621228Y176982D01*
X618744Y176982D01*
X618744Y180086D01*
D11*
G36*
X546002Y194407D02*
X547062Y193347D01*
X544942Y191227D01*
X543882Y192287D01*
X546002Y194407D01*
G37*
G36*
X537517Y202892D02*
X538577Y201832D01*
X536457Y199712D01*
X535397Y200772D01*
X537517Y202892D01*
G37*
D13*
G36*
X541229Y199180D02*
X543350Y197059D01*
X541229Y194938D01*
X539108Y197059D01*
X541229Y199180D01*
G37*
D10*
X542250Y184840D02*
X546201Y180889D01*
X547957Y182645D01*
X549563Y184251D02*
X551320Y186007D01*
X549563Y184251D02*
X545612Y188202D01*
X547368Y189959D01*
X548685Y187763D02*
X547368Y186446D01*
X548966Y191557D02*
X552918Y187605D01*
X548966Y191557D02*
X550064Y192654D01*
X550065Y192654D02*
X550122Y192709D01*
X550181Y192760D01*
X550243Y192808D01*
X550308Y192853D01*
X550375Y192894D01*
X550443Y192933D01*
X550514Y192967D01*
X550586Y192998D01*
X550660Y193026D01*
X550735Y193049D01*
X550811Y193069D01*
X550888Y193085D01*
X550966Y193097D01*
X551044Y193105D01*
X551123Y193109D01*
X551201Y193109D01*
X551280Y193105D01*
X551358Y193097D01*
X551436Y193085D01*
X551513Y193069D01*
X551589Y193049D01*
X551664Y193026D01*
X551738Y192998D01*
X551810Y192967D01*
X551881Y192933D01*
X551949Y192894D01*
X552016Y192853D01*
X552081Y192808D01*
X552143Y192760D01*
X552202Y192709D01*
X552259Y192654D01*
X554015Y190898D01*
X554068Y190843D01*
X554118Y190786D01*
X554165Y190726D01*
X554208Y190663D01*
X554249Y190599D01*
X554287Y190533D01*
X554321Y190465D01*
X554352Y190395D01*
X554379Y190324D01*
X554403Y190252D01*
X554423Y190178D01*
X554440Y190104D01*
X554453Y190029D01*
X554463Y189953D01*
X554468Y189877D01*
X554470Y189801D01*
X554468Y189725D01*
X554463Y189649D01*
X554453Y189573D01*
X554440Y189498D01*
X554423Y189424D01*
X554403Y189350D01*
X554379Y189278D01*
X554352Y189207D01*
X554321Y189137D01*
X554287Y189069D01*
X554249Y189003D01*
X554208Y188939D01*
X554165Y188876D01*
X554118Y188816D01*
X554068Y188759D01*
X554015Y188704D01*
X554015Y188703D02*
X552918Y187605D01*
X554731Y193809D02*
X556048Y195126D01*
X556098Y195174D01*
X556152Y195219D01*
X556207Y195261D01*
X556265Y195300D01*
X556325Y195335D01*
X556387Y195367D01*
X556451Y195395D01*
X556516Y195420D01*
X556582Y195441D01*
X556650Y195459D01*
X556718Y195472D01*
X556787Y195482D01*
X556856Y195488D01*
X556926Y195490D01*
X556996Y195488D01*
X557065Y195482D01*
X557134Y195472D01*
X557202Y195459D01*
X557270Y195441D01*
X557336Y195420D01*
X557401Y195395D01*
X557465Y195367D01*
X557527Y195335D01*
X557587Y195300D01*
X557645Y195261D01*
X557700Y195219D01*
X557754Y195174D01*
X557804Y195126D01*
X557805Y195126D02*
X558024Y194907D01*
X558023Y194906D02*
X558078Y194849D01*
X558129Y194790D01*
X558177Y194728D01*
X558222Y194663D01*
X558263Y194596D01*
X558302Y194528D01*
X558336Y194457D01*
X558367Y194385D01*
X558395Y194311D01*
X558418Y194236D01*
X558438Y194160D01*
X558454Y194083D01*
X558466Y194005D01*
X558474Y193927D01*
X558478Y193848D01*
X558478Y193770D01*
X558474Y193691D01*
X558466Y193613D01*
X558454Y193535D01*
X558438Y193458D01*
X558418Y193382D01*
X558395Y193307D01*
X558367Y193233D01*
X558336Y193161D01*
X558302Y193090D01*
X558263Y193022D01*
X558222Y192955D01*
X558177Y192890D01*
X558129Y192828D01*
X558078Y192769D01*
X558023Y192712D01*
X557966Y192657D01*
X557907Y192606D01*
X557845Y192558D01*
X557780Y192513D01*
X557713Y192472D01*
X557645Y192433D01*
X557574Y192399D01*
X557502Y192368D01*
X557428Y192340D01*
X557353Y192317D01*
X557277Y192297D01*
X557200Y192281D01*
X557122Y192269D01*
X557044Y192261D01*
X556965Y192257D01*
X556887Y192257D01*
X556808Y192261D01*
X556730Y192269D01*
X556652Y192281D01*
X556575Y192297D01*
X556499Y192317D01*
X556424Y192340D01*
X556350Y192368D01*
X556278Y192399D01*
X556207Y192433D01*
X556139Y192472D01*
X556072Y192513D01*
X556007Y192558D01*
X555945Y192606D01*
X555886Y192657D01*
X555829Y192712D01*
X554731Y193809D01*
X554663Y193879D01*
X554598Y193952D01*
X554536Y194027D01*
X554477Y194105D01*
X554422Y194185D01*
X554369Y194267D01*
X554320Y194351D01*
X554274Y194437D01*
X554231Y194525D01*
X554192Y194614D01*
X554157Y194705D01*
X554125Y194797D01*
X554096Y194891D01*
X554072Y194985D01*
X554051Y195080D01*
X554034Y195176D01*
X554020Y195273D01*
X554011Y195370D01*
X554005Y195467D01*
X554003Y195565D01*
X554005Y195662D01*
X554011Y195760D01*
X554020Y195857D01*
X554034Y195954D01*
X554051Y196050D01*
X554072Y196145D01*
X554096Y196239D01*
X554125Y196333D01*
X554157Y196425D01*
X554192Y196516D01*
X554231Y196605D01*
X554274Y196693D01*
X554320Y196779D01*
X554369Y196863D01*
X554422Y196945D01*
X554477Y197025D01*
X554536Y197103D01*
X554598Y197178D01*
X554663Y197251D01*
X554730Y197321D01*
D14*
X511580Y260700D03*
X511580Y272700D03*
D12*
X511580Y266700D03*
D10*
X502174Y257556D02*
X502174Y251968D01*
X504657Y251968D01*
X506929Y251968D02*
X509412Y251968D01*
X506929Y251968D02*
X506929Y257556D01*
X509412Y257556D01*
X508791Y255072D02*
X506929Y255072D01*
X511672Y257556D02*
X511672Y251968D01*
X511672Y257556D02*
X513225Y257556D01*
X513301Y257554D01*
X513377Y257549D01*
X513453Y257539D01*
X513528Y257526D01*
X513602Y257509D01*
X513676Y257489D01*
X513748Y257465D01*
X513819Y257438D01*
X513889Y257407D01*
X513957Y257373D01*
X514023Y257335D01*
X514087Y257294D01*
X514150Y257251D01*
X514210Y257204D01*
X514267Y257154D01*
X514322Y257101D01*
X514375Y257046D01*
X514425Y256989D01*
X514472Y256929D01*
X514515Y256866D01*
X514556Y256802D01*
X514594Y256736D01*
X514628Y256668D01*
X514659Y256598D01*
X514686Y256527D01*
X514710Y256454D01*
X514730Y256381D01*
X514747Y256307D01*
X514760Y256232D01*
X514770Y256156D01*
X514775Y256080D01*
X514777Y256004D01*
X514777Y253520D01*
X514775Y253441D01*
X514769Y253363D01*
X514759Y253285D01*
X514745Y253208D01*
X514727Y253131D01*
X514706Y253055D01*
X514680Y252981D01*
X514651Y252908D01*
X514618Y252837D01*
X514582Y252767D01*
X514542Y252699D01*
X514499Y252633D01*
X514452Y252570D01*
X514403Y252509D01*
X514350Y252451D01*
X514294Y252395D01*
X514236Y252342D01*
X514175Y252293D01*
X514112Y252246D01*
X514046Y252203D01*
X513978Y252163D01*
X513909Y252127D01*
X513837Y252094D01*
X513764Y252065D01*
X513690Y252039D01*
X513614Y252018D01*
X513537Y252000D01*
X513460Y251986D01*
X513382Y251976D01*
X513304Y251970D01*
X513225Y251968D01*
X511672Y251968D01*
X517342Y256935D02*
X517342Y257556D01*
X520446Y257556D01*
X518894Y251968D01*
D11*
G36*
X538577Y331568D02*
X537517Y330508D01*
X535397Y332628D01*
X536457Y333688D01*
X538577Y331568D01*
G37*
G36*
X547062Y340053D02*
X546002Y338993D01*
X543882Y341113D01*
X544942Y342173D01*
X547062Y340053D01*
G37*
D13*
G36*
X543350Y336341D02*
X541229Y334220D01*
X539108Y336341D01*
X541229Y338462D01*
X543350Y336341D01*
G37*
D10*
X531550Y334050D02*
X527599Y330099D01*
X529355Y328342D01*
X530961Y326736D02*
X532717Y324980D01*
X530961Y326736D02*
X534912Y330688D01*
X536669Y328932D01*
X534473Y327614D02*
X533156Y328931D01*
X538267Y327333D02*
X534315Y323382D01*
X538267Y327333D02*
X539364Y326236D01*
X539364Y326235D02*
X539419Y326178D01*
X539470Y326119D01*
X539518Y326057D01*
X539563Y325992D01*
X539604Y325925D01*
X539643Y325857D01*
X539677Y325786D01*
X539708Y325714D01*
X539736Y325640D01*
X539759Y325565D01*
X539779Y325489D01*
X539795Y325412D01*
X539807Y325334D01*
X539815Y325256D01*
X539819Y325177D01*
X539819Y325099D01*
X539815Y325020D01*
X539807Y324942D01*
X539795Y324864D01*
X539779Y324787D01*
X539759Y324711D01*
X539736Y324636D01*
X539708Y324562D01*
X539677Y324490D01*
X539643Y324419D01*
X539604Y324351D01*
X539563Y324284D01*
X539518Y324219D01*
X539470Y324157D01*
X539419Y324098D01*
X539364Y324041D01*
X539364Y324040D02*
X537608Y322284D01*
X537608Y322285D02*
X537553Y322232D01*
X537496Y322182D01*
X537436Y322135D01*
X537373Y322092D01*
X537309Y322051D01*
X537243Y322013D01*
X537175Y321979D01*
X537105Y321948D01*
X537034Y321921D01*
X536962Y321897D01*
X536888Y321877D01*
X536814Y321860D01*
X536739Y321847D01*
X536663Y321837D01*
X536587Y321832D01*
X536511Y321830D01*
X536435Y321832D01*
X536359Y321837D01*
X536283Y321847D01*
X536208Y321860D01*
X536134Y321877D01*
X536060Y321897D01*
X535988Y321921D01*
X535917Y321948D01*
X535847Y321979D01*
X535779Y322013D01*
X535713Y322051D01*
X535649Y322092D01*
X535586Y322135D01*
X535526Y322182D01*
X535469Y322232D01*
X535414Y322285D01*
X535413Y322284D02*
X534315Y323382D01*
X539422Y320470D02*
X539479Y320525D01*
X539538Y320576D01*
X539600Y320624D01*
X539665Y320669D01*
X539732Y320710D01*
X539800Y320749D01*
X539871Y320783D01*
X539943Y320814D01*
X540017Y320842D01*
X540092Y320865D01*
X540168Y320885D01*
X540245Y320901D01*
X540323Y320913D01*
X540401Y320921D01*
X540480Y320925D01*
X540558Y320925D01*
X540637Y320921D01*
X540715Y320913D01*
X540793Y320901D01*
X540870Y320885D01*
X540946Y320865D01*
X541021Y320842D01*
X541095Y320814D01*
X541167Y320783D01*
X541238Y320749D01*
X541306Y320710D01*
X541373Y320669D01*
X541438Y320624D01*
X541500Y320576D01*
X541559Y320525D01*
X541616Y320470D01*
X541671Y320413D01*
X541722Y320354D01*
X541770Y320292D01*
X541815Y320227D01*
X541856Y320160D01*
X541895Y320092D01*
X541929Y320021D01*
X541960Y319949D01*
X541988Y319875D01*
X542011Y319800D01*
X542031Y319724D01*
X542047Y319647D01*
X542059Y319569D01*
X542067Y319491D01*
X542071Y319412D01*
X542071Y319334D01*
X542067Y319255D01*
X542059Y319177D01*
X542047Y319099D01*
X542031Y319022D01*
X542011Y318946D01*
X541988Y318871D01*
X541960Y318797D01*
X541929Y318725D01*
X541895Y318654D01*
X541856Y318586D01*
X541815Y318519D01*
X541770Y318454D01*
X541722Y318392D01*
X541671Y318333D01*
X541616Y318276D01*
X541560Y318222D01*
X541502Y318172D01*
X541441Y318124D01*
X541377Y318080D01*
X541312Y318039D01*
X541244Y318001D01*
X541175Y317966D01*
X541104Y317935D01*
X541032Y317908D01*
X540958Y317884D01*
X540883Y317864D01*
X540808Y317848D01*
X540731Y317836D01*
X540654Y317827D01*
X540577Y317822D01*
X540500Y317821D01*
X540422Y317824D01*
X540345Y317831D01*
X540269Y317841D01*
X540193Y317856D01*
X540117Y317874D01*
X540043Y317896D01*
X539970Y317921D01*
X539898Y317950D01*
X539828Y317983D01*
X539760Y318019D01*
X539693Y318059D01*
X539629Y318102D01*
X539567Y318148D01*
X539507Y318197D01*
X539449Y318249D01*
X539395Y318303D01*
X539343Y318361D01*
X539294Y318421D01*
X539248Y318483D01*
X539205Y318547D01*
X539165Y318614D01*
X539129Y318682D01*
X539096Y318752D01*
X539067Y318824D01*
X539042Y318897D01*
X539020Y318971D01*
X539002Y319047D01*
X538987Y319123D01*
X538977Y319199D01*
X538970Y319276D01*
X538967Y319354D01*
X538968Y319431D01*
X538973Y319508D01*
X538982Y319585D01*
X538994Y319662D01*
X539010Y319737D01*
X539030Y319812D01*
X539054Y319886D01*
X539081Y319958D01*
X539112Y320029D01*
X539147Y320098D01*
X539185Y320166D01*
X539226Y320231D01*
X539270Y320295D01*
X539318Y320356D01*
X539368Y320414D01*
X539422Y320470D01*
X541617Y322227D02*
X541667Y322275D01*
X541721Y322320D01*
X541776Y322362D01*
X541834Y322401D01*
X541894Y322436D01*
X541956Y322468D01*
X542020Y322496D01*
X542085Y322521D01*
X542151Y322542D01*
X542219Y322560D01*
X542287Y322573D01*
X542356Y322583D01*
X542425Y322589D01*
X542495Y322591D01*
X542565Y322589D01*
X542634Y322583D01*
X542703Y322573D01*
X542771Y322560D01*
X542839Y322542D01*
X542905Y322521D01*
X542970Y322496D01*
X543034Y322468D01*
X543096Y322436D01*
X543156Y322401D01*
X543214Y322362D01*
X543269Y322320D01*
X543323Y322275D01*
X543373Y322227D01*
X543421Y322177D01*
X543466Y322123D01*
X543508Y322068D01*
X543547Y322010D01*
X543582Y321950D01*
X543614Y321888D01*
X543642Y321824D01*
X543667Y321759D01*
X543688Y321693D01*
X543706Y321625D01*
X543719Y321557D01*
X543729Y321488D01*
X543735Y321419D01*
X543737Y321349D01*
X543735Y321279D01*
X543729Y321210D01*
X543719Y321141D01*
X543706Y321073D01*
X543688Y321005D01*
X543667Y320939D01*
X543642Y320874D01*
X543614Y320810D01*
X543582Y320748D01*
X543547Y320688D01*
X543508Y320630D01*
X543466Y320575D01*
X543421Y320521D01*
X543373Y320471D01*
X543323Y320423D01*
X543269Y320378D01*
X543214Y320336D01*
X543156Y320297D01*
X543096Y320262D01*
X543034Y320230D01*
X542970Y320202D01*
X542905Y320177D01*
X542839Y320156D01*
X542771Y320138D01*
X542703Y320125D01*
X542634Y320115D01*
X542565Y320109D01*
X542495Y320107D01*
X542425Y320109D01*
X542356Y320115D01*
X542287Y320125D01*
X542219Y320138D01*
X542151Y320156D01*
X542085Y320177D01*
X542020Y320202D01*
X541956Y320230D01*
X541894Y320262D01*
X541834Y320297D01*
X541776Y320336D01*
X541721Y320378D01*
X541667Y320423D01*
X541617Y320471D01*
X541569Y320521D01*
X541524Y320575D01*
X541482Y320630D01*
X541443Y320688D01*
X541408Y320748D01*
X541376Y320810D01*
X541348Y320874D01*
X541323Y320939D01*
X541302Y321005D01*
X541284Y321073D01*
X541271Y321141D01*
X541261Y321210D01*
X541255Y321279D01*
X541253Y321349D01*
X541255Y321419D01*
X541261Y321488D01*
X541271Y321557D01*
X541284Y321625D01*
X541302Y321693D01*
X541323Y321759D01*
X541348Y321824D01*
X541376Y321888D01*
X541408Y321950D01*
X541443Y322010D01*
X541482Y322068D01*
X541524Y322123D01*
X541569Y322177D01*
X541617Y322227D01*
X133604Y221742D02*
X133604Y216154D01*
X133604Y221742D02*
X135156Y221742D01*
X135233Y221740D01*
X135311Y221734D01*
X135387Y221725D01*
X135464Y221711D01*
X135539Y221694D01*
X135613Y221673D01*
X135687Y221648D01*
X135759Y221620D01*
X135829Y221588D01*
X135898Y221553D01*
X135965Y221514D01*
X136030Y221472D01*
X136093Y221427D01*
X136154Y221379D01*
X136212Y221328D01*
X136267Y221274D01*
X136320Y221217D01*
X136369Y221158D01*
X136416Y221096D01*
X136460Y221032D01*
X136500Y220966D01*
X136537Y220898D01*
X136571Y220828D01*
X136601Y220757D01*
X136627Y220684D01*
X136650Y220610D01*
X136669Y220535D01*
X136684Y220460D01*
X136696Y220383D01*
X136704Y220306D01*
X136708Y220229D01*
X136708Y220151D01*
X136704Y220074D01*
X136696Y219997D01*
X136684Y219920D01*
X136669Y219845D01*
X136650Y219770D01*
X136627Y219696D01*
X136601Y219623D01*
X136571Y219552D01*
X136537Y219482D01*
X136500Y219414D01*
X136460Y219348D01*
X136416Y219284D01*
X136369Y219222D01*
X136320Y219163D01*
X136267Y219106D01*
X136212Y219052D01*
X136154Y219001D01*
X136093Y218953D01*
X136030Y218908D01*
X135965Y218866D01*
X135898Y218827D01*
X135829Y218792D01*
X135759Y218760D01*
X135687Y218732D01*
X135613Y218707D01*
X135539Y218686D01*
X135464Y218669D01*
X135387Y218655D01*
X135311Y218646D01*
X135233Y218640D01*
X135156Y218638D01*
X133604Y218638D01*
X135467Y218638D02*
X136708Y216154D01*
X139054Y220500D02*
X140607Y221742D01*
X140607Y216154D01*
X142159Y216154D02*
X139054Y216154D01*
X557851Y301117D02*
X561802Y305068D01*
X562900Y303970D01*
X562899Y303970D02*
X562954Y303913D01*
X563005Y303854D01*
X563053Y303792D01*
X563098Y303727D01*
X563139Y303660D01*
X563178Y303592D01*
X563212Y303521D01*
X563243Y303449D01*
X563271Y303375D01*
X563294Y303300D01*
X563314Y303224D01*
X563330Y303147D01*
X563342Y303069D01*
X563350Y302991D01*
X563354Y302912D01*
X563354Y302834D01*
X563350Y302755D01*
X563342Y302677D01*
X563330Y302599D01*
X563314Y302522D01*
X563294Y302446D01*
X563271Y302371D01*
X563243Y302297D01*
X563212Y302225D01*
X563178Y302154D01*
X563139Y302086D01*
X563098Y302019D01*
X563053Y301954D01*
X563005Y301892D01*
X562954Y301833D01*
X562899Y301776D01*
X562842Y301721D01*
X562783Y301670D01*
X562721Y301622D01*
X562656Y301577D01*
X562589Y301536D01*
X562521Y301497D01*
X562450Y301463D01*
X562378Y301432D01*
X562304Y301404D01*
X562229Y301381D01*
X562153Y301361D01*
X562076Y301345D01*
X561998Y301333D01*
X561920Y301325D01*
X561841Y301321D01*
X561763Y301321D01*
X561684Y301325D01*
X561606Y301333D01*
X561528Y301345D01*
X561451Y301361D01*
X561375Y301381D01*
X561300Y301404D01*
X561226Y301432D01*
X561154Y301463D01*
X561083Y301497D01*
X561015Y301536D01*
X560948Y301577D01*
X560883Y301622D01*
X560821Y301670D01*
X560762Y301721D01*
X560705Y301776D01*
X560704Y301775D02*
X559607Y302873D01*
X560924Y301556D02*
X560046Y298922D01*
X564778Y300336D02*
X566754Y300117D01*
X562802Y296165D01*
X561705Y297263D02*
X563900Y295068D01*
X567560Y295359D02*
X567653Y295450D01*
X567750Y295539D01*
X567848Y295624D01*
X567949Y295707D01*
X568052Y295787D01*
X568158Y295863D01*
X568266Y295937D01*
X568375Y296008D01*
X568487Y296076D01*
X568601Y296140D01*
X568716Y296201D01*
X568833Y296259D01*
X568952Y296314D01*
X569072Y296365D01*
X569193Y296413D01*
X569316Y296457D01*
X569375Y296484D01*
X569435Y296507D01*
X569497Y296527D01*
X569560Y296544D01*
X569623Y296557D01*
X569687Y296566D01*
X569752Y296572D01*
X569816Y296574D01*
X569881Y296572D01*
X569946Y296567D01*
X570010Y296558D01*
X570073Y296546D01*
X570136Y296530D01*
X570198Y296510D01*
X570259Y296487D01*
X570318Y296461D01*
X570375Y296431D01*
X570431Y296399D01*
X570485Y296363D01*
X570537Y296324D01*
X570586Y296282D01*
X570633Y296237D01*
X570678Y296190D01*
X570720Y296141D01*
X570759Y296089D01*
X570795Y296035D01*
X570827Y295979D01*
X570857Y295922D01*
X570883Y295863D01*
X570906Y295802D01*
X570926Y295740D01*
X570942Y295677D01*
X570954Y295614D01*
X570963Y295550D01*
X570968Y295485D01*
X570970Y295420D01*
X570968Y295356D01*
X570962Y295291D01*
X570953Y295227D01*
X570940Y295164D01*
X570923Y295101D01*
X570903Y295039D01*
X570880Y294979D01*
X570853Y294920D01*
X570809Y294797D01*
X570761Y294676D01*
X570710Y294556D01*
X570655Y294437D01*
X570597Y294320D01*
X570536Y294205D01*
X570472Y294091D01*
X570404Y293979D01*
X570333Y293870D01*
X570259Y293762D01*
X570183Y293656D01*
X570103Y293553D01*
X570020Y293452D01*
X569935Y293354D01*
X569846Y293257D01*
X569755Y293164D01*
X567560Y295359D02*
X567469Y295266D01*
X567380Y295169D01*
X567295Y295071D01*
X567212Y294970D01*
X567132Y294867D01*
X567056Y294761D01*
X566982Y294653D01*
X566911Y294544D01*
X566843Y294432D01*
X566779Y294319D01*
X566718Y294203D01*
X566660Y294086D01*
X566605Y293968D01*
X566554Y293847D01*
X566506Y293726D01*
X566462Y293603D01*
X566435Y293544D01*
X566412Y293484D01*
X566392Y293422D01*
X566375Y293359D01*
X566362Y293296D01*
X566353Y293232D01*
X566347Y293167D01*
X566345Y293103D01*
X566347Y293038D01*
X566352Y292973D01*
X566361Y292909D01*
X566373Y292846D01*
X566389Y292783D01*
X566409Y292721D01*
X566432Y292660D01*
X566458Y292601D01*
X566488Y292544D01*
X566520Y292488D01*
X566556Y292434D01*
X566595Y292382D01*
X566637Y292333D01*
X566682Y292286D01*
X567998Y292066D02*
X568121Y292110D01*
X568243Y292158D01*
X568363Y292209D01*
X568482Y292264D01*
X568599Y292322D01*
X568714Y292383D01*
X568827Y292447D01*
X568939Y292515D01*
X569049Y292586D01*
X569157Y292659D01*
X569262Y292736D01*
X569365Y292816D01*
X569466Y292899D01*
X569565Y292984D01*
X569661Y293073D01*
X569755Y293164D01*
X567999Y292066D02*
X567940Y292039D01*
X567880Y292016D01*
X567818Y291996D01*
X567755Y291979D01*
X567692Y291966D01*
X567628Y291957D01*
X567563Y291951D01*
X567499Y291949D01*
X567434Y291951D01*
X567369Y291956D01*
X567305Y291965D01*
X567242Y291977D01*
X567179Y291993D01*
X567117Y292013D01*
X567056Y292036D01*
X566997Y292062D01*
X566940Y292092D01*
X566884Y292124D01*
X566830Y292160D01*
X566778Y292199D01*
X566729Y292241D01*
X566682Y292286D01*
X566682Y294042D02*
X570633Y294481D01*
X594868Y315214D02*
X600456Y315214D01*
X594868Y315214D02*
X594868Y316766D01*
X594870Y316843D01*
X594876Y316921D01*
X594885Y316997D01*
X594899Y317074D01*
X594916Y317149D01*
X594937Y317223D01*
X594962Y317297D01*
X594990Y317369D01*
X595022Y317439D01*
X595057Y317508D01*
X595096Y317575D01*
X595138Y317640D01*
X595183Y317703D01*
X595231Y317764D01*
X595282Y317822D01*
X595336Y317877D01*
X595393Y317930D01*
X595452Y317979D01*
X595514Y318026D01*
X595578Y318070D01*
X595644Y318110D01*
X595712Y318147D01*
X595782Y318181D01*
X595853Y318211D01*
X595926Y318237D01*
X596000Y318260D01*
X596075Y318279D01*
X596150Y318294D01*
X596227Y318306D01*
X596304Y318314D01*
X596381Y318318D01*
X596459Y318318D01*
X596536Y318314D01*
X596613Y318306D01*
X596690Y318294D01*
X596765Y318279D01*
X596840Y318260D01*
X596914Y318237D01*
X596987Y318211D01*
X597058Y318181D01*
X597128Y318147D01*
X597196Y318110D01*
X597262Y318070D01*
X597326Y318026D01*
X597388Y317979D01*
X597447Y317930D01*
X597504Y317877D01*
X597558Y317822D01*
X597609Y317764D01*
X597657Y317703D01*
X597702Y317640D01*
X597744Y317575D01*
X597783Y317508D01*
X597818Y317439D01*
X597850Y317369D01*
X597878Y317297D01*
X597903Y317223D01*
X597924Y317149D01*
X597941Y317074D01*
X597955Y316997D01*
X597964Y316921D01*
X597970Y316843D01*
X597972Y316766D01*
X597972Y315214D01*
X597972Y317077D02*
X600456Y318318D01*
X596110Y320664D02*
X594868Y322217D01*
X600456Y322217D01*
X600456Y323769D02*
X600456Y320664D01*
X596110Y326151D02*
X594868Y327703D01*
X600456Y327703D01*
X600456Y326151D02*
X600456Y329255D01*
X631548Y309791D02*
X635500Y305839D01*
X631548Y309791D02*
X632646Y310888D01*
X632703Y310943D01*
X632762Y310994D01*
X632824Y311042D01*
X632889Y311087D01*
X632956Y311128D01*
X633024Y311167D01*
X633095Y311201D01*
X633167Y311232D01*
X633241Y311260D01*
X633316Y311283D01*
X633392Y311303D01*
X633469Y311319D01*
X633547Y311331D01*
X633625Y311339D01*
X633704Y311343D01*
X633782Y311343D01*
X633861Y311339D01*
X633939Y311331D01*
X634017Y311319D01*
X634094Y311303D01*
X634170Y311283D01*
X634245Y311260D01*
X634319Y311232D01*
X634391Y311201D01*
X634462Y311167D01*
X634530Y311128D01*
X634597Y311087D01*
X634662Y311042D01*
X634724Y310994D01*
X634783Y310943D01*
X634840Y310888D01*
X634895Y310831D01*
X634946Y310772D01*
X634994Y310710D01*
X635039Y310645D01*
X635080Y310578D01*
X635119Y310510D01*
X635153Y310439D01*
X635184Y310367D01*
X635212Y310293D01*
X635235Y310218D01*
X635255Y310142D01*
X635271Y310065D01*
X635283Y309987D01*
X635291Y309909D01*
X635295Y309830D01*
X635295Y309752D01*
X635291Y309673D01*
X635283Y309595D01*
X635271Y309517D01*
X635255Y309440D01*
X635235Y309364D01*
X635212Y309289D01*
X635184Y309215D01*
X635153Y309143D01*
X635119Y309072D01*
X635080Y309004D01*
X635039Y308937D01*
X634994Y308872D01*
X634946Y308810D01*
X634895Y308751D01*
X634840Y308694D01*
X634841Y308693D02*
X633743Y307595D01*
X635061Y308913D02*
X637695Y308035D01*
X636280Y312766D02*
X636500Y314742D01*
X640451Y310791D01*
X639353Y309693D02*
X641549Y311888D01*
X642465Y318731D02*
X642412Y318781D01*
X642356Y318829D01*
X642298Y318873D01*
X642238Y318915D01*
X642175Y318953D01*
X642111Y318988D01*
X642045Y319019D01*
X641978Y319047D01*
X641909Y319072D01*
X641839Y319092D01*
X641767Y319109D01*
X641696Y319123D01*
X641623Y319132D01*
X641550Y319138D01*
X641477Y319140D01*
X641404Y319138D01*
X641331Y319132D01*
X641258Y319123D01*
X641187Y319109D01*
X641115Y319092D01*
X641045Y319072D01*
X640976Y319047D01*
X640909Y319019D01*
X640843Y318988D01*
X640779Y318953D01*
X640716Y318915D01*
X640656Y318873D01*
X640598Y318829D01*
X640542Y318781D01*
X640489Y318731D01*
X640431Y318671D01*
X640376Y318608D01*
X640324Y318542D01*
X640276Y318474D01*
X640230Y318404D01*
X640188Y318332D01*
X640149Y318258D01*
X640114Y318182D01*
X640082Y318105D01*
X640054Y318026D01*
X640029Y317946D01*
X640009Y317865D01*
X639992Y317783D01*
X639979Y317701D01*
X639970Y317617D01*
X639964Y317534D01*
X639963Y317450D01*
X639966Y317367D01*
X639972Y317283D01*
X639982Y317201D01*
X639996Y317118D01*
X640014Y317036D01*
X640036Y316956D01*
X640061Y316876D01*
X640090Y316798D01*
X640123Y316721D01*
X640159Y316645D01*
X642904Y317634D02*
X642903Y317709D01*
X642900Y317785D01*
X642892Y317861D01*
X642880Y317936D01*
X642865Y318010D01*
X642846Y318084D01*
X642823Y318156D01*
X642797Y318227D01*
X642767Y318297D01*
X642733Y318365D01*
X642696Y318432D01*
X642656Y318496D01*
X642613Y318559D01*
X642566Y318619D01*
X642517Y318676D01*
X642464Y318731D01*
X642904Y317634D02*
X643233Y313573D01*
X645428Y315768D01*
X650494Y281432D02*
X650494Y275844D01*
X650494Y281432D02*
X652046Y281432D01*
X652123Y281430D01*
X652201Y281424D01*
X652277Y281415D01*
X652354Y281401D01*
X652429Y281384D01*
X652503Y281363D01*
X652577Y281338D01*
X652649Y281310D01*
X652719Y281278D01*
X652788Y281243D01*
X652855Y281204D01*
X652920Y281162D01*
X652983Y281117D01*
X653044Y281069D01*
X653102Y281018D01*
X653157Y280964D01*
X653210Y280907D01*
X653259Y280848D01*
X653306Y280786D01*
X653350Y280722D01*
X653390Y280656D01*
X653427Y280588D01*
X653461Y280518D01*
X653491Y280447D01*
X653517Y280374D01*
X653540Y280300D01*
X653559Y280225D01*
X653574Y280150D01*
X653586Y280073D01*
X653594Y279996D01*
X653598Y279919D01*
X653598Y279841D01*
X653594Y279764D01*
X653586Y279687D01*
X653574Y279610D01*
X653559Y279535D01*
X653540Y279460D01*
X653517Y279386D01*
X653491Y279313D01*
X653461Y279242D01*
X653427Y279172D01*
X653390Y279104D01*
X653350Y279038D01*
X653306Y278974D01*
X653259Y278912D01*
X653210Y278853D01*
X653157Y278796D01*
X653102Y278742D01*
X653044Y278691D01*
X652983Y278643D01*
X652920Y278598D01*
X652855Y278556D01*
X652788Y278517D01*
X652719Y278482D01*
X652649Y278450D01*
X652577Y278422D01*
X652503Y278397D01*
X652429Y278376D01*
X652354Y278359D01*
X652277Y278345D01*
X652201Y278336D01*
X652123Y278330D01*
X652046Y278328D01*
X650494Y278328D01*
X652357Y278328D02*
X653598Y275844D01*
X655944Y280190D02*
X657497Y281432D01*
X657497Y275844D01*
X659049Y275844D02*
X655944Y275844D01*
X661431Y275844D02*
X662983Y275844D01*
X663060Y275846D01*
X663138Y275852D01*
X663214Y275861D01*
X663291Y275875D01*
X663366Y275892D01*
X663440Y275913D01*
X663514Y275938D01*
X663586Y275966D01*
X663656Y275998D01*
X663725Y276033D01*
X663792Y276072D01*
X663857Y276114D01*
X663920Y276159D01*
X663981Y276207D01*
X664039Y276258D01*
X664094Y276312D01*
X664147Y276369D01*
X664196Y276428D01*
X664243Y276490D01*
X664287Y276554D01*
X664327Y276620D01*
X664364Y276688D01*
X664398Y276758D01*
X664428Y276829D01*
X664454Y276902D01*
X664477Y276976D01*
X664496Y277051D01*
X664511Y277126D01*
X664523Y277203D01*
X664531Y277280D01*
X664535Y277357D01*
X664535Y277435D01*
X664531Y277512D01*
X664523Y277589D01*
X664511Y277666D01*
X664496Y277741D01*
X664477Y277816D01*
X664454Y277890D01*
X664428Y277963D01*
X664398Y278034D01*
X664364Y278104D01*
X664327Y278172D01*
X664287Y278238D01*
X664243Y278302D01*
X664196Y278364D01*
X664147Y278423D01*
X664094Y278480D01*
X664039Y278534D01*
X663981Y278585D01*
X663920Y278633D01*
X663857Y278678D01*
X663792Y278720D01*
X663725Y278759D01*
X663656Y278794D01*
X663586Y278826D01*
X663514Y278854D01*
X663440Y278879D01*
X663366Y278900D01*
X663291Y278917D01*
X663214Y278931D01*
X663138Y278940D01*
X663060Y278946D01*
X662983Y278948D01*
X663293Y281432D02*
X661431Y281432D01*
X663293Y281432D02*
X663363Y281430D01*
X663432Y281424D01*
X663501Y281414D01*
X663569Y281401D01*
X663637Y281383D01*
X663703Y281362D01*
X663768Y281337D01*
X663832Y281309D01*
X663894Y281277D01*
X663954Y281242D01*
X664012Y281203D01*
X664067Y281161D01*
X664121Y281116D01*
X664171Y281068D01*
X664219Y281018D01*
X664264Y280964D01*
X664306Y280909D01*
X664345Y280851D01*
X664380Y280791D01*
X664412Y280729D01*
X664440Y280665D01*
X664465Y280600D01*
X664486Y280534D01*
X664504Y280466D01*
X664517Y280398D01*
X664527Y280329D01*
X664533Y280260D01*
X664535Y280190D01*
X664533Y280120D01*
X664527Y280051D01*
X664517Y279982D01*
X664504Y279914D01*
X664486Y279846D01*
X664465Y279780D01*
X664440Y279715D01*
X664412Y279651D01*
X664380Y279589D01*
X664345Y279529D01*
X664306Y279471D01*
X664264Y279416D01*
X664219Y279362D01*
X664171Y279312D01*
X664121Y279264D01*
X664067Y279219D01*
X664012Y279177D01*
X663954Y279138D01*
X663894Y279103D01*
X663832Y279071D01*
X663768Y279043D01*
X663703Y279018D01*
X663637Y278997D01*
X663569Y278979D01*
X663501Y278966D01*
X663432Y278956D01*
X663363Y278950D01*
X663293Y278948D01*
X662052Y278948D01*
X352044Y94742D02*
X352044Y89154D01*
X352044Y94742D02*
X353596Y94742D01*
X353673Y94740D01*
X353751Y94734D01*
X353827Y94725D01*
X353904Y94711D01*
X353979Y94694D01*
X354053Y94673D01*
X354127Y94648D01*
X354199Y94620D01*
X354269Y94588D01*
X354338Y94553D01*
X354405Y94514D01*
X354470Y94472D01*
X354533Y94427D01*
X354594Y94379D01*
X354652Y94328D01*
X354707Y94274D01*
X354760Y94217D01*
X354809Y94158D01*
X354856Y94096D01*
X354900Y94032D01*
X354940Y93966D01*
X354977Y93898D01*
X355011Y93828D01*
X355041Y93757D01*
X355067Y93684D01*
X355090Y93610D01*
X355109Y93535D01*
X355124Y93460D01*
X355136Y93383D01*
X355144Y93306D01*
X355148Y93229D01*
X355148Y93151D01*
X355144Y93074D01*
X355136Y92997D01*
X355124Y92920D01*
X355109Y92845D01*
X355090Y92770D01*
X355067Y92696D01*
X355041Y92623D01*
X355011Y92552D01*
X354977Y92482D01*
X354940Y92414D01*
X354900Y92348D01*
X354856Y92284D01*
X354809Y92222D01*
X354760Y92163D01*
X354707Y92106D01*
X354652Y92052D01*
X354594Y92001D01*
X354533Y91953D01*
X354470Y91908D01*
X354405Y91866D01*
X354338Y91827D01*
X354269Y91792D01*
X354199Y91760D01*
X354127Y91732D01*
X354053Y91707D01*
X353979Y91686D01*
X353904Y91669D01*
X353827Y91655D01*
X353751Y91646D01*
X353673Y91640D01*
X353596Y91638D01*
X352044Y91638D01*
X353907Y91638D02*
X355148Y89154D01*
X357494Y93500D02*
X359047Y94742D01*
X359047Y89154D01*
X360599Y89154D02*
X357494Y89154D01*
X362981Y90396D02*
X364222Y94742D01*
X362981Y90396D02*
X366085Y90396D01*
X365154Y91638D02*
X365154Y89154D01*
X571232Y213822D02*
X575183Y209871D01*
X571232Y213822D02*
X572329Y214920D01*
X572330Y214919D02*
X572387Y214974D01*
X572446Y215025D01*
X572508Y215073D01*
X572573Y215118D01*
X572640Y215159D01*
X572708Y215198D01*
X572779Y215232D01*
X572851Y215263D01*
X572925Y215291D01*
X573000Y215314D01*
X573076Y215334D01*
X573153Y215350D01*
X573231Y215362D01*
X573309Y215370D01*
X573388Y215374D01*
X573466Y215374D01*
X573545Y215370D01*
X573623Y215362D01*
X573701Y215350D01*
X573778Y215334D01*
X573854Y215314D01*
X573929Y215291D01*
X574003Y215263D01*
X574075Y215232D01*
X574146Y215198D01*
X574214Y215159D01*
X574281Y215118D01*
X574346Y215073D01*
X574408Y215025D01*
X574467Y214974D01*
X574524Y214919D01*
X574579Y214862D01*
X574630Y214803D01*
X574678Y214741D01*
X574723Y214676D01*
X574764Y214609D01*
X574803Y214541D01*
X574837Y214470D01*
X574868Y214398D01*
X574896Y214324D01*
X574919Y214249D01*
X574939Y214173D01*
X574955Y214096D01*
X574967Y214018D01*
X574975Y213940D01*
X574979Y213861D01*
X574979Y213783D01*
X574975Y213704D01*
X574967Y213626D01*
X574955Y213548D01*
X574939Y213471D01*
X574919Y213395D01*
X574896Y213320D01*
X574868Y213246D01*
X574837Y213174D01*
X574803Y213103D01*
X574764Y213035D01*
X574723Y212968D01*
X574678Y212903D01*
X574630Y212841D01*
X574579Y212782D01*
X574524Y212725D01*
X574525Y212724D02*
X573427Y211627D01*
X574744Y212944D02*
X577378Y212066D01*
X575964Y216798D02*
X576183Y218774D01*
X580135Y214822D01*
X579037Y213725D02*
X581232Y215920D01*
X582916Y217604D02*
X584234Y218921D01*
X584233Y218921D02*
X584281Y218971D01*
X584326Y219025D01*
X584368Y219080D01*
X584407Y219138D01*
X584442Y219198D01*
X584474Y219260D01*
X584502Y219324D01*
X584527Y219389D01*
X584548Y219455D01*
X584566Y219523D01*
X584579Y219591D01*
X584589Y219660D01*
X584595Y219729D01*
X584597Y219799D01*
X584595Y219869D01*
X584589Y219938D01*
X584579Y220007D01*
X584566Y220075D01*
X584548Y220143D01*
X584527Y220209D01*
X584502Y220274D01*
X584474Y220338D01*
X584442Y220400D01*
X584407Y220460D01*
X584368Y220518D01*
X584326Y220573D01*
X584281Y220627D01*
X584233Y220677D01*
X584234Y220677D02*
X583794Y221116D01*
X583744Y221164D01*
X583690Y221209D01*
X583635Y221251D01*
X583577Y221290D01*
X583517Y221325D01*
X583455Y221357D01*
X583391Y221385D01*
X583326Y221410D01*
X583260Y221431D01*
X583192Y221449D01*
X583124Y221462D01*
X583055Y221472D01*
X582986Y221478D01*
X582916Y221480D01*
X582846Y221478D01*
X582777Y221472D01*
X582708Y221462D01*
X582640Y221449D01*
X582572Y221431D01*
X582506Y221410D01*
X582441Y221385D01*
X582377Y221357D01*
X582315Y221325D01*
X582255Y221290D01*
X582197Y221251D01*
X582142Y221209D01*
X582088Y221164D01*
X582038Y221116D01*
X580721Y219799D01*
X578965Y221555D01*
X581160Y223751D01*
X618744Y205415D02*
X624332Y205415D01*
X618744Y205415D02*
X618744Y206967D01*
X618746Y207044D01*
X618752Y207122D01*
X618761Y207198D01*
X618775Y207275D01*
X618792Y207350D01*
X618813Y207424D01*
X618838Y207498D01*
X618866Y207570D01*
X618898Y207640D01*
X618933Y207709D01*
X618972Y207776D01*
X619014Y207841D01*
X619059Y207904D01*
X619107Y207965D01*
X619158Y208023D01*
X619212Y208078D01*
X619269Y208131D01*
X619328Y208180D01*
X619390Y208227D01*
X619454Y208271D01*
X619520Y208311D01*
X619588Y208348D01*
X619658Y208382D01*
X619729Y208412D01*
X619802Y208438D01*
X619876Y208461D01*
X619951Y208480D01*
X620026Y208495D01*
X620103Y208507D01*
X620180Y208515D01*
X620257Y208519D01*
X620335Y208519D01*
X620412Y208515D01*
X620489Y208507D01*
X620566Y208495D01*
X620641Y208480D01*
X620716Y208461D01*
X620790Y208438D01*
X620863Y208412D01*
X620934Y208382D01*
X621004Y208348D01*
X621072Y208311D01*
X621138Y208271D01*
X621202Y208227D01*
X621264Y208180D01*
X621323Y208131D01*
X621380Y208078D01*
X621434Y208023D01*
X621485Y207965D01*
X621533Y207904D01*
X621578Y207841D01*
X621620Y207776D01*
X621659Y207709D01*
X621694Y207640D01*
X621726Y207570D01*
X621754Y207498D01*
X621779Y207424D01*
X621800Y207350D01*
X621817Y207275D01*
X621831Y207198D01*
X621840Y207122D01*
X621846Y207044D01*
X621848Y206967D01*
X621848Y205415D01*
X621848Y207278D02*
X624332Y208519D01*
X619986Y210865D02*
X618744Y212417D01*
X624332Y212417D01*
X624332Y210865D02*
X624332Y213970D01*
X621228Y216352D02*
X621228Y218214D01*
X621227Y218214D02*
X621229Y218284D01*
X621235Y218353D01*
X621245Y218422D01*
X621258Y218490D01*
X621276Y218558D01*
X621297Y218624D01*
X621322Y218689D01*
X621350Y218753D01*
X621382Y218815D01*
X621417Y218875D01*
X621456Y218933D01*
X621498Y218988D01*
X621543Y219042D01*
X621591Y219092D01*
X621641Y219140D01*
X621695Y219185D01*
X621750Y219227D01*
X621808Y219266D01*
X621868Y219301D01*
X621930Y219333D01*
X621994Y219361D01*
X622059Y219386D01*
X622125Y219407D01*
X622193Y219425D01*
X622261Y219438D01*
X622330Y219448D01*
X622399Y219454D01*
X622469Y219456D01*
X622780Y219456D01*
X622857Y219454D01*
X622935Y219448D01*
X623011Y219439D01*
X623088Y219425D01*
X623163Y219408D01*
X623237Y219387D01*
X623311Y219362D01*
X623383Y219334D01*
X623453Y219302D01*
X623522Y219267D01*
X623589Y219228D01*
X623654Y219186D01*
X623717Y219141D01*
X623778Y219093D01*
X623836Y219042D01*
X623891Y218988D01*
X623944Y218931D01*
X623993Y218872D01*
X624040Y218810D01*
X624084Y218746D01*
X624124Y218680D01*
X624161Y218612D01*
X624195Y218542D01*
X624225Y218471D01*
X624251Y218398D01*
X624274Y218324D01*
X624293Y218249D01*
X624308Y218174D01*
X624320Y218097D01*
X624328Y218020D01*
X624332Y217943D01*
X624332Y217865D01*
X624328Y217788D01*
X624320Y217711D01*
X624308Y217634D01*
X624293Y217559D01*
X624274Y217484D01*
X624251Y217410D01*
X624225Y217337D01*
X624195Y217266D01*
X624161Y217196D01*
X624124Y217128D01*
X624084Y217062D01*
X624040Y216998D01*
X623993Y216936D01*
X623944Y216877D01*
X623891Y216820D01*
X623836Y216766D01*
X623778Y216715D01*
X623717Y216667D01*
X623654Y216622D01*
X623589Y216580D01*
X623522Y216541D01*
X623453Y216506D01*
X623383Y216474D01*
X623311Y216446D01*
X623237Y216421D01*
X623163Y216400D01*
X623088Y216383D01*
X623011Y216369D01*
X622935Y216360D01*
X622857Y216354D01*
X622780Y216352D01*
X621228Y216352D01*
X621228Y216351D02*
X621130Y216353D01*
X621033Y216359D01*
X620936Y216368D01*
X620839Y216382D01*
X620743Y216399D01*
X620648Y216420D01*
X620554Y216444D01*
X620460Y216473D01*
X620368Y216505D01*
X620277Y216540D01*
X620188Y216579D01*
X620100Y216622D01*
X620014Y216668D01*
X619930Y216717D01*
X619848Y216770D01*
X619768Y216825D01*
X619690Y216884D01*
X619615Y216946D01*
X619542Y217011D01*
X619472Y217079D01*
X619404Y217149D01*
X619339Y217222D01*
X619277Y217297D01*
X619218Y217375D01*
X619163Y217455D01*
X619110Y217537D01*
X619061Y217621D01*
X619015Y217707D01*
X618972Y217795D01*
X618933Y217884D01*
X618898Y217975D01*
X618866Y218067D01*
X618837Y218161D01*
X618813Y218255D01*
X618792Y218350D01*
X618775Y218446D01*
X618761Y218543D01*
X618752Y218640D01*
X618746Y218737D01*
X618744Y218835D01*
X652549Y236990D02*
X656501Y240942D01*
X657598Y239844D01*
X657653Y239787D01*
X657704Y239728D01*
X657752Y239666D01*
X657797Y239601D01*
X657838Y239534D01*
X657877Y239466D01*
X657911Y239395D01*
X657942Y239323D01*
X657970Y239249D01*
X657993Y239174D01*
X658013Y239098D01*
X658029Y239021D01*
X658041Y238943D01*
X658049Y238865D01*
X658053Y238786D01*
X658053Y238708D01*
X658049Y238629D01*
X658041Y238551D01*
X658029Y238473D01*
X658013Y238396D01*
X657993Y238320D01*
X657970Y238245D01*
X657942Y238171D01*
X657911Y238099D01*
X657877Y238028D01*
X657838Y237960D01*
X657797Y237893D01*
X657752Y237828D01*
X657704Y237766D01*
X657653Y237707D01*
X657598Y237650D01*
X657541Y237595D01*
X657482Y237544D01*
X657420Y237496D01*
X657355Y237451D01*
X657288Y237410D01*
X657220Y237371D01*
X657149Y237337D01*
X657077Y237306D01*
X657003Y237278D01*
X656928Y237255D01*
X656852Y237235D01*
X656775Y237219D01*
X656697Y237207D01*
X656619Y237199D01*
X656540Y237195D01*
X656462Y237195D01*
X656383Y237199D01*
X656305Y237207D01*
X656227Y237219D01*
X656150Y237235D01*
X656074Y237255D01*
X655999Y237278D01*
X655925Y237306D01*
X655853Y237337D01*
X655782Y237371D01*
X655714Y237410D01*
X655647Y237451D01*
X655582Y237496D01*
X655520Y237544D01*
X655461Y237595D01*
X655404Y237650D01*
X655403Y237649D02*
X654305Y238746D01*
X655623Y237429D02*
X654745Y234795D01*
X659476Y236210D02*
X661452Y235990D01*
X657501Y232039D01*
X656403Y233136D02*
X658598Y230941D01*
X663795Y232769D02*
X664234Y233208D01*
X666429Y231013D01*
X661380Y228159D01*
X101346Y235204D02*
X95758Y235204D01*
X95758Y236756D01*
X95760Y236833D01*
X95766Y236911D01*
X95775Y236987D01*
X95789Y237064D01*
X95806Y237139D01*
X95827Y237213D01*
X95852Y237287D01*
X95880Y237359D01*
X95912Y237429D01*
X95947Y237498D01*
X95986Y237565D01*
X96028Y237630D01*
X96073Y237693D01*
X96121Y237754D01*
X96172Y237812D01*
X96226Y237867D01*
X96283Y237920D01*
X96342Y237969D01*
X96404Y238016D01*
X96468Y238060D01*
X96534Y238100D01*
X96602Y238137D01*
X96672Y238171D01*
X96743Y238201D01*
X96816Y238227D01*
X96890Y238250D01*
X96965Y238269D01*
X97040Y238284D01*
X97117Y238296D01*
X97194Y238304D01*
X97271Y238308D01*
X97349Y238308D01*
X97426Y238304D01*
X97503Y238296D01*
X97580Y238284D01*
X97655Y238269D01*
X97730Y238250D01*
X97804Y238227D01*
X97877Y238201D01*
X97948Y238171D01*
X98018Y238137D01*
X98086Y238100D01*
X98152Y238060D01*
X98216Y238016D01*
X98278Y237969D01*
X98337Y237920D01*
X98394Y237867D01*
X98448Y237812D01*
X98499Y237754D01*
X98547Y237693D01*
X98592Y237630D01*
X98634Y237565D01*
X98673Y237498D01*
X98708Y237429D01*
X98740Y237359D01*
X98768Y237287D01*
X98793Y237213D01*
X98814Y237139D01*
X98831Y237064D01*
X98845Y236987D01*
X98854Y236911D01*
X98860Y236833D01*
X98862Y236756D01*
X98862Y235204D01*
X98862Y237067D02*
X101346Y238308D01*
X97155Y243759D02*
X97082Y243757D01*
X97009Y243751D01*
X96936Y243742D01*
X96865Y243728D01*
X96793Y243711D01*
X96723Y243691D01*
X96654Y243666D01*
X96587Y243638D01*
X96521Y243607D01*
X96457Y243572D01*
X96394Y243534D01*
X96334Y243492D01*
X96276Y243448D01*
X96220Y243400D01*
X96167Y243350D01*
X96117Y243297D01*
X96069Y243241D01*
X96025Y243183D01*
X95983Y243123D01*
X95945Y243061D01*
X95910Y242996D01*
X95879Y242930D01*
X95851Y242863D01*
X95826Y242794D01*
X95806Y242724D01*
X95789Y242652D01*
X95775Y242581D01*
X95766Y242508D01*
X95760Y242435D01*
X95758Y242362D01*
X95760Y242278D01*
X95766Y242195D01*
X95775Y242112D01*
X95789Y242029D01*
X95806Y241948D01*
X95828Y241867D01*
X95853Y241787D01*
X95881Y241709D01*
X95913Y241631D01*
X95949Y241556D01*
X95988Y241482D01*
X96031Y241410D01*
X96077Y241340D01*
X96126Y241273D01*
X96179Y241207D01*
X96234Y241145D01*
X96292Y241085D01*
X96353Y241027D01*
X96416Y240973D01*
X96482Y240921D01*
X96550Y240873D01*
X96621Y240828D01*
X96693Y240786D01*
X96768Y240748D01*
X96844Y240713D01*
X96921Y240682D01*
X97000Y240654D01*
X98241Y243292D02*
X98188Y243346D01*
X98131Y243397D01*
X98072Y243445D01*
X98011Y243490D01*
X97948Y243531D01*
X97882Y243570D01*
X97815Y243605D01*
X97746Y243637D01*
X97675Y243665D01*
X97604Y243689D01*
X97531Y243710D01*
X97457Y243727D01*
X97382Y243741D01*
X97307Y243750D01*
X97231Y243756D01*
X97155Y243758D01*
X98242Y243293D02*
X101346Y240654D01*
X101346Y243759D01*
X355681Y114046D02*
X355681Y108458D01*
X355681Y114046D02*
X357234Y114046D01*
X357311Y114044D01*
X357389Y114038D01*
X357465Y114029D01*
X357542Y114015D01*
X357617Y113998D01*
X357691Y113977D01*
X357765Y113952D01*
X357837Y113924D01*
X357907Y113892D01*
X357976Y113857D01*
X358043Y113818D01*
X358108Y113776D01*
X358171Y113731D01*
X358232Y113683D01*
X358290Y113632D01*
X358345Y113578D01*
X358398Y113521D01*
X358447Y113462D01*
X358494Y113400D01*
X358538Y113336D01*
X358578Y113270D01*
X358615Y113202D01*
X358649Y113132D01*
X358679Y113061D01*
X358705Y112988D01*
X358728Y112914D01*
X358747Y112839D01*
X358762Y112764D01*
X358774Y112687D01*
X358782Y112610D01*
X358786Y112533D01*
X358786Y112455D01*
X358782Y112378D01*
X358774Y112301D01*
X358762Y112224D01*
X358747Y112149D01*
X358728Y112074D01*
X358705Y112000D01*
X358679Y111927D01*
X358649Y111856D01*
X358615Y111786D01*
X358578Y111718D01*
X358538Y111652D01*
X358494Y111588D01*
X358447Y111526D01*
X358398Y111467D01*
X358345Y111410D01*
X358290Y111356D01*
X358232Y111305D01*
X358171Y111257D01*
X358108Y111212D01*
X358043Y111170D01*
X357976Y111131D01*
X357907Y111096D01*
X357837Y111064D01*
X357765Y111036D01*
X357691Y111011D01*
X357617Y110990D01*
X357542Y110973D01*
X357465Y110959D01*
X357389Y110950D01*
X357311Y110944D01*
X357234Y110942D01*
X355681Y110942D01*
X357544Y110942D02*
X358786Y108458D01*
X361132Y108458D02*
X362684Y108458D01*
X362761Y108460D01*
X362839Y108466D01*
X362915Y108475D01*
X362992Y108489D01*
X363067Y108506D01*
X363141Y108527D01*
X363215Y108552D01*
X363287Y108580D01*
X363357Y108612D01*
X363426Y108647D01*
X363493Y108686D01*
X363558Y108728D01*
X363621Y108773D01*
X363682Y108821D01*
X363740Y108872D01*
X363795Y108926D01*
X363848Y108983D01*
X363897Y109042D01*
X363944Y109104D01*
X363988Y109168D01*
X364028Y109234D01*
X364065Y109302D01*
X364099Y109372D01*
X364129Y109443D01*
X364155Y109516D01*
X364178Y109590D01*
X364197Y109665D01*
X364212Y109740D01*
X364224Y109817D01*
X364232Y109894D01*
X364236Y109971D01*
X364236Y110049D01*
X364232Y110126D01*
X364224Y110203D01*
X364212Y110280D01*
X364197Y110355D01*
X364178Y110430D01*
X364155Y110504D01*
X364129Y110577D01*
X364099Y110648D01*
X364065Y110718D01*
X364028Y110786D01*
X363988Y110852D01*
X363944Y110916D01*
X363897Y110978D01*
X363848Y111037D01*
X363795Y111094D01*
X363740Y111148D01*
X363682Y111199D01*
X363621Y111247D01*
X363558Y111292D01*
X363493Y111334D01*
X363426Y111373D01*
X363357Y111408D01*
X363287Y111440D01*
X363215Y111468D01*
X363141Y111493D01*
X363067Y111514D01*
X362992Y111531D01*
X362915Y111545D01*
X362839Y111554D01*
X362761Y111560D01*
X362684Y111562D01*
X362994Y114046D02*
X361132Y114046D01*
X362994Y114046D02*
X363064Y114044D01*
X363133Y114038D01*
X363202Y114028D01*
X363270Y114015D01*
X363338Y113997D01*
X363404Y113976D01*
X363469Y113951D01*
X363533Y113923D01*
X363595Y113891D01*
X363655Y113856D01*
X363713Y113817D01*
X363768Y113775D01*
X363822Y113730D01*
X363872Y113682D01*
X363920Y113632D01*
X363965Y113578D01*
X364007Y113523D01*
X364046Y113465D01*
X364081Y113405D01*
X364113Y113343D01*
X364141Y113279D01*
X364166Y113214D01*
X364187Y113148D01*
X364205Y113080D01*
X364218Y113012D01*
X364228Y112943D01*
X364234Y112874D01*
X364236Y112804D01*
X364234Y112734D01*
X364228Y112665D01*
X364218Y112596D01*
X364205Y112528D01*
X364187Y112460D01*
X364166Y112394D01*
X364141Y112329D01*
X364113Y112265D01*
X364081Y112203D01*
X364046Y112143D01*
X364007Y112085D01*
X363965Y112030D01*
X363920Y111976D01*
X363872Y111926D01*
X363822Y111878D01*
X363768Y111833D01*
X363713Y111791D01*
X363655Y111752D01*
X363595Y111717D01*
X363533Y111685D01*
X363469Y111657D01*
X363404Y111632D01*
X363338Y111611D01*
X363270Y111593D01*
X363202Y111580D01*
X363133Y111570D01*
X363064Y111564D01*
X362994Y111562D01*
X361752Y111562D01*
X209804Y165354D02*
X209804Y170942D01*
X211356Y170942D01*
X211433Y170940D01*
X211511Y170934D01*
X211587Y170925D01*
X211664Y170911D01*
X211739Y170894D01*
X211813Y170873D01*
X211887Y170848D01*
X211959Y170820D01*
X212029Y170788D01*
X212098Y170753D01*
X212165Y170714D01*
X212230Y170672D01*
X212293Y170627D01*
X212354Y170579D01*
X212412Y170528D01*
X212467Y170474D01*
X212520Y170417D01*
X212569Y170358D01*
X212616Y170296D01*
X212660Y170232D01*
X212700Y170166D01*
X212737Y170098D01*
X212771Y170028D01*
X212801Y169957D01*
X212827Y169884D01*
X212850Y169810D01*
X212869Y169735D01*
X212884Y169660D01*
X212896Y169583D01*
X212904Y169506D01*
X212908Y169429D01*
X212908Y169351D01*
X212904Y169274D01*
X212896Y169197D01*
X212884Y169120D01*
X212869Y169045D01*
X212850Y168970D01*
X212827Y168896D01*
X212801Y168823D01*
X212771Y168752D01*
X212737Y168682D01*
X212700Y168614D01*
X212660Y168548D01*
X212616Y168484D01*
X212569Y168422D01*
X212520Y168363D01*
X212467Y168306D01*
X212412Y168252D01*
X212354Y168201D01*
X212293Y168153D01*
X212230Y168108D01*
X212165Y168066D01*
X212098Y168027D01*
X212029Y167992D01*
X211959Y167960D01*
X211887Y167932D01*
X211813Y167907D01*
X211739Y167886D01*
X211664Y167869D01*
X211587Y167855D01*
X211511Y167846D01*
X211433Y167840D01*
X211356Y167838D01*
X209804Y167838D01*
X211667Y167838D02*
X212908Y165354D01*
X215254Y166596D02*
X216496Y170942D01*
X215254Y166596D02*
X218359Y166596D01*
X217427Y167838D02*
X217427Y165354D01*
X264241Y139446D02*
X264241Y133858D01*
X264241Y139446D02*
X265794Y139446D01*
X265871Y139444D01*
X265949Y139438D01*
X266025Y139429D01*
X266102Y139415D01*
X266177Y139398D01*
X266251Y139377D01*
X266325Y139352D01*
X266397Y139324D01*
X266467Y139292D01*
X266536Y139257D01*
X266603Y139218D01*
X266668Y139176D01*
X266731Y139131D01*
X266792Y139083D01*
X266850Y139032D01*
X266905Y138978D01*
X266958Y138921D01*
X267007Y138862D01*
X267054Y138800D01*
X267098Y138736D01*
X267138Y138670D01*
X267175Y138602D01*
X267209Y138532D01*
X267239Y138461D01*
X267265Y138388D01*
X267288Y138314D01*
X267307Y138239D01*
X267322Y138164D01*
X267334Y138087D01*
X267342Y138010D01*
X267346Y137933D01*
X267346Y137855D01*
X267342Y137778D01*
X267334Y137701D01*
X267322Y137624D01*
X267307Y137549D01*
X267288Y137474D01*
X267265Y137400D01*
X267239Y137327D01*
X267209Y137256D01*
X267175Y137186D01*
X267138Y137118D01*
X267098Y137052D01*
X267054Y136988D01*
X267007Y136926D01*
X266958Y136867D01*
X266905Y136810D01*
X266850Y136756D01*
X266792Y136705D01*
X266731Y136657D01*
X266668Y136612D01*
X266603Y136570D01*
X266536Y136531D01*
X266467Y136496D01*
X266397Y136464D01*
X266325Y136436D01*
X266251Y136411D01*
X266177Y136390D01*
X266102Y136373D01*
X266025Y136359D01*
X265949Y136350D01*
X265871Y136344D01*
X265794Y136342D01*
X264241Y136342D01*
X266104Y136342D02*
X267346Y133858D01*
X269692Y133858D02*
X271554Y133858D01*
X271624Y133860D01*
X271693Y133866D01*
X271762Y133876D01*
X271830Y133889D01*
X271898Y133907D01*
X271964Y133928D01*
X272029Y133953D01*
X272093Y133981D01*
X272155Y134013D01*
X272215Y134048D01*
X272273Y134087D01*
X272328Y134129D01*
X272382Y134174D01*
X272432Y134222D01*
X272480Y134272D01*
X272525Y134326D01*
X272567Y134381D01*
X272606Y134439D01*
X272641Y134499D01*
X272673Y134561D01*
X272701Y134625D01*
X272726Y134690D01*
X272747Y134756D01*
X272765Y134824D01*
X272778Y134892D01*
X272788Y134961D01*
X272794Y135030D01*
X272796Y135100D01*
X272796Y135721D01*
X272794Y135791D01*
X272788Y135860D01*
X272778Y135929D01*
X272765Y135997D01*
X272747Y136065D01*
X272726Y136131D01*
X272701Y136196D01*
X272673Y136260D01*
X272641Y136322D01*
X272606Y136382D01*
X272567Y136440D01*
X272525Y136495D01*
X272480Y136549D01*
X272432Y136599D01*
X272382Y136647D01*
X272328Y136692D01*
X272273Y136734D01*
X272215Y136773D01*
X272155Y136808D01*
X272093Y136840D01*
X272029Y136868D01*
X271964Y136893D01*
X271898Y136914D01*
X271830Y136932D01*
X271762Y136945D01*
X271693Y136955D01*
X271624Y136961D01*
X271554Y136963D01*
X271554Y136962D02*
X269692Y136962D01*
X269692Y139446D01*
X272796Y139446D01*
X421721Y264668D02*
X421721Y270256D01*
X423274Y270256D01*
X423351Y270254D01*
X423429Y270248D01*
X423505Y270239D01*
X423582Y270225D01*
X423657Y270208D01*
X423731Y270187D01*
X423805Y270162D01*
X423877Y270134D01*
X423947Y270102D01*
X424016Y270067D01*
X424083Y270028D01*
X424148Y269986D01*
X424211Y269941D01*
X424272Y269893D01*
X424330Y269842D01*
X424385Y269788D01*
X424438Y269731D01*
X424487Y269672D01*
X424534Y269610D01*
X424578Y269546D01*
X424618Y269480D01*
X424655Y269412D01*
X424689Y269342D01*
X424719Y269271D01*
X424745Y269198D01*
X424768Y269124D01*
X424787Y269049D01*
X424802Y268974D01*
X424814Y268897D01*
X424822Y268820D01*
X424826Y268743D01*
X424826Y268665D01*
X424822Y268588D01*
X424814Y268511D01*
X424802Y268434D01*
X424787Y268359D01*
X424768Y268284D01*
X424745Y268210D01*
X424719Y268137D01*
X424689Y268066D01*
X424655Y267996D01*
X424618Y267928D01*
X424578Y267862D01*
X424534Y267798D01*
X424487Y267736D01*
X424438Y267677D01*
X424385Y267620D01*
X424330Y267566D01*
X424272Y267515D01*
X424211Y267467D01*
X424148Y267422D01*
X424083Y267380D01*
X424016Y267341D01*
X423947Y267306D01*
X423877Y267274D01*
X423805Y267246D01*
X423731Y267221D01*
X423657Y267200D01*
X423582Y267183D01*
X423505Y267169D01*
X423429Y267160D01*
X423351Y267154D01*
X423274Y267152D01*
X421721Y267152D01*
X423584Y267152D02*
X424826Y264668D01*
X427172Y267772D02*
X429034Y267772D01*
X429034Y267773D02*
X429104Y267771D01*
X429173Y267765D01*
X429242Y267755D01*
X429310Y267742D01*
X429378Y267724D01*
X429444Y267703D01*
X429509Y267678D01*
X429573Y267650D01*
X429635Y267618D01*
X429695Y267583D01*
X429753Y267544D01*
X429808Y267502D01*
X429862Y267457D01*
X429912Y267409D01*
X429960Y267359D01*
X430005Y267305D01*
X430047Y267250D01*
X430086Y267192D01*
X430121Y267132D01*
X430153Y267070D01*
X430181Y267006D01*
X430206Y266941D01*
X430227Y266875D01*
X430245Y266807D01*
X430258Y266739D01*
X430268Y266670D01*
X430274Y266601D01*
X430276Y266531D01*
X430276Y266220D01*
X430274Y266143D01*
X430268Y266065D01*
X430259Y265989D01*
X430245Y265912D01*
X430228Y265837D01*
X430207Y265763D01*
X430182Y265689D01*
X430154Y265617D01*
X430122Y265547D01*
X430087Y265478D01*
X430048Y265411D01*
X430006Y265346D01*
X429961Y265283D01*
X429913Y265222D01*
X429862Y265164D01*
X429808Y265109D01*
X429751Y265056D01*
X429692Y265007D01*
X429630Y264960D01*
X429566Y264916D01*
X429500Y264876D01*
X429432Y264839D01*
X429362Y264805D01*
X429291Y264775D01*
X429218Y264749D01*
X429144Y264726D01*
X429069Y264707D01*
X428994Y264692D01*
X428917Y264680D01*
X428840Y264672D01*
X428763Y264668D01*
X428685Y264668D01*
X428608Y264672D01*
X428531Y264680D01*
X428454Y264692D01*
X428379Y264707D01*
X428304Y264726D01*
X428230Y264749D01*
X428157Y264775D01*
X428086Y264805D01*
X428016Y264839D01*
X427948Y264876D01*
X427882Y264916D01*
X427818Y264960D01*
X427756Y265007D01*
X427697Y265056D01*
X427640Y265109D01*
X427586Y265164D01*
X427535Y265222D01*
X427487Y265283D01*
X427442Y265346D01*
X427400Y265411D01*
X427361Y265478D01*
X427326Y265547D01*
X427294Y265617D01*
X427266Y265689D01*
X427241Y265763D01*
X427220Y265837D01*
X427203Y265912D01*
X427189Y265989D01*
X427180Y266065D01*
X427174Y266143D01*
X427172Y266220D01*
X427172Y267772D01*
X427171Y267772D02*
X427173Y267870D01*
X427179Y267967D01*
X427188Y268064D01*
X427202Y268161D01*
X427219Y268257D01*
X427240Y268352D01*
X427264Y268446D01*
X427293Y268540D01*
X427325Y268632D01*
X427360Y268723D01*
X427399Y268812D01*
X427442Y268900D01*
X427488Y268986D01*
X427537Y269070D01*
X427590Y269152D01*
X427645Y269232D01*
X427704Y269310D01*
X427766Y269385D01*
X427831Y269458D01*
X427899Y269528D01*
X427969Y269596D01*
X428042Y269661D01*
X428117Y269723D01*
X428195Y269782D01*
X428275Y269837D01*
X428357Y269890D01*
X428441Y269939D01*
X428527Y269985D01*
X428615Y270028D01*
X428704Y270067D01*
X428795Y270102D01*
X428887Y270134D01*
X428981Y270163D01*
X429075Y270187D01*
X429170Y270208D01*
X429266Y270225D01*
X429363Y270239D01*
X429460Y270248D01*
X429557Y270254D01*
X429655Y270256D01*
X422991Y206756D02*
X422991Y201168D01*
X422991Y206756D02*
X424544Y206756D01*
X424621Y206754D01*
X424699Y206748D01*
X424775Y206739D01*
X424852Y206725D01*
X424927Y206708D01*
X425001Y206687D01*
X425075Y206662D01*
X425147Y206634D01*
X425217Y206602D01*
X425286Y206567D01*
X425353Y206528D01*
X425418Y206486D01*
X425481Y206441D01*
X425542Y206393D01*
X425600Y206342D01*
X425655Y206288D01*
X425708Y206231D01*
X425757Y206172D01*
X425804Y206110D01*
X425848Y206046D01*
X425888Y205980D01*
X425925Y205912D01*
X425959Y205842D01*
X425989Y205771D01*
X426015Y205698D01*
X426038Y205624D01*
X426057Y205549D01*
X426072Y205474D01*
X426084Y205397D01*
X426092Y205320D01*
X426096Y205243D01*
X426096Y205165D01*
X426092Y205088D01*
X426084Y205011D01*
X426072Y204934D01*
X426057Y204859D01*
X426038Y204784D01*
X426015Y204710D01*
X425989Y204637D01*
X425959Y204566D01*
X425925Y204496D01*
X425888Y204428D01*
X425848Y204362D01*
X425804Y204298D01*
X425757Y204236D01*
X425708Y204177D01*
X425655Y204120D01*
X425600Y204066D01*
X425542Y204015D01*
X425481Y203967D01*
X425418Y203922D01*
X425353Y203880D01*
X425286Y203841D01*
X425217Y203806D01*
X425147Y203774D01*
X425075Y203746D01*
X425001Y203721D01*
X424927Y203700D01*
X424852Y203683D01*
X424775Y203669D01*
X424699Y203660D01*
X424621Y203654D01*
X424544Y203652D01*
X422991Y203652D01*
X424854Y203652D02*
X426096Y201168D01*
X428442Y206135D02*
X428442Y206756D01*
X431546Y206756D01*
X429994Y201168D01*
X349504Y179832D02*
X349504Y174244D01*
X349504Y179832D02*
X351056Y179832D01*
X351133Y179830D01*
X351211Y179824D01*
X351287Y179815D01*
X351364Y179801D01*
X351439Y179784D01*
X351513Y179763D01*
X351587Y179738D01*
X351659Y179710D01*
X351729Y179678D01*
X351798Y179643D01*
X351865Y179604D01*
X351930Y179562D01*
X351993Y179517D01*
X352054Y179469D01*
X352112Y179418D01*
X352167Y179364D01*
X352220Y179307D01*
X352269Y179248D01*
X352316Y179186D01*
X352360Y179122D01*
X352400Y179056D01*
X352437Y178988D01*
X352471Y178918D01*
X352501Y178847D01*
X352527Y178774D01*
X352550Y178700D01*
X352569Y178625D01*
X352584Y178550D01*
X352596Y178473D01*
X352604Y178396D01*
X352608Y178319D01*
X352608Y178241D01*
X352604Y178164D01*
X352596Y178087D01*
X352584Y178010D01*
X352569Y177935D01*
X352550Y177860D01*
X352527Y177786D01*
X352501Y177713D01*
X352471Y177642D01*
X352437Y177572D01*
X352400Y177504D01*
X352360Y177438D01*
X352316Y177374D01*
X352269Y177312D01*
X352220Y177253D01*
X352167Y177196D01*
X352112Y177142D01*
X352054Y177091D01*
X351993Y177043D01*
X351930Y176998D01*
X351865Y176956D01*
X351798Y176917D01*
X351729Y176882D01*
X351659Y176850D01*
X351587Y176822D01*
X351513Y176797D01*
X351439Y176776D01*
X351364Y176759D01*
X351287Y176745D01*
X351211Y176736D01*
X351133Y176730D01*
X351056Y176728D01*
X349504Y176728D01*
X351367Y176728D02*
X352608Y174244D01*
X354955Y175796D02*
X354957Y175873D01*
X354963Y175951D01*
X354972Y176027D01*
X354986Y176104D01*
X355003Y176179D01*
X355024Y176253D01*
X355049Y176327D01*
X355077Y176399D01*
X355109Y176469D01*
X355144Y176538D01*
X355183Y176605D01*
X355225Y176670D01*
X355270Y176733D01*
X355318Y176794D01*
X355369Y176852D01*
X355423Y176907D01*
X355480Y176960D01*
X355539Y177009D01*
X355601Y177056D01*
X355665Y177100D01*
X355731Y177140D01*
X355799Y177177D01*
X355869Y177211D01*
X355940Y177241D01*
X356013Y177267D01*
X356087Y177290D01*
X356162Y177309D01*
X356237Y177324D01*
X356314Y177336D01*
X356391Y177344D01*
X356468Y177348D01*
X356546Y177348D01*
X356623Y177344D01*
X356700Y177336D01*
X356777Y177324D01*
X356852Y177309D01*
X356927Y177290D01*
X357001Y177267D01*
X357074Y177241D01*
X357145Y177211D01*
X357215Y177177D01*
X357283Y177140D01*
X357349Y177100D01*
X357413Y177056D01*
X357475Y177009D01*
X357534Y176960D01*
X357591Y176907D01*
X357645Y176852D01*
X357696Y176794D01*
X357744Y176733D01*
X357789Y176670D01*
X357831Y176605D01*
X357870Y176538D01*
X357905Y176469D01*
X357937Y176399D01*
X357965Y176327D01*
X357990Y176253D01*
X358011Y176179D01*
X358028Y176104D01*
X358042Y176027D01*
X358051Y175951D01*
X358057Y175873D01*
X358059Y175796D01*
X358057Y175719D01*
X358051Y175641D01*
X358042Y175565D01*
X358028Y175488D01*
X358011Y175413D01*
X357990Y175339D01*
X357965Y175265D01*
X357937Y175193D01*
X357905Y175123D01*
X357870Y175054D01*
X357831Y174987D01*
X357789Y174922D01*
X357744Y174859D01*
X357696Y174798D01*
X357645Y174740D01*
X357591Y174685D01*
X357534Y174632D01*
X357475Y174583D01*
X357413Y174536D01*
X357349Y174492D01*
X357283Y174452D01*
X357215Y174415D01*
X357145Y174381D01*
X357074Y174351D01*
X357001Y174325D01*
X356927Y174302D01*
X356852Y174283D01*
X356777Y174268D01*
X356700Y174256D01*
X356623Y174248D01*
X356546Y174244D01*
X356468Y174244D01*
X356391Y174248D01*
X356314Y174256D01*
X356237Y174268D01*
X356162Y174283D01*
X356087Y174302D01*
X356013Y174325D01*
X355940Y174351D01*
X355869Y174381D01*
X355799Y174415D01*
X355731Y174452D01*
X355665Y174492D01*
X355601Y174536D01*
X355539Y174583D01*
X355480Y174632D01*
X355423Y174685D01*
X355369Y174740D01*
X355318Y174798D01*
X355270Y174859D01*
X355225Y174922D01*
X355183Y174987D01*
X355144Y175054D01*
X355109Y175123D01*
X355077Y175193D01*
X355049Y175265D01*
X355024Y175339D01*
X355003Y175413D01*
X354986Y175488D01*
X354972Y175565D01*
X354963Y175641D01*
X354957Y175719D01*
X354955Y175796D01*
X355265Y178590D02*
X355267Y178660D01*
X355273Y178729D01*
X355283Y178798D01*
X355296Y178866D01*
X355314Y178934D01*
X355335Y179000D01*
X355360Y179065D01*
X355388Y179129D01*
X355420Y179191D01*
X355455Y179251D01*
X355494Y179309D01*
X355536Y179364D01*
X355581Y179418D01*
X355629Y179468D01*
X355679Y179516D01*
X355733Y179561D01*
X355788Y179603D01*
X355846Y179642D01*
X355906Y179677D01*
X355968Y179709D01*
X356032Y179737D01*
X356097Y179762D01*
X356163Y179783D01*
X356231Y179801D01*
X356299Y179814D01*
X356368Y179824D01*
X356437Y179830D01*
X356507Y179832D01*
X356577Y179830D01*
X356646Y179824D01*
X356715Y179814D01*
X356783Y179801D01*
X356851Y179783D01*
X356917Y179762D01*
X356982Y179737D01*
X357046Y179709D01*
X357108Y179677D01*
X357168Y179642D01*
X357226Y179603D01*
X357281Y179561D01*
X357335Y179516D01*
X357385Y179468D01*
X357433Y179418D01*
X357478Y179364D01*
X357520Y179309D01*
X357559Y179251D01*
X357594Y179191D01*
X357626Y179129D01*
X357654Y179065D01*
X357679Y179000D01*
X357700Y178934D01*
X357718Y178866D01*
X357731Y178798D01*
X357741Y178729D01*
X357747Y178660D01*
X357749Y178590D01*
X357747Y178520D01*
X357741Y178451D01*
X357731Y178382D01*
X357718Y178314D01*
X357700Y178246D01*
X357679Y178180D01*
X357654Y178115D01*
X357626Y178051D01*
X357594Y177989D01*
X357559Y177929D01*
X357520Y177871D01*
X357478Y177816D01*
X357433Y177762D01*
X357385Y177712D01*
X357335Y177664D01*
X357281Y177619D01*
X357226Y177577D01*
X357168Y177538D01*
X357108Y177503D01*
X357046Y177471D01*
X356982Y177443D01*
X356917Y177418D01*
X356851Y177397D01*
X356783Y177379D01*
X356715Y177366D01*
X356646Y177356D01*
X356577Y177350D01*
X356507Y177348D01*
X356437Y177350D01*
X356368Y177356D01*
X356299Y177366D01*
X356231Y177379D01*
X356163Y177397D01*
X356097Y177418D01*
X356032Y177443D01*
X355968Y177471D01*
X355906Y177503D01*
X355846Y177538D01*
X355788Y177577D01*
X355733Y177619D01*
X355679Y177664D01*
X355629Y177712D01*
X355581Y177762D01*
X355536Y177816D01*
X355494Y177871D01*
X355455Y177929D01*
X355420Y177989D01*
X355388Y178051D01*
X355360Y178115D01*
X355335Y178180D01*
X355314Y178246D01*
X355296Y178314D01*
X355283Y178382D01*
X355273Y178451D01*
X355267Y178520D01*
X355265Y178590D01*
X546181Y251968D02*
X546181Y257556D01*
X547734Y257556D01*
X547811Y257554D01*
X547889Y257548D01*
X547965Y257539D01*
X548042Y257525D01*
X548117Y257508D01*
X548191Y257487D01*
X548265Y257462D01*
X548337Y257434D01*
X548407Y257402D01*
X548476Y257367D01*
X548543Y257328D01*
X548608Y257286D01*
X548671Y257241D01*
X548732Y257193D01*
X548790Y257142D01*
X548845Y257088D01*
X548898Y257031D01*
X548947Y256972D01*
X548994Y256910D01*
X549038Y256846D01*
X549078Y256780D01*
X549115Y256712D01*
X549149Y256642D01*
X549179Y256571D01*
X549205Y256498D01*
X549228Y256424D01*
X549247Y256349D01*
X549262Y256274D01*
X549274Y256197D01*
X549282Y256120D01*
X549286Y256043D01*
X549286Y255965D01*
X549282Y255888D01*
X549274Y255811D01*
X549262Y255734D01*
X549247Y255659D01*
X549228Y255584D01*
X549205Y255510D01*
X549179Y255437D01*
X549149Y255366D01*
X549115Y255296D01*
X549078Y255228D01*
X549038Y255162D01*
X548994Y255098D01*
X548947Y255036D01*
X548898Y254977D01*
X548845Y254920D01*
X548790Y254866D01*
X548732Y254815D01*
X548671Y254767D01*
X548608Y254722D01*
X548543Y254680D01*
X548476Y254641D01*
X548407Y254606D01*
X548337Y254574D01*
X548265Y254546D01*
X548191Y254521D01*
X548117Y254500D01*
X548042Y254483D01*
X547965Y254469D01*
X547889Y254460D01*
X547811Y254454D01*
X547734Y254452D01*
X546181Y254452D01*
X548044Y254452D02*
X549286Y251968D01*
X552873Y254452D02*
X554736Y254452D01*
X552873Y254451D02*
X552803Y254453D01*
X552734Y254459D01*
X552665Y254469D01*
X552597Y254482D01*
X552529Y254500D01*
X552463Y254521D01*
X552398Y254546D01*
X552334Y254574D01*
X552272Y254606D01*
X552212Y254641D01*
X552154Y254680D01*
X552099Y254722D01*
X552045Y254767D01*
X551995Y254815D01*
X551947Y254865D01*
X551902Y254919D01*
X551860Y254974D01*
X551821Y255032D01*
X551786Y255092D01*
X551754Y255154D01*
X551726Y255218D01*
X551701Y255283D01*
X551680Y255349D01*
X551662Y255417D01*
X551649Y255485D01*
X551639Y255554D01*
X551633Y255623D01*
X551631Y255693D01*
X551632Y255693D02*
X551632Y256004D01*
X551634Y256081D01*
X551640Y256159D01*
X551649Y256235D01*
X551663Y256312D01*
X551680Y256387D01*
X551701Y256461D01*
X551726Y256535D01*
X551754Y256607D01*
X551786Y256677D01*
X551821Y256746D01*
X551860Y256813D01*
X551902Y256878D01*
X551947Y256941D01*
X551995Y257002D01*
X552046Y257060D01*
X552100Y257115D01*
X552157Y257168D01*
X552216Y257217D01*
X552278Y257264D01*
X552342Y257308D01*
X552408Y257348D01*
X552476Y257385D01*
X552546Y257419D01*
X552617Y257449D01*
X552690Y257475D01*
X552764Y257498D01*
X552839Y257517D01*
X552914Y257532D01*
X552991Y257544D01*
X553068Y257552D01*
X553145Y257556D01*
X553223Y257556D01*
X553300Y257552D01*
X553377Y257544D01*
X553454Y257532D01*
X553529Y257517D01*
X553604Y257498D01*
X553678Y257475D01*
X553751Y257449D01*
X553822Y257419D01*
X553892Y257385D01*
X553960Y257348D01*
X554026Y257308D01*
X554090Y257264D01*
X554152Y257217D01*
X554211Y257168D01*
X554268Y257115D01*
X554322Y257060D01*
X554373Y257002D01*
X554421Y256941D01*
X554466Y256878D01*
X554508Y256813D01*
X554547Y256746D01*
X554582Y256677D01*
X554614Y256607D01*
X554642Y256535D01*
X554667Y256461D01*
X554688Y256387D01*
X554705Y256312D01*
X554719Y256235D01*
X554728Y256159D01*
X554734Y256081D01*
X554736Y256004D01*
X554736Y254452D01*
X554734Y254354D01*
X554728Y254257D01*
X554719Y254160D01*
X554705Y254063D01*
X554688Y253967D01*
X554667Y253872D01*
X554643Y253778D01*
X554614Y253684D01*
X554582Y253592D01*
X554547Y253501D01*
X554508Y253412D01*
X554465Y253324D01*
X554419Y253238D01*
X554370Y253154D01*
X554317Y253072D01*
X554262Y252992D01*
X554203Y252914D01*
X554141Y252839D01*
X554076Y252766D01*
X554008Y252696D01*
X553938Y252628D01*
X553865Y252563D01*
X553790Y252501D01*
X553712Y252442D01*
X553632Y252387D01*
X553550Y252334D01*
X553466Y252285D01*
X553380Y252239D01*
X553292Y252196D01*
X553203Y252157D01*
X553112Y252122D01*
X553020Y252090D01*
X552926Y252061D01*
X552832Y252037D01*
X552737Y252016D01*
X552641Y251999D01*
X552544Y251985D01*
X552447Y251976D01*
X552349Y251970D01*
X552252Y251968D01*
D15*
X110490Y159770D02*
X50546Y159766D01*
X110490Y159770D02*
X110490Y94230D01*
X50546Y94234D01*
D16*
X115316Y127000D03*
D17*
X95490Y88392D02*
X95490Y79954D01*
X95489Y79954D02*
X95491Y79841D01*
X95497Y79728D01*
X95507Y79615D01*
X95521Y79502D01*
X95538Y79390D01*
X95560Y79279D01*
X95585Y79169D01*
X95615Y79059D01*
X95648Y78951D01*
X95685Y78844D01*
X95725Y78738D01*
X95770Y78634D01*
X95818Y78531D01*
X95869Y78430D01*
X95924Y78331D01*
X95982Y78234D01*
X96044Y78139D01*
X96109Y78046D01*
X96177Y77956D01*
X96248Y77868D01*
X96323Y77782D01*
X96400Y77699D01*
X96480Y77619D01*
X96563Y77542D01*
X96649Y77467D01*
X96737Y77396D01*
X96827Y77328D01*
X96920Y77263D01*
X97015Y77201D01*
X97112Y77143D01*
X97211Y77088D01*
X97312Y77037D01*
X97415Y76989D01*
X97519Y76944D01*
X97625Y76904D01*
X97732Y76867D01*
X97840Y76834D01*
X97950Y76804D01*
X98060Y76779D01*
X98171Y76757D01*
X98283Y76740D01*
X98396Y76726D01*
X98509Y76716D01*
X98622Y76710D01*
X98735Y76708D01*
X98848Y76710D01*
X98961Y76716D01*
X99074Y76726D01*
X99187Y76740D01*
X99299Y76757D01*
X99410Y76779D01*
X99520Y76804D01*
X99630Y76834D01*
X99738Y76867D01*
X99845Y76904D01*
X99951Y76944D01*
X100055Y76989D01*
X100158Y77037D01*
X100259Y77088D01*
X100358Y77143D01*
X100455Y77201D01*
X100550Y77263D01*
X100643Y77328D01*
X100733Y77396D01*
X100821Y77467D01*
X100907Y77542D01*
X100990Y77619D01*
X101070Y77699D01*
X101147Y77782D01*
X101222Y77868D01*
X101293Y77956D01*
X101361Y78046D01*
X101426Y78139D01*
X101488Y78234D01*
X101546Y78331D01*
X101601Y78430D01*
X101652Y78531D01*
X101700Y78634D01*
X101745Y78738D01*
X101785Y78844D01*
X101822Y78951D01*
X101855Y79059D01*
X101885Y79169D01*
X101910Y79279D01*
X101932Y79390D01*
X101949Y79502D01*
X101963Y79615D01*
X101973Y79728D01*
X101979Y79841D01*
X101981Y79954D01*
X101981Y88392D01*
X107301Y85796D02*
X110546Y88392D01*
X110546Y76708D01*
X107301Y76708D02*
X113792Y76708D01*
X190740Y218384D02*
X190740Y226822D01*
X190739Y218384D02*
X190741Y218271D01*
X190747Y218158D01*
X190757Y218045D01*
X190771Y217932D01*
X190788Y217820D01*
X190810Y217709D01*
X190835Y217599D01*
X190865Y217489D01*
X190898Y217381D01*
X190935Y217274D01*
X190975Y217168D01*
X191020Y217064D01*
X191068Y216961D01*
X191119Y216860D01*
X191174Y216761D01*
X191232Y216664D01*
X191294Y216569D01*
X191359Y216476D01*
X191427Y216386D01*
X191498Y216298D01*
X191573Y216212D01*
X191650Y216129D01*
X191730Y216049D01*
X191813Y215972D01*
X191899Y215897D01*
X191987Y215826D01*
X192077Y215758D01*
X192170Y215693D01*
X192265Y215631D01*
X192362Y215573D01*
X192461Y215518D01*
X192562Y215467D01*
X192665Y215419D01*
X192769Y215374D01*
X192875Y215334D01*
X192982Y215297D01*
X193090Y215264D01*
X193200Y215234D01*
X193310Y215209D01*
X193421Y215187D01*
X193533Y215170D01*
X193646Y215156D01*
X193759Y215146D01*
X193872Y215140D01*
X193985Y215138D01*
X194098Y215140D01*
X194211Y215146D01*
X194324Y215156D01*
X194437Y215170D01*
X194549Y215187D01*
X194660Y215209D01*
X194770Y215234D01*
X194880Y215264D01*
X194988Y215297D01*
X195095Y215334D01*
X195201Y215374D01*
X195305Y215419D01*
X195408Y215467D01*
X195509Y215518D01*
X195608Y215573D01*
X195705Y215631D01*
X195800Y215693D01*
X195893Y215758D01*
X195983Y215826D01*
X196071Y215897D01*
X196157Y215972D01*
X196240Y216049D01*
X196320Y216129D01*
X196397Y216212D01*
X196472Y216298D01*
X196543Y216386D01*
X196611Y216476D01*
X196676Y216569D01*
X196738Y216664D01*
X196796Y216761D01*
X196851Y216860D01*
X196902Y216961D01*
X196950Y217064D01*
X196995Y217168D01*
X197035Y217274D01*
X197072Y217381D01*
X197105Y217489D01*
X197135Y217599D01*
X197160Y217709D01*
X197182Y217820D01*
X197199Y217932D01*
X197213Y218045D01*
X197223Y218158D01*
X197229Y218271D01*
X197231Y218384D01*
X197231Y226822D01*
X206121Y226822D02*
X206228Y226820D01*
X206334Y226814D01*
X206440Y226804D01*
X206546Y226791D01*
X206652Y226773D01*
X206756Y226752D01*
X206860Y226727D01*
X206963Y226698D01*
X207064Y226666D01*
X207164Y226629D01*
X207263Y226589D01*
X207361Y226546D01*
X207457Y226499D01*
X207551Y226448D01*
X207643Y226394D01*
X207733Y226337D01*
X207821Y226277D01*
X207906Y226213D01*
X207989Y226146D01*
X208070Y226076D01*
X208148Y226004D01*
X208224Y225928D01*
X208296Y225850D01*
X208366Y225769D01*
X208433Y225686D01*
X208497Y225601D01*
X208557Y225513D01*
X208614Y225423D01*
X208668Y225331D01*
X208719Y225237D01*
X208766Y225141D01*
X208809Y225043D01*
X208849Y224944D01*
X208886Y224844D01*
X208918Y224743D01*
X208947Y224640D01*
X208972Y224536D01*
X208993Y224432D01*
X209011Y224326D01*
X209024Y224220D01*
X209034Y224114D01*
X209040Y224008D01*
X209042Y223901D01*
X206121Y226822D02*
X206000Y226820D01*
X205879Y226814D01*
X205759Y226804D01*
X205638Y226791D01*
X205519Y226773D01*
X205399Y226752D01*
X205281Y226727D01*
X205164Y226698D01*
X205047Y226665D01*
X204932Y226629D01*
X204818Y226588D01*
X204705Y226545D01*
X204593Y226497D01*
X204484Y226446D01*
X204376Y226391D01*
X204269Y226333D01*
X204165Y226272D01*
X204063Y226207D01*
X203963Y226139D01*
X203865Y226068D01*
X203769Y225994D01*
X203676Y225917D01*
X203586Y225836D01*
X203498Y225753D01*
X203413Y225667D01*
X203330Y225578D01*
X203251Y225487D01*
X203174Y225393D01*
X203101Y225297D01*
X203031Y225199D01*
X202964Y225098D01*
X202900Y224995D01*
X202840Y224890D01*
X202783Y224783D01*
X202729Y224675D01*
X202679Y224565D01*
X202633Y224453D01*
X202590Y224340D01*
X202551Y224225D01*
X208069Y221629D02*
X208148Y221706D01*
X208224Y221787D01*
X208297Y221870D01*
X208367Y221955D01*
X208434Y222043D01*
X208498Y222133D01*
X208558Y222225D01*
X208615Y222320D01*
X208669Y222416D01*
X208720Y222514D01*
X208767Y222614D01*
X208811Y222716D01*
X208851Y222819D01*
X208887Y222923D01*
X208919Y223029D01*
X208948Y223135D01*
X208973Y223243D01*
X208995Y223351D01*
X209012Y223461D01*
X209026Y223570D01*
X209035Y223680D01*
X209041Y223791D01*
X209043Y223901D01*
X208068Y221629D02*
X202551Y215138D01*
X209042Y215138D01*
D18*
X60452Y342900D02*
X60330Y342902D01*
X60208Y342908D01*
X60086Y342918D01*
X59965Y342931D01*
X59844Y342949D01*
X59724Y342970D01*
X59604Y342996D01*
X59486Y343025D01*
X59368Y343057D01*
X59251Y343094D01*
X59136Y343134D01*
X59022Y343178D01*
X58910Y343226D01*
X58799Y343277D01*
X58690Y343332D01*
X58582Y343390D01*
X58477Y343452D01*
X58374Y343517D01*
X58272Y343585D01*
X58173Y343657D01*
X58077Y343731D01*
X57982Y343809D01*
X57891Y343890D01*
X57801Y343973D01*
X57715Y344059D01*
X57632Y344149D01*
X57551Y344240D01*
X57473Y344335D01*
X57399Y344431D01*
X57327Y344530D01*
X57259Y344632D01*
X57194Y344735D01*
X57132Y344840D01*
X57074Y344948D01*
X57019Y345057D01*
X56968Y345168D01*
X56920Y345280D01*
X56876Y345394D01*
X56836Y345509D01*
X56799Y345626D01*
X56767Y345744D01*
X56738Y345862D01*
X56712Y345982D01*
X56691Y346102D01*
X56673Y346223D01*
X56660Y346344D01*
X56650Y346466D01*
X56644Y346588D01*
X56642Y346710D01*
X95758Y440690D02*
X95756Y440812D01*
X95750Y440934D01*
X95740Y441056D01*
X95727Y441177D01*
X95709Y441298D01*
X95688Y441418D01*
X95662Y441538D01*
X95633Y441656D01*
X95601Y441774D01*
X95564Y441891D01*
X95524Y442006D01*
X95480Y442120D01*
X95432Y442232D01*
X95381Y442343D01*
X95326Y442452D01*
X95268Y442560D01*
X95206Y442665D01*
X95141Y442768D01*
X95073Y442870D01*
X95001Y442969D01*
X94927Y443065D01*
X94849Y443160D01*
X94768Y443251D01*
X94685Y443341D01*
X94599Y443427D01*
X94509Y443510D01*
X94418Y443591D01*
X94323Y443669D01*
X94227Y443743D01*
X94128Y443815D01*
X94026Y443883D01*
X93923Y443948D01*
X93818Y444010D01*
X93710Y444068D01*
X93601Y444123D01*
X93490Y444174D01*
X93378Y444222D01*
X93264Y444266D01*
X93149Y444306D01*
X93032Y444343D01*
X92914Y444375D01*
X92796Y444404D01*
X92676Y444430D01*
X92556Y444451D01*
X92435Y444469D01*
X92314Y444482D01*
X92192Y444492D01*
X92070Y444498D01*
X91948Y444500D01*
X95758Y346710D02*
X95756Y346588D01*
X95750Y346466D01*
X95740Y346344D01*
X95727Y346223D01*
X95709Y346102D01*
X95688Y345982D01*
X95662Y345862D01*
X95633Y345744D01*
X95601Y345626D01*
X95564Y345509D01*
X95524Y345394D01*
X95480Y345280D01*
X95432Y345168D01*
X95381Y345057D01*
X95326Y344948D01*
X95268Y344840D01*
X95206Y344735D01*
X95141Y344632D01*
X95073Y344530D01*
X95001Y344431D01*
X94927Y344335D01*
X94849Y344240D01*
X94768Y344149D01*
X94685Y344059D01*
X94599Y343973D01*
X94509Y343890D01*
X94418Y343809D01*
X94323Y343731D01*
X94227Y343657D01*
X94128Y343585D01*
X94026Y343517D01*
X93923Y343452D01*
X93818Y343390D01*
X93710Y343332D01*
X93601Y343277D01*
X93490Y343226D01*
X93378Y343178D01*
X93264Y343134D01*
X93149Y343094D01*
X93032Y343057D01*
X92914Y343025D01*
X92796Y342996D01*
X92676Y342970D01*
X92556Y342949D01*
X92435Y342931D01*
X92314Y342918D01*
X92192Y342908D01*
X92070Y342902D01*
X91948Y342900D01*
X56642Y440690D02*
X56644Y440812D01*
X56650Y440934D01*
X56660Y441056D01*
X56673Y441177D01*
X56691Y441298D01*
X56712Y441418D01*
X56738Y441538D01*
X56767Y441656D01*
X56799Y441774D01*
X56836Y441891D01*
X56876Y442006D01*
X56920Y442120D01*
X56968Y442232D01*
X57019Y442343D01*
X57074Y442452D01*
X57132Y442560D01*
X57194Y442665D01*
X57259Y442768D01*
X57327Y442870D01*
X57399Y442969D01*
X57473Y443065D01*
X57551Y443160D01*
X57632Y443251D01*
X57715Y443341D01*
X57801Y443427D01*
X57891Y443510D01*
X57982Y443591D01*
X58077Y443669D01*
X58173Y443743D01*
X58272Y443815D01*
X58374Y443883D01*
X58477Y443948D01*
X58582Y444010D01*
X58690Y444068D01*
X58799Y444123D01*
X58910Y444174D01*
X59022Y444222D01*
X59136Y444266D01*
X59251Y444306D01*
X59368Y444343D01*
X59486Y444375D01*
X59604Y444404D01*
X59724Y444430D01*
X59844Y444451D01*
X59965Y444469D01*
X60086Y444482D01*
X60208Y444492D01*
X60330Y444498D01*
X60452Y444500D01*
X60452Y342900D02*
X91948Y342900D01*
X91948Y444500D02*
X81280Y444500D01*
X71120Y444500D01*
X60452Y444500D01*
X71120Y444500D02*
X71122Y444359D01*
X71128Y444218D01*
X71138Y444077D01*
X71151Y443936D01*
X71169Y443796D01*
X71191Y443657D01*
X71216Y443518D01*
X71245Y443379D01*
X71278Y443242D01*
X71315Y443106D01*
X71356Y442971D01*
X71400Y442836D01*
X71448Y442704D01*
X71500Y442572D01*
X71555Y442442D01*
X71614Y442314D01*
X71677Y442187D01*
X71743Y442063D01*
X71812Y441940D01*
X71885Y441819D01*
X71961Y441700D01*
X72041Y441583D01*
X72124Y441469D01*
X72209Y441356D01*
X72298Y441247D01*
X72390Y441139D01*
X72485Y441035D01*
X72583Y440933D01*
X72684Y440834D01*
X72787Y440737D01*
X72893Y440644D01*
X73001Y440554D01*
X73112Y440466D01*
X73225Y440382D01*
X73341Y440301D01*
X73459Y440223D01*
X73579Y440148D01*
X73701Y440077D01*
X73825Y440009D01*
X73951Y439945D01*
X74078Y439884D01*
X74207Y439827D01*
X74338Y439774D01*
X74470Y439724D01*
X74603Y439677D01*
X74738Y439635D01*
X74874Y439596D01*
X75011Y439561D01*
X75148Y439530D01*
X75287Y439503D01*
X75426Y439479D01*
X75566Y439460D01*
X75706Y439444D01*
X75847Y439432D01*
X75988Y439424D01*
X76129Y439420D01*
X76271Y439420D01*
X76412Y439424D01*
X76553Y439432D01*
X76694Y439444D01*
X76834Y439460D01*
X76974Y439479D01*
X77113Y439503D01*
X77252Y439530D01*
X77389Y439561D01*
X77526Y439596D01*
X77662Y439635D01*
X77797Y439677D01*
X77930Y439724D01*
X78062Y439774D01*
X78193Y439827D01*
X78322Y439884D01*
X78449Y439945D01*
X78575Y440009D01*
X78699Y440077D01*
X78821Y440148D01*
X78941Y440223D01*
X79059Y440301D01*
X79175Y440382D01*
X79288Y440466D01*
X79399Y440554D01*
X79507Y440644D01*
X79613Y440737D01*
X79716Y440834D01*
X79817Y440933D01*
X79915Y441035D01*
X80010Y441139D01*
X80102Y441247D01*
X80191Y441356D01*
X80276Y441469D01*
X80359Y441583D01*
X80439Y441700D01*
X80515Y441819D01*
X80588Y441940D01*
X80657Y442063D01*
X80723Y442187D01*
X80786Y442314D01*
X80845Y442442D01*
X80900Y442572D01*
X80952Y442704D01*
X81000Y442836D01*
X81044Y442971D01*
X81085Y443106D01*
X81122Y443242D01*
X81155Y443379D01*
X81184Y443518D01*
X81209Y443657D01*
X81231Y443796D01*
X81249Y443936D01*
X81262Y444077D01*
X81272Y444218D01*
X81278Y444359D01*
X81280Y444500D01*
D10*
X60198Y444500D02*
X60198Y342900D01*
D19*
X57785Y452120D02*
X57785Y460375D01*
X57785Y452120D02*
X57787Y452009D01*
X57793Y451899D01*
X57802Y451788D01*
X57816Y451678D01*
X57833Y451569D01*
X57854Y451460D01*
X57879Y451352D01*
X57908Y451245D01*
X57940Y451139D01*
X57976Y451034D01*
X58016Y450931D01*
X58059Y450829D01*
X58106Y450728D01*
X58157Y450629D01*
X58210Y450533D01*
X58267Y450438D01*
X58328Y450345D01*
X58391Y450254D01*
X58458Y450165D01*
X58528Y450079D01*
X58601Y449996D01*
X58676Y449914D01*
X58754Y449836D01*
X58836Y449761D01*
X58919Y449688D01*
X59005Y449618D01*
X59094Y449551D01*
X59185Y449488D01*
X59278Y449427D01*
X59373Y449370D01*
X59469Y449317D01*
X59568Y449266D01*
X59669Y449219D01*
X59771Y449176D01*
X59874Y449136D01*
X59979Y449100D01*
X60085Y449068D01*
X60192Y449039D01*
X60300Y449014D01*
X60409Y448993D01*
X60518Y448976D01*
X60628Y448962D01*
X60739Y448953D01*
X60849Y448947D01*
X60960Y448945D01*
X61071Y448947D01*
X61181Y448953D01*
X61292Y448962D01*
X61402Y448976D01*
X61511Y448993D01*
X61620Y449014D01*
X61728Y449039D01*
X61835Y449068D01*
X61941Y449100D01*
X62046Y449136D01*
X62149Y449176D01*
X62251Y449219D01*
X62352Y449266D01*
X62451Y449317D01*
X62547Y449370D01*
X62642Y449427D01*
X62735Y449488D01*
X62826Y449551D01*
X62915Y449618D01*
X63001Y449688D01*
X63084Y449761D01*
X63166Y449836D01*
X63244Y449914D01*
X63319Y449996D01*
X63392Y450079D01*
X63462Y450165D01*
X63529Y450254D01*
X63592Y450345D01*
X63653Y450438D01*
X63710Y450532D01*
X63763Y450629D01*
X63814Y450728D01*
X63861Y450829D01*
X63904Y450931D01*
X63944Y451034D01*
X63980Y451139D01*
X64012Y451245D01*
X64041Y451352D01*
X64066Y451460D01*
X64087Y451569D01*
X64104Y451678D01*
X64118Y451788D01*
X64127Y451899D01*
X64133Y452009D01*
X64135Y452120D01*
X64135Y460375D01*
X69596Y448945D02*
X72771Y448945D01*
X72882Y448947D01*
X72992Y448953D01*
X73103Y448962D01*
X73213Y448976D01*
X73322Y448993D01*
X73431Y449014D01*
X73539Y449039D01*
X73646Y449068D01*
X73752Y449100D01*
X73857Y449136D01*
X73960Y449176D01*
X74062Y449219D01*
X74163Y449266D01*
X74262Y449317D01*
X74358Y449370D01*
X74453Y449427D01*
X74546Y449488D01*
X74637Y449551D01*
X74726Y449618D01*
X74812Y449688D01*
X74895Y449761D01*
X74977Y449836D01*
X75055Y449914D01*
X75130Y449996D01*
X75203Y450079D01*
X75273Y450165D01*
X75340Y450254D01*
X75403Y450345D01*
X75464Y450438D01*
X75521Y450532D01*
X75574Y450629D01*
X75625Y450728D01*
X75672Y450829D01*
X75715Y450931D01*
X75755Y451034D01*
X75791Y451139D01*
X75823Y451245D01*
X75852Y451352D01*
X75877Y451460D01*
X75898Y451569D01*
X75915Y451678D01*
X75929Y451788D01*
X75938Y451899D01*
X75944Y452009D01*
X75946Y452120D01*
X75944Y452231D01*
X75938Y452341D01*
X75929Y452452D01*
X75915Y452562D01*
X75898Y452671D01*
X75877Y452780D01*
X75852Y452888D01*
X75823Y452995D01*
X75791Y453101D01*
X75755Y453206D01*
X75715Y453309D01*
X75672Y453411D01*
X75625Y453512D01*
X75574Y453611D01*
X75521Y453707D01*
X75464Y453802D01*
X75403Y453895D01*
X75340Y453986D01*
X75273Y454075D01*
X75203Y454161D01*
X75130Y454244D01*
X75055Y454326D01*
X74977Y454404D01*
X74895Y454479D01*
X74812Y454552D01*
X74726Y454622D01*
X74637Y454689D01*
X74546Y454752D01*
X74453Y454813D01*
X74359Y454870D01*
X74262Y454923D01*
X74163Y454974D01*
X74062Y455021D01*
X73960Y455064D01*
X73857Y455104D01*
X73752Y455140D01*
X73646Y455172D01*
X73539Y455201D01*
X73431Y455226D01*
X73322Y455247D01*
X73213Y455264D01*
X73103Y455278D01*
X72992Y455287D01*
X72882Y455293D01*
X72771Y455295D01*
X73406Y460375D02*
X69596Y460375D01*
X73406Y460375D02*
X73506Y460373D01*
X73605Y460367D01*
X73705Y460357D01*
X73803Y460344D01*
X73902Y460326D01*
X73999Y460305D01*
X74095Y460280D01*
X74191Y460251D01*
X74285Y460218D01*
X74378Y460182D01*
X74469Y460142D01*
X74559Y460098D01*
X74647Y460051D01*
X74733Y460001D01*
X74817Y459947D01*
X74899Y459890D01*
X74978Y459830D01*
X75056Y459766D01*
X75130Y459700D01*
X75202Y459631D01*
X75271Y459559D01*
X75337Y459485D01*
X75401Y459407D01*
X75461Y459328D01*
X75518Y459246D01*
X75572Y459162D01*
X75622Y459076D01*
X75669Y458988D01*
X75713Y458898D01*
X75753Y458807D01*
X75789Y458714D01*
X75822Y458620D01*
X75851Y458524D01*
X75876Y458428D01*
X75897Y458331D01*
X75915Y458232D01*
X75928Y458134D01*
X75938Y458034D01*
X75944Y457935D01*
X75946Y457835D01*
X75944Y457735D01*
X75938Y457636D01*
X75928Y457536D01*
X75915Y457438D01*
X75897Y457339D01*
X75876Y457242D01*
X75851Y457146D01*
X75822Y457050D01*
X75789Y456956D01*
X75753Y456863D01*
X75713Y456772D01*
X75669Y456682D01*
X75622Y456594D01*
X75572Y456508D01*
X75518Y456424D01*
X75461Y456342D01*
X75401Y456263D01*
X75337Y456185D01*
X75271Y456111D01*
X75202Y456039D01*
X75130Y455970D01*
X75056Y455904D01*
X74978Y455840D01*
X74899Y455780D01*
X74817Y455723D01*
X74733Y455669D01*
X74647Y455619D01*
X74559Y455572D01*
X74469Y455528D01*
X74378Y455488D01*
X74285Y455452D01*
X74191Y455419D01*
X74095Y455390D01*
X73999Y455365D01*
X73902Y455344D01*
X73803Y455326D01*
X73705Y455313D01*
X73605Y455303D01*
X73506Y455297D01*
X73406Y455295D01*
X70866Y455295D01*
D18*
X170942Y346710D02*
X170944Y346588D01*
X170950Y346466D01*
X170960Y346344D01*
X170973Y346223D01*
X170991Y346102D01*
X171012Y345982D01*
X171038Y345862D01*
X171067Y345744D01*
X171099Y345626D01*
X171136Y345509D01*
X171176Y345394D01*
X171220Y345280D01*
X171268Y345168D01*
X171319Y345057D01*
X171374Y344948D01*
X171432Y344840D01*
X171494Y344735D01*
X171559Y344632D01*
X171627Y344530D01*
X171699Y344431D01*
X171773Y344335D01*
X171851Y344240D01*
X171932Y344149D01*
X172015Y344059D01*
X172101Y343973D01*
X172191Y343890D01*
X172282Y343809D01*
X172377Y343731D01*
X172473Y343657D01*
X172572Y343585D01*
X172674Y343517D01*
X172777Y343452D01*
X172882Y343390D01*
X172990Y343332D01*
X173099Y343277D01*
X173210Y343226D01*
X173322Y343178D01*
X173436Y343134D01*
X173551Y343094D01*
X173668Y343057D01*
X173786Y343025D01*
X173904Y342996D01*
X174024Y342970D01*
X174144Y342949D01*
X174265Y342931D01*
X174386Y342918D01*
X174508Y342908D01*
X174630Y342902D01*
X174752Y342900D01*
X210058Y440690D02*
X210056Y440812D01*
X210050Y440934D01*
X210040Y441056D01*
X210027Y441177D01*
X210009Y441298D01*
X209988Y441418D01*
X209962Y441538D01*
X209933Y441656D01*
X209901Y441774D01*
X209864Y441891D01*
X209824Y442006D01*
X209780Y442120D01*
X209732Y442232D01*
X209681Y442343D01*
X209626Y442452D01*
X209568Y442560D01*
X209506Y442665D01*
X209441Y442768D01*
X209373Y442870D01*
X209301Y442969D01*
X209227Y443065D01*
X209149Y443160D01*
X209068Y443251D01*
X208985Y443341D01*
X208899Y443427D01*
X208809Y443510D01*
X208718Y443591D01*
X208623Y443669D01*
X208527Y443743D01*
X208428Y443815D01*
X208326Y443883D01*
X208223Y443948D01*
X208118Y444010D01*
X208010Y444068D01*
X207901Y444123D01*
X207790Y444174D01*
X207678Y444222D01*
X207564Y444266D01*
X207449Y444306D01*
X207332Y444343D01*
X207214Y444375D01*
X207096Y444404D01*
X206976Y444430D01*
X206856Y444451D01*
X206735Y444469D01*
X206614Y444482D01*
X206492Y444492D01*
X206370Y444498D01*
X206248Y444500D01*
X210058Y346710D02*
X210056Y346588D01*
X210050Y346466D01*
X210040Y346344D01*
X210027Y346223D01*
X210009Y346102D01*
X209988Y345982D01*
X209962Y345862D01*
X209933Y345744D01*
X209901Y345626D01*
X209864Y345509D01*
X209824Y345394D01*
X209780Y345280D01*
X209732Y345168D01*
X209681Y345057D01*
X209626Y344948D01*
X209568Y344840D01*
X209506Y344735D01*
X209441Y344632D01*
X209373Y344530D01*
X209301Y344431D01*
X209227Y344335D01*
X209149Y344240D01*
X209068Y344149D01*
X208985Y344059D01*
X208899Y343973D01*
X208809Y343890D01*
X208718Y343809D01*
X208623Y343731D01*
X208527Y343657D01*
X208428Y343585D01*
X208326Y343517D01*
X208223Y343452D01*
X208118Y343390D01*
X208010Y343332D01*
X207901Y343277D01*
X207790Y343226D01*
X207678Y343178D01*
X207564Y343134D01*
X207449Y343094D01*
X207332Y343057D01*
X207214Y343025D01*
X207096Y342996D01*
X206976Y342970D01*
X206856Y342949D01*
X206735Y342931D01*
X206614Y342918D01*
X206492Y342908D01*
X206370Y342902D01*
X206248Y342900D01*
X170942Y440690D02*
X170944Y440812D01*
X170950Y440934D01*
X170960Y441056D01*
X170973Y441177D01*
X170991Y441298D01*
X171012Y441418D01*
X171038Y441538D01*
X171067Y441656D01*
X171099Y441774D01*
X171136Y441891D01*
X171176Y442006D01*
X171220Y442120D01*
X171268Y442232D01*
X171319Y442343D01*
X171374Y442452D01*
X171432Y442560D01*
X171494Y442665D01*
X171559Y442768D01*
X171627Y442870D01*
X171699Y442969D01*
X171773Y443065D01*
X171851Y443160D01*
X171932Y443251D01*
X172015Y443341D01*
X172101Y443427D01*
X172191Y443510D01*
X172282Y443591D01*
X172377Y443669D01*
X172473Y443743D01*
X172572Y443815D01*
X172674Y443883D01*
X172777Y443948D01*
X172882Y444010D01*
X172990Y444068D01*
X173099Y444123D01*
X173210Y444174D01*
X173322Y444222D01*
X173436Y444266D01*
X173551Y444306D01*
X173668Y444343D01*
X173786Y444375D01*
X173904Y444404D01*
X174024Y444430D01*
X174144Y444451D01*
X174265Y444469D01*
X174386Y444482D01*
X174508Y444492D01*
X174630Y444498D01*
X174752Y444500D01*
X174752Y342900D02*
X206248Y342900D01*
X206248Y444500D02*
X195580Y444500D01*
X185420Y444500D01*
X174752Y444500D01*
X185420Y444500D02*
X185422Y444359D01*
X185428Y444218D01*
X185438Y444077D01*
X185451Y443936D01*
X185469Y443796D01*
X185491Y443657D01*
X185516Y443518D01*
X185545Y443379D01*
X185578Y443242D01*
X185615Y443106D01*
X185656Y442971D01*
X185700Y442836D01*
X185748Y442704D01*
X185800Y442572D01*
X185855Y442442D01*
X185914Y442314D01*
X185977Y442187D01*
X186043Y442063D01*
X186112Y441940D01*
X186185Y441819D01*
X186261Y441700D01*
X186341Y441583D01*
X186424Y441469D01*
X186509Y441356D01*
X186598Y441247D01*
X186690Y441139D01*
X186785Y441035D01*
X186883Y440933D01*
X186984Y440834D01*
X187087Y440737D01*
X187193Y440644D01*
X187301Y440554D01*
X187412Y440466D01*
X187525Y440382D01*
X187641Y440301D01*
X187759Y440223D01*
X187879Y440148D01*
X188001Y440077D01*
X188125Y440009D01*
X188251Y439945D01*
X188378Y439884D01*
X188507Y439827D01*
X188638Y439774D01*
X188770Y439724D01*
X188903Y439677D01*
X189038Y439635D01*
X189174Y439596D01*
X189311Y439561D01*
X189448Y439530D01*
X189587Y439503D01*
X189726Y439479D01*
X189866Y439460D01*
X190006Y439444D01*
X190147Y439432D01*
X190288Y439424D01*
X190429Y439420D01*
X190571Y439420D01*
X190712Y439424D01*
X190853Y439432D01*
X190994Y439444D01*
X191134Y439460D01*
X191274Y439479D01*
X191413Y439503D01*
X191552Y439530D01*
X191689Y439561D01*
X191826Y439596D01*
X191962Y439635D01*
X192097Y439677D01*
X192230Y439724D01*
X192362Y439774D01*
X192493Y439827D01*
X192622Y439884D01*
X192749Y439945D01*
X192875Y440009D01*
X192999Y440077D01*
X193121Y440148D01*
X193241Y440223D01*
X193359Y440301D01*
X193475Y440382D01*
X193588Y440466D01*
X193699Y440554D01*
X193807Y440644D01*
X193913Y440737D01*
X194016Y440834D01*
X194117Y440933D01*
X194215Y441035D01*
X194310Y441139D01*
X194402Y441247D01*
X194491Y441356D01*
X194576Y441469D01*
X194659Y441583D01*
X194739Y441700D01*
X194815Y441819D01*
X194888Y441940D01*
X194957Y442063D01*
X195023Y442187D01*
X195086Y442314D01*
X195145Y442442D01*
X195200Y442572D01*
X195252Y442704D01*
X195300Y442836D01*
X195344Y442971D01*
X195385Y443106D01*
X195422Y443242D01*
X195455Y443379D01*
X195484Y443518D01*
X195509Y443657D01*
X195531Y443796D01*
X195549Y443936D01*
X195562Y444077D01*
X195572Y444218D01*
X195578Y444359D01*
X195580Y444500D01*
D10*
X174498Y444500D02*
X174498Y342900D01*
D19*
X172085Y452120D02*
X172085Y460375D01*
X172085Y452120D02*
X172087Y452009D01*
X172093Y451899D01*
X172102Y451788D01*
X172116Y451678D01*
X172133Y451569D01*
X172154Y451460D01*
X172179Y451352D01*
X172208Y451245D01*
X172240Y451139D01*
X172276Y451034D01*
X172316Y450931D01*
X172359Y450829D01*
X172406Y450728D01*
X172457Y450629D01*
X172510Y450533D01*
X172567Y450438D01*
X172628Y450345D01*
X172691Y450254D01*
X172758Y450165D01*
X172828Y450079D01*
X172901Y449996D01*
X172976Y449914D01*
X173054Y449836D01*
X173136Y449761D01*
X173219Y449688D01*
X173305Y449618D01*
X173394Y449551D01*
X173485Y449488D01*
X173578Y449427D01*
X173673Y449370D01*
X173769Y449317D01*
X173868Y449266D01*
X173969Y449219D01*
X174071Y449176D01*
X174174Y449136D01*
X174279Y449100D01*
X174385Y449068D01*
X174492Y449039D01*
X174600Y449014D01*
X174709Y448993D01*
X174818Y448976D01*
X174928Y448962D01*
X175039Y448953D01*
X175149Y448947D01*
X175260Y448945D01*
X175371Y448947D01*
X175481Y448953D01*
X175592Y448962D01*
X175702Y448976D01*
X175811Y448993D01*
X175920Y449014D01*
X176028Y449039D01*
X176135Y449068D01*
X176241Y449100D01*
X176346Y449136D01*
X176449Y449176D01*
X176551Y449219D01*
X176652Y449266D01*
X176751Y449317D01*
X176847Y449370D01*
X176942Y449427D01*
X177035Y449488D01*
X177126Y449551D01*
X177215Y449618D01*
X177301Y449688D01*
X177384Y449761D01*
X177466Y449836D01*
X177544Y449914D01*
X177619Y449996D01*
X177692Y450079D01*
X177762Y450165D01*
X177829Y450254D01*
X177892Y450345D01*
X177953Y450438D01*
X178010Y450532D01*
X178063Y450629D01*
X178114Y450728D01*
X178161Y450829D01*
X178204Y450931D01*
X178244Y451034D01*
X178280Y451139D01*
X178312Y451245D01*
X178341Y451352D01*
X178366Y451460D01*
X178387Y451569D01*
X178404Y451678D01*
X178418Y451788D01*
X178427Y451899D01*
X178433Y452009D01*
X178435Y452120D01*
X178435Y460375D01*
X186436Y460375D02*
X183896Y451485D01*
X190246Y451485D01*
X188341Y454025D02*
X188341Y448945D01*
D17*
X222758Y140462D02*
X222758Y132024D01*
X222760Y131911D01*
X222766Y131798D01*
X222776Y131685D01*
X222790Y131572D01*
X222807Y131460D01*
X222829Y131349D01*
X222854Y131239D01*
X222884Y131129D01*
X222917Y131021D01*
X222954Y130914D01*
X222994Y130808D01*
X223039Y130704D01*
X223087Y130601D01*
X223138Y130500D01*
X223193Y130401D01*
X223251Y130304D01*
X223313Y130209D01*
X223378Y130116D01*
X223446Y130026D01*
X223517Y129938D01*
X223592Y129852D01*
X223669Y129769D01*
X223749Y129689D01*
X223832Y129612D01*
X223918Y129537D01*
X224006Y129466D01*
X224096Y129398D01*
X224189Y129333D01*
X224284Y129271D01*
X224381Y129213D01*
X224480Y129158D01*
X224581Y129107D01*
X224684Y129059D01*
X224788Y129014D01*
X224894Y128974D01*
X225001Y128937D01*
X225109Y128904D01*
X225219Y128874D01*
X225329Y128849D01*
X225440Y128827D01*
X225552Y128810D01*
X225665Y128796D01*
X225778Y128786D01*
X225891Y128780D01*
X226004Y128778D01*
X226117Y128780D01*
X226230Y128786D01*
X226343Y128796D01*
X226456Y128810D01*
X226568Y128827D01*
X226679Y128849D01*
X226789Y128874D01*
X226899Y128904D01*
X227007Y128937D01*
X227114Y128974D01*
X227220Y129014D01*
X227324Y129059D01*
X227427Y129107D01*
X227528Y129158D01*
X227627Y129213D01*
X227724Y129271D01*
X227819Y129333D01*
X227912Y129398D01*
X228002Y129466D01*
X228090Y129537D01*
X228176Y129612D01*
X228259Y129689D01*
X228339Y129769D01*
X228416Y129852D01*
X228491Y129938D01*
X228562Y130026D01*
X228630Y130116D01*
X228695Y130209D01*
X228757Y130304D01*
X228815Y130401D01*
X228870Y130500D01*
X228921Y130601D01*
X228969Y130704D01*
X229014Y130808D01*
X229054Y130914D01*
X229091Y131021D01*
X229124Y131129D01*
X229154Y131239D01*
X229179Y131349D01*
X229201Y131460D01*
X229218Y131572D01*
X229232Y131685D01*
X229242Y131798D01*
X229248Y131911D01*
X229250Y132024D01*
X229249Y132024D02*
X229249Y140462D01*
X234569Y128778D02*
X238464Y128778D01*
X238563Y128780D01*
X238663Y128786D01*
X238762Y128795D01*
X238860Y128808D01*
X238958Y128825D01*
X239056Y128846D01*
X239152Y128871D01*
X239247Y128899D01*
X239341Y128931D01*
X239434Y128966D01*
X239526Y129005D01*
X239616Y129048D01*
X239704Y129093D01*
X239791Y129143D01*
X239875Y129195D01*
X239958Y129251D01*
X240038Y129309D01*
X240116Y129371D01*
X240191Y129436D01*
X240264Y129504D01*
X240334Y129574D01*
X240402Y129647D01*
X240467Y129722D01*
X240529Y129800D01*
X240587Y129880D01*
X240643Y129963D01*
X240695Y130047D01*
X240745Y130134D01*
X240790Y130222D01*
X240833Y130312D01*
X240872Y130404D01*
X240907Y130497D01*
X240939Y130591D01*
X240967Y130686D01*
X240992Y130782D01*
X241013Y130880D01*
X241030Y130978D01*
X241043Y131076D01*
X241052Y131175D01*
X241058Y131275D01*
X241060Y131374D01*
X241060Y132673D01*
X241058Y132772D01*
X241052Y132872D01*
X241043Y132971D01*
X241030Y133069D01*
X241013Y133167D01*
X240992Y133265D01*
X240967Y133361D01*
X240939Y133456D01*
X240907Y133550D01*
X240872Y133643D01*
X240833Y133735D01*
X240790Y133825D01*
X240745Y133913D01*
X240695Y134000D01*
X240643Y134084D01*
X240587Y134167D01*
X240529Y134247D01*
X240467Y134325D01*
X240402Y134400D01*
X240334Y134473D01*
X240264Y134543D01*
X240191Y134611D01*
X240116Y134676D01*
X240038Y134738D01*
X239958Y134796D01*
X239875Y134852D01*
X239791Y134904D01*
X239704Y134954D01*
X239616Y134999D01*
X239526Y135042D01*
X239434Y135081D01*
X239341Y135116D01*
X239247Y135148D01*
X239152Y135176D01*
X239056Y135201D01*
X238958Y135222D01*
X238860Y135239D01*
X238762Y135252D01*
X238663Y135261D01*
X238563Y135267D01*
X238464Y135269D01*
X234569Y135269D01*
X234569Y140462D01*
X241060Y140462D01*
D18*
X412242Y60960D02*
X412244Y60838D01*
X412250Y60716D01*
X412260Y60594D01*
X412273Y60473D01*
X412291Y60352D01*
X412312Y60232D01*
X412338Y60112D01*
X412367Y59994D01*
X412399Y59876D01*
X412436Y59759D01*
X412476Y59644D01*
X412520Y59530D01*
X412568Y59418D01*
X412619Y59307D01*
X412674Y59198D01*
X412732Y59090D01*
X412794Y58985D01*
X412859Y58882D01*
X412927Y58780D01*
X412999Y58681D01*
X413073Y58585D01*
X413151Y58490D01*
X413232Y58399D01*
X413315Y58309D01*
X413401Y58223D01*
X413491Y58140D01*
X413582Y58059D01*
X413677Y57981D01*
X413773Y57907D01*
X413872Y57835D01*
X413974Y57767D01*
X414077Y57702D01*
X414182Y57640D01*
X414290Y57582D01*
X414399Y57527D01*
X414510Y57476D01*
X414622Y57428D01*
X414736Y57384D01*
X414851Y57344D01*
X414968Y57307D01*
X415086Y57275D01*
X415204Y57246D01*
X415324Y57220D01*
X415444Y57199D01*
X415565Y57181D01*
X415686Y57168D01*
X415808Y57158D01*
X415930Y57152D01*
X416052Y57150D01*
X451358Y142240D02*
X451356Y142362D01*
X451350Y142484D01*
X451340Y142606D01*
X451327Y142727D01*
X451309Y142848D01*
X451288Y142968D01*
X451262Y143088D01*
X451233Y143206D01*
X451201Y143324D01*
X451164Y143441D01*
X451124Y143556D01*
X451080Y143670D01*
X451032Y143782D01*
X450981Y143893D01*
X450926Y144002D01*
X450868Y144110D01*
X450806Y144215D01*
X450741Y144318D01*
X450673Y144420D01*
X450601Y144519D01*
X450527Y144615D01*
X450449Y144710D01*
X450368Y144801D01*
X450285Y144891D01*
X450199Y144977D01*
X450109Y145060D01*
X450018Y145141D01*
X449923Y145219D01*
X449827Y145293D01*
X449728Y145365D01*
X449626Y145433D01*
X449523Y145498D01*
X449418Y145560D01*
X449310Y145618D01*
X449201Y145673D01*
X449090Y145724D01*
X448978Y145772D01*
X448864Y145816D01*
X448749Y145856D01*
X448632Y145893D01*
X448514Y145925D01*
X448396Y145954D01*
X448276Y145980D01*
X448156Y146001D01*
X448035Y146019D01*
X447914Y146032D01*
X447792Y146042D01*
X447670Y146048D01*
X447548Y146050D01*
X451358Y60960D02*
X451356Y60838D01*
X451350Y60716D01*
X451340Y60594D01*
X451327Y60473D01*
X451309Y60352D01*
X451288Y60232D01*
X451262Y60112D01*
X451233Y59994D01*
X451201Y59876D01*
X451164Y59759D01*
X451124Y59644D01*
X451080Y59530D01*
X451032Y59418D01*
X450981Y59307D01*
X450926Y59198D01*
X450868Y59090D01*
X450806Y58985D01*
X450741Y58882D01*
X450673Y58780D01*
X450601Y58681D01*
X450527Y58585D01*
X450449Y58490D01*
X450368Y58399D01*
X450285Y58309D01*
X450199Y58223D01*
X450109Y58140D01*
X450018Y58059D01*
X449923Y57981D01*
X449827Y57907D01*
X449728Y57835D01*
X449626Y57767D01*
X449523Y57702D01*
X449418Y57640D01*
X449310Y57582D01*
X449201Y57527D01*
X449090Y57476D01*
X448978Y57428D01*
X448864Y57384D01*
X448749Y57344D01*
X448632Y57307D01*
X448514Y57275D01*
X448396Y57246D01*
X448276Y57220D01*
X448156Y57199D01*
X448035Y57181D01*
X447914Y57168D01*
X447792Y57158D01*
X447670Y57152D01*
X447548Y57150D01*
X412242Y142240D02*
X412244Y142362D01*
X412250Y142484D01*
X412260Y142606D01*
X412273Y142727D01*
X412291Y142848D01*
X412312Y142968D01*
X412338Y143088D01*
X412367Y143206D01*
X412399Y143324D01*
X412436Y143441D01*
X412476Y143556D01*
X412520Y143670D01*
X412568Y143782D01*
X412619Y143893D01*
X412674Y144002D01*
X412732Y144110D01*
X412794Y144215D01*
X412859Y144318D01*
X412927Y144420D01*
X412999Y144519D01*
X413073Y144615D01*
X413151Y144710D01*
X413232Y144801D01*
X413315Y144891D01*
X413401Y144977D01*
X413491Y145060D01*
X413582Y145141D01*
X413677Y145219D01*
X413773Y145293D01*
X413872Y145365D01*
X413974Y145433D01*
X414077Y145498D01*
X414182Y145560D01*
X414290Y145618D01*
X414399Y145673D01*
X414510Y145724D01*
X414622Y145772D01*
X414736Y145816D01*
X414851Y145856D01*
X414968Y145893D01*
X415086Y145925D01*
X415204Y145954D01*
X415324Y145980D01*
X415444Y146001D01*
X415565Y146019D01*
X415686Y146032D01*
X415808Y146042D01*
X415930Y146048D01*
X416052Y146050D01*
X416052Y57150D02*
X447548Y57150D01*
X447548Y146050D02*
X436880Y146050D01*
X426720Y146050D01*
X416052Y146050D01*
X426720Y146050D02*
X426722Y145909D01*
X426728Y145768D01*
X426738Y145627D01*
X426751Y145486D01*
X426769Y145346D01*
X426791Y145207D01*
X426816Y145068D01*
X426845Y144929D01*
X426878Y144792D01*
X426915Y144656D01*
X426956Y144521D01*
X427000Y144386D01*
X427048Y144254D01*
X427100Y144122D01*
X427155Y143992D01*
X427214Y143864D01*
X427277Y143737D01*
X427343Y143613D01*
X427412Y143490D01*
X427485Y143369D01*
X427561Y143250D01*
X427641Y143133D01*
X427724Y143019D01*
X427809Y142906D01*
X427898Y142797D01*
X427990Y142689D01*
X428085Y142585D01*
X428183Y142483D01*
X428284Y142384D01*
X428387Y142287D01*
X428493Y142194D01*
X428601Y142104D01*
X428712Y142016D01*
X428825Y141932D01*
X428941Y141851D01*
X429059Y141773D01*
X429179Y141698D01*
X429301Y141627D01*
X429425Y141559D01*
X429551Y141495D01*
X429678Y141434D01*
X429807Y141377D01*
X429938Y141324D01*
X430070Y141274D01*
X430203Y141227D01*
X430338Y141185D01*
X430474Y141146D01*
X430611Y141111D01*
X430748Y141080D01*
X430887Y141053D01*
X431026Y141029D01*
X431166Y141010D01*
X431306Y140994D01*
X431447Y140982D01*
X431588Y140974D01*
X431729Y140970D01*
X431871Y140970D01*
X432012Y140974D01*
X432153Y140982D01*
X432294Y140994D01*
X432434Y141010D01*
X432574Y141029D01*
X432713Y141053D01*
X432852Y141080D01*
X432989Y141111D01*
X433126Y141146D01*
X433262Y141185D01*
X433397Y141227D01*
X433530Y141274D01*
X433662Y141324D01*
X433793Y141377D01*
X433922Y141434D01*
X434049Y141495D01*
X434175Y141559D01*
X434299Y141627D01*
X434421Y141698D01*
X434541Y141773D01*
X434659Y141851D01*
X434775Y141932D01*
X434888Y142016D01*
X434999Y142104D01*
X435107Y142194D01*
X435213Y142287D01*
X435316Y142384D01*
X435417Y142483D01*
X435515Y142585D01*
X435610Y142689D01*
X435702Y142797D01*
X435791Y142906D01*
X435876Y143019D01*
X435959Y143133D01*
X436039Y143250D01*
X436115Y143369D01*
X436188Y143490D01*
X436257Y143613D01*
X436323Y143737D01*
X436386Y143864D01*
X436445Y143992D01*
X436500Y144122D01*
X436552Y144254D01*
X436600Y144386D01*
X436644Y144521D01*
X436685Y144656D01*
X436722Y144792D01*
X436755Y144929D01*
X436784Y145068D01*
X436809Y145207D01*
X436831Y145346D01*
X436849Y145486D01*
X436862Y145627D01*
X436872Y145768D01*
X436878Y145909D01*
X436880Y146050D01*
D10*
X415798Y146050D02*
X415798Y57150D01*
D19*
X413385Y153670D02*
X413385Y161925D01*
X413385Y153670D02*
X413387Y153559D01*
X413393Y153449D01*
X413402Y153338D01*
X413416Y153228D01*
X413433Y153119D01*
X413454Y153010D01*
X413479Y152902D01*
X413508Y152795D01*
X413540Y152689D01*
X413576Y152584D01*
X413616Y152481D01*
X413659Y152379D01*
X413706Y152278D01*
X413757Y152179D01*
X413810Y152083D01*
X413867Y151988D01*
X413928Y151895D01*
X413991Y151804D01*
X414058Y151715D01*
X414128Y151629D01*
X414201Y151546D01*
X414276Y151464D01*
X414354Y151386D01*
X414436Y151311D01*
X414519Y151238D01*
X414605Y151168D01*
X414694Y151101D01*
X414785Y151038D01*
X414878Y150977D01*
X414973Y150920D01*
X415069Y150867D01*
X415168Y150816D01*
X415269Y150769D01*
X415371Y150726D01*
X415474Y150686D01*
X415579Y150650D01*
X415685Y150618D01*
X415792Y150589D01*
X415900Y150564D01*
X416009Y150543D01*
X416118Y150526D01*
X416228Y150512D01*
X416339Y150503D01*
X416449Y150497D01*
X416560Y150495D01*
X416671Y150497D01*
X416781Y150503D01*
X416892Y150512D01*
X417002Y150526D01*
X417111Y150543D01*
X417220Y150564D01*
X417328Y150589D01*
X417435Y150618D01*
X417541Y150650D01*
X417646Y150686D01*
X417749Y150726D01*
X417851Y150769D01*
X417952Y150816D01*
X418051Y150867D01*
X418147Y150920D01*
X418242Y150977D01*
X418335Y151038D01*
X418426Y151101D01*
X418515Y151168D01*
X418601Y151238D01*
X418684Y151311D01*
X418766Y151386D01*
X418844Y151464D01*
X418919Y151546D01*
X418992Y151629D01*
X419062Y151715D01*
X419129Y151804D01*
X419192Y151895D01*
X419253Y151988D01*
X419310Y152082D01*
X419363Y152179D01*
X419414Y152278D01*
X419461Y152379D01*
X419504Y152481D01*
X419544Y152584D01*
X419580Y152689D01*
X419612Y152795D01*
X419641Y152902D01*
X419666Y153010D01*
X419687Y153119D01*
X419704Y153228D01*
X419718Y153338D01*
X419727Y153449D01*
X419733Y153559D01*
X419735Y153670D01*
X419735Y161925D01*
X425196Y156845D02*
X429006Y156845D01*
X429106Y156843D01*
X429205Y156837D01*
X429305Y156827D01*
X429403Y156814D01*
X429502Y156796D01*
X429599Y156775D01*
X429695Y156750D01*
X429791Y156721D01*
X429885Y156688D01*
X429978Y156652D01*
X430069Y156612D01*
X430159Y156568D01*
X430247Y156521D01*
X430333Y156471D01*
X430417Y156417D01*
X430499Y156360D01*
X430578Y156300D01*
X430656Y156236D01*
X430730Y156170D01*
X430802Y156101D01*
X430871Y156029D01*
X430937Y155955D01*
X431001Y155877D01*
X431061Y155798D01*
X431118Y155716D01*
X431172Y155632D01*
X431222Y155546D01*
X431269Y155458D01*
X431313Y155368D01*
X431353Y155277D01*
X431389Y155184D01*
X431422Y155090D01*
X431451Y154994D01*
X431476Y154898D01*
X431497Y154801D01*
X431515Y154702D01*
X431528Y154604D01*
X431538Y154504D01*
X431544Y154405D01*
X431546Y154305D01*
X431546Y153670D01*
X431544Y153559D01*
X431538Y153449D01*
X431529Y153338D01*
X431515Y153228D01*
X431498Y153119D01*
X431477Y153010D01*
X431452Y152902D01*
X431423Y152795D01*
X431391Y152689D01*
X431355Y152584D01*
X431315Y152481D01*
X431272Y152379D01*
X431225Y152278D01*
X431174Y152179D01*
X431121Y152082D01*
X431064Y151988D01*
X431003Y151895D01*
X430940Y151804D01*
X430873Y151715D01*
X430803Y151629D01*
X430730Y151546D01*
X430655Y151464D01*
X430577Y151386D01*
X430495Y151311D01*
X430412Y151238D01*
X430326Y151168D01*
X430237Y151101D01*
X430146Y151038D01*
X430053Y150977D01*
X429958Y150920D01*
X429862Y150867D01*
X429763Y150816D01*
X429662Y150769D01*
X429560Y150726D01*
X429457Y150686D01*
X429352Y150650D01*
X429246Y150618D01*
X429139Y150589D01*
X429031Y150564D01*
X428922Y150543D01*
X428813Y150526D01*
X428703Y150512D01*
X428592Y150503D01*
X428482Y150497D01*
X428371Y150495D01*
X428260Y150497D01*
X428150Y150503D01*
X428039Y150512D01*
X427929Y150526D01*
X427820Y150543D01*
X427711Y150564D01*
X427603Y150589D01*
X427496Y150618D01*
X427390Y150650D01*
X427285Y150686D01*
X427182Y150726D01*
X427080Y150769D01*
X426979Y150816D01*
X426880Y150867D01*
X426784Y150920D01*
X426689Y150977D01*
X426596Y151038D01*
X426505Y151101D01*
X426416Y151168D01*
X426330Y151238D01*
X426247Y151311D01*
X426165Y151386D01*
X426087Y151464D01*
X426012Y151546D01*
X425939Y151629D01*
X425869Y151715D01*
X425802Y151804D01*
X425739Y151895D01*
X425678Y151988D01*
X425621Y152083D01*
X425568Y152179D01*
X425517Y152278D01*
X425470Y152379D01*
X425427Y152481D01*
X425387Y152584D01*
X425351Y152689D01*
X425319Y152795D01*
X425290Y152902D01*
X425265Y153010D01*
X425244Y153119D01*
X425227Y153228D01*
X425213Y153338D01*
X425204Y153449D01*
X425198Y153559D01*
X425196Y153670D01*
X425196Y156845D01*
X425198Y156985D01*
X425204Y157125D01*
X425213Y157265D01*
X425227Y157404D01*
X425244Y157543D01*
X425265Y157681D01*
X425290Y157819D01*
X425319Y157956D01*
X425351Y158092D01*
X425388Y158227D01*
X425428Y158361D01*
X425471Y158494D01*
X425519Y158626D01*
X425569Y158757D01*
X425624Y158886D01*
X425682Y159013D01*
X425743Y159139D01*
X425808Y159263D01*
X425877Y159385D01*
X425948Y159505D01*
X426023Y159623D01*
X426101Y159740D01*
X426183Y159854D01*
X426267Y159965D01*
X426355Y160074D01*
X426445Y160181D01*
X426539Y160286D01*
X426635Y160387D01*
X426734Y160486D01*
X426835Y160582D01*
X426940Y160676D01*
X427047Y160766D01*
X427156Y160854D01*
X427267Y160938D01*
X427381Y161020D01*
X427498Y161098D01*
X427616Y161173D01*
X427736Y161244D01*
X427858Y161313D01*
X427982Y161378D01*
X428108Y161439D01*
X428235Y161497D01*
X428364Y161552D01*
X428495Y161602D01*
X428627Y161650D01*
X428760Y161693D01*
X428894Y161733D01*
X429029Y161770D01*
X429165Y161802D01*
X429302Y161831D01*
X429440Y161856D01*
X429578Y161877D01*
X429717Y161894D01*
X429856Y161908D01*
X429996Y161917D01*
X430136Y161923D01*
X430276Y161925D01*
D17*
X337058Y259024D02*
X337058Y267462D01*
X337058Y259024D02*
X337060Y258911D01*
X337066Y258798D01*
X337076Y258685D01*
X337090Y258572D01*
X337107Y258460D01*
X337129Y258349D01*
X337154Y258239D01*
X337184Y258129D01*
X337217Y258021D01*
X337254Y257914D01*
X337294Y257808D01*
X337339Y257704D01*
X337387Y257601D01*
X337438Y257500D01*
X337493Y257401D01*
X337551Y257304D01*
X337613Y257209D01*
X337678Y257116D01*
X337746Y257026D01*
X337817Y256938D01*
X337892Y256852D01*
X337969Y256769D01*
X338049Y256689D01*
X338132Y256612D01*
X338218Y256537D01*
X338306Y256466D01*
X338396Y256398D01*
X338489Y256333D01*
X338584Y256271D01*
X338681Y256213D01*
X338780Y256158D01*
X338881Y256107D01*
X338984Y256059D01*
X339088Y256014D01*
X339194Y255974D01*
X339301Y255937D01*
X339409Y255904D01*
X339519Y255874D01*
X339629Y255849D01*
X339740Y255827D01*
X339852Y255810D01*
X339965Y255796D01*
X340078Y255786D01*
X340191Y255780D01*
X340304Y255778D01*
X340417Y255780D01*
X340530Y255786D01*
X340643Y255796D01*
X340756Y255810D01*
X340868Y255827D01*
X340979Y255849D01*
X341089Y255874D01*
X341199Y255904D01*
X341307Y255937D01*
X341414Y255974D01*
X341520Y256014D01*
X341624Y256059D01*
X341727Y256107D01*
X341828Y256158D01*
X341927Y256213D01*
X342024Y256271D01*
X342119Y256333D01*
X342212Y256398D01*
X342302Y256466D01*
X342390Y256537D01*
X342476Y256612D01*
X342559Y256689D01*
X342639Y256769D01*
X342716Y256852D01*
X342791Y256938D01*
X342862Y257026D01*
X342930Y257116D01*
X342995Y257209D01*
X343057Y257304D01*
X343115Y257401D01*
X343170Y257500D01*
X343221Y257601D01*
X343269Y257704D01*
X343314Y257808D01*
X343354Y257914D01*
X343391Y258021D01*
X343424Y258129D01*
X343454Y258239D01*
X343479Y258349D01*
X343501Y258460D01*
X343518Y258572D01*
X343532Y258685D01*
X343542Y258798D01*
X343548Y258911D01*
X343550Y259024D01*
X343549Y259024D02*
X343549Y267462D01*
X348869Y267462D02*
X348869Y266164D01*
X348869Y267462D02*
X355360Y267462D01*
X352115Y255778D01*
D18*
X289052Y336550D02*
X288930Y336552D01*
X288808Y336558D01*
X288686Y336568D01*
X288565Y336581D01*
X288444Y336599D01*
X288324Y336620D01*
X288204Y336646D01*
X288086Y336675D01*
X287968Y336707D01*
X287851Y336744D01*
X287736Y336784D01*
X287622Y336828D01*
X287510Y336876D01*
X287399Y336927D01*
X287290Y336982D01*
X287182Y337040D01*
X287077Y337102D01*
X286974Y337167D01*
X286872Y337235D01*
X286773Y337307D01*
X286677Y337381D01*
X286582Y337459D01*
X286491Y337540D01*
X286401Y337623D01*
X286315Y337709D01*
X286232Y337799D01*
X286151Y337890D01*
X286073Y337985D01*
X285999Y338081D01*
X285927Y338180D01*
X285859Y338282D01*
X285794Y338385D01*
X285732Y338490D01*
X285674Y338598D01*
X285619Y338707D01*
X285568Y338818D01*
X285520Y338930D01*
X285476Y339044D01*
X285436Y339159D01*
X285399Y339276D01*
X285367Y339394D01*
X285338Y339512D01*
X285312Y339632D01*
X285291Y339752D01*
X285273Y339873D01*
X285260Y339994D01*
X285250Y340116D01*
X285244Y340238D01*
X285242Y340360D01*
X324358Y421640D02*
X324356Y421762D01*
X324350Y421884D01*
X324340Y422006D01*
X324327Y422127D01*
X324309Y422248D01*
X324288Y422368D01*
X324262Y422488D01*
X324233Y422606D01*
X324201Y422724D01*
X324164Y422841D01*
X324124Y422956D01*
X324080Y423070D01*
X324032Y423182D01*
X323981Y423293D01*
X323926Y423402D01*
X323868Y423510D01*
X323806Y423615D01*
X323741Y423718D01*
X323673Y423820D01*
X323601Y423919D01*
X323527Y424015D01*
X323449Y424110D01*
X323368Y424201D01*
X323285Y424291D01*
X323199Y424377D01*
X323109Y424460D01*
X323018Y424541D01*
X322923Y424619D01*
X322827Y424693D01*
X322728Y424765D01*
X322626Y424833D01*
X322523Y424898D01*
X322418Y424960D01*
X322310Y425018D01*
X322201Y425073D01*
X322090Y425124D01*
X321978Y425172D01*
X321864Y425216D01*
X321749Y425256D01*
X321632Y425293D01*
X321514Y425325D01*
X321396Y425354D01*
X321276Y425380D01*
X321156Y425401D01*
X321035Y425419D01*
X320914Y425432D01*
X320792Y425442D01*
X320670Y425448D01*
X320548Y425450D01*
X324358Y340360D02*
X324356Y340238D01*
X324350Y340116D01*
X324340Y339994D01*
X324327Y339873D01*
X324309Y339752D01*
X324288Y339632D01*
X324262Y339512D01*
X324233Y339394D01*
X324201Y339276D01*
X324164Y339159D01*
X324124Y339044D01*
X324080Y338930D01*
X324032Y338818D01*
X323981Y338707D01*
X323926Y338598D01*
X323868Y338490D01*
X323806Y338385D01*
X323741Y338282D01*
X323673Y338180D01*
X323601Y338081D01*
X323527Y337985D01*
X323449Y337890D01*
X323368Y337799D01*
X323285Y337709D01*
X323199Y337623D01*
X323109Y337540D01*
X323018Y337459D01*
X322923Y337381D01*
X322827Y337307D01*
X322728Y337235D01*
X322626Y337167D01*
X322523Y337102D01*
X322418Y337040D01*
X322310Y336982D01*
X322201Y336927D01*
X322090Y336876D01*
X321978Y336828D01*
X321864Y336784D01*
X321749Y336744D01*
X321632Y336707D01*
X321514Y336675D01*
X321396Y336646D01*
X321276Y336620D01*
X321156Y336599D01*
X321035Y336581D01*
X320914Y336568D01*
X320792Y336558D01*
X320670Y336552D01*
X320548Y336550D01*
X285242Y421640D02*
X285244Y421762D01*
X285250Y421884D01*
X285260Y422006D01*
X285273Y422127D01*
X285291Y422248D01*
X285312Y422368D01*
X285338Y422488D01*
X285367Y422606D01*
X285399Y422724D01*
X285436Y422841D01*
X285476Y422956D01*
X285520Y423070D01*
X285568Y423182D01*
X285619Y423293D01*
X285674Y423402D01*
X285732Y423510D01*
X285794Y423615D01*
X285859Y423718D01*
X285927Y423820D01*
X285999Y423919D01*
X286073Y424015D01*
X286151Y424110D01*
X286232Y424201D01*
X286315Y424291D01*
X286401Y424377D01*
X286491Y424460D01*
X286582Y424541D01*
X286677Y424619D01*
X286773Y424693D01*
X286872Y424765D01*
X286974Y424833D01*
X287077Y424898D01*
X287182Y424960D01*
X287290Y425018D01*
X287399Y425073D01*
X287510Y425124D01*
X287622Y425172D01*
X287736Y425216D01*
X287851Y425256D01*
X287968Y425293D01*
X288086Y425325D01*
X288204Y425354D01*
X288324Y425380D01*
X288444Y425401D01*
X288565Y425419D01*
X288686Y425432D01*
X288808Y425442D01*
X288930Y425448D01*
X289052Y425450D01*
X289052Y336550D02*
X320548Y336550D01*
X320548Y425450D02*
X309880Y425450D01*
X299720Y425450D01*
X289052Y425450D01*
X299720Y425450D02*
X299722Y425309D01*
X299728Y425168D01*
X299738Y425027D01*
X299751Y424886D01*
X299769Y424746D01*
X299791Y424607D01*
X299816Y424468D01*
X299845Y424329D01*
X299878Y424192D01*
X299915Y424056D01*
X299956Y423921D01*
X300000Y423786D01*
X300048Y423654D01*
X300100Y423522D01*
X300155Y423392D01*
X300214Y423264D01*
X300277Y423137D01*
X300343Y423013D01*
X300412Y422890D01*
X300485Y422769D01*
X300561Y422650D01*
X300641Y422533D01*
X300724Y422419D01*
X300809Y422306D01*
X300898Y422197D01*
X300990Y422089D01*
X301085Y421985D01*
X301183Y421883D01*
X301284Y421784D01*
X301387Y421687D01*
X301493Y421594D01*
X301601Y421504D01*
X301712Y421416D01*
X301825Y421332D01*
X301941Y421251D01*
X302059Y421173D01*
X302179Y421098D01*
X302301Y421027D01*
X302425Y420959D01*
X302551Y420895D01*
X302678Y420834D01*
X302807Y420777D01*
X302938Y420724D01*
X303070Y420674D01*
X303203Y420627D01*
X303338Y420585D01*
X303474Y420546D01*
X303611Y420511D01*
X303748Y420480D01*
X303887Y420453D01*
X304026Y420429D01*
X304166Y420410D01*
X304306Y420394D01*
X304447Y420382D01*
X304588Y420374D01*
X304729Y420370D01*
X304871Y420370D01*
X305012Y420374D01*
X305153Y420382D01*
X305294Y420394D01*
X305434Y420410D01*
X305574Y420429D01*
X305713Y420453D01*
X305852Y420480D01*
X305989Y420511D01*
X306126Y420546D01*
X306262Y420585D01*
X306397Y420627D01*
X306530Y420674D01*
X306662Y420724D01*
X306793Y420777D01*
X306922Y420834D01*
X307049Y420895D01*
X307175Y420959D01*
X307299Y421027D01*
X307421Y421098D01*
X307541Y421173D01*
X307659Y421251D01*
X307775Y421332D01*
X307888Y421416D01*
X307999Y421504D01*
X308107Y421594D01*
X308213Y421687D01*
X308316Y421784D01*
X308417Y421883D01*
X308515Y421985D01*
X308610Y422089D01*
X308702Y422197D01*
X308791Y422306D01*
X308876Y422419D01*
X308959Y422533D01*
X309039Y422650D01*
X309115Y422769D01*
X309188Y422890D01*
X309257Y423013D01*
X309323Y423137D01*
X309386Y423264D01*
X309445Y423392D01*
X309500Y423522D01*
X309552Y423654D01*
X309600Y423786D01*
X309644Y423921D01*
X309685Y424056D01*
X309722Y424192D01*
X309755Y424329D01*
X309784Y424468D01*
X309809Y424607D01*
X309831Y424746D01*
X309849Y424886D01*
X309862Y425027D01*
X309872Y425168D01*
X309878Y425309D01*
X309880Y425450D01*
D10*
X288798Y425450D02*
X288798Y336550D01*
D19*
X286385Y433070D02*
X286385Y441325D01*
X286385Y433070D02*
X286387Y432959D01*
X286393Y432849D01*
X286402Y432738D01*
X286416Y432628D01*
X286433Y432519D01*
X286454Y432410D01*
X286479Y432302D01*
X286508Y432195D01*
X286540Y432089D01*
X286576Y431984D01*
X286616Y431881D01*
X286659Y431779D01*
X286706Y431678D01*
X286757Y431579D01*
X286810Y431483D01*
X286867Y431388D01*
X286928Y431295D01*
X286991Y431204D01*
X287058Y431115D01*
X287128Y431029D01*
X287201Y430946D01*
X287276Y430864D01*
X287354Y430786D01*
X287436Y430711D01*
X287519Y430638D01*
X287605Y430568D01*
X287694Y430501D01*
X287785Y430438D01*
X287878Y430377D01*
X287973Y430320D01*
X288069Y430267D01*
X288168Y430216D01*
X288269Y430169D01*
X288371Y430126D01*
X288474Y430086D01*
X288579Y430050D01*
X288685Y430018D01*
X288792Y429989D01*
X288900Y429964D01*
X289009Y429943D01*
X289118Y429926D01*
X289228Y429912D01*
X289339Y429903D01*
X289449Y429897D01*
X289560Y429895D01*
X289671Y429897D01*
X289781Y429903D01*
X289892Y429912D01*
X290002Y429926D01*
X290111Y429943D01*
X290220Y429964D01*
X290328Y429989D01*
X290435Y430018D01*
X290541Y430050D01*
X290646Y430086D01*
X290749Y430126D01*
X290851Y430169D01*
X290952Y430216D01*
X291051Y430267D01*
X291147Y430320D01*
X291242Y430377D01*
X291335Y430438D01*
X291426Y430501D01*
X291515Y430568D01*
X291601Y430638D01*
X291684Y430711D01*
X291766Y430786D01*
X291844Y430864D01*
X291919Y430946D01*
X291992Y431029D01*
X292062Y431115D01*
X292129Y431204D01*
X292192Y431295D01*
X292253Y431388D01*
X292310Y431482D01*
X292363Y431579D01*
X292414Y431678D01*
X292461Y431779D01*
X292504Y431881D01*
X292544Y431984D01*
X292580Y432089D01*
X292612Y432195D01*
X292641Y432302D01*
X292666Y432410D01*
X292687Y432519D01*
X292704Y432628D01*
X292718Y432738D01*
X292727Y432849D01*
X292733Y432959D01*
X292735Y433070D01*
X292735Y441325D01*
X298196Y433070D02*
X298198Y433181D01*
X298204Y433291D01*
X298213Y433402D01*
X298227Y433512D01*
X298244Y433621D01*
X298265Y433730D01*
X298290Y433838D01*
X298319Y433945D01*
X298351Y434051D01*
X298387Y434156D01*
X298427Y434259D01*
X298470Y434361D01*
X298517Y434462D01*
X298568Y434561D01*
X298621Y434658D01*
X298678Y434752D01*
X298739Y434845D01*
X298802Y434936D01*
X298869Y435025D01*
X298939Y435111D01*
X299012Y435194D01*
X299087Y435276D01*
X299165Y435354D01*
X299247Y435429D01*
X299330Y435502D01*
X299416Y435572D01*
X299505Y435639D01*
X299596Y435702D01*
X299689Y435763D01*
X299784Y435820D01*
X299880Y435873D01*
X299979Y435924D01*
X300080Y435971D01*
X300182Y436014D01*
X300285Y436054D01*
X300390Y436090D01*
X300496Y436122D01*
X300603Y436151D01*
X300711Y436176D01*
X300820Y436197D01*
X300929Y436214D01*
X301039Y436228D01*
X301150Y436237D01*
X301260Y436243D01*
X301371Y436245D01*
X301482Y436243D01*
X301592Y436237D01*
X301703Y436228D01*
X301813Y436214D01*
X301922Y436197D01*
X302031Y436176D01*
X302139Y436151D01*
X302246Y436122D01*
X302352Y436090D01*
X302457Y436054D01*
X302560Y436014D01*
X302662Y435971D01*
X302763Y435924D01*
X302862Y435873D01*
X302959Y435820D01*
X303053Y435763D01*
X303146Y435702D01*
X303237Y435639D01*
X303326Y435572D01*
X303412Y435502D01*
X303495Y435429D01*
X303577Y435354D01*
X303655Y435276D01*
X303730Y435194D01*
X303803Y435111D01*
X303873Y435025D01*
X303940Y434936D01*
X304003Y434845D01*
X304064Y434752D01*
X304121Y434658D01*
X304174Y434561D01*
X304225Y434462D01*
X304272Y434361D01*
X304315Y434259D01*
X304355Y434156D01*
X304391Y434051D01*
X304423Y433945D01*
X304452Y433838D01*
X304477Y433730D01*
X304498Y433621D01*
X304515Y433512D01*
X304529Y433402D01*
X304538Y433291D01*
X304544Y433181D01*
X304546Y433070D01*
X304544Y432959D01*
X304538Y432849D01*
X304529Y432738D01*
X304515Y432628D01*
X304498Y432519D01*
X304477Y432410D01*
X304452Y432302D01*
X304423Y432195D01*
X304391Y432089D01*
X304355Y431984D01*
X304315Y431881D01*
X304272Y431779D01*
X304225Y431678D01*
X304174Y431579D01*
X304121Y431482D01*
X304064Y431388D01*
X304003Y431295D01*
X303940Y431204D01*
X303873Y431115D01*
X303803Y431029D01*
X303730Y430946D01*
X303655Y430864D01*
X303577Y430786D01*
X303495Y430711D01*
X303412Y430638D01*
X303326Y430568D01*
X303237Y430501D01*
X303146Y430438D01*
X303053Y430377D01*
X302958Y430320D01*
X302862Y430267D01*
X302763Y430216D01*
X302662Y430169D01*
X302560Y430126D01*
X302457Y430086D01*
X302352Y430050D01*
X302246Y430018D01*
X302139Y429989D01*
X302031Y429964D01*
X301922Y429943D01*
X301813Y429926D01*
X301703Y429912D01*
X301592Y429903D01*
X301482Y429897D01*
X301371Y429895D01*
X301260Y429897D01*
X301150Y429903D01*
X301039Y429912D01*
X300929Y429926D01*
X300820Y429943D01*
X300711Y429964D01*
X300603Y429989D01*
X300496Y430018D01*
X300390Y430050D01*
X300285Y430086D01*
X300182Y430126D01*
X300080Y430169D01*
X299979Y430216D01*
X299880Y430267D01*
X299784Y430320D01*
X299689Y430377D01*
X299596Y430438D01*
X299505Y430501D01*
X299416Y430568D01*
X299330Y430638D01*
X299247Y430711D01*
X299165Y430786D01*
X299087Y430864D01*
X299012Y430946D01*
X298939Y431029D01*
X298869Y431115D01*
X298802Y431204D01*
X298739Y431295D01*
X298678Y431388D01*
X298621Y431483D01*
X298568Y431579D01*
X298517Y431678D01*
X298470Y431779D01*
X298427Y431881D01*
X298387Y431984D01*
X298351Y432089D01*
X298319Y432195D01*
X298290Y432302D01*
X298265Y432410D01*
X298244Y432519D01*
X298227Y432628D01*
X298213Y432738D01*
X298204Y432849D01*
X298198Y432959D01*
X298196Y433070D01*
X298831Y438785D02*
X298833Y438885D01*
X298839Y438984D01*
X298849Y439084D01*
X298862Y439182D01*
X298880Y439281D01*
X298901Y439378D01*
X298926Y439474D01*
X298955Y439570D01*
X298988Y439664D01*
X299024Y439757D01*
X299064Y439848D01*
X299108Y439938D01*
X299155Y440026D01*
X299205Y440112D01*
X299259Y440196D01*
X299316Y440278D01*
X299376Y440357D01*
X299440Y440435D01*
X299506Y440509D01*
X299575Y440581D01*
X299647Y440650D01*
X299721Y440716D01*
X299799Y440780D01*
X299878Y440840D01*
X299960Y440897D01*
X300044Y440951D01*
X300130Y441001D01*
X300218Y441048D01*
X300308Y441092D01*
X300399Y441132D01*
X300492Y441168D01*
X300586Y441201D01*
X300682Y441230D01*
X300778Y441255D01*
X300875Y441276D01*
X300974Y441294D01*
X301072Y441307D01*
X301172Y441317D01*
X301271Y441323D01*
X301371Y441325D01*
X301471Y441323D01*
X301570Y441317D01*
X301670Y441307D01*
X301768Y441294D01*
X301867Y441276D01*
X301964Y441255D01*
X302060Y441230D01*
X302156Y441201D01*
X302250Y441168D01*
X302343Y441132D01*
X302434Y441092D01*
X302524Y441048D01*
X302612Y441001D01*
X302698Y440951D01*
X302782Y440897D01*
X302864Y440840D01*
X302943Y440780D01*
X303021Y440716D01*
X303095Y440650D01*
X303167Y440581D01*
X303236Y440509D01*
X303302Y440435D01*
X303366Y440357D01*
X303426Y440278D01*
X303483Y440196D01*
X303537Y440112D01*
X303587Y440026D01*
X303634Y439938D01*
X303678Y439848D01*
X303718Y439757D01*
X303754Y439664D01*
X303787Y439570D01*
X303816Y439474D01*
X303841Y439378D01*
X303862Y439281D01*
X303880Y439182D01*
X303893Y439084D01*
X303903Y438984D01*
X303909Y438885D01*
X303911Y438785D01*
X303909Y438685D01*
X303903Y438586D01*
X303893Y438486D01*
X303880Y438388D01*
X303862Y438289D01*
X303841Y438192D01*
X303816Y438096D01*
X303787Y438000D01*
X303754Y437906D01*
X303718Y437813D01*
X303678Y437722D01*
X303634Y437632D01*
X303587Y437544D01*
X303537Y437458D01*
X303483Y437374D01*
X303426Y437292D01*
X303366Y437213D01*
X303302Y437135D01*
X303236Y437061D01*
X303167Y436989D01*
X303095Y436920D01*
X303021Y436854D01*
X302943Y436790D01*
X302864Y436730D01*
X302782Y436673D01*
X302698Y436619D01*
X302612Y436569D01*
X302524Y436522D01*
X302434Y436478D01*
X302343Y436438D01*
X302250Y436402D01*
X302156Y436369D01*
X302060Y436340D01*
X301964Y436315D01*
X301867Y436294D01*
X301768Y436276D01*
X301670Y436263D01*
X301570Y436253D01*
X301471Y436247D01*
X301371Y436245D01*
X301271Y436247D01*
X301172Y436253D01*
X301072Y436263D01*
X300974Y436276D01*
X300875Y436294D01*
X300778Y436315D01*
X300682Y436340D01*
X300586Y436369D01*
X300492Y436402D01*
X300399Y436438D01*
X300308Y436478D01*
X300218Y436522D01*
X300130Y436569D01*
X300044Y436619D01*
X299960Y436673D01*
X299878Y436730D01*
X299799Y436790D01*
X299721Y436854D01*
X299647Y436920D01*
X299575Y436989D01*
X299506Y437061D01*
X299440Y437135D01*
X299376Y437213D01*
X299316Y437292D01*
X299259Y437374D01*
X299205Y437458D01*
X299155Y437544D01*
X299108Y437632D01*
X299064Y437722D01*
X299024Y437813D01*
X298988Y437906D01*
X298955Y438000D01*
X298926Y438096D01*
X298901Y438192D01*
X298880Y438289D01*
X298862Y438388D01*
X298849Y438486D01*
X298839Y438586D01*
X298833Y438685D01*
X298831Y438785D01*
D18*
X397002Y346710D02*
X397004Y346588D01*
X397010Y346466D01*
X397020Y346344D01*
X397033Y346223D01*
X397051Y346102D01*
X397072Y345982D01*
X397098Y345862D01*
X397127Y345744D01*
X397159Y345626D01*
X397196Y345509D01*
X397236Y345394D01*
X397280Y345280D01*
X397328Y345168D01*
X397379Y345057D01*
X397434Y344948D01*
X397492Y344840D01*
X397554Y344735D01*
X397619Y344632D01*
X397687Y344530D01*
X397759Y344431D01*
X397833Y344335D01*
X397911Y344240D01*
X397992Y344149D01*
X398075Y344059D01*
X398161Y343973D01*
X398251Y343890D01*
X398342Y343809D01*
X398437Y343731D01*
X398533Y343657D01*
X398632Y343585D01*
X398734Y343517D01*
X398837Y343452D01*
X398942Y343390D01*
X399050Y343332D01*
X399159Y343277D01*
X399270Y343226D01*
X399382Y343178D01*
X399496Y343134D01*
X399611Y343094D01*
X399728Y343057D01*
X399846Y343025D01*
X399964Y342996D01*
X400084Y342970D01*
X400204Y342949D01*
X400325Y342931D01*
X400446Y342918D01*
X400568Y342908D01*
X400690Y342902D01*
X400812Y342900D01*
X436118Y427990D02*
X436116Y428112D01*
X436110Y428234D01*
X436100Y428356D01*
X436087Y428477D01*
X436069Y428598D01*
X436048Y428718D01*
X436022Y428838D01*
X435993Y428956D01*
X435961Y429074D01*
X435924Y429191D01*
X435884Y429306D01*
X435840Y429420D01*
X435792Y429532D01*
X435741Y429643D01*
X435686Y429752D01*
X435628Y429860D01*
X435566Y429965D01*
X435501Y430068D01*
X435433Y430170D01*
X435361Y430269D01*
X435287Y430365D01*
X435209Y430460D01*
X435128Y430551D01*
X435045Y430641D01*
X434959Y430727D01*
X434869Y430810D01*
X434778Y430891D01*
X434683Y430969D01*
X434587Y431043D01*
X434488Y431115D01*
X434386Y431183D01*
X434283Y431248D01*
X434178Y431310D01*
X434070Y431368D01*
X433961Y431423D01*
X433850Y431474D01*
X433738Y431522D01*
X433624Y431566D01*
X433509Y431606D01*
X433392Y431643D01*
X433274Y431675D01*
X433156Y431704D01*
X433036Y431730D01*
X432916Y431751D01*
X432795Y431769D01*
X432674Y431782D01*
X432552Y431792D01*
X432430Y431798D01*
X432308Y431800D01*
X436118Y346710D02*
X436116Y346588D01*
X436110Y346466D01*
X436100Y346344D01*
X436087Y346223D01*
X436069Y346102D01*
X436048Y345982D01*
X436022Y345862D01*
X435993Y345744D01*
X435961Y345626D01*
X435924Y345509D01*
X435884Y345394D01*
X435840Y345280D01*
X435792Y345168D01*
X435741Y345057D01*
X435686Y344948D01*
X435628Y344840D01*
X435566Y344735D01*
X435501Y344632D01*
X435433Y344530D01*
X435361Y344431D01*
X435287Y344335D01*
X435209Y344240D01*
X435128Y344149D01*
X435045Y344059D01*
X434959Y343973D01*
X434869Y343890D01*
X434778Y343809D01*
X434683Y343731D01*
X434587Y343657D01*
X434488Y343585D01*
X434386Y343517D01*
X434283Y343452D01*
X434178Y343390D01*
X434070Y343332D01*
X433961Y343277D01*
X433850Y343226D01*
X433738Y343178D01*
X433624Y343134D01*
X433509Y343094D01*
X433392Y343057D01*
X433274Y343025D01*
X433156Y342996D01*
X433036Y342970D01*
X432916Y342949D01*
X432795Y342931D01*
X432674Y342918D01*
X432552Y342908D01*
X432430Y342902D01*
X432308Y342900D01*
X397002Y427990D02*
X397004Y428112D01*
X397010Y428234D01*
X397020Y428356D01*
X397033Y428477D01*
X397051Y428598D01*
X397072Y428718D01*
X397098Y428838D01*
X397127Y428956D01*
X397159Y429074D01*
X397196Y429191D01*
X397236Y429306D01*
X397280Y429420D01*
X397328Y429532D01*
X397379Y429643D01*
X397434Y429752D01*
X397492Y429860D01*
X397554Y429965D01*
X397619Y430068D01*
X397687Y430170D01*
X397759Y430269D01*
X397833Y430365D01*
X397911Y430460D01*
X397992Y430551D01*
X398075Y430641D01*
X398161Y430727D01*
X398251Y430810D01*
X398342Y430891D01*
X398437Y430969D01*
X398533Y431043D01*
X398632Y431115D01*
X398734Y431183D01*
X398837Y431248D01*
X398942Y431310D01*
X399050Y431368D01*
X399159Y431423D01*
X399270Y431474D01*
X399382Y431522D01*
X399496Y431566D01*
X399611Y431606D01*
X399728Y431643D01*
X399846Y431675D01*
X399964Y431704D01*
X400084Y431730D01*
X400204Y431751D01*
X400325Y431769D01*
X400446Y431782D01*
X400568Y431792D01*
X400690Y431798D01*
X400812Y431800D01*
X400812Y342900D02*
X432308Y342900D01*
X432308Y431800D02*
X421640Y431800D01*
X411480Y431800D01*
X400812Y431800D01*
X411480Y431800D02*
X411482Y431659D01*
X411488Y431518D01*
X411498Y431377D01*
X411511Y431236D01*
X411529Y431096D01*
X411551Y430957D01*
X411576Y430818D01*
X411605Y430679D01*
X411638Y430542D01*
X411675Y430406D01*
X411716Y430271D01*
X411760Y430136D01*
X411808Y430004D01*
X411860Y429872D01*
X411915Y429742D01*
X411974Y429614D01*
X412037Y429487D01*
X412103Y429363D01*
X412172Y429240D01*
X412245Y429119D01*
X412321Y429000D01*
X412401Y428883D01*
X412484Y428769D01*
X412569Y428656D01*
X412658Y428547D01*
X412750Y428439D01*
X412845Y428335D01*
X412943Y428233D01*
X413044Y428134D01*
X413147Y428037D01*
X413253Y427944D01*
X413361Y427854D01*
X413472Y427766D01*
X413585Y427682D01*
X413701Y427601D01*
X413819Y427523D01*
X413939Y427448D01*
X414061Y427377D01*
X414185Y427309D01*
X414311Y427245D01*
X414438Y427184D01*
X414567Y427127D01*
X414698Y427074D01*
X414830Y427024D01*
X414963Y426977D01*
X415098Y426935D01*
X415234Y426896D01*
X415371Y426861D01*
X415508Y426830D01*
X415647Y426803D01*
X415786Y426779D01*
X415926Y426760D01*
X416066Y426744D01*
X416207Y426732D01*
X416348Y426724D01*
X416489Y426720D01*
X416631Y426720D01*
X416772Y426724D01*
X416913Y426732D01*
X417054Y426744D01*
X417194Y426760D01*
X417334Y426779D01*
X417473Y426803D01*
X417612Y426830D01*
X417749Y426861D01*
X417886Y426896D01*
X418022Y426935D01*
X418157Y426977D01*
X418290Y427024D01*
X418422Y427074D01*
X418553Y427127D01*
X418682Y427184D01*
X418809Y427245D01*
X418935Y427309D01*
X419059Y427377D01*
X419181Y427448D01*
X419301Y427523D01*
X419419Y427601D01*
X419535Y427682D01*
X419648Y427766D01*
X419759Y427854D01*
X419867Y427944D01*
X419973Y428037D01*
X420076Y428134D01*
X420177Y428233D01*
X420275Y428335D01*
X420370Y428439D01*
X420462Y428547D01*
X420551Y428656D01*
X420636Y428769D01*
X420719Y428883D01*
X420799Y429000D01*
X420875Y429119D01*
X420948Y429240D01*
X421017Y429363D01*
X421083Y429487D01*
X421146Y429614D01*
X421205Y429742D01*
X421260Y429872D01*
X421312Y430004D01*
X421360Y430136D01*
X421404Y430271D01*
X421445Y430406D01*
X421482Y430542D01*
X421515Y430679D01*
X421544Y430818D01*
X421569Y430957D01*
X421591Y431096D01*
X421609Y431236D01*
X421622Y431377D01*
X421632Y431518D01*
X421638Y431659D01*
X421640Y431800D01*
D10*
X400558Y431800D02*
X400558Y342900D01*
D19*
X398145Y439420D02*
X398145Y447675D01*
X398145Y439420D02*
X398147Y439309D01*
X398153Y439199D01*
X398162Y439088D01*
X398176Y438978D01*
X398193Y438869D01*
X398214Y438760D01*
X398239Y438652D01*
X398268Y438545D01*
X398300Y438439D01*
X398336Y438334D01*
X398376Y438231D01*
X398419Y438129D01*
X398466Y438028D01*
X398517Y437929D01*
X398570Y437833D01*
X398627Y437738D01*
X398688Y437645D01*
X398751Y437554D01*
X398818Y437465D01*
X398888Y437379D01*
X398961Y437296D01*
X399036Y437214D01*
X399114Y437136D01*
X399196Y437061D01*
X399279Y436988D01*
X399365Y436918D01*
X399454Y436851D01*
X399545Y436788D01*
X399638Y436727D01*
X399733Y436670D01*
X399829Y436617D01*
X399928Y436566D01*
X400029Y436519D01*
X400131Y436476D01*
X400234Y436436D01*
X400339Y436400D01*
X400445Y436368D01*
X400552Y436339D01*
X400660Y436314D01*
X400769Y436293D01*
X400878Y436276D01*
X400988Y436262D01*
X401099Y436253D01*
X401209Y436247D01*
X401320Y436245D01*
X401431Y436247D01*
X401541Y436253D01*
X401652Y436262D01*
X401762Y436276D01*
X401871Y436293D01*
X401980Y436314D01*
X402088Y436339D01*
X402195Y436368D01*
X402301Y436400D01*
X402406Y436436D01*
X402509Y436476D01*
X402611Y436519D01*
X402712Y436566D01*
X402811Y436617D01*
X402907Y436670D01*
X403002Y436727D01*
X403095Y436788D01*
X403186Y436851D01*
X403275Y436918D01*
X403361Y436988D01*
X403444Y437061D01*
X403526Y437136D01*
X403604Y437214D01*
X403679Y437296D01*
X403752Y437379D01*
X403822Y437465D01*
X403889Y437554D01*
X403952Y437645D01*
X404013Y437738D01*
X404070Y437832D01*
X404123Y437929D01*
X404174Y438028D01*
X404221Y438129D01*
X404264Y438231D01*
X404304Y438334D01*
X404340Y438439D01*
X404372Y438545D01*
X404401Y438652D01*
X404426Y438760D01*
X404447Y438869D01*
X404464Y438978D01*
X404478Y439088D01*
X404487Y439199D01*
X404493Y439309D01*
X404495Y439420D01*
X404495Y447675D01*
X412496Y441325D02*
X416306Y441325D01*
X412496Y441325D02*
X412396Y441327D01*
X412297Y441333D01*
X412197Y441343D01*
X412099Y441356D01*
X412000Y441374D01*
X411903Y441395D01*
X411807Y441420D01*
X411711Y441449D01*
X411617Y441482D01*
X411524Y441518D01*
X411433Y441558D01*
X411343Y441602D01*
X411255Y441649D01*
X411169Y441699D01*
X411085Y441753D01*
X411003Y441810D01*
X410924Y441870D01*
X410846Y441934D01*
X410772Y442000D01*
X410700Y442069D01*
X410631Y442141D01*
X410565Y442215D01*
X410501Y442293D01*
X410441Y442372D01*
X410384Y442454D01*
X410330Y442538D01*
X410280Y442624D01*
X410233Y442712D01*
X410189Y442802D01*
X410149Y442893D01*
X410113Y442986D01*
X410080Y443080D01*
X410051Y443176D01*
X410026Y443272D01*
X410005Y443369D01*
X409987Y443468D01*
X409974Y443566D01*
X409964Y443666D01*
X409958Y443765D01*
X409956Y443865D01*
X409956Y444500D01*
X409958Y444611D01*
X409964Y444721D01*
X409973Y444832D01*
X409987Y444942D01*
X410004Y445051D01*
X410025Y445160D01*
X410050Y445268D01*
X410079Y445375D01*
X410111Y445481D01*
X410147Y445586D01*
X410187Y445689D01*
X410230Y445791D01*
X410277Y445892D01*
X410328Y445991D01*
X410381Y446088D01*
X410438Y446182D01*
X410499Y446275D01*
X410562Y446366D01*
X410629Y446455D01*
X410699Y446541D01*
X410772Y446624D01*
X410847Y446706D01*
X410925Y446784D01*
X411007Y446859D01*
X411090Y446932D01*
X411176Y447002D01*
X411265Y447069D01*
X411356Y447132D01*
X411449Y447193D01*
X411544Y447250D01*
X411640Y447303D01*
X411739Y447354D01*
X411840Y447401D01*
X411942Y447444D01*
X412045Y447484D01*
X412150Y447520D01*
X412256Y447552D01*
X412363Y447581D01*
X412471Y447606D01*
X412580Y447627D01*
X412689Y447644D01*
X412799Y447658D01*
X412910Y447667D01*
X413020Y447673D01*
X413131Y447675D01*
X413242Y447673D01*
X413352Y447667D01*
X413463Y447658D01*
X413573Y447644D01*
X413682Y447627D01*
X413791Y447606D01*
X413899Y447581D01*
X414006Y447552D01*
X414112Y447520D01*
X414217Y447484D01*
X414320Y447444D01*
X414422Y447401D01*
X414523Y447354D01*
X414622Y447303D01*
X414719Y447250D01*
X414813Y447193D01*
X414906Y447132D01*
X414997Y447069D01*
X415086Y447002D01*
X415172Y446932D01*
X415255Y446859D01*
X415337Y446784D01*
X415415Y446706D01*
X415490Y446624D01*
X415563Y446541D01*
X415633Y446455D01*
X415700Y446366D01*
X415763Y446275D01*
X415824Y446182D01*
X415881Y446088D01*
X415934Y445991D01*
X415985Y445892D01*
X416032Y445791D01*
X416075Y445689D01*
X416115Y445586D01*
X416151Y445481D01*
X416183Y445375D01*
X416212Y445268D01*
X416237Y445160D01*
X416258Y445051D01*
X416275Y444942D01*
X416289Y444832D01*
X416298Y444721D01*
X416304Y444611D01*
X416306Y444500D01*
X416306Y441325D01*
X416304Y441185D01*
X416298Y441045D01*
X416289Y440905D01*
X416275Y440766D01*
X416258Y440627D01*
X416237Y440489D01*
X416212Y440351D01*
X416183Y440214D01*
X416151Y440078D01*
X416114Y439943D01*
X416074Y439809D01*
X416031Y439676D01*
X415983Y439544D01*
X415933Y439413D01*
X415878Y439284D01*
X415820Y439157D01*
X415759Y439031D01*
X415694Y438907D01*
X415625Y438785D01*
X415554Y438665D01*
X415479Y438547D01*
X415401Y438430D01*
X415319Y438316D01*
X415235Y438205D01*
X415147Y438096D01*
X415057Y437989D01*
X414963Y437884D01*
X414867Y437783D01*
X414768Y437684D01*
X414667Y437588D01*
X414562Y437494D01*
X414455Y437404D01*
X414346Y437316D01*
X414235Y437232D01*
X414121Y437150D01*
X414004Y437072D01*
X413886Y436997D01*
X413766Y436926D01*
X413644Y436857D01*
X413520Y436792D01*
X413394Y436731D01*
X413267Y436673D01*
X413138Y436618D01*
X413007Y436568D01*
X412875Y436520D01*
X412742Y436477D01*
X412608Y436437D01*
X412473Y436400D01*
X412337Y436368D01*
X412200Y436339D01*
X412062Y436314D01*
X411924Y436293D01*
X411785Y436276D01*
X411646Y436262D01*
X411506Y436253D01*
X411366Y436247D01*
X411226Y436245D01*
D18*
X619760Y58420D02*
X622300Y58420D01*
X622300Y73660D01*
X619760Y73660D01*
X558800Y73660D02*
X556260Y73660D01*
X556260Y58420D01*
X558800Y58420D01*
D10*
X576580Y93980D02*
X576580Y96520D01*
X576580Y93980D02*
X601980Y93980D01*
X601980Y96520D01*
X600710Y38100D02*
X576580Y38100D01*
X600710Y38100D02*
X600710Y35560D01*
X576580Y35560D02*
X576580Y38100D01*
D18*
X576580Y35560D02*
X567690Y35560D01*
X601980Y96520D02*
X610870Y96520D01*
X601980Y96520D02*
X576580Y96520D01*
X567690Y96520D01*
X576580Y35560D02*
X600710Y35560D01*
X610870Y35560D01*
X619760Y55880D02*
X619760Y58420D01*
X619760Y73660D02*
X619760Y76200D01*
X558800Y58420D02*
X558800Y55880D01*
X558800Y73660D02*
X558800Y76200D01*
X571500Y66040D02*
X571505Y66476D01*
X571521Y66912D01*
X571548Y67348D01*
X571586Y67783D01*
X571634Y68216D01*
X571692Y68649D01*
X571762Y69080D01*
X571842Y69509D01*
X571932Y69936D01*
X572033Y70360D01*
X572144Y70782D01*
X572266Y71201D01*
X572397Y71617D01*
X572539Y72030D01*
X572691Y72439D01*
X572853Y72844D01*
X573025Y73245D01*
X573207Y73642D01*
X573398Y74034D01*
X573599Y74421D01*
X573810Y74804D01*
X574030Y75181D01*
X574259Y75552D01*
X574496Y75918D01*
X574743Y76278D01*
X574999Y76632D01*
X575263Y76979D01*
X575536Y77320D01*
X575817Y77653D01*
X576106Y77980D01*
X576403Y78300D01*
X576708Y78612D01*
X577020Y78917D01*
X577340Y79214D01*
X577667Y79503D01*
X578000Y79784D01*
X578341Y80057D01*
X578688Y80321D01*
X579042Y80577D01*
X579402Y80824D01*
X579768Y81061D01*
X580139Y81290D01*
X580516Y81510D01*
X580899Y81721D01*
X581286Y81922D01*
X581678Y82113D01*
X582075Y82295D01*
X582476Y82467D01*
X582881Y82629D01*
X583290Y82781D01*
X583703Y82923D01*
X584119Y83054D01*
X584538Y83176D01*
X584960Y83287D01*
X585384Y83388D01*
X585811Y83478D01*
X586240Y83558D01*
X586671Y83628D01*
X587104Y83686D01*
X587537Y83734D01*
X587972Y83772D01*
X588408Y83799D01*
X588844Y83815D01*
X589280Y83820D01*
X589716Y83815D01*
X590152Y83799D01*
X590588Y83772D01*
X591023Y83734D01*
X591456Y83686D01*
X591889Y83628D01*
X592320Y83558D01*
X592749Y83478D01*
X593176Y83388D01*
X593600Y83287D01*
X594022Y83176D01*
X594441Y83054D01*
X594857Y82923D01*
X595270Y82781D01*
X595679Y82629D01*
X596084Y82467D01*
X596485Y82295D01*
X596882Y82113D01*
X597274Y81922D01*
X597661Y81721D01*
X598044Y81510D01*
X598421Y81290D01*
X598792Y81061D01*
X599158Y80824D01*
X599518Y80577D01*
X599872Y80321D01*
X600219Y80057D01*
X600560Y79784D01*
X600893Y79503D01*
X601220Y79214D01*
X601540Y78917D01*
X601852Y78612D01*
X602157Y78300D01*
X602454Y77980D01*
X602743Y77653D01*
X603024Y77320D01*
X603297Y76979D01*
X603561Y76632D01*
X603817Y76278D01*
X604064Y75918D01*
X604301Y75552D01*
X604530Y75181D01*
X604750Y74804D01*
X604961Y74421D01*
X605162Y74034D01*
X605353Y73642D01*
X605535Y73245D01*
X605707Y72844D01*
X605869Y72439D01*
X606021Y72030D01*
X606163Y71617D01*
X606294Y71201D01*
X606416Y70782D01*
X606527Y70360D01*
X606628Y69936D01*
X606718Y69509D01*
X606798Y69080D01*
X606868Y68649D01*
X606926Y68216D01*
X606974Y67783D01*
X607012Y67348D01*
X607039Y66912D01*
X607055Y66476D01*
X607060Y66040D01*
X607055Y65604D01*
X607039Y65168D01*
X607012Y64732D01*
X606974Y64297D01*
X606926Y63864D01*
X606868Y63431D01*
X606798Y63000D01*
X606718Y62571D01*
X606628Y62144D01*
X606527Y61720D01*
X606416Y61298D01*
X606294Y60879D01*
X606163Y60463D01*
X606021Y60050D01*
X605869Y59641D01*
X605707Y59236D01*
X605535Y58835D01*
X605353Y58438D01*
X605162Y58046D01*
X604961Y57659D01*
X604750Y57276D01*
X604530Y56899D01*
X604301Y56528D01*
X604064Y56162D01*
X603817Y55802D01*
X603561Y55448D01*
X603297Y55101D01*
X603024Y54760D01*
X602743Y54427D01*
X602454Y54100D01*
X602157Y53780D01*
X601852Y53468D01*
X601540Y53163D01*
X601220Y52866D01*
X600893Y52577D01*
X600560Y52296D01*
X600219Y52023D01*
X599872Y51759D01*
X599518Y51503D01*
X599158Y51256D01*
X598792Y51019D01*
X598421Y50790D01*
X598044Y50570D01*
X597661Y50359D01*
X597274Y50158D01*
X596882Y49967D01*
X596485Y49785D01*
X596084Y49613D01*
X595679Y49451D01*
X595270Y49299D01*
X594857Y49157D01*
X594441Y49026D01*
X594022Y48904D01*
X593600Y48793D01*
X593176Y48692D01*
X592749Y48602D01*
X592320Y48522D01*
X591889Y48452D01*
X591456Y48394D01*
X591023Y48346D01*
X590588Y48308D01*
X590152Y48281D01*
X589716Y48265D01*
X589280Y48260D01*
X588844Y48265D01*
X588408Y48281D01*
X587972Y48308D01*
X587537Y48346D01*
X587104Y48394D01*
X586671Y48452D01*
X586240Y48522D01*
X585811Y48602D01*
X585384Y48692D01*
X584960Y48793D01*
X584538Y48904D01*
X584119Y49026D01*
X583703Y49157D01*
X583290Y49299D01*
X582881Y49451D01*
X582476Y49613D01*
X582075Y49785D01*
X581678Y49967D01*
X581286Y50158D01*
X580899Y50359D01*
X580516Y50570D01*
X580139Y50790D01*
X579768Y51019D01*
X579402Y51256D01*
X579042Y51503D01*
X578688Y51759D01*
X578341Y52023D01*
X578000Y52296D01*
X577667Y52577D01*
X577340Y52866D01*
X577020Y53163D01*
X576708Y53468D01*
X576403Y53780D01*
X576106Y54100D01*
X575817Y54427D01*
X575536Y54760D01*
X575263Y55101D01*
X574999Y55448D01*
X574743Y55802D01*
X574496Y56162D01*
X574259Y56528D01*
X574030Y56899D01*
X573810Y57276D01*
X573599Y57659D01*
X573398Y58046D01*
X573207Y58438D01*
X573025Y58835D01*
X572853Y59236D01*
X572691Y59641D01*
X572539Y60050D01*
X572397Y60463D01*
X572266Y60879D01*
X572144Y61298D01*
X572033Y61720D01*
X571932Y62144D01*
X571842Y62571D01*
X571762Y63000D01*
X571692Y63431D01*
X571634Y63864D01*
X571586Y64297D01*
X571548Y64732D01*
X571521Y65168D01*
X571505Y65604D01*
X571500Y66040D01*
X586740Y66040D02*
X586742Y66140D01*
X586748Y66241D01*
X586758Y66340D01*
X586772Y66440D01*
X586789Y66539D01*
X586811Y66637D01*
X586837Y66734D01*
X586866Y66830D01*
X586899Y66924D01*
X586936Y67018D01*
X586976Y67110D01*
X587020Y67200D01*
X587068Y67288D01*
X587119Y67375D01*
X587173Y67459D01*
X587231Y67541D01*
X587292Y67621D01*
X587356Y67698D01*
X587423Y67773D01*
X587493Y67845D01*
X587566Y67914D01*
X587641Y67980D01*
X587719Y68044D01*
X587799Y68104D01*
X587882Y68161D01*
X587967Y68214D01*
X588054Y68264D01*
X588143Y68311D01*
X588233Y68354D01*
X588325Y68394D01*
X588419Y68430D01*
X588514Y68462D01*
X588610Y68490D01*
X588708Y68515D01*
X588806Y68535D01*
X588905Y68552D01*
X589005Y68565D01*
X589104Y68574D01*
X589205Y68579D01*
X589305Y68580D01*
X589405Y68577D01*
X589506Y68570D01*
X589605Y68559D01*
X589705Y68544D01*
X589803Y68526D01*
X589901Y68503D01*
X589998Y68476D01*
X590093Y68446D01*
X590188Y68412D01*
X590281Y68374D01*
X590372Y68333D01*
X590462Y68288D01*
X590550Y68240D01*
X590636Y68188D01*
X590720Y68133D01*
X590801Y68074D01*
X590880Y68012D01*
X590957Y67948D01*
X591031Y67880D01*
X591102Y67809D01*
X591171Y67736D01*
X591236Y67660D01*
X591299Y67581D01*
X591358Y67500D01*
X591414Y67417D01*
X591467Y67332D01*
X591516Y67244D01*
X591562Y67155D01*
X591604Y67064D01*
X591643Y66971D01*
X591678Y66877D01*
X591709Y66782D01*
X591737Y66685D01*
X591760Y66588D01*
X591780Y66489D01*
X591796Y66390D01*
X591808Y66291D01*
X591816Y66190D01*
X591820Y66090D01*
X591820Y65990D01*
X591816Y65890D01*
X591808Y65789D01*
X591796Y65690D01*
X591780Y65591D01*
X591760Y65492D01*
X591737Y65395D01*
X591709Y65298D01*
X591678Y65203D01*
X591643Y65109D01*
X591604Y65016D01*
X591562Y64925D01*
X591516Y64836D01*
X591467Y64748D01*
X591414Y64663D01*
X591358Y64580D01*
X591299Y64499D01*
X591236Y64420D01*
X591171Y64344D01*
X591102Y64271D01*
X591031Y64200D01*
X590957Y64132D01*
X590880Y64068D01*
X590801Y64006D01*
X590720Y63947D01*
X590636Y63892D01*
X590550Y63840D01*
X590462Y63792D01*
X590372Y63747D01*
X590281Y63706D01*
X590188Y63668D01*
X590093Y63634D01*
X589998Y63604D01*
X589901Y63577D01*
X589803Y63554D01*
X589705Y63536D01*
X589605Y63521D01*
X589506Y63510D01*
X589405Y63503D01*
X589305Y63500D01*
X589205Y63501D01*
X589104Y63506D01*
X589005Y63515D01*
X588905Y63528D01*
X588806Y63545D01*
X588708Y63565D01*
X588610Y63590D01*
X588514Y63618D01*
X588419Y63650D01*
X588325Y63686D01*
X588233Y63726D01*
X588143Y63769D01*
X588054Y63816D01*
X587967Y63866D01*
X587882Y63919D01*
X587799Y63976D01*
X587719Y64036D01*
X587641Y64100D01*
X587566Y64166D01*
X587493Y64235D01*
X587423Y64307D01*
X587356Y64382D01*
X587292Y64459D01*
X587231Y64539D01*
X587173Y64621D01*
X587119Y64705D01*
X587068Y64792D01*
X587020Y64880D01*
X586976Y64970D01*
X586936Y65062D01*
X586899Y65156D01*
X586866Y65250D01*
X586837Y65346D01*
X586811Y65443D01*
X586789Y65541D01*
X586772Y65640D01*
X586758Y65740D01*
X586748Y65839D01*
X586742Y65940D01*
X586740Y66040D01*
D19*
X563245Y103505D02*
X563345Y103507D01*
X563444Y103513D01*
X563544Y103523D01*
X563642Y103536D01*
X563741Y103554D01*
X563838Y103575D01*
X563934Y103600D01*
X564030Y103629D01*
X564124Y103662D01*
X564217Y103698D01*
X564308Y103738D01*
X564398Y103782D01*
X564486Y103829D01*
X564572Y103879D01*
X564656Y103933D01*
X564738Y103990D01*
X564817Y104050D01*
X564895Y104114D01*
X564969Y104180D01*
X565041Y104249D01*
X565110Y104321D01*
X565176Y104395D01*
X565240Y104473D01*
X565300Y104552D01*
X565357Y104634D01*
X565411Y104718D01*
X565461Y104804D01*
X565508Y104892D01*
X565552Y104982D01*
X565592Y105073D01*
X565628Y105166D01*
X565661Y105260D01*
X565690Y105356D01*
X565715Y105452D01*
X565736Y105549D01*
X565754Y105648D01*
X565767Y105746D01*
X565777Y105846D01*
X565783Y105945D01*
X565785Y106045D01*
X563245Y103505D02*
X563104Y103507D01*
X562963Y103512D01*
X562822Y103522D01*
X562681Y103535D01*
X562541Y103551D01*
X562401Y103572D01*
X562262Y103596D01*
X562123Y103624D01*
X561986Y103655D01*
X561849Y103690D01*
X561713Y103728D01*
X561578Y103770D01*
X561445Y103816D01*
X561312Y103865D01*
X561181Y103918D01*
X561052Y103974D01*
X560923Y104033D01*
X560797Y104096D01*
X560672Y104162D01*
X560549Y104231D01*
X560428Y104304D01*
X560309Y104380D01*
X560191Y104459D01*
X560076Y104540D01*
X559964Y104625D01*
X559853Y104713D01*
X559745Y104804D01*
X559639Y104897D01*
X559536Y104994D01*
X559435Y105093D01*
X559753Y112395D02*
X559755Y112495D01*
X559761Y112594D01*
X559771Y112694D01*
X559784Y112792D01*
X559802Y112891D01*
X559823Y112988D01*
X559848Y113084D01*
X559877Y113180D01*
X559910Y113274D01*
X559946Y113367D01*
X559986Y113458D01*
X560030Y113548D01*
X560077Y113636D01*
X560127Y113722D01*
X560181Y113806D01*
X560238Y113888D01*
X560298Y113967D01*
X560362Y114045D01*
X560428Y114119D01*
X560497Y114191D01*
X560569Y114260D01*
X560643Y114326D01*
X560721Y114390D01*
X560800Y114450D01*
X560882Y114507D01*
X560966Y114561D01*
X561052Y114611D01*
X561140Y114658D01*
X561230Y114702D01*
X561321Y114742D01*
X561414Y114778D01*
X561508Y114811D01*
X561604Y114840D01*
X561700Y114865D01*
X561797Y114886D01*
X561896Y114904D01*
X561994Y114917D01*
X562094Y114927D01*
X562193Y114933D01*
X562293Y114935D01*
X562293Y114936D02*
X562426Y114934D01*
X562559Y114929D01*
X562692Y114919D01*
X562825Y114906D01*
X562957Y114889D01*
X563089Y114869D01*
X563220Y114845D01*
X563350Y114817D01*
X563480Y114786D01*
X563608Y114751D01*
X563736Y114712D01*
X563862Y114670D01*
X563987Y114624D01*
X564111Y114575D01*
X564234Y114523D01*
X564355Y114467D01*
X564474Y114407D01*
X564592Y114345D01*
X564707Y114279D01*
X564821Y114210D01*
X564933Y114137D01*
X565043Y114062D01*
X565151Y113983D01*
X561022Y110172D02*
X560938Y110224D01*
X560855Y110279D01*
X560775Y110338D01*
X560697Y110399D01*
X560622Y110463D01*
X560549Y110531D01*
X560478Y110601D01*
X560411Y110673D01*
X560346Y110748D01*
X560284Y110826D01*
X560225Y110906D01*
X560169Y110988D01*
X560117Y111072D01*
X560068Y111158D01*
X560022Y111246D01*
X559979Y111336D01*
X559940Y111427D01*
X559905Y111520D01*
X559873Y111614D01*
X559845Y111709D01*
X559820Y111805D01*
X559800Y111902D01*
X559782Y112000D01*
X559769Y112098D01*
X559760Y112197D01*
X559754Y112296D01*
X559752Y112395D01*
X564515Y108268D02*
X564599Y108216D01*
X564682Y108161D01*
X564762Y108102D01*
X564840Y108041D01*
X564915Y107977D01*
X564988Y107909D01*
X565059Y107839D01*
X565126Y107767D01*
X565191Y107692D01*
X565253Y107614D01*
X565312Y107534D01*
X565368Y107452D01*
X565420Y107368D01*
X565469Y107282D01*
X565515Y107194D01*
X565558Y107104D01*
X565597Y107013D01*
X565632Y106920D01*
X565664Y106826D01*
X565692Y106731D01*
X565717Y106635D01*
X565737Y106538D01*
X565755Y106440D01*
X565768Y106342D01*
X565777Y106243D01*
X565783Y106144D01*
X565785Y106045D01*
X564515Y108268D02*
X561023Y110173D01*
X570484Y112395D02*
X573659Y114935D01*
X573659Y103505D01*
X570484Y103505D02*
X576834Y103505D01*
D20*
X227360Y24870D02*
X123160Y24870D01*
X227360Y24870D02*
X227360Y53870D01*
X123160Y53870D01*
X123160Y24870D01*
D18*
X124260Y50370D02*
X226260Y50370D01*
D17*
X130217Y69342D02*
X122428Y57658D01*
X130217Y57658D02*
X122428Y69342D01*
X134507Y66746D02*
X137753Y69342D01*
X137753Y57658D01*
X140998Y57658D02*
X134507Y57658D01*
M02*
