G04 EAGLE Gerber RS-274X export*
G75*
%MOMM*%
%FSLAX34Y34*%
%LPD*%
%INTop Copper*%
%IPPOS*%
%AMOC8*
5,1,8,0,0,1.08239X$1,22.5*%
G01*
%ADD10R,1.500000X1.300000*%
%ADD11R,1.300000X1.500000*%
%ADD12R,1.200000X1.200000*%
%ADD13R,1.200000X1.200000*%
%ADD14R,6.200000X5.400000*%
%ADD15R,1.600000X1.000000*%
%ADD16R,2.200000X0.600000*%
%ADD17R,2.032000X0.660400*%
%ADD18C,1.524000*%
%ADD19C,1.800000*%
%ADD20C,0.254000*%
%ADD21C,0.685800*%


D10*
X114300Y282600D03*
X114300Y301600D03*
X292100Y95200D03*
X292100Y76200D03*
D11*
X298400Y234950D03*
X279400Y234950D03*
D12*
X609600Y373720D03*
X609600Y352720D03*
D13*
G36*
X684335Y334220D02*
X675850Y342705D01*
X684335Y351190D01*
X692820Y342705D01*
X684335Y334220D01*
G37*
G36*
X669485Y319370D02*
X661000Y327855D01*
X669485Y336340D01*
X677970Y327855D01*
X669485Y319370D01*
G37*
D12*
X716620Y266700D03*
X695620Y266700D03*
D13*
G36*
X675850Y193235D02*
X684335Y201720D01*
X692820Y193235D01*
X684335Y184750D01*
X675850Y193235D01*
G37*
G36*
X661000Y208085D02*
X669485Y216570D01*
X677970Y208085D01*
X669485Y199600D01*
X661000Y208085D01*
G37*
D12*
X609600Y159680D03*
X609600Y180680D03*
D13*
G36*
X534865Y199180D02*
X543350Y190695D01*
X534865Y182210D01*
X526380Y190695D01*
X534865Y199180D01*
G37*
G36*
X549715Y214030D02*
X558200Y205545D01*
X549715Y197060D01*
X541230Y205545D01*
X549715Y214030D01*
G37*
D12*
X502580Y266700D03*
X523580Y266700D03*
D13*
G36*
X543350Y342705D02*
X534865Y334220D01*
X526380Y342705D01*
X534865Y351190D01*
X543350Y342705D01*
G37*
G36*
X558200Y327855D02*
X549715Y319370D01*
X541230Y327855D01*
X549715Y336340D01*
X558200Y327855D01*
G37*
D11*
X130200Y203200D03*
X149200Y203200D03*
G36*
X580195Y309251D02*
X589387Y300059D01*
X578781Y289453D01*
X569589Y298645D01*
X580195Y309251D01*
G37*
G36*
X566759Y322687D02*
X575951Y313495D01*
X565345Y302889D01*
X556153Y312081D01*
X566759Y322687D01*
G37*
D10*
X609600Y313080D03*
X609600Y332080D03*
D11*
G36*
X650881Y297375D02*
X641689Y288183D01*
X631083Y298789D01*
X640275Y307981D01*
X650881Y297375D01*
G37*
G36*
X664317Y310811D02*
X655125Y301619D01*
X644519Y312225D01*
X653711Y321417D01*
X664317Y310811D01*
G37*
X645820Y266700D03*
X664820Y266700D03*
X348640Y76200D03*
X367640Y76200D03*
G36*
X568319Y234755D02*
X577511Y243947D01*
X588117Y233341D01*
X578925Y224149D01*
X568319Y234755D01*
G37*
G36*
X554883Y221319D02*
X564075Y230511D01*
X574681Y219905D01*
X565489Y210713D01*
X554883Y221319D01*
G37*
D10*
X609600Y221590D03*
X609600Y202590D03*
D11*
G36*
X641545Y224149D02*
X632353Y233341D01*
X642959Y243947D01*
X652151Y234755D01*
X641545Y224149D01*
G37*
G36*
X654981Y210713D02*
X645789Y219905D01*
X656395Y230511D01*
X665587Y221319D01*
X654981Y210713D01*
G37*
D10*
X114300Y231800D03*
X114300Y250800D03*
D11*
X367640Y127000D03*
X348640Y127000D03*
X206400Y152400D03*
X225400Y152400D03*
X276200Y152400D03*
X257200Y152400D03*
X436220Y255270D03*
X417220Y255270D03*
X436220Y218440D03*
X417220Y218440D03*
X346100Y190500D03*
X365100Y190500D03*
X568300Y266700D03*
X549300Y266700D03*
D14*
X63900Y127000D03*
D15*
X136900Y104200D03*
X136900Y149800D03*
D16*
X216500Y247650D03*
X164500Y247650D03*
X216500Y234950D03*
X216500Y260350D03*
X216500Y273050D03*
X164500Y234950D03*
X164500Y260350D03*
X164500Y273050D03*
D17*
X45466Y438150D03*
X106934Y438150D03*
X45466Y425450D03*
X45466Y412750D03*
X106934Y425450D03*
X106934Y412750D03*
X45466Y400050D03*
X106934Y400050D03*
X45466Y387350D03*
X106934Y387350D03*
X45466Y374650D03*
X45466Y361950D03*
X106934Y374650D03*
X106934Y361950D03*
X45466Y349250D03*
X106934Y349250D03*
X159766Y438150D03*
X221234Y438150D03*
X159766Y425450D03*
X159766Y412750D03*
X221234Y425450D03*
X221234Y412750D03*
X159766Y400050D03*
X221234Y400050D03*
X159766Y387350D03*
X221234Y387350D03*
X159766Y374650D03*
X159766Y361950D03*
X221234Y374650D03*
X221234Y361950D03*
X159766Y349250D03*
X221234Y349250D03*
D16*
X215300Y107950D03*
X267300Y107950D03*
X215300Y120650D03*
X215300Y95250D03*
X215300Y82550D03*
X267300Y120650D03*
X267300Y95250D03*
X267300Y82550D03*
D17*
X401066Y139700D03*
X462534Y139700D03*
X401066Y127000D03*
X401066Y114300D03*
X462534Y127000D03*
X462534Y114300D03*
X401066Y101600D03*
X462534Y101600D03*
X401066Y88900D03*
X401066Y76200D03*
X462534Y88900D03*
X462534Y76200D03*
X401066Y63500D03*
X462534Y63500D03*
D16*
X329600Y234950D03*
X381600Y234950D03*
X329600Y247650D03*
X329600Y222250D03*
X329600Y209550D03*
X381600Y247650D03*
X381600Y222250D03*
X381600Y209550D03*
D17*
X274066Y419100D03*
X335534Y419100D03*
X274066Y406400D03*
X274066Y393700D03*
X335534Y406400D03*
X335534Y393700D03*
X274066Y381000D03*
X335534Y381000D03*
X274066Y368300D03*
X274066Y355600D03*
X335534Y368300D03*
X335534Y355600D03*
X274066Y342900D03*
X335534Y342900D03*
X385826Y425450D03*
X447294Y425450D03*
X385826Y412750D03*
X385826Y400050D03*
X447294Y412750D03*
X447294Y400050D03*
X385826Y387350D03*
X447294Y387350D03*
X385826Y374650D03*
X385826Y361950D03*
X447294Y374650D03*
X447294Y361950D03*
X385826Y349250D03*
X447294Y349250D03*
D18*
X549148Y88646D02*
X564388Y88646D01*
X564388Y43434D02*
X549148Y43434D01*
X614172Y88646D02*
X629412Y88646D01*
X629412Y43434D02*
X614172Y43434D01*
D19*
X137160Y48370D02*
X137160Y30370D01*
X162560Y30370D02*
X162560Y48370D01*
X187960Y48370D02*
X187960Y30370D01*
X213360Y30370D02*
X213360Y48370D01*
D20*
X279400Y236220D02*
X290830Y247650D01*
X329600Y247650D01*
X279400Y234950D02*
X216500Y234950D01*
X279400Y234950D02*
X279400Y236220D01*
X92710Y302260D02*
X90170Y302260D01*
X92710Y302260D02*
X114300Y302260D01*
X92710Y302260D02*
X45720Y349250D01*
X45466Y349250D01*
X114300Y302260D02*
X114300Y301600D01*
X90170Y302260D02*
X90170Y127000D01*
X213360Y234950D02*
X216500Y234950D01*
X213360Y234950D02*
X213360Y205740D01*
X162560Y154940D01*
X147320Y127000D02*
X90170Y127000D01*
X63900Y127000D01*
X292100Y76200D02*
X327660Y76200D01*
X340360Y63500D01*
X401066Y63500D01*
X222250Y120650D02*
X215300Y120650D01*
X243840Y99060D02*
X251460Y91440D01*
X243840Y99060D02*
X222250Y120650D01*
X251460Y91440D02*
X251460Y78740D01*
X256540Y73660D01*
X289560Y73660D01*
X292100Y76200D01*
X176530Y349250D02*
X159766Y349250D01*
X176530Y349250D02*
X185420Y358140D01*
X185420Y374650D01*
X172720Y387350D01*
X159766Y387350D01*
X160020Y387604D02*
X160020Y399796D01*
X159766Y400050D01*
X160020Y387604D02*
X159766Y387350D01*
X266700Y342900D02*
X274066Y342900D01*
X266700Y342900D02*
X256540Y353060D01*
X361950Y349250D02*
X385826Y349250D01*
X187960Y40640D02*
X162560Y40640D01*
X187960Y40640D02*
X187960Y39370D01*
X185420Y358140D02*
X198120Y358140D01*
X162560Y154940D02*
X162560Y111760D01*
X147320Y127000D01*
X162560Y111760D02*
X162560Y40640D01*
X162560Y39370D01*
D21*
X256540Y353060D03*
X361950Y349250D03*
X198120Y358140D03*
X243840Y99060D03*
D20*
X584200Y240030D02*
X584200Y251460D01*
X584200Y240030D02*
X578218Y234048D01*
X584200Y251460D02*
X568960Y266700D01*
X579488Y299352D02*
X593215Y313080D01*
X625985Y313080D02*
X640982Y298082D01*
X625985Y313080D02*
X609600Y313080D01*
X593215Y313080D01*
X568960Y289560D02*
X568960Y266700D01*
X578752Y299352D02*
X579488Y299352D01*
X578752Y299352D02*
X568960Y289560D01*
X568960Y266700D02*
X568300Y266700D01*
X429260Y190500D02*
X424180Y190500D01*
X365100Y190500D01*
X429260Y190500D02*
X447040Y208280D01*
X447040Y264160D01*
X444500Y266700D01*
X422300Y266700D01*
X417220Y261620D01*
X417220Y255270D01*
X389220Y255270D01*
X381600Y247650D01*
X256540Y152400D02*
X252730Y152400D01*
X225400Y152400D01*
X347980Y88900D02*
X347980Y76200D01*
X345440Y91440D02*
X287020Y149860D01*
X345440Y91440D02*
X347980Y88900D01*
X287020Y149860D02*
X287020Y162560D01*
X284480Y165100D01*
X269240Y165100D01*
X256540Y152400D01*
X347980Y76200D02*
X348640Y76200D01*
X347980Y109220D02*
X347980Y127000D01*
X347980Y93980D02*
X345440Y91440D01*
X347980Y127000D02*
X348640Y127000D01*
X454660Y139700D02*
X462534Y139700D01*
X454660Y139700D02*
X444500Y129540D01*
X227330Y82550D02*
X215300Y82550D01*
X227330Y82550D02*
X233680Y76200D01*
X267300Y137830D02*
X252730Y152400D01*
X267300Y137830D02*
X267300Y120650D01*
X257200Y152400D02*
X256540Y152400D01*
X528320Y210820D02*
X557898Y240398D01*
X149860Y220980D02*
X149860Y203200D01*
X152400Y229870D02*
X157480Y234950D01*
X152400Y229870D02*
X152400Y223520D01*
X157480Y234950D02*
X164500Y234950D01*
X152400Y223520D02*
X149860Y220980D01*
X149860Y162760D02*
X136900Y149800D01*
X149860Y162760D02*
X149860Y203200D01*
X149200Y203200D01*
X307340Y419100D02*
X335534Y419100D01*
X274320Y439420D02*
X255270Y439420D01*
X254000Y438150D01*
X221234Y438150D01*
X106934Y361950D02*
X106680Y361696D01*
X106680Y349504D02*
X106934Y349250D01*
X106680Y349504D02*
X106680Y361696D01*
X128270Y374650D02*
X159766Y374650D01*
X128270Y374650D02*
X115570Y361950D01*
X106934Y361950D01*
X609600Y223520D02*
X631190Y223520D01*
X641718Y234048D01*
X609600Y223520D02*
X609600Y221590D01*
X641718Y234048D02*
X642252Y234048D01*
X642252Y263132D02*
X645820Y266700D01*
X642252Y263132D02*
X642252Y234048D01*
X45466Y361950D02*
X36830Y361950D01*
X22860Y375920D01*
X22860Y438150D01*
X45466Y438150D01*
X85090Y438150D01*
X106934Y438150D01*
X434340Y425450D02*
X447294Y425450D01*
X434340Y425450D02*
X407670Y452120D01*
X274320Y452120D02*
X120904Y452120D01*
X274320Y452120D02*
X407670Y452120D01*
X120904Y452120D02*
X106934Y438150D01*
X647700Y279400D02*
X647700Y266700D01*
X647700Y279400D02*
X703580Y335280D01*
X703580Y345440D01*
X623570Y425450D01*
X447294Y425450D01*
X645820Y266700D02*
X647700Y266700D01*
X106934Y361950D02*
X92710Y361950D01*
X85090Y369570D01*
X85090Y438150D01*
X274320Y452120D02*
X274320Y454660D01*
X223520Y157480D02*
X223520Y152400D01*
X223520Y157480D02*
X200660Y180340D01*
X223520Y152400D02*
X225400Y152400D01*
D21*
X347980Y109220D03*
X347980Y93980D03*
X444500Y129540D03*
X233680Y76200D03*
X424180Y190500D03*
X528320Y210820D03*
X307340Y419100D03*
X274320Y439420D03*
X152400Y223520D03*
X274320Y454660D03*
X200660Y180340D03*
D20*
X571868Y240398D02*
X578218Y234048D01*
X571868Y240398D02*
X557898Y240398D01*
X136900Y104200D02*
X136900Y39630D01*
X137160Y39370D01*
X52070Y425450D02*
X45466Y425450D01*
X52070Y425450D02*
X73660Y403860D01*
X73660Y363220D01*
X154940Y281940D01*
X184150Y281940D01*
X205740Y260350D01*
X216500Y260350D01*
X365760Y137160D02*
X365760Y127000D01*
X365760Y137160D02*
X360680Y142240D01*
X383540Y144780D02*
X383540Y137160D01*
X393700Y127000D01*
X401066Y127000D01*
X367640Y127000D02*
X365760Y127000D01*
X401320Y127000D02*
X401320Y114300D01*
X401066Y114300D01*
X401066Y127000D02*
X401320Y127000D01*
X445770Y273050D02*
X216500Y273050D01*
X445770Y273050D02*
X452120Y266700D01*
X452120Y205740D01*
X393700Y147320D01*
X386080Y147320D01*
X383540Y144780D01*
D21*
X360680Y142240D03*
X383540Y144780D03*
D20*
X125730Y412750D02*
X106934Y412750D01*
X125730Y412750D02*
X151130Y438150D01*
X159766Y438150D01*
X125730Y400050D02*
X106934Y400050D01*
X125730Y400050D02*
X151130Y425450D01*
X159766Y425450D01*
X125730Y387350D02*
X106934Y387350D01*
X125730Y387350D02*
X151130Y412750D01*
X159766Y412750D01*
X177800Y363220D02*
X176530Y361950D01*
X159766Y361950D01*
X317500Y387350D02*
X323850Y393700D01*
X317500Y387350D02*
X317500Y383540D01*
X323850Y393700D02*
X335534Y393700D01*
D21*
X177800Y363220D03*
X317500Y383540D03*
D20*
X247650Y349250D02*
X221234Y349250D01*
X247650Y349250D02*
X261620Y335280D01*
X295910Y335280D01*
X316230Y355600D01*
X335534Y355600D01*
X247650Y361950D02*
X221234Y361950D01*
X247650Y361950D02*
X266700Y381000D01*
X274066Y381000D01*
X234950Y374650D02*
X221234Y374650D01*
X234950Y374650D02*
X266700Y406400D01*
X274066Y406400D01*
X454660Y76200D02*
X462534Y76200D01*
X454660Y76200D02*
X434340Y96520D01*
X434340Y132080D01*
X349250Y288290D02*
X262890Y288290D01*
X205740Y345440D01*
X205740Y378460D01*
X214630Y387350D01*
X221234Y387350D01*
X447294Y400050D02*
X641350Y400050D01*
X698500Y342900D01*
X698500Y337820D01*
X640080Y279400D01*
X637540Y279400D01*
X594360Y236220D01*
X594360Y233680D01*
X538480Y177800D01*
X533400Y177800D01*
X457200Y254000D01*
X457200Y269240D01*
X438150Y288290D01*
X349250Y288290D01*
D21*
X434340Y132080D03*
X349250Y288290D03*
D20*
X369570Y412750D02*
X385826Y412750D01*
X369570Y412750D02*
X350520Y431800D01*
X236220Y431800D01*
X229870Y425450D01*
X221234Y425450D01*
X430530Y361950D02*
X447294Y361950D01*
X430530Y361950D02*
X421640Y370840D01*
X421640Y422910D01*
X397510Y447040D01*
X210820Y447040D01*
X205740Y441960D01*
X205740Y408940D01*
X214630Y400050D01*
X221234Y400050D01*
X377190Y387350D02*
X385826Y387350D01*
X377190Y387350D02*
X350520Y414020D01*
X350520Y424180D01*
X347980Y426720D01*
X243840Y426720D01*
X229870Y412750D01*
X221234Y412750D01*
X329600Y209550D02*
X329590Y209540D01*
X329590Y201930D01*
X341020Y190500D02*
X346100Y190500D01*
X341020Y190500D02*
X329590Y201930D01*
X447040Y63500D02*
X462534Y63500D01*
X447040Y63500D02*
X408940Y101600D01*
X401066Y101600D01*
X347980Y167640D02*
X347980Y190500D01*
X347980Y167640D02*
X378460Y137160D01*
X378460Y116840D01*
X393700Y101600D01*
X401066Y101600D01*
X347980Y190500D02*
X346100Y190500D01*
X373380Y88900D02*
X401066Y88900D01*
X373380Y88900D02*
X360680Y101600D01*
X342900Y101600D01*
X312420Y132080D01*
X312420Y213360D01*
X321310Y222250D01*
X329600Y222250D01*
X436880Y374650D02*
X447294Y374650D01*
X436880Y374650D02*
X427990Y383540D01*
X427990Y406400D01*
X434340Y412750D01*
X447294Y412750D01*
X401066Y76200D02*
X367640Y76200D01*
X335534Y368300D02*
X306070Y368300D01*
X274066Y368300D01*
X274066Y419100D02*
X292100Y419100D01*
X306070Y405130D01*
X306070Y368300D01*
X360680Y368300D02*
X363220Y370840D01*
X360680Y368300D02*
X335534Y368300D01*
X363220Y374650D02*
X385826Y374650D01*
X335534Y406400D02*
X307340Y406400D01*
X306070Y405130D01*
X385826Y425450D02*
X398780Y425450D01*
X415290Y408940D01*
X415290Y381000D01*
X410210Y375920D01*
X401320Y375920D02*
X387096Y375920D01*
X385826Y374650D01*
X401320Y375920D02*
X410210Y375920D01*
X365760Y83820D02*
X365760Y76200D01*
X365760Y83820D02*
X358140Y91440D01*
X363220Y370840D02*
X363220Y374650D01*
X365760Y76200D02*
X367640Y76200D01*
X447294Y374650D02*
X455930Y374650D01*
X472440Y358140D01*
X472440Y342900D01*
X469900Y340360D01*
X436880Y340360D01*
X401320Y375920D01*
D21*
X358140Y91440D03*
X363220Y370840D03*
D20*
X591820Y160020D02*
X609600Y160020D01*
X353060Y381000D02*
X335534Y381000D01*
X609600Y160020D02*
X609600Y159680D01*
D21*
X591820Y160020D03*
X353060Y381000D03*
D20*
X474980Y266700D02*
X502580Y266700D01*
X474980Y266700D02*
X401320Y340360D01*
X356870Y340360D01*
X353060Y344170D01*
X353060Y353060D01*
X295910Y355600D02*
X274066Y355600D01*
D21*
X353060Y353060D03*
X295910Y355600D03*
D20*
X509270Y368300D02*
X534865Y342705D01*
X509270Y368300D02*
X508000Y368300D01*
X534865Y342705D02*
X534865Y342705D01*
X292100Y393700D02*
X274066Y393700D01*
D21*
X508000Y368300D03*
X292100Y393700D03*
D20*
X534475Y190695D02*
X534865Y190695D01*
X534475Y190695D02*
X462280Y262890D01*
X462280Y271780D01*
X408940Y325120D01*
X355600Y325120D01*
X337820Y342900D01*
X335534Y342900D01*
X467360Y375920D02*
X609600Y375920D01*
X467360Y375920D02*
X455930Y387350D01*
X447294Y387350D01*
X609600Y375920D02*
X609600Y373720D01*
X463550Y349250D02*
X447294Y349250D01*
X622105Y342705D02*
X684335Y342705D01*
X622300Y342900D02*
X622105Y342705D01*
D21*
X622300Y342900D03*
X463550Y349250D03*
D20*
X688340Y294640D02*
X716280Y266700D01*
X480060Y294640D02*
X439420Y335280D01*
X419100Y335280D01*
X392430Y361950D01*
X385826Y361950D01*
X716280Y266700D02*
X716620Y266700D01*
D21*
X688340Y294640D03*
X480060Y294640D03*
D20*
X681599Y190500D02*
X684335Y193235D01*
X681599Y190500D02*
X626110Y190500D01*
X406400Y393700D02*
X400050Y400050D01*
X406400Y393700D02*
X406400Y386080D01*
X400050Y400050D02*
X385826Y400050D01*
D21*
X626110Y190500D03*
X406400Y386080D03*
D20*
X609600Y202590D02*
X609600Y180680D01*
X564782Y220612D02*
X549715Y205545D01*
X549300Y266700D02*
X523580Y266700D01*
X656323Y221248D02*
X669485Y208085D01*
X656323Y221248D02*
X655688Y220612D01*
X669485Y208085D02*
X669485Y208085D01*
X563880Y314960D02*
X562610Y314960D01*
X549715Y327855D01*
X549715Y327855D01*
X563880Y314960D02*
X566052Y312788D01*
X609600Y332080D02*
X609600Y352720D01*
X669485Y327855D02*
X669485Y326585D01*
X654418Y311518D01*
X664820Y266700D02*
X695620Y266700D01*
X329600Y234950D02*
X298400Y234950D01*
X381600Y222250D02*
X413410Y222250D01*
X417220Y218440D01*
X361950Y234950D02*
X329600Y234950D01*
X361950Y234950D02*
X374650Y222250D01*
X381600Y222250D01*
X433070Y252120D02*
X436220Y255270D01*
X433070Y252120D02*
X433070Y234950D01*
X438150Y234950D02*
X438150Y218440D01*
X436220Y218440D01*
X438150Y234950D02*
X433070Y234950D01*
X381600Y234950D01*
X292100Y95250D02*
X267300Y95250D01*
X292100Y95250D02*
X292100Y95200D01*
X276860Y132080D02*
X276860Y152400D01*
X276860Y132080D02*
X284480Y124460D01*
X284480Y116840D01*
X275590Y107950D01*
X267300Y107950D01*
X276200Y152400D02*
X276860Y152400D01*
X267300Y107950D02*
X267300Y95250D01*
X401066Y139700D02*
X441960Y139700D01*
X449580Y147320D01*
X474980Y147320D01*
X477520Y144780D01*
X477520Y58420D01*
X474980Y55880D01*
X266700Y55880D01*
X227330Y95250D01*
X215300Y95250D01*
X205740Y132080D02*
X205740Y152400D01*
X205740Y132080D02*
X198120Y124460D01*
X198120Y109220D02*
X199390Y107950D01*
X215300Y107950D01*
X206400Y152400D02*
X205740Y152400D01*
X213360Y63500D02*
X213360Y50800D01*
X213360Y63500D02*
X198120Y78740D01*
X198120Y109220D02*
X198120Y124460D01*
X198120Y109220D02*
X198120Y78740D01*
X477520Y50800D02*
X515366Y88646D01*
X477520Y50800D02*
X213360Y50800D01*
X213360Y39370D01*
X515366Y88646D02*
X556768Y88646D01*
X621792Y88646D01*
X114300Y260350D02*
X114300Y282600D01*
X114300Y260350D02*
X114300Y250800D01*
X194310Y247650D02*
X216500Y247650D01*
X194310Y247650D02*
X181610Y260350D01*
X164500Y260350D01*
X114300Y260350D01*
X114300Y231140D02*
X114300Y218440D01*
X129540Y203200D01*
X130200Y203200D01*
X130810Y247650D02*
X164500Y247650D01*
X130810Y247650D02*
X114300Y231140D01*
X114300Y231800D01*
M02*
