G04 This is an RS-274x file exported by *
G04 gerbv version 2.6A *
G04 More information is available about gerbv at *
G04 http://gerbv.geda-project.org/ *
G04 --End of header info--*
%MOIN*%
%FSLAX34Y34*%
%IPPOS*%
%INSolderpaste Top*%
G04 --Define apertures--*
%ADD10R,0.0591X0.0512*%
%ADD11R,0.0512X0.0591*%
%ADD12R,0.0472X0.0472*%
%ADD13R,0.0472X0.0472*%
%ADD14R,0.2441X0.2126*%
%ADD15R,0.0630X0.0394*%
%ADD16R,0.0866X0.0236*%
%ADD17R,0.0800X0.0260*%
G04 --Start main section--*
G54D10*
G01X0004500Y0011126D03*
G01X0004500Y0011874D03*
G01X0011500Y0003748D03*
G01X0011500Y0003000D03*
G54D11*
G01X0011748Y0009250D03*
G01X0011000Y0009250D03*
G54D12*
G01X0024000Y0014713D03*
G01X0024000Y0013887D03*
G54D13*
G36*
G01X0026942Y0013158D02*
G01X0026608Y0013492D01*
G01X0026942Y0013826D01*
G01X0027276Y0013492D01*
G01X0026942Y0013158D01*
G37*
G36*
G01X0026358Y0012574D02*
G01X0026024Y0012908D01*
G01X0026358Y0013242D01*
G01X0026692Y0012908D01*
G01X0026358Y0012574D01*
G37*
G54D12*
G01X0028213Y0010500D03*
G01X0027387Y0010500D03*
G54D13*
G36*
G01X0026608Y0007608D02*
G01X0026942Y0007942D01*
G01X0027276Y0007608D01*
G01X0026942Y0007274D01*
G01X0026608Y0007608D01*
G37*
G36*
G01X0026024Y0008192D02*
G01X0026358Y0008526D01*
G01X0026692Y0008192D01*
G01X0026358Y0007858D01*
G01X0026024Y0008192D01*
G37*
G54D12*
G01X0024000Y0006287D03*
G01X0024000Y0007113D03*
G54D13*
G36*
G01X0021058Y0007842D02*
G01X0021392Y0007508D01*
G01X0021058Y0007174D01*
G01X0020724Y0007508D01*
G01X0021058Y0007842D01*
G37*
G36*
G01X0021642Y0008426D02*
G01X0021976Y0008092D01*
G01X0021642Y0007758D01*
G01X0021308Y0008092D01*
G01X0021642Y0008426D01*
G37*
G54D12*
G01X0019787Y0010500D03*
G01X0020613Y0010500D03*
G54D13*
G36*
G01X0021392Y0013492D02*
G01X0021058Y0013158D01*
G01X0020724Y0013492D01*
G01X0021058Y0013826D01*
G01X0021392Y0013492D01*
G37*
G36*
G01X0021976Y0012908D02*
G01X0021642Y0012574D01*
G01X0021308Y0012908D01*
G01X0021642Y0013242D01*
G01X0021976Y0012908D01*
G37*
G54D11*
G01X0005126Y0008000D03*
G01X0005874Y0008000D03*
G36*
G01X0022842Y0012175D02*
G01X0023204Y0011813D01*
G01X0022787Y0011396D01*
G01X0022425Y0011758D01*
G01X0022842Y0012175D01*
G37*
G36*
G01X0022313Y0012704D02*
G01X0022675Y0012342D01*
G01X0022258Y0011925D01*
G01X0021896Y0012287D01*
G01X0022313Y0012704D01*
G37*
G54D10*
G01X0024000Y0012326D03*
G01X0024000Y0013074D03*
G54D11*
G36*
G01X0025625Y0011708D02*
G01X0025263Y0011346D01*
G01X0024846Y0011763D01*
G01X0025208Y0012125D01*
G01X0025625Y0011708D01*
G37*
G36*
G01X0026154Y0012237D02*
G01X0025792Y0011875D01*
G01X0025375Y0012292D01*
G01X0025737Y0012654D01*
G01X0026154Y0012237D01*
G37*
G01X0025426Y0010500D03*
G01X0026174Y0010500D03*
G01X0013726Y0003000D03*
G01X0014474Y0003000D03*
G36*
G01X0022375Y0009242D02*
G01X0022737Y0009604D01*
G01X0023154Y0009187D01*
G01X0022792Y0008825D01*
G01X0022375Y0009242D01*
G37*
G36*
G01X0021846Y0008713D02*
G01X0022208Y0009075D01*
G01X0022625Y0008658D01*
G01X0022263Y0008296D01*
G01X0021846Y0008713D01*
G37*
G54D10*
G01X0024000Y0008724D03*
G01X0024000Y0007976D03*
G54D11*
G36*
G01X0025258Y0008825D02*
G01X0024896Y0009187D01*
G01X0025313Y0009604D01*
G01X0025675Y0009242D01*
G01X0025258Y0008825D01*
G37*
G36*
G01X0025787Y0008296D02*
G01X0025425Y0008658D01*
G01X0025842Y0009075D01*
G01X0026204Y0008713D01*
G01X0025787Y0008296D01*
G37*
G54D10*
G01X0004500Y0009126D03*
G01X0004500Y0009874D03*
G54D11*
G01X0014474Y0005000D03*
G01X0013726Y0005000D03*
G01X0008126Y0006000D03*
G01X0008874Y0006000D03*
G01X0010874Y0006000D03*
G01X0010126Y0006000D03*
G01X0017174Y0010050D03*
G01X0016426Y0010050D03*
G01X0017174Y0008600D03*
G01X0016426Y0008600D03*
G01X0013626Y0007500D03*
G01X0014374Y0007500D03*
G01X0022374Y0010500D03*
G01X0021626Y0010500D03*
G54D14*
G01X0002516Y0005000D03*
G54D15*
G01X0005390Y0004102D03*
G01X0005390Y0005898D03*
G54D16*
G01X0008524Y0009750D03*
G01X0006476Y0009750D03*
G01X0008524Y0009250D03*
G01X0008524Y0010250D03*
G01X0008524Y0010750D03*
G01X0006476Y0009250D03*
G01X0006476Y0010250D03*
G01X0006476Y0010750D03*
G54D17*
G01X0001790Y0017250D03*
G01X0004210Y0017250D03*
G01X0001790Y0016750D03*
G01X0001790Y0016250D03*
G01X0004210Y0016750D03*
G01X0004210Y0016250D03*
G01X0001790Y0015750D03*
G01X0004210Y0015750D03*
G01X0001790Y0015250D03*
G01X0004210Y0015250D03*
G01X0001790Y0014750D03*
G01X0001790Y0014250D03*
G01X0004210Y0014750D03*
G01X0004210Y0014250D03*
G01X0001790Y0013750D03*
G01X0004210Y0013750D03*
G01X0006290Y0017250D03*
G01X0008710Y0017250D03*
G01X0006290Y0016750D03*
G01X0006290Y0016250D03*
G01X0008710Y0016750D03*
G01X0008710Y0016250D03*
G01X0006290Y0015750D03*
G01X0008710Y0015750D03*
G01X0006290Y0015250D03*
G01X0008710Y0015250D03*
G01X0006290Y0014750D03*
G01X0006290Y0014250D03*
G01X0008710Y0014750D03*
G01X0008710Y0014250D03*
G01X0006290Y0013750D03*
G01X0008710Y0013750D03*
G54D16*
G01X0008476Y0004250D03*
G01X0010524Y0004250D03*
G01X0008476Y0004750D03*
G01X0008476Y0003750D03*
G01X0008476Y0003250D03*
G01X0010524Y0004750D03*
G01X0010524Y0003750D03*
G01X0010524Y0003250D03*
G54D17*
G01X0015790Y0005500D03*
G01X0018210Y0005500D03*
G01X0015790Y0005000D03*
G01X0015790Y0004500D03*
G01X0018210Y0005000D03*
G01X0018210Y0004500D03*
G01X0015790Y0004000D03*
G01X0018210Y0004000D03*
G01X0015790Y0003500D03*
G01X0015790Y0003000D03*
G01X0018210Y0003500D03*
G01X0018210Y0003000D03*
G01X0015790Y0002500D03*
G01X0018210Y0002500D03*
G54D16*
G01X0012976Y0009250D03*
G01X0015024Y0009250D03*
G01X0012976Y0009750D03*
G01X0012976Y0008750D03*
G01X0012976Y0008250D03*
G01X0015024Y0009750D03*
G01X0015024Y0008750D03*
G01X0015024Y0008250D03*
G54D17*
G01X0010790Y0016500D03*
G01X0013210Y0016500D03*
G01X0010790Y0016000D03*
G01X0010790Y0015500D03*
G01X0013210Y0016000D03*
G01X0013210Y0015500D03*
G01X0010790Y0015000D03*
G01X0013210Y0015000D03*
G01X0010790Y0014500D03*
G01X0010790Y0014000D03*
G01X0013210Y0014500D03*
G01X0013210Y0014000D03*
G01X0010790Y0013500D03*
G01X0013210Y0013500D03*
G01X0015190Y0016750D03*
G01X0017610Y0016750D03*
G01X0015190Y0016250D03*
G01X0015190Y0015750D03*
G01X0017610Y0016250D03*
G01X0017610Y0015750D03*
G01X0015190Y0015250D03*
G01X0017610Y0015250D03*
G01X0015190Y0014750D03*
G01X0015190Y0014250D03*
G01X0017610Y0014750D03*
G01X0017610Y0014250D03*
G01X0015190Y0013750D03*
G01X0017610Y0013750D03*
M02*
