G04 EAGLE Gerber RS-274X export*
G75*
%MOMM*%
%FSLAX34Y34*%
%LPD*%
%INSilkscreen Bottom*%
%IPPOS*%
%AMOC8*
5,1,8,0,0,1.08239X$1,22.5*%
G01*
%ADD10C,0.279400*%


D10*
X747903Y467487D02*
X747903Y482473D01*
X739577Y467487D01*
X739577Y482473D01*
X730714Y482473D02*
X730714Y467487D01*
X732379Y467487D02*
X729049Y467487D01*
X729049Y482473D02*
X732379Y482473D01*
X719101Y467487D02*
X715771Y467487D01*
X719101Y467487D02*
X719215Y467489D01*
X719328Y467495D01*
X719442Y467504D01*
X719554Y467518D01*
X719667Y467535D01*
X719779Y467557D01*
X719889Y467582D01*
X719999Y467610D01*
X720108Y467643D01*
X720216Y467679D01*
X720323Y467719D01*
X720428Y467763D01*
X720531Y467810D01*
X720633Y467860D01*
X720733Y467914D01*
X720831Y467972D01*
X720927Y468033D01*
X721021Y468096D01*
X721113Y468164D01*
X721203Y468234D01*
X721289Y468307D01*
X721374Y468383D01*
X721456Y468462D01*
X721535Y468544D01*
X721611Y468629D01*
X721684Y468715D01*
X721754Y468805D01*
X721822Y468897D01*
X721885Y468991D01*
X721946Y469087D01*
X722004Y469185D01*
X722058Y469285D01*
X722108Y469387D01*
X722155Y469490D01*
X722199Y469595D01*
X722239Y469702D01*
X722275Y469810D01*
X722308Y469919D01*
X722336Y470029D01*
X722361Y470140D01*
X722383Y470251D01*
X722400Y470364D01*
X722414Y470476D01*
X722423Y470590D01*
X722429Y470703D01*
X722431Y470817D01*
X722432Y470817D02*
X722432Y479143D01*
X722431Y479143D02*
X722429Y479257D01*
X722423Y479370D01*
X722414Y479484D01*
X722400Y479596D01*
X722383Y479709D01*
X722361Y479821D01*
X722336Y479931D01*
X722308Y480041D01*
X722275Y480150D01*
X722239Y480258D01*
X722199Y480365D01*
X722155Y480470D01*
X722108Y480573D01*
X722058Y480675D01*
X722004Y480775D01*
X721946Y480873D01*
X721885Y480969D01*
X721822Y481063D01*
X721754Y481155D01*
X721684Y481245D01*
X721611Y481331D01*
X721535Y481416D01*
X721456Y481498D01*
X721374Y481577D01*
X721290Y481653D01*
X721203Y481726D01*
X721113Y481796D01*
X721021Y481863D01*
X720927Y481927D01*
X720831Y481988D01*
X720733Y482046D01*
X720633Y482100D01*
X720531Y482150D01*
X720428Y482197D01*
X720323Y482241D01*
X720216Y482281D01*
X720108Y482317D01*
X719999Y482350D01*
X719889Y482378D01*
X719779Y482403D01*
X719667Y482425D01*
X719554Y482442D01*
X719442Y482456D01*
X719328Y482465D01*
X719215Y482471D01*
X719101Y482473D01*
X715771Y482473D01*
X708507Y482473D02*
X708507Y467487D01*
X708507Y473315D02*
X700181Y482473D01*
X705177Y476645D02*
X700181Y467487D01*
X693715Y471650D02*
X693715Y478310D01*
X693713Y478438D01*
X693707Y478566D01*
X693697Y478694D01*
X693683Y478822D01*
X693666Y478949D01*
X693644Y479075D01*
X693619Y479201D01*
X693589Y479325D01*
X693556Y479449D01*
X693519Y479572D01*
X693478Y479694D01*
X693434Y479814D01*
X693386Y479933D01*
X693334Y480050D01*
X693279Y480166D01*
X693220Y480279D01*
X693157Y480392D01*
X693091Y480502D01*
X693022Y480609D01*
X692950Y480715D01*
X692874Y480819D01*
X692795Y480920D01*
X692713Y481019D01*
X692628Y481115D01*
X692541Y481208D01*
X692450Y481299D01*
X692357Y481386D01*
X692261Y481471D01*
X692162Y481553D01*
X692061Y481632D01*
X691957Y481708D01*
X691851Y481780D01*
X691744Y481849D01*
X691634Y481915D01*
X691521Y481978D01*
X691408Y482037D01*
X691292Y482092D01*
X691175Y482144D01*
X691056Y482192D01*
X690936Y482236D01*
X690814Y482277D01*
X690691Y482314D01*
X690567Y482347D01*
X690443Y482377D01*
X690317Y482402D01*
X690191Y482424D01*
X690064Y482441D01*
X689936Y482455D01*
X689808Y482465D01*
X689680Y482471D01*
X689552Y482473D01*
X689424Y482471D01*
X689296Y482465D01*
X689168Y482455D01*
X689040Y482441D01*
X688913Y482424D01*
X688787Y482402D01*
X688661Y482377D01*
X688537Y482347D01*
X688413Y482314D01*
X688290Y482277D01*
X688168Y482236D01*
X688048Y482192D01*
X687929Y482144D01*
X687812Y482092D01*
X687696Y482037D01*
X687583Y481978D01*
X687471Y481915D01*
X687360Y481849D01*
X687253Y481780D01*
X687147Y481708D01*
X687043Y481632D01*
X686942Y481553D01*
X686843Y481471D01*
X686747Y481386D01*
X686654Y481299D01*
X686563Y481208D01*
X686476Y481115D01*
X686391Y481019D01*
X686309Y480920D01*
X686230Y480819D01*
X686154Y480715D01*
X686082Y480609D01*
X686013Y480502D01*
X685947Y480392D01*
X685884Y480279D01*
X685825Y480166D01*
X685770Y480050D01*
X685718Y479933D01*
X685670Y479814D01*
X685626Y479694D01*
X685585Y479572D01*
X685548Y479449D01*
X685515Y479325D01*
X685485Y479201D01*
X685460Y479075D01*
X685438Y478949D01*
X685421Y478822D01*
X685407Y478694D01*
X685397Y478566D01*
X685391Y478438D01*
X685389Y478310D01*
X685389Y471650D01*
X685391Y471522D01*
X685397Y471394D01*
X685407Y471266D01*
X685421Y471138D01*
X685438Y471011D01*
X685460Y470885D01*
X685485Y470759D01*
X685515Y470635D01*
X685548Y470511D01*
X685585Y470388D01*
X685626Y470266D01*
X685670Y470146D01*
X685718Y470027D01*
X685770Y469910D01*
X685825Y469794D01*
X685884Y469681D01*
X685947Y469569D01*
X686013Y469458D01*
X686082Y469351D01*
X686154Y469245D01*
X686230Y469141D01*
X686309Y469040D01*
X686391Y468941D01*
X686476Y468845D01*
X686563Y468752D01*
X686654Y468661D01*
X686747Y468574D01*
X686843Y468489D01*
X686942Y468407D01*
X687043Y468328D01*
X687147Y468252D01*
X687253Y468180D01*
X687360Y468111D01*
X687471Y468045D01*
X687583Y467982D01*
X687696Y467923D01*
X687812Y467868D01*
X687929Y467816D01*
X688048Y467768D01*
X688168Y467724D01*
X688290Y467683D01*
X688413Y467646D01*
X688537Y467613D01*
X688661Y467583D01*
X688787Y467558D01*
X688913Y467536D01*
X689040Y467519D01*
X689168Y467505D01*
X689296Y467495D01*
X689424Y467489D01*
X689552Y467487D01*
X689680Y467489D01*
X689808Y467495D01*
X689936Y467505D01*
X690064Y467519D01*
X690191Y467536D01*
X690317Y467558D01*
X690443Y467583D01*
X690567Y467613D01*
X690691Y467646D01*
X690814Y467683D01*
X690936Y467724D01*
X691056Y467768D01*
X691175Y467816D01*
X691292Y467868D01*
X691408Y467923D01*
X691521Y467982D01*
X691634Y468045D01*
X691744Y468111D01*
X691851Y468180D01*
X691957Y468252D01*
X692061Y468328D01*
X692162Y468407D01*
X692261Y468489D01*
X692357Y468574D01*
X692450Y468661D01*
X692541Y468752D01*
X692628Y468845D01*
X692713Y468941D01*
X692795Y469040D01*
X692874Y469141D01*
X692950Y469245D01*
X693022Y469351D01*
X693091Y469458D01*
X693157Y469569D01*
X693220Y469681D01*
X693279Y469794D01*
X693334Y469910D01*
X693386Y470027D01*
X693434Y470146D01*
X693478Y470266D01*
X693519Y470388D01*
X693556Y470511D01*
X693589Y470635D01*
X693619Y470759D01*
X693644Y470885D01*
X693666Y471011D01*
X693683Y471138D01*
X693697Y471266D01*
X693707Y471394D01*
X693713Y471522D01*
X693715Y471650D01*
X677518Y467487D02*
X677518Y482473D01*
X677518Y467487D02*
X670857Y467487D01*
X665369Y467487D02*
X660374Y482473D01*
X655378Y467487D01*
X656627Y471234D02*
X664120Y471234D01*
X644431Y467487D02*
X644317Y467489D01*
X644204Y467495D01*
X644090Y467504D01*
X643978Y467518D01*
X643865Y467535D01*
X643753Y467557D01*
X643643Y467582D01*
X643533Y467610D01*
X643424Y467643D01*
X643316Y467679D01*
X643209Y467719D01*
X643104Y467763D01*
X643001Y467810D01*
X642899Y467860D01*
X642799Y467914D01*
X642701Y467972D01*
X642605Y468033D01*
X642511Y468096D01*
X642419Y468164D01*
X642329Y468234D01*
X642243Y468307D01*
X642158Y468383D01*
X642076Y468462D01*
X641997Y468544D01*
X641921Y468629D01*
X641848Y468715D01*
X641778Y468805D01*
X641710Y468897D01*
X641647Y468991D01*
X641586Y469087D01*
X641528Y469185D01*
X641474Y469285D01*
X641424Y469387D01*
X641377Y469490D01*
X641333Y469595D01*
X641293Y469702D01*
X641257Y469810D01*
X641224Y469919D01*
X641196Y470029D01*
X641171Y470139D01*
X641149Y470251D01*
X641132Y470364D01*
X641118Y470476D01*
X641109Y470590D01*
X641103Y470703D01*
X641101Y470817D01*
X644431Y467487D02*
X644599Y467489D01*
X644768Y467495D01*
X644936Y467505D01*
X645103Y467519D01*
X645271Y467537D01*
X645437Y467559D01*
X645604Y467585D01*
X645769Y467615D01*
X645934Y467649D01*
X646098Y467687D01*
X646261Y467729D01*
X646423Y467775D01*
X646584Y467825D01*
X646744Y467878D01*
X646902Y467935D01*
X647059Y467996D01*
X647214Y468061D01*
X647368Y468129D01*
X647520Y468202D01*
X647670Y468277D01*
X647819Y468357D01*
X647965Y468439D01*
X648110Y468526D01*
X648252Y468615D01*
X648393Y468708D01*
X648531Y468805D01*
X648666Y468905D01*
X648799Y469008D01*
X648930Y469114D01*
X649058Y469223D01*
X649184Y469335D01*
X649306Y469450D01*
X649426Y469568D01*
X649010Y479143D02*
X649008Y479257D01*
X649002Y479370D01*
X648993Y479484D01*
X648979Y479596D01*
X648962Y479709D01*
X648940Y479821D01*
X648915Y479931D01*
X648887Y480041D01*
X648854Y480150D01*
X648818Y480258D01*
X648778Y480365D01*
X648734Y480470D01*
X648687Y480573D01*
X648637Y480675D01*
X648583Y480775D01*
X648525Y480873D01*
X648464Y480969D01*
X648401Y481063D01*
X648333Y481155D01*
X648263Y481245D01*
X648190Y481331D01*
X648114Y481416D01*
X648035Y481498D01*
X647953Y481577D01*
X647868Y481653D01*
X647782Y481726D01*
X647692Y481796D01*
X647600Y481864D01*
X647506Y481927D01*
X647410Y481988D01*
X647312Y482046D01*
X647212Y482100D01*
X647110Y482150D01*
X647007Y482197D01*
X646902Y482241D01*
X646795Y482281D01*
X646687Y482317D01*
X646578Y482350D01*
X646468Y482378D01*
X646358Y482403D01*
X646246Y482425D01*
X646133Y482442D01*
X646021Y482456D01*
X645907Y482465D01*
X645794Y482471D01*
X645680Y482473D01*
X645525Y482471D01*
X645371Y482465D01*
X645217Y482456D01*
X645063Y482442D01*
X644909Y482425D01*
X644756Y482404D01*
X644604Y482380D01*
X644452Y482351D01*
X644301Y482319D01*
X644150Y482283D01*
X644001Y482243D01*
X643853Y482200D01*
X643705Y482153D01*
X643559Y482102D01*
X643415Y482048D01*
X643271Y481990D01*
X643130Y481928D01*
X642989Y481864D01*
X642851Y481795D01*
X642714Y481724D01*
X642579Y481648D01*
X642446Y481570D01*
X642314Y481488D01*
X642185Y481403D01*
X642058Y481315D01*
X641934Y481224D01*
X647345Y476229D02*
X647442Y476288D01*
X647536Y476351D01*
X647629Y476416D01*
X647719Y476485D01*
X647807Y476556D01*
X647892Y476631D01*
X647975Y476708D01*
X648055Y476788D01*
X648133Y476870D01*
X648207Y476956D01*
X648279Y477043D01*
X648348Y477133D01*
X648414Y477225D01*
X648476Y477320D01*
X648536Y477416D01*
X648592Y477514D01*
X648645Y477615D01*
X648694Y477717D01*
X648740Y477820D01*
X648783Y477925D01*
X648822Y478031D01*
X648858Y478139D01*
X648889Y478248D01*
X648917Y478357D01*
X648942Y478468D01*
X648963Y478579D01*
X648980Y478691D01*
X648993Y478804D01*
X649002Y478917D01*
X649008Y479030D01*
X649010Y479143D01*
X642766Y473731D02*
X642669Y473672D01*
X642575Y473609D01*
X642482Y473544D01*
X642392Y473475D01*
X642304Y473404D01*
X642219Y473329D01*
X642136Y473252D01*
X642056Y473172D01*
X641978Y473090D01*
X641904Y473004D01*
X641832Y472917D01*
X641763Y472827D01*
X641697Y472735D01*
X641635Y472640D01*
X641575Y472544D01*
X641519Y472446D01*
X641466Y472345D01*
X641417Y472243D01*
X641371Y472140D01*
X641328Y472035D01*
X641289Y471929D01*
X641253Y471821D01*
X641222Y471712D01*
X641194Y471603D01*
X641169Y471492D01*
X641148Y471381D01*
X641131Y471269D01*
X641118Y471156D01*
X641109Y471043D01*
X641103Y470930D01*
X641101Y470817D01*
X642766Y473731D02*
X647345Y476229D01*
X625413Y482473D02*
X625413Y467487D01*
X618753Y467487D01*
X613265Y467487D02*
X608270Y482473D01*
X603274Y467487D01*
X604523Y471234D02*
X612016Y471234D01*
X596235Y467487D02*
X596235Y482473D01*
X589575Y482473D01*
X589575Y475813D02*
X596235Y475813D01*
X583254Y478310D02*
X583254Y471650D01*
X583254Y478310D02*
X583252Y478438D01*
X583246Y478566D01*
X583236Y478694D01*
X583222Y478822D01*
X583205Y478949D01*
X583183Y479075D01*
X583158Y479201D01*
X583128Y479325D01*
X583095Y479449D01*
X583058Y479572D01*
X583017Y479694D01*
X582973Y479814D01*
X582925Y479933D01*
X582873Y480050D01*
X582818Y480166D01*
X582759Y480279D01*
X582696Y480392D01*
X582630Y480502D01*
X582561Y480609D01*
X582489Y480715D01*
X582413Y480819D01*
X582334Y480920D01*
X582252Y481019D01*
X582167Y481115D01*
X582080Y481208D01*
X581989Y481299D01*
X581896Y481386D01*
X581800Y481471D01*
X581701Y481553D01*
X581600Y481632D01*
X581496Y481708D01*
X581390Y481780D01*
X581283Y481849D01*
X581173Y481915D01*
X581060Y481978D01*
X580947Y482037D01*
X580831Y482092D01*
X580714Y482144D01*
X580595Y482192D01*
X580475Y482236D01*
X580353Y482277D01*
X580230Y482314D01*
X580106Y482347D01*
X579982Y482377D01*
X579856Y482402D01*
X579730Y482424D01*
X579603Y482441D01*
X579475Y482455D01*
X579347Y482465D01*
X579219Y482471D01*
X579091Y482473D01*
X578963Y482471D01*
X578835Y482465D01*
X578707Y482455D01*
X578579Y482441D01*
X578452Y482424D01*
X578326Y482402D01*
X578200Y482377D01*
X578076Y482347D01*
X577952Y482314D01*
X577829Y482277D01*
X577707Y482236D01*
X577587Y482192D01*
X577468Y482144D01*
X577351Y482092D01*
X577235Y482037D01*
X577122Y481978D01*
X577010Y481915D01*
X576899Y481849D01*
X576792Y481780D01*
X576686Y481708D01*
X576582Y481632D01*
X576481Y481553D01*
X576382Y481471D01*
X576286Y481386D01*
X576193Y481299D01*
X576102Y481208D01*
X576015Y481115D01*
X575930Y481019D01*
X575848Y480920D01*
X575769Y480819D01*
X575693Y480715D01*
X575621Y480609D01*
X575552Y480502D01*
X575486Y480392D01*
X575423Y480279D01*
X575364Y480166D01*
X575309Y480050D01*
X575257Y479933D01*
X575209Y479814D01*
X575165Y479694D01*
X575124Y479572D01*
X575087Y479449D01*
X575054Y479325D01*
X575024Y479201D01*
X574999Y479075D01*
X574977Y478949D01*
X574960Y478822D01*
X574946Y478694D01*
X574936Y478566D01*
X574930Y478438D01*
X574928Y478310D01*
X574929Y478310D02*
X574929Y471650D01*
X574928Y471650D02*
X574930Y471522D01*
X574936Y471394D01*
X574946Y471266D01*
X574960Y471138D01*
X574977Y471011D01*
X574999Y470885D01*
X575024Y470759D01*
X575054Y470635D01*
X575087Y470511D01*
X575124Y470388D01*
X575165Y470266D01*
X575209Y470146D01*
X575257Y470027D01*
X575309Y469910D01*
X575364Y469794D01*
X575423Y469681D01*
X575486Y469569D01*
X575552Y469458D01*
X575621Y469351D01*
X575693Y469245D01*
X575769Y469141D01*
X575848Y469040D01*
X575930Y468941D01*
X576015Y468845D01*
X576102Y468752D01*
X576193Y468661D01*
X576286Y468574D01*
X576382Y468489D01*
X576481Y468407D01*
X576582Y468328D01*
X576686Y468252D01*
X576792Y468180D01*
X576899Y468111D01*
X577010Y468045D01*
X577122Y467982D01*
X577235Y467923D01*
X577351Y467868D01*
X577468Y467816D01*
X577587Y467768D01*
X577707Y467724D01*
X577829Y467683D01*
X577952Y467646D01*
X578076Y467613D01*
X578200Y467583D01*
X578326Y467558D01*
X578452Y467536D01*
X578579Y467519D01*
X578707Y467505D01*
X578835Y467495D01*
X578963Y467489D01*
X579091Y467487D01*
X579219Y467489D01*
X579347Y467495D01*
X579475Y467505D01*
X579603Y467519D01*
X579730Y467536D01*
X579856Y467558D01*
X579982Y467583D01*
X580106Y467613D01*
X580230Y467646D01*
X580353Y467683D01*
X580475Y467724D01*
X580595Y467768D01*
X580714Y467816D01*
X580831Y467868D01*
X580947Y467923D01*
X581060Y467982D01*
X581173Y468045D01*
X581283Y468111D01*
X581390Y468180D01*
X581496Y468252D01*
X581600Y468328D01*
X581701Y468407D01*
X581800Y468489D01*
X581896Y468574D01*
X581989Y468661D01*
X582080Y468752D01*
X582167Y468845D01*
X582252Y468941D01*
X582334Y469040D01*
X582413Y469141D01*
X582489Y469245D01*
X582561Y469351D01*
X582630Y469458D01*
X582696Y469569D01*
X582759Y469681D01*
X582818Y469794D01*
X582873Y469910D01*
X582925Y470027D01*
X582973Y470146D01*
X583017Y470266D01*
X583058Y470388D01*
X583095Y470511D01*
X583128Y470635D01*
X583158Y470759D01*
X583183Y470885D01*
X583205Y471011D01*
X583222Y471138D01*
X583236Y471266D01*
X583246Y471394D01*
X583252Y471522D01*
X583254Y471650D01*
X566964Y467487D02*
X566964Y482473D01*
X562801Y482473D01*
X562673Y482471D01*
X562545Y482465D01*
X562417Y482455D01*
X562289Y482441D01*
X562162Y482424D01*
X562036Y482402D01*
X561910Y482377D01*
X561786Y482347D01*
X561662Y482314D01*
X561539Y482277D01*
X561417Y482236D01*
X561297Y482192D01*
X561178Y482144D01*
X561061Y482092D01*
X560945Y482037D01*
X560832Y481978D01*
X560720Y481915D01*
X560609Y481849D01*
X560502Y481780D01*
X560396Y481708D01*
X560292Y481632D01*
X560191Y481553D01*
X560092Y481471D01*
X559996Y481386D01*
X559903Y481299D01*
X559812Y481208D01*
X559725Y481115D01*
X559640Y481019D01*
X559558Y480920D01*
X559479Y480819D01*
X559403Y480715D01*
X559331Y480609D01*
X559262Y480502D01*
X559196Y480392D01*
X559133Y480279D01*
X559074Y480166D01*
X559019Y480050D01*
X558967Y479933D01*
X558919Y479814D01*
X558875Y479694D01*
X558834Y479572D01*
X558797Y479449D01*
X558764Y479325D01*
X558734Y479201D01*
X558709Y479075D01*
X558687Y478949D01*
X558670Y478822D01*
X558656Y478694D01*
X558646Y478566D01*
X558640Y478438D01*
X558638Y478310D01*
X558640Y478182D01*
X558646Y478054D01*
X558656Y477926D01*
X558670Y477798D01*
X558687Y477671D01*
X558709Y477545D01*
X558734Y477419D01*
X558764Y477295D01*
X558797Y477171D01*
X558834Y477048D01*
X558875Y476926D01*
X558919Y476806D01*
X558967Y476687D01*
X559019Y476570D01*
X559074Y476454D01*
X559133Y476341D01*
X559196Y476229D01*
X559262Y476118D01*
X559331Y476011D01*
X559403Y475905D01*
X559479Y475801D01*
X559558Y475700D01*
X559640Y475601D01*
X559725Y475505D01*
X559812Y475412D01*
X559903Y475321D01*
X559996Y475234D01*
X560092Y475149D01*
X560191Y475067D01*
X560292Y474988D01*
X560396Y474912D01*
X560502Y474840D01*
X560609Y474771D01*
X560720Y474705D01*
X560832Y474642D01*
X560945Y474583D01*
X561061Y474528D01*
X561178Y474476D01*
X561297Y474428D01*
X561417Y474384D01*
X561539Y474343D01*
X561662Y474306D01*
X561786Y474273D01*
X561910Y474243D01*
X562036Y474218D01*
X562162Y474196D01*
X562289Y474179D01*
X562417Y474165D01*
X562545Y474155D01*
X562673Y474149D01*
X562801Y474147D01*
X566964Y474147D01*
X561968Y474147D02*
X558638Y467487D01*
X548200Y467487D02*
X544870Y467487D01*
X548200Y467487D02*
X548314Y467489D01*
X548427Y467495D01*
X548541Y467504D01*
X548653Y467518D01*
X548766Y467535D01*
X548878Y467557D01*
X548988Y467582D01*
X549098Y467610D01*
X549207Y467643D01*
X549315Y467679D01*
X549422Y467719D01*
X549527Y467763D01*
X549630Y467810D01*
X549732Y467860D01*
X549832Y467914D01*
X549930Y467972D01*
X550026Y468033D01*
X550120Y468096D01*
X550212Y468164D01*
X550302Y468234D01*
X550388Y468307D01*
X550473Y468383D01*
X550555Y468462D01*
X550634Y468544D01*
X550710Y468629D01*
X550783Y468715D01*
X550853Y468805D01*
X550921Y468897D01*
X550984Y468991D01*
X551045Y469087D01*
X551103Y469185D01*
X551157Y469285D01*
X551207Y469387D01*
X551254Y469490D01*
X551298Y469595D01*
X551338Y469702D01*
X551374Y469810D01*
X551407Y469919D01*
X551435Y470029D01*
X551460Y470140D01*
X551482Y470251D01*
X551499Y470364D01*
X551513Y470476D01*
X551522Y470590D01*
X551528Y470703D01*
X551530Y470817D01*
X551530Y479143D01*
X551528Y479257D01*
X551522Y479370D01*
X551513Y479484D01*
X551499Y479596D01*
X551482Y479709D01*
X551460Y479821D01*
X551435Y479931D01*
X551407Y480041D01*
X551374Y480150D01*
X551338Y480258D01*
X551298Y480365D01*
X551254Y480470D01*
X551207Y480573D01*
X551157Y480675D01*
X551103Y480775D01*
X551045Y480873D01*
X550984Y480969D01*
X550921Y481063D01*
X550853Y481155D01*
X550783Y481245D01*
X550710Y481331D01*
X550634Y481416D01*
X550555Y481498D01*
X550473Y481577D01*
X550389Y481653D01*
X550302Y481726D01*
X550212Y481796D01*
X550120Y481863D01*
X550026Y481927D01*
X549930Y481988D01*
X549832Y482046D01*
X549732Y482100D01*
X549630Y482150D01*
X549527Y482197D01*
X549422Y482241D01*
X549315Y482281D01*
X549207Y482317D01*
X549098Y482350D01*
X548988Y482378D01*
X548878Y482403D01*
X548766Y482425D01*
X548653Y482442D01*
X548541Y482456D01*
X548427Y482465D01*
X548314Y482471D01*
X548200Y482473D01*
X544870Y482473D01*
X537879Y467487D02*
X531218Y467487D01*
X537879Y467487D02*
X537879Y482473D01*
X531218Y482473D01*
X532883Y475813D02*
X537879Y475813D01*
X742908Y455803D02*
X747903Y440817D01*
X737912Y440817D02*
X742908Y455803D01*
X746654Y444564D02*
X739161Y444564D01*
X730873Y440817D02*
X730873Y455803D01*
X730873Y440817D02*
X724213Y440817D01*
X717326Y440817D02*
X710666Y440817D01*
X717326Y440817D02*
X717326Y455803D01*
X710666Y455803D01*
X712331Y449143D02*
X717326Y449143D01*
X701074Y440817D02*
X697744Y440817D01*
X701074Y440817D02*
X701188Y440819D01*
X701301Y440825D01*
X701415Y440834D01*
X701527Y440848D01*
X701640Y440865D01*
X701752Y440887D01*
X701862Y440912D01*
X701972Y440940D01*
X702081Y440973D01*
X702189Y441009D01*
X702296Y441049D01*
X702401Y441093D01*
X702504Y441140D01*
X702606Y441190D01*
X702706Y441244D01*
X702804Y441302D01*
X702900Y441363D01*
X702994Y441426D01*
X703086Y441494D01*
X703176Y441564D01*
X703262Y441637D01*
X703347Y441713D01*
X703429Y441792D01*
X703508Y441874D01*
X703584Y441959D01*
X703657Y442045D01*
X703727Y442135D01*
X703795Y442227D01*
X703858Y442321D01*
X703919Y442417D01*
X703977Y442515D01*
X704031Y442615D01*
X704081Y442717D01*
X704128Y442820D01*
X704172Y442925D01*
X704212Y443032D01*
X704248Y443140D01*
X704281Y443249D01*
X704309Y443359D01*
X704334Y443470D01*
X704356Y443581D01*
X704373Y443694D01*
X704387Y443806D01*
X704396Y443920D01*
X704402Y444033D01*
X704404Y444147D01*
X704405Y444147D02*
X704405Y452473D01*
X704404Y452473D02*
X704402Y452587D01*
X704396Y452700D01*
X704387Y452814D01*
X704373Y452926D01*
X704356Y453039D01*
X704334Y453151D01*
X704309Y453261D01*
X704281Y453371D01*
X704248Y453480D01*
X704212Y453588D01*
X704172Y453695D01*
X704128Y453800D01*
X704081Y453903D01*
X704031Y454005D01*
X703977Y454105D01*
X703919Y454203D01*
X703858Y454299D01*
X703795Y454393D01*
X703727Y454485D01*
X703657Y454575D01*
X703584Y454661D01*
X703508Y454746D01*
X703429Y454828D01*
X703347Y454907D01*
X703263Y454983D01*
X703176Y455056D01*
X703086Y455126D01*
X702994Y455193D01*
X702900Y455257D01*
X702804Y455318D01*
X702706Y455376D01*
X702606Y455430D01*
X702504Y455480D01*
X702401Y455527D01*
X702296Y455571D01*
X702189Y455611D01*
X702081Y455647D01*
X701972Y455680D01*
X701862Y455708D01*
X701752Y455733D01*
X701640Y455755D01*
X701527Y455772D01*
X701415Y455786D01*
X701301Y455795D01*
X701188Y455801D01*
X701074Y455803D01*
X697744Y455803D01*
X682143Y455803D02*
X682143Y440817D01*
X682143Y455803D02*
X677981Y455803D01*
X677853Y455801D01*
X677725Y455795D01*
X677597Y455785D01*
X677469Y455771D01*
X677342Y455754D01*
X677216Y455732D01*
X677090Y455707D01*
X676966Y455677D01*
X676842Y455644D01*
X676719Y455607D01*
X676597Y455566D01*
X676477Y455522D01*
X676358Y455474D01*
X676241Y455422D01*
X676125Y455367D01*
X676012Y455308D01*
X675900Y455245D01*
X675789Y455179D01*
X675682Y455110D01*
X675576Y455038D01*
X675472Y454962D01*
X675371Y454883D01*
X675272Y454801D01*
X675176Y454716D01*
X675083Y454629D01*
X674992Y454538D01*
X674905Y454445D01*
X674820Y454349D01*
X674738Y454250D01*
X674659Y454149D01*
X674583Y454045D01*
X674511Y453939D01*
X674442Y453832D01*
X674376Y453722D01*
X674313Y453609D01*
X674254Y453496D01*
X674199Y453380D01*
X674147Y453263D01*
X674099Y453144D01*
X674055Y453024D01*
X674014Y452902D01*
X673977Y452779D01*
X673944Y452655D01*
X673914Y452531D01*
X673889Y452405D01*
X673867Y452279D01*
X673850Y452152D01*
X673836Y452024D01*
X673826Y451896D01*
X673820Y451768D01*
X673818Y451640D01*
X673820Y451512D01*
X673826Y451384D01*
X673836Y451256D01*
X673850Y451128D01*
X673867Y451001D01*
X673889Y450875D01*
X673914Y450749D01*
X673944Y450625D01*
X673977Y450501D01*
X674014Y450378D01*
X674055Y450256D01*
X674099Y450136D01*
X674147Y450017D01*
X674199Y449900D01*
X674254Y449784D01*
X674313Y449671D01*
X674376Y449559D01*
X674442Y449448D01*
X674511Y449341D01*
X674583Y449235D01*
X674659Y449131D01*
X674738Y449030D01*
X674820Y448931D01*
X674905Y448835D01*
X674992Y448742D01*
X675083Y448651D01*
X675176Y448564D01*
X675272Y448479D01*
X675371Y448397D01*
X675472Y448318D01*
X675576Y448242D01*
X675682Y448170D01*
X675789Y448101D01*
X675900Y448035D01*
X676012Y447972D01*
X676125Y447913D01*
X676241Y447858D01*
X676358Y447806D01*
X676477Y447758D01*
X676597Y447714D01*
X676719Y447673D01*
X676842Y447636D01*
X676966Y447603D01*
X677090Y447573D01*
X677216Y447548D01*
X677342Y447526D01*
X677469Y447509D01*
X677597Y447495D01*
X677725Y447485D01*
X677853Y447479D01*
X677981Y447477D01*
X682143Y447477D01*
X666315Y440817D02*
X666315Y455803D01*
X667980Y440817D02*
X664650Y440817D01*
X664650Y455803D02*
X667980Y455803D01*
X657242Y455803D02*
X657242Y440817D01*
X652247Y447477D02*
X657242Y455803D01*
X652247Y447477D02*
X647251Y455803D01*
X647251Y440817D01*
X638649Y440817D02*
X631989Y440817D01*
X638649Y440817D02*
X638649Y455803D01*
X631989Y455803D01*
X633654Y449143D02*
X638649Y449143D01*
X625147Y455803D02*
X625147Y440817D01*
X616821Y440817D02*
X625147Y455803D01*
X616821Y455803D02*
X616821Y440817D01*
X605874Y440817D02*
X605874Y455803D01*
X610037Y455803D02*
X601711Y455803D01*
X594882Y440817D02*
X588221Y440817D01*
X594882Y440817D02*
X594882Y455803D01*
X588221Y455803D01*
X589886Y449143D02*
X594882Y449143D01*
X581334Y455803D02*
X581334Y440817D01*
X574674Y440817D01*
X747903Y429133D02*
X747903Y414147D01*
X747903Y429133D02*
X743740Y429133D01*
X743612Y429131D01*
X743484Y429125D01*
X743356Y429115D01*
X743228Y429101D01*
X743101Y429084D01*
X742975Y429062D01*
X742849Y429037D01*
X742725Y429007D01*
X742601Y428974D01*
X742478Y428937D01*
X742356Y428896D01*
X742236Y428852D01*
X742117Y428804D01*
X742000Y428752D01*
X741884Y428697D01*
X741771Y428638D01*
X741659Y428575D01*
X741548Y428509D01*
X741441Y428440D01*
X741335Y428368D01*
X741231Y428292D01*
X741130Y428213D01*
X741031Y428131D01*
X740935Y428047D01*
X740842Y427959D01*
X740751Y427868D01*
X740664Y427775D01*
X740579Y427679D01*
X740497Y427580D01*
X740418Y427479D01*
X740342Y427375D01*
X740270Y427270D01*
X740201Y427162D01*
X740135Y427052D01*
X740072Y426940D01*
X740013Y426826D01*
X739958Y426710D01*
X739906Y426593D01*
X739858Y426474D01*
X739814Y426354D01*
X739773Y426232D01*
X739736Y426109D01*
X739703Y425985D01*
X739673Y425861D01*
X739648Y425735D01*
X739626Y425609D01*
X739609Y425482D01*
X739595Y425354D01*
X739585Y425226D01*
X739579Y425098D01*
X739577Y424970D01*
X739577Y418310D01*
X739579Y418182D01*
X739585Y418054D01*
X739595Y417926D01*
X739609Y417798D01*
X739626Y417671D01*
X739648Y417545D01*
X739673Y417419D01*
X739703Y417295D01*
X739736Y417171D01*
X739773Y417048D01*
X739814Y416926D01*
X739858Y416806D01*
X739906Y416687D01*
X739958Y416570D01*
X740013Y416454D01*
X740072Y416341D01*
X740135Y416228D01*
X740201Y416118D01*
X740270Y416010D01*
X740342Y415905D01*
X740418Y415801D01*
X740497Y415700D01*
X740579Y415601D01*
X740664Y415505D01*
X740751Y415412D01*
X740842Y415321D01*
X740935Y415233D01*
X741031Y415149D01*
X741130Y415067D01*
X741231Y414988D01*
X741335Y414912D01*
X741441Y414840D01*
X741548Y414771D01*
X741659Y414705D01*
X741771Y414642D01*
X741884Y414583D01*
X742000Y414528D01*
X742117Y414476D01*
X742236Y414428D01*
X742356Y414384D01*
X742478Y414343D01*
X742601Y414306D01*
X742725Y414273D01*
X742849Y414243D01*
X742975Y414218D01*
X743101Y414196D01*
X743228Y414179D01*
X743356Y414165D01*
X743484Y414155D01*
X743612Y414149D01*
X743740Y414147D01*
X747903Y414147D01*
X732583Y429133D02*
X727588Y422056D01*
X722593Y429133D01*
X727588Y422056D02*
X727588Y414147D01*
X715554Y414147D02*
X715554Y429133D01*
X715554Y414147D02*
X708893Y414147D01*
X703405Y414147D02*
X698410Y429133D01*
X693414Y414147D01*
X694663Y417894D02*
X702156Y417894D01*
X686420Y414147D02*
X686420Y429133D01*
X678095Y414147D01*
X678095Y429133D01*
X657457Y414147D02*
X657343Y414149D01*
X657230Y414155D01*
X657116Y414164D01*
X657004Y414178D01*
X656891Y414195D01*
X656779Y414217D01*
X656669Y414242D01*
X656559Y414270D01*
X656450Y414303D01*
X656342Y414339D01*
X656235Y414379D01*
X656130Y414423D01*
X656027Y414470D01*
X655925Y414520D01*
X655825Y414574D01*
X655727Y414632D01*
X655631Y414693D01*
X655537Y414756D01*
X655445Y414824D01*
X655355Y414894D01*
X655269Y414967D01*
X655184Y415043D01*
X655102Y415122D01*
X655023Y415204D01*
X654947Y415289D01*
X654874Y415375D01*
X654804Y415465D01*
X654736Y415557D01*
X654673Y415651D01*
X654612Y415747D01*
X654554Y415845D01*
X654500Y415945D01*
X654450Y416047D01*
X654403Y416150D01*
X654359Y416255D01*
X654319Y416362D01*
X654283Y416470D01*
X654250Y416579D01*
X654222Y416689D01*
X654197Y416799D01*
X654175Y416911D01*
X654158Y417024D01*
X654144Y417136D01*
X654135Y417250D01*
X654129Y417363D01*
X654127Y417477D01*
X657457Y414147D02*
X657625Y414149D01*
X657794Y414155D01*
X657962Y414165D01*
X658129Y414179D01*
X658297Y414197D01*
X658463Y414219D01*
X658630Y414245D01*
X658795Y414275D01*
X658960Y414309D01*
X659124Y414347D01*
X659287Y414389D01*
X659449Y414435D01*
X659610Y414485D01*
X659770Y414538D01*
X659928Y414595D01*
X660085Y414656D01*
X660240Y414721D01*
X660394Y414789D01*
X660546Y414862D01*
X660696Y414937D01*
X660845Y415017D01*
X660991Y415099D01*
X661136Y415186D01*
X661278Y415275D01*
X661419Y415368D01*
X661557Y415465D01*
X661692Y415565D01*
X661825Y415668D01*
X661956Y415774D01*
X662084Y415883D01*
X662210Y415995D01*
X662332Y416110D01*
X662452Y416228D01*
X662036Y425803D02*
X662034Y425917D01*
X662028Y426030D01*
X662019Y426144D01*
X662005Y426256D01*
X661988Y426369D01*
X661966Y426481D01*
X661941Y426591D01*
X661913Y426701D01*
X661880Y426810D01*
X661844Y426918D01*
X661804Y427025D01*
X661760Y427130D01*
X661713Y427233D01*
X661663Y427335D01*
X661609Y427435D01*
X661551Y427533D01*
X661490Y427629D01*
X661427Y427723D01*
X661359Y427815D01*
X661289Y427905D01*
X661216Y427991D01*
X661140Y428076D01*
X661061Y428158D01*
X660979Y428237D01*
X660894Y428313D01*
X660808Y428386D01*
X660718Y428456D01*
X660626Y428524D01*
X660532Y428587D01*
X660436Y428648D01*
X660338Y428706D01*
X660238Y428760D01*
X660136Y428810D01*
X660033Y428857D01*
X659928Y428901D01*
X659821Y428941D01*
X659713Y428977D01*
X659604Y429010D01*
X659494Y429038D01*
X659384Y429063D01*
X659272Y429085D01*
X659159Y429102D01*
X659047Y429116D01*
X658933Y429125D01*
X658820Y429131D01*
X658706Y429133D01*
X658551Y429131D01*
X658397Y429125D01*
X658243Y429116D01*
X658089Y429102D01*
X657935Y429085D01*
X657782Y429064D01*
X657630Y429040D01*
X657478Y429011D01*
X657327Y428979D01*
X657176Y428943D01*
X657027Y428903D01*
X656879Y428860D01*
X656731Y428813D01*
X656585Y428762D01*
X656441Y428708D01*
X656297Y428650D01*
X656156Y428588D01*
X656015Y428524D01*
X655877Y428455D01*
X655740Y428384D01*
X655605Y428308D01*
X655472Y428230D01*
X655340Y428148D01*
X655211Y428063D01*
X655084Y427975D01*
X654960Y427884D01*
X660371Y422889D02*
X660468Y422948D01*
X660562Y423011D01*
X660655Y423076D01*
X660745Y423145D01*
X660833Y423216D01*
X660918Y423291D01*
X661001Y423368D01*
X661081Y423448D01*
X661159Y423530D01*
X661233Y423616D01*
X661305Y423703D01*
X661374Y423793D01*
X661440Y423885D01*
X661502Y423980D01*
X661562Y424076D01*
X661618Y424174D01*
X661671Y424275D01*
X661720Y424377D01*
X661766Y424480D01*
X661809Y424585D01*
X661848Y424691D01*
X661884Y424799D01*
X661915Y424908D01*
X661943Y425017D01*
X661968Y425128D01*
X661989Y425239D01*
X662006Y425351D01*
X662019Y425464D01*
X662028Y425577D01*
X662034Y425690D01*
X662036Y425803D01*
X655792Y420391D02*
X655695Y420332D01*
X655601Y420269D01*
X655508Y420204D01*
X655418Y420135D01*
X655330Y420064D01*
X655245Y419989D01*
X655162Y419912D01*
X655082Y419832D01*
X655004Y419750D01*
X654930Y419664D01*
X654858Y419577D01*
X654789Y419487D01*
X654723Y419395D01*
X654661Y419300D01*
X654601Y419204D01*
X654545Y419106D01*
X654492Y419005D01*
X654443Y418903D01*
X654397Y418800D01*
X654354Y418695D01*
X654315Y418589D01*
X654279Y418481D01*
X654248Y418372D01*
X654220Y418263D01*
X654195Y418152D01*
X654174Y418041D01*
X654157Y417929D01*
X654144Y417816D01*
X654135Y417703D01*
X654129Y417590D01*
X654127Y417477D01*
X655792Y420391D02*
X660371Y422889D01*
X647342Y424970D02*
X647342Y418310D01*
X647342Y424970D02*
X647340Y425098D01*
X647334Y425226D01*
X647324Y425354D01*
X647310Y425482D01*
X647293Y425609D01*
X647271Y425735D01*
X647246Y425861D01*
X647216Y425985D01*
X647183Y426109D01*
X647146Y426232D01*
X647105Y426354D01*
X647061Y426474D01*
X647013Y426593D01*
X646961Y426710D01*
X646906Y426826D01*
X646847Y426939D01*
X646784Y427052D01*
X646718Y427162D01*
X646649Y427269D01*
X646577Y427375D01*
X646501Y427479D01*
X646422Y427580D01*
X646340Y427679D01*
X646255Y427775D01*
X646168Y427868D01*
X646077Y427959D01*
X645984Y428046D01*
X645888Y428131D01*
X645789Y428213D01*
X645688Y428292D01*
X645584Y428368D01*
X645478Y428440D01*
X645371Y428509D01*
X645261Y428575D01*
X645148Y428638D01*
X645035Y428697D01*
X644919Y428752D01*
X644802Y428804D01*
X644683Y428852D01*
X644563Y428896D01*
X644441Y428937D01*
X644318Y428974D01*
X644194Y429007D01*
X644070Y429037D01*
X643944Y429062D01*
X643818Y429084D01*
X643691Y429101D01*
X643563Y429115D01*
X643435Y429125D01*
X643307Y429131D01*
X643179Y429133D01*
X643051Y429131D01*
X642923Y429125D01*
X642795Y429115D01*
X642667Y429101D01*
X642540Y429084D01*
X642414Y429062D01*
X642288Y429037D01*
X642164Y429007D01*
X642040Y428974D01*
X641917Y428937D01*
X641795Y428896D01*
X641675Y428852D01*
X641556Y428804D01*
X641439Y428752D01*
X641323Y428697D01*
X641210Y428638D01*
X641098Y428575D01*
X640987Y428509D01*
X640880Y428440D01*
X640774Y428368D01*
X640670Y428292D01*
X640569Y428213D01*
X640470Y428131D01*
X640374Y428046D01*
X640281Y427959D01*
X640190Y427868D01*
X640103Y427775D01*
X640018Y427679D01*
X639936Y427580D01*
X639857Y427479D01*
X639781Y427375D01*
X639709Y427269D01*
X639640Y427162D01*
X639574Y427052D01*
X639511Y426939D01*
X639452Y426826D01*
X639397Y426710D01*
X639345Y426593D01*
X639297Y426474D01*
X639253Y426354D01*
X639212Y426232D01*
X639175Y426109D01*
X639142Y425985D01*
X639112Y425861D01*
X639087Y425735D01*
X639065Y425609D01*
X639048Y425482D01*
X639034Y425354D01*
X639024Y425226D01*
X639018Y425098D01*
X639016Y424970D01*
X639017Y424970D02*
X639017Y418310D01*
X639016Y418310D02*
X639018Y418182D01*
X639024Y418054D01*
X639034Y417926D01*
X639048Y417798D01*
X639065Y417671D01*
X639087Y417545D01*
X639112Y417419D01*
X639142Y417295D01*
X639175Y417171D01*
X639212Y417048D01*
X639253Y416926D01*
X639297Y416806D01*
X639345Y416687D01*
X639397Y416570D01*
X639452Y416454D01*
X639511Y416341D01*
X639574Y416229D01*
X639640Y416118D01*
X639709Y416011D01*
X639781Y415905D01*
X639857Y415801D01*
X639936Y415700D01*
X640018Y415601D01*
X640103Y415505D01*
X640190Y415412D01*
X640281Y415321D01*
X640374Y415234D01*
X640470Y415149D01*
X640569Y415067D01*
X640670Y414988D01*
X640774Y414912D01*
X640880Y414840D01*
X640987Y414771D01*
X641098Y414705D01*
X641210Y414642D01*
X641323Y414583D01*
X641439Y414528D01*
X641556Y414476D01*
X641675Y414428D01*
X641795Y414384D01*
X641917Y414343D01*
X642040Y414306D01*
X642164Y414273D01*
X642288Y414243D01*
X642414Y414218D01*
X642540Y414196D01*
X642667Y414179D01*
X642795Y414165D01*
X642923Y414155D01*
X643051Y414149D01*
X643179Y414147D01*
X643307Y414149D01*
X643435Y414155D01*
X643563Y414165D01*
X643691Y414179D01*
X643818Y414196D01*
X643944Y414218D01*
X644070Y414243D01*
X644194Y414273D01*
X644318Y414306D01*
X644441Y414343D01*
X644563Y414384D01*
X644683Y414428D01*
X644802Y414476D01*
X644919Y414528D01*
X645035Y414583D01*
X645148Y414642D01*
X645261Y414705D01*
X645371Y414771D01*
X645478Y414840D01*
X645584Y414912D01*
X645688Y414988D01*
X645789Y415067D01*
X645888Y415149D01*
X645984Y415234D01*
X646077Y415321D01*
X646168Y415412D01*
X646255Y415505D01*
X646340Y415601D01*
X646422Y415700D01*
X646501Y415801D01*
X646577Y415905D01*
X646649Y416011D01*
X646718Y416118D01*
X646784Y416229D01*
X646847Y416341D01*
X646906Y416454D01*
X646961Y416570D01*
X647013Y416687D01*
X647061Y416806D01*
X647105Y416926D01*
X647146Y417048D01*
X647183Y417171D01*
X647216Y417295D01*
X647246Y417419D01*
X647271Y417545D01*
X647293Y417671D01*
X647310Y417798D01*
X647324Y417926D01*
X647334Y418054D01*
X647340Y418182D01*
X647342Y418310D01*
X631190Y418310D02*
X631190Y429133D01*
X631190Y418310D02*
X631188Y418182D01*
X631182Y418054D01*
X631172Y417926D01*
X631158Y417798D01*
X631141Y417671D01*
X631119Y417545D01*
X631094Y417419D01*
X631064Y417295D01*
X631031Y417171D01*
X630994Y417048D01*
X630953Y416926D01*
X630909Y416806D01*
X630861Y416687D01*
X630809Y416570D01*
X630754Y416454D01*
X630695Y416341D01*
X630632Y416229D01*
X630566Y416118D01*
X630497Y416011D01*
X630425Y415905D01*
X630349Y415801D01*
X630270Y415700D01*
X630188Y415601D01*
X630103Y415505D01*
X630016Y415412D01*
X629925Y415321D01*
X629832Y415234D01*
X629736Y415149D01*
X629637Y415067D01*
X629536Y414988D01*
X629432Y414912D01*
X629326Y414840D01*
X629219Y414771D01*
X629109Y414705D01*
X628996Y414642D01*
X628883Y414583D01*
X628767Y414528D01*
X628650Y414476D01*
X628531Y414428D01*
X628411Y414384D01*
X628289Y414343D01*
X628166Y414306D01*
X628042Y414273D01*
X627918Y414243D01*
X627792Y414218D01*
X627666Y414196D01*
X627539Y414179D01*
X627411Y414165D01*
X627283Y414155D01*
X627155Y414149D01*
X627027Y414147D01*
X626899Y414149D01*
X626771Y414155D01*
X626643Y414165D01*
X626515Y414179D01*
X626388Y414196D01*
X626262Y414218D01*
X626136Y414243D01*
X626012Y414273D01*
X625888Y414306D01*
X625765Y414343D01*
X625643Y414384D01*
X625523Y414428D01*
X625404Y414476D01*
X625287Y414528D01*
X625171Y414583D01*
X625058Y414642D01*
X624946Y414705D01*
X624835Y414771D01*
X624728Y414840D01*
X624622Y414912D01*
X624518Y414988D01*
X624417Y415067D01*
X624318Y415149D01*
X624222Y415234D01*
X624129Y415321D01*
X624038Y415412D01*
X623951Y415505D01*
X623866Y415601D01*
X623784Y415700D01*
X623705Y415801D01*
X623629Y415905D01*
X623557Y416011D01*
X623488Y416118D01*
X623422Y416229D01*
X623359Y416341D01*
X623300Y416454D01*
X623245Y416570D01*
X623193Y416687D01*
X623145Y416806D01*
X623101Y416926D01*
X623060Y417048D01*
X623023Y417171D01*
X622990Y417295D01*
X622960Y417419D01*
X622935Y417545D01*
X622913Y417671D01*
X622896Y417798D01*
X622882Y417926D01*
X622872Y418054D01*
X622866Y418182D01*
X622864Y418310D01*
X622864Y429133D01*
X615559Y429133D02*
X607233Y429133D01*
X615559Y414147D01*
X607233Y414147D01*
X601281Y414147D02*
X596286Y429133D01*
X591290Y414147D01*
X592539Y417894D02*
X600032Y417894D01*
X742908Y402463D02*
X742908Y390807D01*
X742910Y390693D01*
X742916Y390580D01*
X742925Y390466D01*
X742939Y390354D01*
X742956Y390241D01*
X742978Y390129D01*
X743003Y390019D01*
X743031Y389909D01*
X743064Y389800D01*
X743100Y389692D01*
X743140Y389585D01*
X743184Y389480D01*
X743231Y389377D01*
X743281Y389275D01*
X743335Y389175D01*
X743393Y389077D01*
X743454Y388981D01*
X743517Y388887D01*
X743585Y388795D01*
X743655Y388705D01*
X743728Y388619D01*
X743804Y388534D01*
X743883Y388452D01*
X743965Y388373D01*
X744050Y388297D01*
X744136Y388224D01*
X744226Y388154D01*
X744318Y388086D01*
X744412Y388023D01*
X744508Y387962D01*
X744606Y387904D01*
X744706Y387850D01*
X744808Y387800D01*
X744911Y387753D01*
X745016Y387709D01*
X745123Y387669D01*
X745231Y387633D01*
X745340Y387600D01*
X745450Y387572D01*
X745560Y387547D01*
X745672Y387525D01*
X745785Y387508D01*
X745897Y387494D01*
X746011Y387485D01*
X746124Y387479D01*
X746238Y387477D01*
X747903Y387477D01*
X735995Y387477D02*
X731000Y402463D01*
X726004Y387477D01*
X727253Y391224D02*
X734746Y391224D01*
X720364Y402463D02*
X715369Y395386D01*
X710373Y402463D01*
X715369Y395386D02*
X715369Y387477D01*
X691401Y387477D02*
X696396Y402463D01*
X686405Y402463D02*
X691401Y387477D01*
X679932Y391640D02*
X679932Y398300D01*
X679930Y398428D01*
X679924Y398556D01*
X679914Y398684D01*
X679900Y398812D01*
X679883Y398939D01*
X679861Y399065D01*
X679836Y399191D01*
X679806Y399315D01*
X679773Y399439D01*
X679736Y399562D01*
X679695Y399684D01*
X679651Y399804D01*
X679603Y399923D01*
X679551Y400040D01*
X679496Y400156D01*
X679437Y400269D01*
X679374Y400382D01*
X679308Y400492D01*
X679239Y400599D01*
X679167Y400705D01*
X679091Y400809D01*
X679012Y400910D01*
X678930Y401009D01*
X678845Y401105D01*
X678758Y401198D01*
X678667Y401289D01*
X678574Y401376D01*
X678478Y401461D01*
X678379Y401543D01*
X678278Y401622D01*
X678174Y401698D01*
X678068Y401770D01*
X677961Y401839D01*
X677851Y401905D01*
X677738Y401968D01*
X677625Y402027D01*
X677509Y402082D01*
X677392Y402134D01*
X677273Y402182D01*
X677153Y402226D01*
X677031Y402267D01*
X676908Y402304D01*
X676784Y402337D01*
X676660Y402367D01*
X676534Y402392D01*
X676408Y402414D01*
X676281Y402431D01*
X676153Y402445D01*
X676025Y402455D01*
X675897Y402461D01*
X675769Y402463D01*
X675641Y402461D01*
X675513Y402455D01*
X675385Y402445D01*
X675257Y402431D01*
X675130Y402414D01*
X675004Y402392D01*
X674878Y402367D01*
X674754Y402337D01*
X674630Y402304D01*
X674507Y402267D01*
X674385Y402226D01*
X674265Y402182D01*
X674146Y402134D01*
X674029Y402082D01*
X673913Y402027D01*
X673800Y401968D01*
X673688Y401905D01*
X673577Y401839D01*
X673470Y401770D01*
X673364Y401698D01*
X673260Y401622D01*
X673159Y401543D01*
X673060Y401461D01*
X672964Y401376D01*
X672871Y401289D01*
X672780Y401198D01*
X672693Y401105D01*
X672608Y401009D01*
X672526Y400910D01*
X672447Y400809D01*
X672371Y400705D01*
X672299Y400599D01*
X672230Y400492D01*
X672164Y400382D01*
X672101Y400269D01*
X672042Y400156D01*
X671987Y400040D01*
X671935Y399923D01*
X671887Y399804D01*
X671843Y399684D01*
X671802Y399562D01*
X671765Y399439D01*
X671732Y399315D01*
X671702Y399191D01*
X671677Y399065D01*
X671655Y398939D01*
X671638Y398812D01*
X671624Y398684D01*
X671614Y398556D01*
X671608Y398428D01*
X671606Y398300D01*
X671607Y398300D02*
X671607Y391640D01*
X671606Y391640D02*
X671608Y391512D01*
X671614Y391384D01*
X671624Y391256D01*
X671638Y391128D01*
X671655Y391001D01*
X671677Y390875D01*
X671702Y390749D01*
X671732Y390625D01*
X671765Y390501D01*
X671802Y390378D01*
X671843Y390256D01*
X671887Y390136D01*
X671935Y390017D01*
X671987Y389900D01*
X672042Y389784D01*
X672101Y389671D01*
X672164Y389559D01*
X672230Y389448D01*
X672299Y389341D01*
X672371Y389235D01*
X672447Y389131D01*
X672526Y389030D01*
X672608Y388931D01*
X672693Y388835D01*
X672780Y388742D01*
X672871Y388651D01*
X672964Y388564D01*
X673060Y388479D01*
X673159Y388397D01*
X673260Y388318D01*
X673364Y388242D01*
X673470Y388170D01*
X673577Y388101D01*
X673688Y388035D01*
X673800Y387972D01*
X673913Y387913D01*
X674029Y387858D01*
X674146Y387806D01*
X674265Y387758D01*
X674385Y387714D01*
X674507Y387673D01*
X674630Y387636D01*
X674754Y387603D01*
X674878Y387573D01*
X675004Y387548D01*
X675130Y387526D01*
X675257Y387509D01*
X675385Y387495D01*
X675513Y387485D01*
X675641Y387479D01*
X675769Y387477D01*
X675897Y387479D01*
X676025Y387485D01*
X676153Y387495D01*
X676281Y387509D01*
X676408Y387526D01*
X676534Y387548D01*
X676660Y387573D01*
X676784Y387603D01*
X676908Y387636D01*
X677031Y387673D01*
X677153Y387714D01*
X677273Y387758D01*
X677392Y387806D01*
X677509Y387858D01*
X677625Y387913D01*
X677738Y387972D01*
X677851Y388035D01*
X677961Y388101D01*
X678068Y388170D01*
X678174Y388242D01*
X678278Y388318D01*
X678379Y388397D01*
X678478Y388479D01*
X678574Y388564D01*
X678667Y388651D01*
X678758Y388742D01*
X678845Y388835D01*
X678930Y388931D01*
X679012Y389030D01*
X679091Y389131D01*
X679167Y389235D01*
X679239Y389341D01*
X679308Y389448D01*
X679374Y389559D01*
X679437Y389671D01*
X679496Y389784D01*
X679551Y389900D01*
X679603Y390017D01*
X679651Y390136D01*
X679695Y390256D01*
X679736Y390378D01*
X679773Y390501D01*
X679806Y390625D01*
X679836Y390749D01*
X679861Y390875D01*
X679883Y391001D01*
X679900Y391128D01*
X679914Y391256D01*
X679924Y391384D01*
X679930Y391512D01*
X679932Y391640D01*
X661180Y387477D02*
X661180Y402463D01*
X657018Y402463D02*
X665343Y402463D01*
X647633Y402463D02*
X647633Y387477D01*
X651796Y402463D02*
X643470Y402463D01*
X633044Y402463D02*
X638039Y387477D01*
X628049Y387477D02*
X633044Y402463D01*
X629298Y391224D02*
X636791Y391224D01*
X741243Y307467D02*
X747903Y307467D01*
X747903Y322453D01*
X741243Y322453D01*
X742908Y315793D02*
X747903Y315793D01*
X731651Y307467D02*
X728321Y307467D01*
X731651Y307467D02*
X731765Y307469D01*
X731878Y307475D01*
X731992Y307484D01*
X732104Y307498D01*
X732217Y307515D01*
X732329Y307537D01*
X732439Y307562D01*
X732549Y307590D01*
X732658Y307623D01*
X732766Y307659D01*
X732873Y307699D01*
X732978Y307743D01*
X733081Y307790D01*
X733183Y307840D01*
X733283Y307894D01*
X733381Y307952D01*
X733477Y308013D01*
X733571Y308076D01*
X733663Y308144D01*
X733753Y308214D01*
X733839Y308287D01*
X733924Y308363D01*
X734006Y308442D01*
X734085Y308524D01*
X734161Y308609D01*
X734234Y308695D01*
X734304Y308785D01*
X734372Y308877D01*
X734435Y308971D01*
X734496Y309067D01*
X734554Y309165D01*
X734608Y309265D01*
X734658Y309367D01*
X734705Y309470D01*
X734749Y309575D01*
X734789Y309682D01*
X734825Y309790D01*
X734858Y309899D01*
X734886Y310009D01*
X734911Y310120D01*
X734933Y310231D01*
X734950Y310344D01*
X734964Y310456D01*
X734973Y310570D01*
X734979Y310683D01*
X734981Y310797D01*
X734981Y319123D01*
X734979Y319237D01*
X734973Y319350D01*
X734964Y319464D01*
X734950Y319576D01*
X734933Y319689D01*
X734911Y319801D01*
X734886Y319911D01*
X734858Y320021D01*
X734825Y320130D01*
X734789Y320238D01*
X734749Y320345D01*
X734705Y320450D01*
X734658Y320553D01*
X734608Y320655D01*
X734554Y320755D01*
X734496Y320853D01*
X734435Y320949D01*
X734372Y321043D01*
X734304Y321135D01*
X734234Y321225D01*
X734161Y321311D01*
X734085Y321396D01*
X734006Y321478D01*
X733924Y321557D01*
X733840Y321633D01*
X733753Y321706D01*
X733663Y321776D01*
X733571Y321843D01*
X733477Y321907D01*
X733381Y321968D01*
X733283Y322026D01*
X733183Y322080D01*
X733081Y322130D01*
X732978Y322177D01*
X732873Y322221D01*
X732766Y322261D01*
X732658Y322297D01*
X732549Y322330D01*
X732439Y322358D01*
X732329Y322383D01*
X732217Y322405D01*
X732104Y322422D01*
X731992Y322436D01*
X731878Y322445D01*
X731765Y322451D01*
X731651Y322453D01*
X728321Y322453D01*
X721330Y307467D02*
X714669Y307467D01*
X721330Y307467D02*
X721330Y322453D01*
X714669Y322453D01*
X716335Y315793D02*
X721330Y315793D01*
X708349Y307467D02*
X704186Y307467D01*
X704058Y307469D01*
X703930Y307475D01*
X703802Y307485D01*
X703674Y307499D01*
X703547Y307516D01*
X703421Y307538D01*
X703295Y307563D01*
X703171Y307593D01*
X703047Y307626D01*
X702924Y307663D01*
X702802Y307704D01*
X702682Y307748D01*
X702563Y307796D01*
X702446Y307848D01*
X702330Y307903D01*
X702217Y307962D01*
X702105Y308025D01*
X701994Y308091D01*
X701887Y308160D01*
X701781Y308232D01*
X701677Y308308D01*
X701576Y308387D01*
X701477Y308469D01*
X701381Y308554D01*
X701288Y308641D01*
X701197Y308732D01*
X701110Y308825D01*
X701025Y308921D01*
X700943Y309020D01*
X700864Y309121D01*
X700788Y309225D01*
X700716Y309331D01*
X700647Y309438D01*
X700581Y309549D01*
X700518Y309661D01*
X700459Y309774D01*
X700404Y309890D01*
X700352Y310007D01*
X700304Y310126D01*
X700260Y310246D01*
X700219Y310368D01*
X700182Y310491D01*
X700149Y310615D01*
X700119Y310739D01*
X700094Y310865D01*
X700072Y310991D01*
X700055Y311118D01*
X700041Y311246D01*
X700031Y311374D01*
X700025Y311502D01*
X700023Y311630D01*
X700025Y311758D01*
X700031Y311886D01*
X700041Y312014D01*
X700055Y312142D01*
X700072Y312269D01*
X700094Y312395D01*
X700119Y312521D01*
X700149Y312645D01*
X700182Y312769D01*
X700219Y312892D01*
X700260Y313014D01*
X700304Y313134D01*
X700352Y313253D01*
X700404Y313370D01*
X700459Y313486D01*
X700518Y313599D01*
X700581Y313712D01*
X700647Y313822D01*
X700716Y313929D01*
X700788Y314035D01*
X700864Y314139D01*
X700943Y314240D01*
X701025Y314339D01*
X701110Y314435D01*
X701197Y314528D01*
X701288Y314619D01*
X701381Y314706D01*
X701477Y314791D01*
X701576Y314873D01*
X701677Y314952D01*
X701781Y315028D01*
X701887Y315100D01*
X701994Y315169D01*
X702105Y315235D01*
X702217Y315298D01*
X702330Y315357D01*
X702446Y315412D01*
X702563Y315464D01*
X702682Y315512D01*
X702802Y315556D01*
X702924Y315597D01*
X703047Y315634D01*
X703171Y315667D01*
X703295Y315697D01*
X703421Y315722D01*
X703547Y315744D01*
X703674Y315761D01*
X703802Y315775D01*
X703930Y315785D01*
X704058Y315791D01*
X704186Y315793D01*
X703354Y322453D02*
X708349Y322453D01*
X703354Y322453D02*
X703240Y322451D01*
X703127Y322445D01*
X703013Y322436D01*
X702901Y322422D01*
X702788Y322405D01*
X702676Y322383D01*
X702566Y322358D01*
X702456Y322330D01*
X702347Y322297D01*
X702239Y322261D01*
X702132Y322221D01*
X702027Y322177D01*
X701924Y322130D01*
X701822Y322080D01*
X701722Y322026D01*
X701624Y321968D01*
X701528Y321907D01*
X701434Y321844D01*
X701342Y321776D01*
X701252Y321706D01*
X701166Y321633D01*
X701081Y321557D01*
X700999Y321478D01*
X700920Y321396D01*
X700844Y321311D01*
X700771Y321225D01*
X700701Y321135D01*
X700633Y321043D01*
X700570Y320949D01*
X700509Y320853D01*
X700451Y320755D01*
X700397Y320655D01*
X700347Y320553D01*
X700300Y320450D01*
X700256Y320345D01*
X700216Y320238D01*
X700180Y320130D01*
X700147Y320021D01*
X700119Y319911D01*
X700094Y319801D01*
X700072Y319689D01*
X700055Y319576D01*
X700041Y319464D01*
X700032Y319350D01*
X700026Y319237D01*
X700024Y319123D01*
X700026Y319009D01*
X700032Y318896D01*
X700041Y318782D01*
X700055Y318670D01*
X700072Y318557D01*
X700094Y318445D01*
X700119Y318335D01*
X700147Y318225D01*
X700180Y318116D01*
X700216Y318008D01*
X700256Y317901D01*
X700300Y317796D01*
X700347Y317693D01*
X700397Y317591D01*
X700451Y317491D01*
X700509Y317393D01*
X700570Y317297D01*
X700633Y317203D01*
X700701Y317111D01*
X700771Y317021D01*
X700844Y316935D01*
X700920Y316850D01*
X700999Y316768D01*
X701081Y316689D01*
X701166Y316613D01*
X701252Y316540D01*
X701342Y316470D01*
X701434Y316402D01*
X701528Y316339D01*
X701624Y316278D01*
X701722Y316220D01*
X701822Y316166D01*
X701924Y316116D01*
X702027Y316069D01*
X702132Y316025D01*
X702239Y315985D01*
X702347Y315949D01*
X702456Y315916D01*
X702566Y315888D01*
X702676Y315863D01*
X702788Y315841D01*
X702901Y315824D01*
X703013Y315810D01*
X703127Y315801D01*
X703240Y315795D01*
X703354Y315793D01*
X706684Y315793D01*
X692718Y311630D02*
X692716Y311758D01*
X692710Y311886D01*
X692700Y312014D01*
X692686Y312142D01*
X692669Y312269D01*
X692647Y312395D01*
X692622Y312521D01*
X692592Y312645D01*
X692559Y312769D01*
X692522Y312892D01*
X692481Y313014D01*
X692437Y313134D01*
X692389Y313253D01*
X692337Y313370D01*
X692282Y313486D01*
X692223Y313599D01*
X692160Y313712D01*
X692094Y313822D01*
X692025Y313929D01*
X691953Y314035D01*
X691877Y314139D01*
X691798Y314240D01*
X691716Y314339D01*
X691631Y314435D01*
X691544Y314528D01*
X691453Y314619D01*
X691360Y314706D01*
X691264Y314791D01*
X691165Y314873D01*
X691064Y314952D01*
X690960Y315028D01*
X690854Y315100D01*
X690747Y315169D01*
X690637Y315235D01*
X690524Y315298D01*
X690411Y315357D01*
X690295Y315412D01*
X690178Y315464D01*
X690059Y315512D01*
X689939Y315556D01*
X689817Y315597D01*
X689694Y315634D01*
X689570Y315667D01*
X689446Y315697D01*
X689320Y315722D01*
X689194Y315744D01*
X689067Y315761D01*
X688939Y315775D01*
X688811Y315785D01*
X688683Y315791D01*
X688555Y315793D01*
X688427Y315791D01*
X688299Y315785D01*
X688171Y315775D01*
X688043Y315761D01*
X687916Y315744D01*
X687790Y315722D01*
X687664Y315697D01*
X687540Y315667D01*
X687416Y315634D01*
X687293Y315597D01*
X687171Y315556D01*
X687051Y315512D01*
X686932Y315464D01*
X686815Y315412D01*
X686699Y315357D01*
X686586Y315298D01*
X686474Y315235D01*
X686363Y315169D01*
X686256Y315100D01*
X686150Y315028D01*
X686046Y314952D01*
X685945Y314873D01*
X685846Y314791D01*
X685750Y314706D01*
X685657Y314619D01*
X685566Y314528D01*
X685479Y314435D01*
X685394Y314339D01*
X685312Y314240D01*
X685233Y314139D01*
X685157Y314035D01*
X685085Y313929D01*
X685016Y313822D01*
X684950Y313712D01*
X684887Y313599D01*
X684828Y313486D01*
X684773Y313370D01*
X684721Y313253D01*
X684673Y313134D01*
X684629Y313014D01*
X684588Y312892D01*
X684551Y312769D01*
X684518Y312645D01*
X684488Y312521D01*
X684463Y312395D01*
X684441Y312269D01*
X684424Y312142D01*
X684410Y312014D01*
X684400Y311886D01*
X684394Y311758D01*
X684392Y311630D01*
X684394Y311502D01*
X684400Y311374D01*
X684410Y311246D01*
X684424Y311118D01*
X684441Y310991D01*
X684463Y310865D01*
X684488Y310739D01*
X684518Y310615D01*
X684551Y310491D01*
X684588Y310368D01*
X684629Y310246D01*
X684673Y310126D01*
X684721Y310007D01*
X684773Y309890D01*
X684828Y309774D01*
X684887Y309661D01*
X684950Y309549D01*
X685016Y309438D01*
X685085Y309331D01*
X685157Y309225D01*
X685233Y309121D01*
X685312Y309020D01*
X685394Y308921D01*
X685479Y308825D01*
X685566Y308732D01*
X685657Y308641D01*
X685750Y308554D01*
X685846Y308469D01*
X685945Y308387D01*
X686046Y308308D01*
X686150Y308232D01*
X686256Y308160D01*
X686363Y308091D01*
X686474Y308025D01*
X686586Y307962D01*
X686699Y307903D01*
X686815Y307848D01*
X686932Y307796D01*
X687051Y307748D01*
X687171Y307704D01*
X687293Y307663D01*
X687416Y307626D01*
X687540Y307593D01*
X687664Y307563D01*
X687790Y307538D01*
X687916Y307516D01*
X688043Y307499D01*
X688171Y307485D01*
X688299Y307475D01*
X688427Y307469D01*
X688555Y307467D01*
X688683Y307469D01*
X688811Y307475D01*
X688939Y307485D01*
X689067Y307499D01*
X689194Y307516D01*
X689320Y307538D01*
X689446Y307563D01*
X689570Y307593D01*
X689694Y307626D01*
X689817Y307663D01*
X689939Y307704D01*
X690059Y307748D01*
X690178Y307796D01*
X690295Y307848D01*
X690411Y307903D01*
X690524Y307962D01*
X690637Y308025D01*
X690747Y308091D01*
X690854Y308160D01*
X690960Y308232D01*
X691064Y308308D01*
X691165Y308387D01*
X691264Y308469D01*
X691360Y308554D01*
X691453Y308641D01*
X691544Y308732D01*
X691631Y308825D01*
X691716Y308921D01*
X691798Y309020D01*
X691877Y309121D01*
X691953Y309225D01*
X692025Y309331D01*
X692094Y309438D01*
X692160Y309549D01*
X692223Y309661D01*
X692282Y309774D01*
X692337Y309890D01*
X692389Y310007D01*
X692437Y310126D01*
X692481Y310246D01*
X692522Y310368D01*
X692559Y310491D01*
X692592Y310615D01*
X692622Y310739D01*
X692647Y310865D01*
X692669Y310991D01*
X692686Y311118D01*
X692700Y311246D01*
X692710Y311374D01*
X692716Y311502D01*
X692718Y311630D01*
X691885Y319123D02*
X691883Y319237D01*
X691877Y319350D01*
X691868Y319464D01*
X691854Y319576D01*
X691837Y319689D01*
X691815Y319801D01*
X691790Y319911D01*
X691762Y320021D01*
X691729Y320130D01*
X691693Y320238D01*
X691653Y320345D01*
X691609Y320450D01*
X691562Y320553D01*
X691512Y320655D01*
X691458Y320755D01*
X691400Y320853D01*
X691339Y320949D01*
X691276Y321043D01*
X691208Y321135D01*
X691138Y321225D01*
X691065Y321311D01*
X690989Y321396D01*
X690910Y321478D01*
X690828Y321557D01*
X690743Y321633D01*
X690657Y321706D01*
X690567Y321776D01*
X690475Y321844D01*
X690381Y321907D01*
X690285Y321968D01*
X690187Y322026D01*
X690087Y322080D01*
X689985Y322130D01*
X689882Y322177D01*
X689777Y322221D01*
X689670Y322261D01*
X689562Y322297D01*
X689453Y322330D01*
X689343Y322358D01*
X689233Y322383D01*
X689121Y322405D01*
X689008Y322422D01*
X688896Y322436D01*
X688782Y322445D01*
X688669Y322451D01*
X688555Y322453D01*
X688441Y322451D01*
X688328Y322445D01*
X688214Y322436D01*
X688102Y322422D01*
X687989Y322405D01*
X687877Y322383D01*
X687767Y322358D01*
X687657Y322330D01*
X687548Y322297D01*
X687440Y322261D01*
X687333Y322221D01*
X687228Y322177D01*
X687125Y322130D01*
X687023Y322080D01*
X686923Y322026D01*
X686825Y321968D01*
X686729Y321907D01*
X686635Y321844D01*
X686543Y321776D01*
X686453Y321706D01*
X686367Y321633D01*
X686282Y321557D01*
X686200Y321478D01*
X686121Y321396D01*
X686045Y321311D01*
X685972Y321225D01*
X685902Y321135D01*
X685834Y321043D01*
X685771Y320949D01*
X685710Y320853D01*
X685652Y320755D01*
X685598Y320655D01*
X685548Y320553D01*
X685501Y320450D01*
X685457Y320345D01*
X685417Y320238D01*
X685381Y320130D01*
X685348Y320021D01*
X685320Y319911D01*
X685295Y319801D01*
X685273Y319689D01*
X685256Y319576D01*
X685242Y319464D01*
X685233Y319350D01*
X685227Y319237D01*
X685225Y319123D01*
X685227Y319009D01*
X685233Y318896D01*
X685242Y318782D01*
X685256Y318670D01*
X685273Y318557D01*
X685295Y318445D01*
X685320Y318335D01*
X685348Y318225D01*
X685381Y318116D01*
X685417Y318008D01*
X685457Y317901D01*
X685501Y317796D01*
X685548Y317693D01*
X685598Y317591D01*
X685652Y317491D01*
X685710Y317393D01*
X685771Y317297D01*
X685834Y317203D01*
X685902Y317111D01*
X685972Y317021D01*
X686045Y316935D01*
X686121Y316850D01*
X686200Y316768D01*
X686282Y316689D01*
X686367Y316613D01*
X686453Y316540D01*
X686543Y316470D01*
X686635Y316402D01*
X686729Y316339D01*
X686825Y316278D01*
X686923Y316220D01*
X687023Y316166D01*
X687125Y316116D01*
X687228Y316069D01*
X687333Y316025D01*
X687440Y315985D01*
X687548Y315949D01*
X687657Y315916D01*
X687767Y315888D01*
X687877Y315863D01*
X687989Y315841D01*
X688102Y315824D01*
X688214Y315810D01*
X688328Y315801D01*
X688441Y315795D01*
X688555Y315793D01*
X688669Y315795D01*
X688782Y315801D01*
X688896Y315810D01*
X689008Y315824D01*
X689121Y315841D01*
X689233Y315863D01*
X689343Y315888D01*
X689453Y315916D01*
X689562Y315949D01*
X689670Y315985D01*
X689777Y316025D01*
X689882Y316069D01*
X689985Y316116D01*
X690087Y316166D01*
X690187Y316220D01*
X690285Y316278D01*
X690381Y316339D01*
X690475Y316402D01*
X690567Y316470D01*
X690657Y316540D01*
X690743Y316613D01*
X690828Y316689D01*
X690910Y316768D01*
X690989Y316850D01*
X691065Y316935D01*
X691138Y317021D01*
X691208Y317111D01*
X691276Y317203D01*
X691339Y317297D01*
X691400Y317393D01*
X691458Y317491D01*
X691512Y317591D01*
X691562Y317693D01*
X691609Y317796D01*
X691653Y317901D01*
X691693Y318008D01*
X691729Y318116D01*
X691762Y318225D01*
X691790Y318335D01*
X691815Y318445D01*
X691837Y318557D01*
X691854Y318670D01*
X691868Y318782D01*
X691877Y318896D01*
X691883Y319009D01*
X691885Y319123D01*
X677087Y311630D02*
X677085Y311758D01*
X677079Y311886D01*
X677069Y312014D01*
X677055Y312142D01*
X677038Y312269D01*
X677016Y312395D01*
X676991Y312521D01*
X676961Y312645D01*
X676928Y312769D01*
X676891Y312892D01*
X676850Y313014D01*
X676806Y313134D01*
X676758Y313253D01*
X676706Y313370D01*
X676651Y313486D01*
X676592Y313599D01*
X676529Y313712D01*
X676463Y313822D01*
X676394Y313929D01*
X676322Y314035D01*
X676246Y314139D01*
X676167Y314240D01*
X676085Y314339D01*
X676000Y314435D01*
X675913Y314528D01*
X675822Y314619D01*
X675729Y314706D01*
X675633Y314791D01*
X675534Y314873D01*
X675433Y314952D01*
X675329Y315028D01*
X675223Y315100D01*
X675116Y315169D01*
X675006Y315235D01*
X674893Y315298D01*
X674780Y315357D01*
X674664Y315412D01*
X674547Y315464D01*
X674428Y315512D01*
X674308Y315556D01*
X674186Y315597D01*
X674063Y315634D01*
X673939Y315667D01*
X673815Y315697D01*
X673689Y315722D01*
X673563Y315744D01*
X673436Y315761D01*
X673308Y315775D01*
X673180Y315785D01*
X673052Y315791D01*
X672924Y315793D01*
X672796Y315791D01*
X672668Y315785D01*
X672540Y315775D01*
X672412Y315761D01*
X672285Y315744D01*
X672159Y315722D01*
X672033Y315697D01*
X671909Y315667D01*
X671785Y315634D01*
X671662Y315597D01*
X671540Y315556D01*
X671420Y315512D01*
X671301Y315464D01*
X671184Y315412D01*
X671068Y315357D01*
X670955Y315298D01*
X670843Y315235D01*
X670732Y315169D01*
X670625Y315100D01*
X670519Y315028D01*
X670415Y314952D01*
X670314Y314873D01*
X670215Y314791D01*
X670119Y314706D01*
X670026Y314619D01*
X669935Y314528D01*
X669848Y314435D01*
X669763Y314339D01*
X669681Y314240D01*
X669602Y314139D01*
X669526Y314035D01*
X669454Y313929D01*
X669385Y313822D01*
X669319Y313712D01*
X669256Y313599D01*
X669197Y313486D01*
X669142Y313370D01*
X669090Y313253D01*
X669042Y313134D01*
X668998Y313014D01*
X668957Y312892D01*
X668920Y312769D01*
X668887Y312645D01*
X668857Y312521D01*
X668832Y312395D01*
X668810Y312269D01*
X668793Y312142D01*
X668779Y312014D01*
X668769Y311886D01*
X668763Y311758D01*
X668761Y311630D01*
X668763Y311502D01*
X668769Y311374D01*
X668779Y311246D01*
X668793Y311118D01*
X668810Y310991D01*
X668832Y310865D01*
X668857Y310739D01*
X668887Y310615D01*
X668920Y310491D01*
X668957Y310368D01*
X668998Y310246D01*
X669042Y310126D01*
X669090Y310007D01*
X669142Y309890D01*
X669197Y309774D01*
X669256Y309661D01*
X669319Y309549D01*
X669385Y309438D01*
X669454Y309331D01*
X669526Y309225D01*
X669602Y309121D01*
X669681Y309020D01*
X669763Y308921D01*
X669848Y308825D01*
X669935Y308732D01*
X670026Y308641D01*
X670119Y308554D01*
X670215Y308469D01*
X670314Y308387D01*
X670415Y308308D01*
X670519Y308232D01*
X670625Y308160D01*
X670732Y308091D01*
X670843Y308025D01*
X670955Y307962D01*
X671068Y307903D01*
X671184Y307848D01*
X671301Y307796D01*
X671420Y307748D01*
X671540Y307704D01*
X671662Y307663D01*
X671785Y307626D01*
X671909Y307593D01*
X672033Y307563D01*
X672159Y307538D01*
X672285Y307516D01*
X672412Y307499D01*
X672540Y307485D01*
X672668Y307475D01*
X672796Y307469D01*
X672924Y307467D01*
X673052Y307469D01*
X673180Y307475D01*
X673308Y307485D01*
X673436Y307499D01*
X673563Y307516D01*
X673689Y307538D01*
X673815Y307563D01*
X673939Y307593D01*
X674063Y307626D01*
X674186Y307663D01*
X674308Y307704D01*
X674428Y307748D01*
X674547Y307796D01*
X674664Y307848D01*
X674780Y307903D01*
X674893Y307962D01*
X675006Y308025D01*
X675116Y308091D01*
X675223Y308160D01*
X675329Y308232D01*
X675433Y308308D01*
X675534Y308387D01*
X675633Y308469D01*
X675729Y308554D01*
X675822Y308641D01*
X675913Y308732D01*
X676000Y308825D01*
X676085Y308921D01*
X676167Y309020D01*
X676246Y309121D01*
X676322Y309225D01*
X676394Y309331D01*
X676463Y309438D01*
X676529Y309549D01*
X676592Y309661D01*
X676651Y309774D01*
X676706Y309890D01*
X676758Y310007D01*
X676806Y310126D01*
X676850Y310246D01*
X676891Y310368D01*
X676928Y310491D01*
X676961Y310615D01*
X676991Y310739D01*
X677016Y310865D01*
X677038Y310991D01*
X677055Y311118D01*
X677069Y311246D01*
X677079Y311374D01*
X677085Y311502D01*
X677087Y311630D01*
X676254Y319123D02*
X676252Y319237D01*
X676246Y319350D01*
X676237Y319464D01*
X676223Y319576D01*
X676206Y319689D01*
X676184Y319801D01*
X676159Y319911D01*
X676131Y320021D01*
X676098Y320130D01*
X676062Y320238D01*
X676022Y320345D01*
X675978Y320450D01*
X675931Y320553D01*
X675881Y320655D01*
X675827Y320755D01*
X675769Y320853D01*
X675708Y320949D01*
X675645Y321043D01*
X675577Y321135D01*
X675507Y321225D01*
X675434Y321311D01*
X675358Y321396D01*
X675279Y321478D01*
X675197Y321557D01*
X675112Y321633D01*
X675026Y321706D01*
X674936Y321776D01*
X674844Y321844D01*
X674750Y321907D01*
X674654Y321968D01*
X674556Y322026D01*
X674456Y322080D01*
X674354Y322130D01*
X674251Y322177D01*
X674146Y322221D01*
X674039Y322261D01*
X673931Y322297D01*
X673822Y322330D01*
X673712Y322358D01*
X673602Y322383D01*
X673490Y322405D01*
X673377Y322422D01*
X673265Y322436D01*
X673151Y322445D01*
X673038Y322451D01*
X672924Y322453D01*
X672810Y322451D01*
X672697Y322445D01*
X672583Y322436D01*
X672471Y322422D01*
X672358Y322405D01*
X672246Y322383D01*
X672136Y322358D01*
X672026Y322330D01*
X671917Y322297D01*
X671809Y322261D01*
X671702Y322221D01*
X671597Y322177D01*
X671494Y322130D01*
X671392Y322080D01*
X671292Y322026D01*
X671194Y321968D01*
X671098Y321907D01*
X671004Y321844D01*
X670912Y321776D01*
X670822Y321706D01*
X670736Y321633D01*
X670651Y321557D01*
X670569Y321478D01*
X670490Y321396D01*
X670414Y321311D01*
X670341Y321225D01*
X670271Y321135D01*
X670203Y321043D01*
X670140Y320949D01*
X670079Y320853D01*
X670021Y320755D01*
X669967Y320655D01*
X669917Y320553D01*
X669870Y320450D01*
X669826Y320345D01*
X669786Y320238D01*
X669750Y320130D01*
X669717Y320021D01*
X669689Y319911D01*
X669664Y319801D01*
X669642Y319689D01*
X669625Y319576D01*
X669611Y319464D01*
X669602Y319350D01*
X669596Y319237D01*
X669594Y319123D01*
X669596Y319009D01*
X669602Y318896D01*
X669611Y318782D01*
X669625Y318670D01*
X669642Y318557D01*
X669664Y318445D01*
X669689Y318335D01*
X669717Y318225D01*
X669750Y318116D01*
X669786Y318008D01*
X669826Y317901D01*
X669870Y317796D01*
X669917Y317693D01*
X669967Y317591D01*
X670021Y317491D01*
X670079Y317393D01*
X670140Y317297D01*
X670203Y317203D01*
X670271Y317111D01*
X670341Y317021D01*
X670414Y316935D01*
X670490Y316850D01*
X670569Y316768D01*
X670651Y316689D01*
X670736Y316613D01*
X670822Y316540D01*
X670912Y316470D01*
X671004Y316402D01*
X671098Y316339D01*
X671194Y316278D01*
X671292Y316220D01*
X671392Y316166D01*
X671494Y316116D01*
X671597Y316069D01*
X671702Y316025D01*
X671809Y315985D01*
X671917Y315949D01*
X672026Y315916D01*
X672136Y315888D01*
X672246Y315863D01*
X672358Y315841D01*
X672471Y315824D01*
X672583Y315810D01*
X672697Y315801D01*
X672810Y315795D01*
X672924Y315793D01*
X673038Y315795D01*
X673151Y315801D01*
X673265Y315810D01*
X673377Y315824D01*
X673490Y315841D01*
X673602Y315863D01*
X673712Y315888D01*
X673822Y315916D01*
X673931Y315949D01*
X674039Y315985D01*
X674146Y316025D01*
X674251Y316069D01*
X674354Y316116D01*
X674456Y316166D01*
X674556Y316220D01*
X674654Y316278D01*
X674750Y316339D01*
X674844Y316402D01*
X674936Y316470D01*
X675026Y316540D01*
X675112Y316613D01*
X675197Y316689D01*
X675279Y316768D01*
X675358Y316850D01*
X675434Y316935D01*
X675507Y317021D01*
X675577Y317111D01*
X675645Y317203D01*
X675708Y317297D01*
X675769Y317393D01*
X675827Y317491D01*
X675881Y317591D01*
X675931Y317693D01*
X675978Y317796D01*
X676022Y317901D01*
X676062Y318008D01*
X676098Y318116D01*
X676131Y318225D01*
X676159Y318335D01*
X676184Y318445D01*
X676206Y318557D01*
X676223Y318670D01*
X676237Y318782D01*
X676246Y318896D01*
X676252Y319009D01*
X676254Y319123D01*
X747903Y295783D02*
X747903Y284960D01*
X747901Y284832D01*
X747895Y284704D01*
X747885Y284576D01*
X747871Y284448D01*
X747854Y284321D01*
X747832Y284195D01*
X747807Y284069D01*
X747777Y283945D01*
X747744Y283821D01*
X747707Y283698D01*
X747666Y283576D01*
X747622Y283456D01*
X747574Y283337D01*
X747522Y283220D01*
X747467Y283104D01*
X747408Y282991D01*
X747345Y282879D01*
X747279Y282768D01*
X747210Y282661D01*
X747138Y282555D01*
X747062Y282451D01*
X746983Y282350D01*
X746901Y282251D01*
X746816Y282155D01*
X746729Y282062D01*
X746638Y281971D01*
X746545Y281884D01*
X746449Y281799D01*
X746350Y281717D01*
X746249Y281638D01*
X746145Y281562D01*
X746039Y281490D01*
X745932Y281421D01*
X745822Y281355D01*
X745709Y281292D01*
X745596Y281233D01*
X745480Y281178D01*
X745363Y281126D01*
X745244Y281078D01*
X745124Y281034D01*
X745002Y280993D01*
X744879Y280956D01*
X744755Y280923D01*
X744631Y280893D01*
X744505Y280868D01*
X744379Y280846D01*
X744252Y280829D01*
X744124Y280815D01*
X743996Y280805D01*
X743868Y280799D01*
X743740Y280797D01*
X743612Y280799D01*
X743484Y280805D01*
X743356Y280815D01*
X743228Y280829D01*
X743101Y280846D01*
X742975Y280868D01*
X742849Y280893D01*
X742725Y280923D01*
X742601Y280956D01*
X742478Y280993D01*
X742356Y281034D01*
X742236Y281078D01*
X742117Y281126D01*
X742000Y281178D01*
X741884Y281233D01*
X741771Y281292D01*
X741659Y281355D01*
X741548Y281421D01*
X741441Y281490D01*
X741335Y281562D01*
X741231Y281638D01*
X741130Y281717D01*
X741031Y281799D01*
X740935Y281884D01*
X740842Y281971D01*
X740751Y282062D01*
X740664Y282155D01*
X740579Y282251D01*
X740497Y282350D01*
X740418Y282451D01*
X740342Y282555D01*
X740270Y282661D01*
X740201Y282768D01*
X740135Y282879D01*
X740072Y282991D01*
X740013Y283104D01*
X739958Y283220D01*
X739906Y283337D01*
X739858Y283456D01*
X739814Y283576D01*
X739773Y283698D01*
X739736Y283821D01*
X739703Y283945D01*
X739673Y284069D01*
X739648Y284195D01*
X739626Y284321D01*
X739609Y284448D01*
X739595Y284576D01*
X739585Y284704D01*
X739579Y284832D01*
X739577Y284960D01*
X739577Y295783D01*
X731020Y295783D02*
X731020Y280797D01*
X726025Y287457D02*
X731020Y295783D01*
X726025Y287457D02*
X721030Y295783D01*
X721030Y280797D01*
X713826Y280797D02*
X708831Y295783D01*
X703835Y280797D01*
X705084Y284544D02*
X712577Y284544D01*
X692888Y280797D02*
X692774Y280799D01*
X692661Y280805D01*
X692547Y280814D01*
X692435Y280828D01*
X692322Y280845D01*
X692210Y280867D01*
X692100Y280892D01*
X691990Y280920D01*
X691881Y280953D01*
X691773Y280989D01*
X691666Y281029D01*
X691561Y281073D01*
X691458Y281120D01*
X691356Y281170D01*
X691256Y281224D01*
X691158Y281282D01*
X691062Y281343D01*
X690968Y281406D01*
X690876Y281474D01*
X690786Y281544D01*
X690700Y281617D01*
X690615Y281693D01*
X690533Y281772D01*
X690454Y281854D01*
X690378Y281939D01*
X690305Y282025D01*
X690235Y282115D01*
X690167Y282207D01*
X690104Y282301D01*
X690043Y282397D01*
X689985Y282495D01*
X689931Y282595D01*
X689881Y282697D01*
X689834Y282800D01*
X689790Y282905D01*
X689750Y283012D01*
X689714Y283120D01*
X689681Y283229D01*
X689653Y283339D01*
X689628Y283449D01*
X689606Y283561D01*
X689589Y283674D01*
X689575Y283786D01*
X689566Y283900D01*
X689560Y284013D01*
X689558Y284127D01*
X692888Y280797D02*
X693056Y280799D01*
X693225Y280805D01*
X693393Y280815D01*
X693560Y280829D01*
X693728Y280847D01*
X693894Y280869D01*
X694061Y280895D01*
X694226Y280925D01*
X694391Y280959D01*
X694555Y280997D01*
X694718Y281039D01*
X694880Y281085D01*
X695041Y281135D01*
X695201Y281188D01*
X695359Y281245D01*
X695516Y281306D01*
X695671Y281371D01*
X695825Y281439D01*
X695977Y281512D01*
X696127Y281587D01*
X696276Y281667D01*
X696422Y281749D01*
X696567Y281836D01*
X696709Y281925D01*
X696850Y282018D01*
X696988Y282115D01*
X697123Y282215D01*
X697256Y282318D01*
X697387Y282424D01*
X697515Y282533D01*
X697641Y282645D01*
X697763Y282760D01*
X697883Y282878D01*
X697467Y292453D02*
X697465Y292567D01*
X697459Y292680D01*
X697450Y292794D01*
X697436Y292906D01*
X697419Y293019D01*
X697397Y293131D01*
X697372Y293241D01*
X697344Y293351D01*
X697311Y293460D01*
X697275Y293568D01*
X697235Y293675D01*
X697191Y293780D01*
X697144Y293883D01*
X697094Y293985D01*
X697040Y294085D01*
X696982Y294183D01*
X696921Y294279D01*
X696858Y294373D01*
X696790Y294465D01*
X696720Y294555D01*
X696647Y294641D01*
X696571Y294726D01*
X696492Y294808D01*
X696410Y294887D01*
X696325Y294963D01*
X696239Y295036D01*
X696149Y295106D01*
X696057Y295174D01*
X695963Y295237D01*
X695867Y295298D01*
X695769Y295356D01*
X695669Y295410D01*
X695567Y295460D01*
X695464Y295507D01*
X695359Y295551D01*
X695252Y295591D01*
X695144Y295627D01*
X695035Y295660D01*
X694925Y295688D01*
X694815Y295713D01*
X694703Y295735D01*
X694590Y295752D01*
X694478Y295766D01*
X694364Y295775D01*
X694251Y295781D01*
X694137Y295783D01*
X693982Y295781D01*
X693828Y295775D01*
X693674Y295766D01*
X693520Y295752D01*
X693366Y295735D01*
X693213Y295714D01*
X693061Y295690D01*
X692909Y295661D01*
X692758Y295629D01*
X692607Y295593D01*
X692458Y295553D01*
X692310Y295510D01*
X692162Y295463D01*
X692016Y295412D01*
X691872Y295358D01*
X691728Y295300D01*
X691587Y295238D01*
X691446Y295174D01*
X691308Y295105D01*
X691171Y295034D01*
X691036Y294958D01*
X690903Y294880D01*
X690771Y294798D01*
X690642Y294713D01*
X690515Y294625D01*
X690391Y294534D01*
X695802Y289539D02*
X695899Y289598D01*
X695993Y289661D01*
X696086Y289726D01*
X696176Y289795D01*
X696264Y289866D01*
X696349Y289941D01*
X696432Y290018D01*
X696512Y290098D01*
X696590Y290180D01*
X696664Y290266D01*
X696736Y290353D01*
X696805Y290443D01*
X696871Y290535D01*
X696933Y290630D01*
X696993Y290726D01*
X697049Y290824D01*
X697102Y290925D01*
X697151Y291027D01*
X697197Y291130D01*
X697240Y291235D01*
X697279Y291341D01*
X697315Y291449D01*
X697346Y291558D01*
X697374Y291667D01*
X697399Y291778D01*
X697420Y291889D01*
X697437Y292001D01*
X697450Y292114D01*
X697459Y292227D01*
X697465Y292340D01*
X697467Y292453D01*
X691223Y287041D02*
X691126Y286982D01*
X691032Y286919D01*
X690939Y286854D01*
X690849Y286785D01*
X690761Y286714D01*
X690676Y286639D01*
X690593Y286562D01*
X690513Y286482D01*
X690435Y286400D01*
X690361Y286314D01*
X690289Y286227D01*
X690220Y286137D01*
X690154Y286045D01*
X690092Y285950D01*
X690032Y285854D01*
X689976Y285756D01*
X689923Y285655D01*
X689874Y285553D01*
X689828Y285450D01*
X689785Y285345D01*
X689746Y285239D01*
X689710Y285131D01*
X689679Y285022D01*
X689651Y284913D01*
X689626Y284802D01*
X689605Y284691D01*
X689588Y284579D01*
X689575Y284466D01*
X689566Y284353D01*
X689560Y284240D01*
X689558Y284127D01*
X691223Y287041D02*
X695802Y289539D01*
X678299Y280797D02*
X678185Y280799D01*
X678072Y280805D01*
X677958Y280814D01*
X677846Y280828D01*
X677733Y280845D01*
X677621Y280867D01*
X677511Y280892D01*
X677401Y280920D01*
X677292Y280953D01*
X677184Y280989D01*
X677077Y281029D01*
X676972Y281073D01*
X676869Y281120D01*
X676767Y281170D01*
X676667Y281224D01*
X676569Y281282D01*
X676473Y281343D01*
X676379Y281406D01*
X676287Y281474D01*
X676197Y281544D01*
X676111Y281617D01*
X676026Y281693D01*
X675944Y281772D01*
X675865Y281854D01*
X675789Y281939D01*
X675716Y282025D01*
X675646Y282115D01*
X675578Y282207D01*
X675515Y282301D01*
X675454Y282397D01*
X675396Y282495D01*
X675342Y282595D01*
X675292Y282697D01*
X675245Y282800D01*
X675201Y282905D01*
X675161Y283012D01*
X675125Y283120D01*
X675092Y283229D01*
X675064Y283339D01*
X675039Y283449D01*
X675017Y283561D01*
X675000Y283674D01*
X674986Y283786D01*
X674977Y283900D01*
X674971Y284013D01*
X674969Y284127D01*
X678299Y280797D02*
X678467Y280799D01*
X678636Y280805D01*
X678804Y280815D01*
X678971Y280829D01*
X679139Y280847D01*
X679305Y280869D01*
X679472Y280895D01*
X679637Y280925D01*
X679802Y280959D01*
X679966Y280997D01*
X680129Y281039D01*
X680291Y281085D01*
X680452Y281135D01*
X680612Y281188D01*
X680770Y281245D01*
X680927Y281306D01*
X681082Y281371D01*
X681236Y281439D01*
X681388Y281512D01*
X681538Y281587D01*
X681687Y281667D01*
X681833Y281749D01*
X681978Y281836D01*
X682120Y281925D01*
X682261Y282018D01*
X682399Y282115D01*
X682534Y282215D01*
X682667Y282318D01*
X682798Y282424D01*
X682926Y282533D01*
X683052Y282645D01*
X683174Y282760D01*
X683294Y282878D01*
X682877Y292453D02*
X682875Y292567D01*
X682869Y292680D01*
X682860Y292794D01*
X682846Y292906D01*
X682829Y293019D01*
X682807Y293131D01*
X682782Y293241D01*
X682754Y293351D01*
X682721Y293460D01*
X682685Y293568D01*
X682645Y293675D01*
X682601Y293780D01*
X682554Y293883D01*
X682504Y293985D01*
X682450Y294085D01*
X682392Y294183D01*
X682331Y294279D01*
X682268Y294373D01*
X682200Y294465D01*
X682130Y294555D01*
X682057Y294641D01*
X681981Y294726D01*
X681902Y294808D01*
X681820Y294887D01*
X681735Y294963D01*
X681649Y295036D01*
X681559Y295106D01*
X681467Y295174D01*
X681373Y295237D01*
X681277Y295298D01*
X681179Y295356D01*
X681079Y295410D01*
X680977Y295460D01*
X680874Y295507D01*
X680769Y295551D01*
X680662Y295591D01*
X680554Y295627D01*
X680445Y295660D01*
X680335Y295688D01*
X680225Y295713D01*
X680113Y295735D01*
X680000Y295752D01*
X679888Y295766D01*
X679774Y295775D01*
X679661Y295781D01*
X679547Y295783D01*
X679392Y295781D01*
X679238Y295775D01*
X679084Y295766D01*
X678930Y295752D01*
X678776Y295735D01*
X678623Y295714D01*
X678471Y295690D01*
X678319Y295661D01*
X678168Y295629D01*
X678017Y295593D01*
X677868Y295553D01*
X677720Y295510D01*
X677572Y295463D01*
X677426Y295412D01*
X677282Y295358D01*
X677138Y295300D01*
X676997Y295238D01*
X676856Y295174D01*
X676718Y295105D01*
X676581Y295034D01*
X676446Y294958D01*
X676313Y294880D01*
X676181Y294798D01*
X676052Y294713D01*
X675925Y294625D01*
X675801Y294534D01*
X681212Y289539D02*
X681309Y289598D01*
X681403Y289661D01*
X681496Y289726D01*
X681586Y289795D01*
X681674Y289866D01*
X681759Y289941D01*
X681842Y290018D01*
X681922Y290098D01*
X682000Y290180D01*
X682074Y290266D01*
X682146Y290353D01*
X682215Y290443D01*
X682281Y290535D01*
X682343Y290630D01*
X682403Y290726D01*
X682459Y290824D01*
X682512Y290925D01*
X682561Y291027D01*
X682607Y291130D01*
X682650Y291235D01*
X682689Y291341D01*
X682725Y291449D01*
X682756Y291558D01*
X682784Y291667D01*
X682809Y291778D01*
X682830Y291889D01*
X682847Y292001D01*
X682860Y292114D01*
X682869Y292227D01*
X682875Y292340D01*
X682877Y292453D01*
X676634Y287041D02*
X676537Y286982D01*
X676443Y286919D01*
X676350Y286854D01*
X676260Y286785D01*
X676172Y286714D01*
X676087Y286639D01*
X676004Y286562D01*
X675924Y286482D01*
X675846Y286400D01*
X675772Y286314D01*
X675700Y286227D01*
X675631Y286137D01*
X675565Y286045D01*
X675503Y285950D01*
X675443Y285854D01*
X675387Y285756D01*
X675334Y285655D01*
X675285Y285553D01*
X675239Y285450D01*
X675196Y285345D01*
X675157Y285239D01*
X675121Y285131D01*
X675090Y285022D01*
X675062Y284913D01*
X675037Y284802D01*
X675016Y284691D01*
X674999Y284579D01*
X674986Y284466D01*
X674977Y284353D01*
X674971Y284240D01*
X674969Y284127D01*
X676633Y287041D02*
X681213Y289539D01*
X659326Y295783D02*
X659326Y280797D01*
X659326Y295783D02*
X655163Y295783D01*
X655035Y295781D01*
X654907Y295775D01*
X654779Y295765D01*
X654651Y295751D01*
X654524Y295734D01*
X654398Y295712D01*
X654272Y295687D01*
X654148Y295657D01*
X654024Y295624D01*
X653901Y295587D01*
X653779Y295546D01*
X653659Y295502D01*
X653540Y295454D01*
X653423Y295402D01*
X653307Y295347D01*
X653194Y295288D01*
X653082Y295225D01*
X652971Y295159D01*
X652864Y295090D01*
X652758Y295018D01*
X652654Y294942D01*
X652553Y294863D01*
X652454Y294781D01*
X652358Y294697D01*
X652265Y294609D01*
X652174Y294518D01*
X652087Y294425D01*
X652002Y294329D01*
X651920Y294230D01*
X651841Y294129D01*
X651765Y294025D01*
X651693Y293920D01*
X651624Y293812D01*
X651558Y293702D01*
X651495Y293590D01*
X651436Y293476D01*
X651381Y293360D01*
X651329Y293243D01*
X651281Y293124D01*
X651237Y293004D01*
X651196Y292882D01*
X651159Y292759D01*
X651126Y292635D01*
X651096Y292511D01*
X651071Y292385D01*
X651049Y292259D01*
X651032Y292132D01*
X651018Y292004D01*
X651008Y291876D01*
X651002Y291748D01*
X651000Y291620D01*
X651001Y291620D02*
X651001Y284960D01*
X651000Y284960D02*
X651002Y284832D01*
X651008Y284704D01*
X651018Y284576D01*
X651032Y284448D01*
X651049Y284321D01*
X651071Y284195D01*
X651096Y284069D01*
X651126Y283945D01*
X651159Y283821D01*
X651196Y283698D01*
X651237Y283576D01*
X651281Y283456D01*
X651329Y283337D01*
X651381Y283220D01*
X651436Y283104D01*
X651495Y282991D01*
X651558Y282878D01*
X651624Y282768D01*
X651693Y282660D01*
X651765Y282555D01*
X651841Y282451D01*
X651920Y282350D01*
X652002Y282251D01*
X652087Y282155D01*
X652174Y282062D01*
X652265Y281971D01*
X652358Y281883D01*
X652454Y281799D01*
X652553Y281717D01*
X652654Y281638D01*
X652758Y281562D01*
X652864Y281490D01*
X652971Y281421D01*
X653082Y281355D01*
X653194Y281292D01*
X653307Y281233D01*
X653423Y281178D01*
X653540Y281126D01*
X653659Y281078D01*
X653779Y281034D01*
X653901Y280993D01*
X654024Y280956D01*
X654148Y280923D01*
X654272Y280893D01*
X654398Y280868D01*
X654524Y280846D01*
X654651Y280829D01*
X654779Y280815D01*
X654907Y280805D01*
X655035Y280799D01*
X655163Y280797D01*
X659326Y280797D01*
X644006Y280797D02*
X639011Y295783D01*
X634016Y280797D01*
X635265Y284544D02*
X642758Y284544D01*
X626883Y280797D02*
X626883Y295783D01*
X622721Y295783D01*
X622593Y295781D01*
X622465Y295775D01*
X622337Y295765D01*
X622209Y295751D01*
X622082Y295734D01*
X621956Y295712D01*
X621830Y295687D01*
X621706Y295657D01*
X621582Y295624D01*
X621459Y295587D01*
X621337Y295546D01*
X621217Y295502D01*
X621098Y295454D01*
X620981Y295402D01*
X620865Y295347D01*
X620752Y295288D01*
X620640Y295225D01*
X620529Y295159D01*
X620422Y295090D01*
X620316Y295018D01*
X620212Y294942D01*
X620111Y294863D01*
X620012Y294781D01*
X619916Y294696D01*
X619823Y294609D01*
X619732Y294518D01*
X619645Y294425D01*
X619560Y294329D01*
X619478Y294230D01*
X619399Y294129D01*
X619323Y294025D01*
X619251Y293919D01*
X619182Y293812D01*
X619116Y293702D01*
X619053Y293589D01*
X618994Y293476D01*
X618939Y293360D01*
X618887Y293243D01*
X618839Y293124D01*
X618795Y293004D01*
X618754Y292882D01*
X618717Y292759D01*
X618684Y292635D01*
X618654Y292511D01*
X618629Y292385D01*
X618607Y292259D01*
X618590Y292132D01*
X618576Y292004D01*
X618566Y291876D01*
X618560Y291748D01*
X618558Y291620D01*
X618560Y291492D01*
X618566Y291364D01*
X618576Y291236D01*
X618590Y291108D01*
X618607Y290981D01*
X618629Y290855D01*
X618654Y290729D01*
X618684Y290605D01*
X618717Y290481D01*
X618754Y290358D01*
X618795Y290236D01*
X618839Y290116D01*
X618887Y289997D01*
X618939Y289880D01*
X618994Y289764D01*
X619053Y289651D01*
X619116Y289539D01*
X619182Y289428D01*
X619251Y289321D01*
X619323Y289215D01*
X619399Y289111D01*
X619478Y289010D01*
X619560Y288911D01*
X619645Y288815D01*
X619732Y288722D01*
X619823Y288631D01*
X619916Y288544D01*
X620012Y288459D01*
X620111Y288377D01*
X620212Y288298D01*
X620316Y288222D01*
X620422Y288150D01*
X620529Y288081D01*
X620640Y288015D01*
X620752Y287952D01*
X620865Y287893D01*
X620981Y287838D01*
X621098Y287786D01*
X621217Y287738D01*
X621337Y287694D01*
X621459Y287653D01*
X621582Y287616D01*
X621706Y287583D01*
X621830Y287553D01*
X621956Y287528D01*
X622082Y287506D01*
X622209Y287489D01*
X622337Y287475D01*
X622465Y287465D01*
X622593Y287459D01*
X622721Y287457D01*
X626883Y287457D01*
X621888Y287457D02*
X618558Y280797D01*
X608270Y280797D02*
X608270Y295783D01*
X612432Y295783D02*
X604107Y295783D01*
X597113Y295783D02*
X597113Y280797D01*
X592117Y287457D02*
X597113Y295783D01*
X592117Y287457D02*
X587122Y295783D01*
X587122Y280797D01*
X579086Y284960D02*
X579086Y291620D01*
X579084Y291748D01*
X579078Y291876D01*
X579068Y292004D01*
X579054Y292132D01*
X579037Y292259D01*
X579015Y292385D01*
X578990Y292511D01*
X578960Y292635D01*
X578927Y292759D01*
X578890Y292882D01*
X578849Y293004D01*
X578805Y293124D01*
X578757Y293243D01*
X578705Y293360D01*
X578650Y293476D01*
X578591Y293589D01*
X578528Y293702D01*
X578462Y293812D01*
X578393Y293919D01*
X578321Y294025D01*
X578245Y294129D01*
X578166Y294230D01*
X578084Y294329D01*
X577999Y294425D01*
X577912Y294518D01*
X577821Y294609D01*
X577728Y294696D01*
X577632Y294781D01*
X577533Y294863D01*
X577432Y294942D01*
X577328Y295018D01*
X577222Y295090D01*
X577115Y295159D01*
X577005Y295225D01*
X576892Y295288D01*
X576779Y295347D01*
X576663Y295402D01*
X576546Y295454D01*
X576427Y295502D01*
X576307Y295546D01*
X576185Y295587D01*
X576062Y295624D01*
X575938Y295657D01*
X575814Y295687D01*
X575688Y295712D01*
X575562Y295734D01*
X575435Y295751D01*
X575307Y295765D01*
X575179Y295775D01*
X575051Y295781D01*
X574923Y295783D01*
X574795Y295781D01*
X574667Y295775D01*
X574539Y295765D01*
X574411Y295751D01*
X574284Y295734D01*
X574158Y295712D01*
X574032Y295687D01*
X573908Y295657D01*
X573784Y295624D01*
X573661Y295587D01*
X573539Y295546D01*
X573419Y295502D01*
X573300Y295454D01*
X573183Y295402D01*
X573067Y295347D01*
X572954Y295288D01*
X572842Y295225D01*
X572731Y295159D01*
X572624Y295090D01*
X572518Y295018D01*
X572414Y294942D01*
X572313Y294863D01*
X572214Y294781D01*
X572118Y294696D01*
X572025Y294609D01*
X571934Y294518D01*
X571847Y294425D01*
X571762Y294329D01*
X571680Y294230D01*
X571601Y294129D01*
X571525Y294025D01*
X571453Y293919D01*
X571384Y293812D01*
X571318Y293702D01*
X571255Y293589D01*
X571196Y293476D01*
X571141Y293360D01*
X571089Y293243D01*
X571041Y293124D01*
X570997Y293004D01*
X570956Y292882D01*
X570919Y292759D01*
X570886Y292635D01*
X570856Y292511D01*
X570831Y292385D01*
X570809Y292259D01*
X570792Y292132D01*
X570778Y292004D01*
X570768Y291876D01*
X570762Y291748D01*
X570760Y291620D01*
X570760Y284960D01*
X570762Y284832D01*
X570768Y284704D01*
X570778Y284576D01*
X570792Y284448D01*
X570809Y284321D01*
X570831Y284195D01*
X570856Y284069D01*
X570886Y283945D01*
X570919Y283821D01*
X570956Y283698D01*
X570997Y283576D01*
X571041Y283456D01*
X571089Y283337D01*
X571141Y283220D01*
X571196Y283104D01*
X571255Y282991D01*
X571318Y282879D01*
X571384Y282768D01*
X571453Y282661D01*
X571525Y282555D01*
X571601Y282451D01*
X571680Y282350D01*
X571762Y282251D01*
X571847Y282155D01*
X571934Y282062D01*
X572025Y281971D01*
X572118Y281884D01*
X572214Y281799D01*
X572313Y281717D01*
X572414Y281638D01*
X572518Y281562D01*
X572624Y281490D01*
X572731Y281421D01*
X572842Y281355D01*
X572954Y281292D01*
X573067Y281233D01*
X573183Y281178D01*
X573300Y281126D01*
X573419Y281078D01*
X573539Y281034D01*
X573661Y280993D01*
X573784Y280956D01*
X573908Y280923D01*
X574032Y280893D01*
X574158Y280868D01*
X574284Y280846D01*
X574411Y280829D01*
X574539Y280815D01*
X574667Y280805D01*
X574795Y280799D01*
X574923Y280797D01*
X575051Y280799D01*
X575179Y280805D01*
X575307Y280815D01*
X575435Y280829D01*
X575562Y280846D01*
X575688Y280868D01*
X575814Y280893D01*
X575938Y280923D01*
X576062Y280956D01*
X576185Y280993D01*
X576307Y281034D01*
X576427Y281078D01*
X576546Y281126D01*
X576663Y281178D01*
X576779Y281233D01*
X576892Y281292D01*
X577005Y281355D01*
X577115Y281421D01*
X577222Y281490D01*
X577328Y281562D01*
X577432Y281638D01*
X577533Y281717D01*
X577632Y281799D01*
X577728Y281884D01*
X577821Y281971D01*
X577912Y282062D01*
X577999Y282155D01*
X578084Y282251D01*
X578166Y282350D01*
X578245Y282451D01*
X578321Y282555D01*
X578393Y282661D01*
X578462Y282768D01*
X578528Y282879D01*
X578591Y282991D01*
X578650Y283104D01*
X578705Y283220D01*
X578757Y283337D01*
X578805Y283456D01*
X578849Y283576D01*
X578890Y283698D01*
X578927Y283821D01*
X578960Y283945D01*
X578990Y284069D01*
X579015Y284195D01*
X579037Y284321D01*
X579054Y284448D01*
X579068Y284576D01*
X579078Y284704D01*
X579084Y284832D01*
X579086Y284960D01*
X562933Y284960D02*
X562933Y295783D01*
X562934Y284960D02*
X562932Y284832D01*
X562926Y284704D01*
X562916Y284576D01*
X562902Y284448D01*
X562885Y284321D01*
X562863Y284195D01*
X562838Y284069D01*
X562808Y283945D01*
X562775Y283821D01*
X562738Y283698D01*
X562697Y283576D01*
X562653Y283456D01*
X562605Y283337D01*
X562553Y283220D01*
X562498Y283104D01*
X562439Y282991D01*
X562376Y282879D01*
X562310Y282768D01*
X562241Y282661D01*
X562169Y282555D01*
X562093Y282451D01*
X562014Y282350D01*
X561932Y282251D01*
X561847Y282155D01*
X561760Y282062D01*
X561669Y281971D01*
X561576Y281884D01*
X561480Y281799D01*
X561381Y281717D01*
X561280Y281638D01*
X561176Y281562D01*
X561070Y281490D01*
X560963Y281421D01*
X560853Y281355D01*
X560740Y281292D01*
X560627Y281233D01*
X560511Y281178D01*
X560394Y281126D01*
X560275Y281078D01*
X560155Y281034D01*
X560033Y280993D01*
X559910Y280956D01*
X559786Y280923D01*
X559662Y280893D01*
X559536Y280868D01*
X559410Y280846D01*
X559283Y280829D01*
X559155Y280815D01*
X559027Y280805D01*
X558899Y280799D01*
X558771Y280797D01*
X558643Y280799D01*
X558515Y280805D01*
X558387Y280815D01*
X558259Y280829D01*
X558132Y280846D01*
X558006Y280868D01*
X557880Y280893D01*
X557756Y280923D01*
X557632Y280956D01*
X557509Y280993D01*
X557387Y281034D01*
X557267Y281078D01*
X557148Y281126D01*
X557031Y281178D01*
X556915Y281233D01*
X556802Y281292D01*
X556690Y281355D01*
X556579Y281421D01*
X556472Y281490D01*
X556366Y281562D01*
X556262Y281638D01*
X556161Y281717D01*
X556062Y281799D01*
X555966Y281884D01*
X555873Y281971D01*
X555782Y282062D01*
X555695Y282155D01*
X555610Y282251D01*
X555528Y282350D01*
X555449Y282451D01*
X555373Y282555D01*
X555301Y282661D01*
X555232Y282768D01*
X555166Y282879D01*
X555103Y282991D01*
X555044Y283104D01*
X554989Y283220D01*
X554937Y283337D01*
X554889Y283456D01*
X554845Y283576D01*
X554804Y283698D01*
X554767Y283821D01*
X554734Y283945D01*
X554704Y284069D01*
X554679Y284195D01*
X554657Y284321D01*
X554640Y284448D01*
X554626Y284576D01*
X554616Y284704D01*
X554610Y284832D01*
X554608Y284960D01*
X554608Y295783D01*
X543660Y295783D02*
X543660Y280797D01*
X547823Y295783D02*
X539498Y295783D01*
X532713Y295783D02*
X532713Y280797D01*
X532713Y289123D02*
X524387Y289123D01*
X524387Y295783D02*
X524387Y280797D01*
M02*
