G04 EAGLE Gerber RS-274X export*
G75*
%MOMM*%
%FSLAX34Y34*%
%LPD*%
%INSolderpaste Top*%
%IPPOS*%
%AMOC8*
5,1,8,0,0,1.08239X$1,22.5*%
G01*
%ADD10R,1.500000X1.300000*%
%ADD11R,1.300000X1.500000*%
%ADD12R,1.200000X1.200000*%
%ADD13R,1.200000X1.200000*%
%ADD14R,6.200000X5.400000*%
%ADD15R,1.600000X1.000000*%
%ADD16R,2.200000X0.600000*%
%ADD17R,2.032000X0.660400*%


D10*
X114300Y282600D03*
X114300Y301600D03*
X292100Y95200D03*
X292100Y76200D03*
D11*
X298400Y234950D03*
X279400Y234950D03*
D12*
X609600Y373720D03*
X609600Y352720D03*
D13*
G36*
X684335Y334220D02*
X675850Y342705D01*
X684335Y351190D01*
X692820Y342705D01*
X684335Y334220D01*
G37*
G36*
X669485Y319370D02*
X661000Y327855D01*
X669485Y336340D01*
X677970Y327855D01*
X669485Y319370D01*
G37*
D12*
X716620Y266700D03*
X695620Y266700D03*
D13*
G36*
X675850Y193235D02*
X684335Y201720D01*
X692820Y193235D01*
X684335Y184750D01*
X675850Y193235D01*
G37*
G36*
X661000Y208085D02*
X669485Y216570D01*
X677970Y208085D01*
X669485Y199600D01*
X661000Y208085D01*
G37*
D12*
X609600Y159680D03*
X609600Y180680D03*
D13*
G36*
X534865Y199180D02*
X543350Y190695D01*
X534865Y182210D01*
X526380Y190695D01*
X534865Y199180D01*
G37*
G36*
X549715Y214030D02*
X558200Y205545D01*
X549715Y197060D01*
X541230Y205545D01*
X549715Y214030D01*
G37*
D12*
X502580Y266700D03*
X523580Y266700D03*
D13*
G36*
X543350Y342705D02*
X534865Y334220D01*
X526380Y342705D01*
X534865Y351190D01*
X543350Y342705D01*
G37*
G36*
X558200Y327855D02*
X549715Y319370D01*
X541230Y327855D01*
X549715Y336340D01*
X558200Y327855D01*
G37*
D11*
X130200Y203200D03*
X149200Y203200D03*
G36*
X580195Y309251D02*
X589387Y300059D01*
X578781Y289453D01*
X569589Y298645D01*
X580195Y309251D01*
G37*
G36*
X566759Y322687D02*
X575951Y313495D01*
X565345Y302889D01*
X556153Y312081D01*
X566759Y322687D01*
G37*
D10*
X609600Y313080D03*
X609600Y332080D03*
D11*
G36*
X650881Y297375D02*
X641689Y288183D01*
X631083Y298789D01*
X640275Y307981D01*
X650881Y297375D01*
G37*
G36*
X664317Y310811D02*
X655125Y301619D01*
X644519Y312225D01*
X653711Y321417D01*
X664317Y310811D01*
G37*
X645820Y266700D03*
X664820Y266700D03*
X348640Y76200D03*
X367640Y76200D03*
G36*
X568319Y234755D02*
X577511Y243947D01*
X588117Y233341D01*
X578925Y224149D01*
X568319Y234755D01*
G37*
G36*
X554883Y221319D02*
X564075Y230511D01*
X574681Y219905D01*
X565489Y210713D01*
X554883Y221319D01*
G37*
D10*
X609600Y221590D03*
X609600Y202590D03*
D11*
G36*
X641545Y224149D02*
X632353Y233341D01*
X642959Y243947D01*
X652151Y234755D01*
X641545Y224149D01*
G37*
G36*
X654981Y210713D02*
X645789Y219905D01*
X656395Y230511D01*
X665587Y221319D01*
X654981Y210713D01*
G37*
D10*
X114300Y231800D03*
X114300Y250800D03*
D11*
X367640Y127000D03*
X348640Y127000D03*
X206400Y152400D03*
X225400Y152400D03*
X276200Y152400D03*
X257200Y152400D03*
X436220Y255270D03*
X417220Y255270D03*
X436220Y218440D03*
X417220Y218440D03*
X346100Y190500D03*
X365100Y190500D03*
X568300Y266700D03*
X549300Y266700D03*
D14*
X63900Y127000D03*
D15*
X136900Y104200D03*
X136900Y149800D03*
D16*
X216500Y247650D03*
X164500Y247650D03*
X216500Y234950D03*
X216500Y260350D03*
X216500Y273050D03*
X164500Y234950D03*
X164500Y260350D03*
X164500Y273050D03*
D17*
X45466Y438150D03*
X106934Y438150D03*
X45466Y425450D03*
X45466Y412750D03*
X106934Y425450D03*
X106934Y412750D03*
X45466Y400050D03*
X106934Y400050D03*
X45466Y387350D03*
X106934Y387350D03*
X45466Y374650D03*
X45466Y361950D03*
X106934Y374650D03*
X106934Y361950D03*
X45466Y349250D03*
X106934Y349250D03*
X159766Y438150D03*
X221234Y438150D03*
X159766Y425450D03*
X159766Y412750D03*
X221234Y425450D03*
X221234Y412750D03*
X159766Y400050D03*
X221234Y400050D03*
X159766Y387350D03*
X221234Y387350D03*
X159766Y374650D03*
X159766Y361950D03*
X221234Y374650D03*
X221234Y361950D03*
X159766Y349250D03*
X221234Y349250D03*
D16*
X215300Y107950D03*
X267300Y107950D03*
X215300Y120650D03*
X215300Y95250D03*
X215300Y82550D03*
X267300Y120650D03*
X267300Y95250D03*
X267300Y82550D03*
D17*
X401066Y139700D03*
X462534Y139700D03*
X401066Y127000D03*
X401066Y114300D03*
X462534Y127000D03*
X462534Y114300D03*
X401066Y101600D03*
X462534Y101600D03*
X401066Y88900D03*
X401066Y76200D03*
X462534Y88900D03*
X462534Y76200D03*
X401066Y63500D03*
X462534Y63500D03*
D16*
X329600Y234950D03*
X381600Y234950D03*
X329600Y247650D03*
X329600Y222250D03*
X329600Y209550D03*
X381600Y247650D03*
X381600Y222250D03*
X381600Y209550D03*
D17*
X274066Y419100D03*
X335534Y419100D03*
X274066Y406400D03*
X274066Y393700D03*
X335534Y406400D03*
X335534Y393700D03*
X274066Y381000D03*
X335534Y381000D03*
X274066Y368300D03*
X274066Y355600D03*
X335534Y368300D03*
X335534Y355600D03*
X274066Y342900D03*
X335534Y342900D03*
X385826Y425450D03*
X447294Y425450D03*
X385826Y412750D03*
X385826Y400050D03*
X447294Y412750D03*
X447294Y400050D03*
X385826Y387350D03*
X447294Y387350D03*
X385826Y374650D03*
X385826Y361950D03*
X447294Y374650D03*
X447294Y361950D03*
X385826Y349250D03*
X447294Y349250D03*
M02*
