M48
;GenerationSoftware,Autodesk,EAGLE,9.5.0*%
;CreationDate,2019-10-31T17:17:19Z*%
FMAT,2
ICI,OFF
METRIC,TZ,000.000
T3C0.381
T2C1.016
T1C1.200
%
G90
M71
T1
X21336Y3937
X13716Y3937
X16256Y3937
X18796Y3937
T2
X62179Y8865
X55677Y8865
X55677Y4343
X62179Y4343
T3
X42418Y19050
X52832Y21082
X30734Y41910
X27432Y43942
X15240Y22352
X27432Y45466
X20066Y18034
X36068Y14224
X38354Y14478
X17780Y36322
X31750Y38354
X43434Y13208
X34925Y28829
X34798Y9398
X36322Y37084
X59182Y16002
X35306Y38100
X35306Y35306
X29591Y35560
X50800Y36830
X29210Y39370
X62230Y34290
X46355Y34925
X68834Y29464
X25654Y35306
X62611Y19050
X40640Y38608
X36195Y34925
X19812Y35814
X35814Y9144
X24384Y9906
X34798Y10922
X44450Y12954
X23368Y7620
X48006Y29464
M30