G04 EAGLE Gerber RS-274X export*
G75*
%MOMM*%
%FSLAX34Y34*%
%LPD*%
%INBottom Copper*%
%IPPOS*%
%AMOC8*
5,1,8,0,0,1.08239X$1,22.5*%
G01*
%ADD10C,1.524000*%
%ADD11C,1.800000*%
%ADD12C,0.254000*%
%ADD13C,0.685800*%


D10*
X549148Y88646D02*
X564388Y88646D01*
X564388Y43434D02*
X549148Y43434D01*
X614172Y88646D02*
X629412Y88646D01*
X629412Y43434D02*
X614172Y43434D01*
D11*
X137160Y48370D02*
X137160Y30370D01*
X162560Y30370D02*
X162560Y48370D01*
X187960Y48370D02*
X187960Y30370D01*
X213360Y30370D02*
X213360Y48370D01*
D12*
X256540Y111760D02*
X256540Y345440D01*
X256540Y353060D01*
X220980Y76200D02*
X187960Y43180D01*
X220980Y76200D02*
X243840Y99060D01*
X256540Y111760D01*
X187960Y43180D02*
X187960Y39370D01*
X358140Y345440D02*
X361950Y349250D01*
X358140Y345440D02*
X256540Y345440D01*
X251460Y358140D02*
X198120Y358140D01*
X251460Y358140D02*
X256540Y353060D01*
X254000Y43180D02*
X557022Y43180D01*
X254000Y43180D02*
X220980Y76200D01*
D13*
X256540Y353060D03*
X361950Y349250D03*
X198120Y358140D03*
X243840Y99060D03*
D12*
X556768Y43434D02*
X557022Y43180D01*
X556768Y43434D02*
X621792Y43434D01*
X347980Y93980D02*
X347980Y109220D01*
X424180Y109220D02*
X434340Y119380D01*
X444500Y129540D01*
X365760Y109220D02*
X347980Y109220D01*
X365760Y109220D02*
X424180Y109220D01*
X355600Y76200D02*
X233680Y76200D01*
X355600Y76200D02*
X365760Y86360D01*
X365760Y109220D01*
X424180Y129540D02*
X424180Y190500D01*
X424180Y129540D02*
X434340Y119380D01*
X447040Y129540D02*
X528320Y210820D01*
X447040Y129540D02*
X444500Y129540D01*
X287020Y439420D02*
X274320Y439420D01*
X287020Y439420D02*
X307340Y419100D01*
X152400Y350520D02*
X152400Y223520D01*
X152400Y350520D02*
X241300Y439420D01*
X274320Y439420D01*
X274320Y454660D01*
X200660Y180340D02*
X195580Y180340D01*
X152400Y223520D01*
D13*
X347980Y109220D03*
X347980Y93980D03*
X444500Y129540D03*
X233680Y76200D03*
X424180Y190500D03*
X528320Y210820D03*
X307340Y419100D03*
X274320Y439420D03*
X152400Y223520D03*
X274320Y454660D03*
X200660Y180340D03*
D12*
X360680Y142240D02*
X381000Y142240D01*
X383540Y144780D01*
D13*
X360680Y142240D03*
X383540Y144780D03*
D12*
X190500Y363220D02*
X177800Y363220D01*
X190500Y363220D02*
X210820Y383540D01*
X317500Y383540D01*
D13*
X177800Y363220D03*
X317500Y383540D03*
D12*
X434340Y203200D02*
X434340Y132080D01*
X434340Y203200D02*
X349250Y288290D01*
D13*
X434340Y132080D03*
X349250Y288290D03*
D12*
X358140Y91440D02*
X353060Y86360D01*
X342900Y86360D01*
X340360Y88900D01*
X340360Y314960D01*
X370840Y345440D01*
X370840Y363220D01*
X363220Y370840D01*
D13*
X358140Y91440D03*
X363220Y370840D03*
D12*
X370840Y381000D02*
X591820Y160020D01*
X370840Y381000D02*
X353060Y381000D01*
D13*
X591820Y160020D03*
X353060Y381000D03*
D12*
X350520Y355600D02*
X353060Y353060D01*
X350520Y355600D02*
X295910Y355600D01*
D13*
X353060Y353060D03*
X295910Y355600D03*
D12*
X436880Y368300D02*
X508000Y368300D01*
X436880Y368300D02*
X411480Y393700D01*
X292100Y393700D01*
D13*
X508000Y368300D03*
X292100Y393700D03*
D12*
X469900Y342900D02*
X622300Y342900D01*
X469900Y342900D02*
X463550Y349250D01*
D13*
X622300Y342900D03*
X463550Y349250D03*
D12*
X480060Y294640D02*
X688340Y294640D01*
D13*
X688340Y294640D03*
X480060Y294640D03*
D12*
X571500Y190500D02*
X626110Y190500D01*
X571500Y190500D02*
X406400Y355600D01*
X406400Y386080D01*
D13*
X626110Y190500D03*
X406400Y386080D03*
M02*
