G04 EAGLE Gerber RS-274X export*
G75*
%MOMM*%
%FSLAX34Y34*%
%LPD*%
%INSoldermask Top*%
%IPPOS*%
%AMOC8*
5,1,8,0,0,1.08239X$1,22.5*%
G01*
%ADD10R,1.601600X1.401600*%
%ADD11R,1.401600X1.601600*%
%ADD12R,1.301600X1.301600*%
%ADD13R,1.301600X1.301600*%
%ADD14R,6.301600X5.501600*%
%ADD15R,1.701600X1.101600*%
%ADD16R,2.301600X0.701600*%
%ADD17R,2.133600X0.762000*%
%ADD18C,1.625600*%
%ADD19C,1.901600*%


D10*
X114300Y282600D03*
X114300Y301600D03*
X292100Y95200D03*
X292100Y76200D03*
D11*
X298400Y234950D03*
X279400Y234950D03*
D12*
X609600Y373720D03*
X609600Y352720D03*
D13*
G36*
X684335Y333502D02*
X675132Y342705D01*
X684335Y351908D01*
X693538Y342705D01*
X684335Y333502D01*
G37*
G36*
X669485Y318652D02*
X660282Y327855D01*
X669485Y337058D01*
X678688Y327855D01*
X669485Y318652D01*
G37*
D12*
X716620Y266700D03*
X695620Y266700D03*
D13*
G36*
X675132Y193235D02*
X684335Y202438D01*
X693538Y193235D01*
X684335Y184032D01*
X675132Y193235D01*
G37*
G36*
X660282Y208085D02*
X669485Y217288D01*
X678688Y208085D01*
X669485Y198882D01*
X660282Y208085D01*
G37*
D12*
X609600Y159680D03*
X609600Y180680D03*
D13*
G36*
X534865Y199898D02*
X544068Y190695D01*
X534865Y181492D01*
X525662Y190695D01*
X534865Y199898D01*
G37*
G36*
X549715Y214748D02*
X558918Y205545D01*
X549715Y196342D01*
X540512Y205545D01*
X549715Y214748D01*
G37*
D12*
X502580Y266700D03*
X523580Y266700D03*
D13*
G36*
X544068Y342705D02*
X534865Y333502D01*
X525662Y342705D01*
X534865Y351908D01*
X544068Y342705D01*
G37*
G36*
X558918Y327855D02*
X549715Y318652D01*
X540512Y327855D01*
X549715Y337058D01*
X558918Y327855D01*
G37*
D11*
X130200Y203200D03*
X149200Y203200D03*
G36*
X580195Y309969D02*
X590105Y300059D01*
X578781Y288735D01*
X568871Y298645D01*
X580195Y309969D01*
G37*
G36*
X566759Y323405D02*
X576669Y313495D01*
X565345Y302171D01*
X555435Y312081D01*
X566759Y323405D01*
G37*
D10*
X609600Y313080D03*
X609600Y332080D03*
D11*
G36*
X651599Y297375D02*
X641689Y287465D01*
X630365Y298789D01*
X640275Y308699D01*
X651599Y297375D01*
G37*
G36*
X665035Y310811D02*
X655125Y300901D01*
X643801Y312225D01*
X653711Y322135D01*
X665035Y310811D01*
G37*
X645820Y266700D03*
X664820Y266700D03*
X348640Y76200D03*
X367640Y76200D03*
G36*
X567601Y234755D02*
X577511Y244665D01*
X588835Y233341D01*
X578925Y223431D01*
X567601Y234755D01*
G37*
G36*
X554165Y221319D02*
X564075Y231229D01*
X575399Y219905D01*
X565489Y209995D01*
X554165Y221319D01*
G37*
D10*
X609600Y221590D03*
X609600Y202590D03*
D11*
G36*
X641545Y223431D02*
X631635Y233341D01*
X642959Y244665D01*
X652869Y234755D01*
X641545Y223431D01*
G37*
G36*
X654981Y209995D02*
X645071Y219905D01*
X656395Y231229D01*
X666305Y221319D01*
X654981Y209995D01*
G37*
D10*
X114300Y231800D03*
X114300Y250800D03*
D11*
X367640Y127000D03*
X348640Y127000D03*
X206400Y152400D03*
X225400Y152400D03*
X276200Y152400D03*
X257200Y152400D03*
X436220Y255270D03*
X417220Y255270D03*
X436220Y218440D03*
X417220Y218440D03*
X346100Y190500D03*
X365100Y190500D03*
X568300Y266700D03*
X549300Y266700D03*
D14*
X63900Y127000D03*
D15*
X136900Y104200D03*
X136900Y149800D03*
D16*
X216500Y247650D03*
X164500Y247650D03*
X216500Y234950D03*
X216500Y260350D03*
X216500Y273050D03*
X164500Y234950D03*
X164500Y260350D03*
X164500Y273050D03*
D17*
X45466Y438150D03*
X106934Y438150D03*
X45466Y425450D03*
X45466Y412750D03*
X106934Y425450D03*
X106934Y412750D03*
X45466Y400050D03*
X106934Y400050D03*
X45466Y387350D03*
X106934Y387350D03*
X45466Y374650D03*
X45466Y361950D03*
X106934Y374650D03*
X106934Y361950D03*
X45466Y349250D03*
X106934Y349250D03*
X159766Y438150D03*
X221234Y438150D03*
X159766Y425450D03*
X159766Y412750D03*
X221234Y425450D03*
X221234Y412750D03*
X159766Y400050D03*
X221234Y400050D03*
X159766Y387350D03*
X221234Y387350D03*
X159766Y374650D03*
X159766Y361950D03*
X221234Y374650D03*
X221234Y361950D03*
X159766Y349250D03*
X221234Y349250D03*
D16*
X215300Y107950D03*
X267300Y107950D03*
X215300Y120650D03*
X215300Y95250D03*
X215300Y82550D03*
X267300Y120650D03*
X267300Y95250D03*
X267300Y82550D03*
D17*
X401066Y139700D03*
X462534Y139700D03*
X401066Y127000D03*
X401066Y114300D03*
X462534Y127000D03*
X462534Y114300D03*
X401066Y101600D03*
X462534Y101600D03*
X401066Y88900D03*
X401066Y76200D03*
X462534Y88900D03*
X462534Y76200D03*
X401066Y63500D03*
X462534Y63500D03*
D16*
X329600Y234950D03*
X381600Y234950D03*
X329600Y247650D03*
X329600Y222250D03*
X329600Y209550D03*
X381600Y247650D03*
X381600Y222250D03*
X381600Y209550D03*
D17*
X274066Y419100D03*
X335534Y419100D03*
X274066Y406400D03*
X274066Y393700D03*
X335534Y406400D03*
X335534Y393700D03*
X274066Y381000D03*
X335534Y381000D03*
X274066Y368300D03*
X274066Y355600D03*
X335534Y368300D03*
X335534Y355600D03*
X274066Y342900D03*
X335534Y342900D03*
X385826Y425450D03*
X447294Y425450D03*
X385826Y412750D03*
X385826Y400050D03*
X447294Y412750D03*
X447294Y400050D03*
X385826Y387350D03*
X447294Y387350D03*
X385826Y374650D03*
X385826Y361950D03*
X447294Y374650D03*
X447294Y361950D03*
X385826Y349250D03*
X447294Y349250D03*
D18*
X549148Y88646D02*
X564388Y88646D01*
X564388Y43434D02*
X549148Y43434D01*
X614172Y88646D02*
X629412Y88646D01*
X629412Y43434D02*
X614172Y43434D01*
D19*
X137160Y48370D02*
X137160Y30370D01*
X162560Y30370D02*
X162560Y48370D01*
X187960Y48370D02*
X187960Y30370D01*
X213360Y30370D02*
X213360Y48370D01*
M02*
