G04 EAGLE Gerber RS-274X export*
G75*
%MOMM*%
%FSLAX34Y34*%
%LPD*%
%INSoldermask Top*%
%IPPOS*%
%AMOC8*
5,1,8,0,0,1.08239X$1,22.5*%
G01*
%ADD10R,0.651600X1.571600*%
%ADD11R,1.571600X0.651600*%
%ADD12R,2.701600X5.661600*%
%ADD13R,14.421600X5.661600*%
%ADD14R,1.401600X1.601600*%
%ADD15R,1.601600X1.401600*%
%ADD16R,1.301600X1.301600*%
%ADD17R,1.301600X1.301600*%
%ADD18R,5.435600X2.032000*%
%ADD19C,1.727200*%
%ADD20C,0.889000*%
%ADD21C,1.092200*%
%ADD22C,1.625600*%
%ADD23C,0.609600*%


D10*
X328000Y341700D03*
X320000Y341700D03*
X312000Y341700D03*
X304000Y341700D03*
X296000Y341700D03*
X288000Y341700D03*
X280000Y341700D03*
X272000Y341700D03*
D11*
X258300Y328000D03*
X258300Y320000D03*
X258300Y312000D03*
X258300Y304000D03*
X258300Y296000D03*
X258300Y288000D03*
X258300Y280000D03*
X258300Y272000D03*
D10*
X272000Y258300D03*
X280000Y258300D03*
X288000Y258300D03*
X296000Y258300D03*
X304000Y258300D03*
X312000Y258300D03*
X320000Y258300D03*
X328000Y258300D03*
D11*
X341700Y272000D03*
X341700Y280000D03*
X341700Y288000D03*
X341700Y296000D03*
X341700Y304000D03*
X341700Y312000D03*
X341700Y320000D03*
X341700Y328000D03*
D12*
X180950Y650000D03*
X419050Y650000D03*
D13*
X300000Y650000D03*
D14*
X309500Y377460D03*
X290500Y377460D03*
D15*
X325120Y203860D03*
X325120Y222860D03*
D16*
X310500Y880000D03*
X289500Y880000D03*
D15*
X300000Y834500D03*
X300000Y815500D03*
D17*
G36*
X218162Y858007D02*
X213181Y870032D01*
X225206Y875013D01*
X230187Y862988D01*
X218162Y858007D01*
G37*
G36*
X198760Y849971D02*
X193779Y861996D01*
X205804Y866977D01*
X210785Y854952D01*
X198760Y849971D01*
G37*
D14*
G36*
X224679Y810917D02*
X219315Y823866D01*
X234111Y829995D01*
X239475Y817046D01*
X224679Y810917D01*
G37*
G36*
X231950Y793363D02*
X226586Y806312D01*
X241382Y812441D01*
X246746Y799492D01*
X231950Y793363D01*
G37*
D17*
G36*
X144790Y810856D02*
X135587Y820059D01*
X144790Y829262D01*
X153993Y820059D01*
X144790Y810856D01*
G37*
G36*
X129941Y796007D02*
X120738Y805210D01*
X129941Y814413D01*
X139144Y805210D01*
X129941Y796007D01*
G37*
D14*
G36*
X168832Y769844D02*
X158922Y779754D01*
X170246Y791078D01*
X180156Y781168D01*
X168832Y769844D01*
G37*
G36*
X182267Y756409D02*
X172357Y766319D01*
X183681Y777643D01*
X193591Y767733D01*
X182267Y756409D01*
G37*
D17*
G36*
X95048Y739215D02*
X83023Y744196D01*
X88004Y756221D01*
X100029Y751240D01*
X95048Y739215D01*
G37*
G36*
X87012Y719813D02*
X74987Y724794D01*
X79968Y736819D01*
X91993Y731838D01*
X87012Y719813D01*
G37*
D14*
G36*
X132954Y710525D02*
X120005Y715889D01*
X126134Y730685D01*
X139083Y725321D01*
X132954Y710525D01*
G37*
G36*
X150508Y703254D02*
X137559Y708618D01*
X143688Y723414D01*
X156637Y718050D01*
X150508Y703254D01*
G37*
D16*
X70000Y660500D03*
X70000Y639500D03*
D14*
X115500Y650000D03*
X134500Y650000D03*
D17*
G36*
X386819Y870032D02*
X381838Y858007D01*
X369813Y862988D01*
X374794Y875013D01*
X386819Y870032D01*
G37*
G36*
X406221Y861996D02*
X401240Y849971D01*
X389215Y854952D01*
X394196Y866977D01*
X406221Y861996D01*
G37*
D14*
G36*
X373414Y806312D02*
X368050Y793363D01*
X353254Y799492D01*
X358618Y812441D01*
X373414Y806312D01*
G37*
G36*
X380685Y823866D02*
X375321Y810917D01*
X360525Y817046D01*
X365889Y829995D01*
X380685Y823866D01*
G37*
D17*
G36*
X464413Y820059D02*
X455210Y810856D01*
X446007Y820059D01*
X455210Y829262D01*
X464413Y820059D01*
G37*
G36*
X479262Y805210D02*
X470059Y796007D01*
X460856Y805210D01*
X470059Y814413D01*
X479262Y805210D01*
G37*
D14*
G36*
X427643Y766319D02*
X417733Y756409D01*
X406409Y767733D01*
X416319Y777643D01*
X427643Y766319D01*
G37*
G36*
X441078Y779754D02*
X431168Y769844D01*
X419844Y781168D01*
X429754Y791078D01*
X441078Y779754D01*
G37*
D17*
G36*
X516977Y744196D02*
X504952Y739215D01*
X499971Y751240D01*
X511996Y756221D01*
X516977Y744196D01*
G37*
G36*
X525013Y724794D02*
X512988Y719813D01*
X508007Y731838D01*
X520032Y736819D01*
X525013Y724794D01*
G37*
D14*
G36*
X462441Y708618D02*
X449492Y703254D01*
X443363Y718050D01*
X456312Y723414D01*
X462441Y708618D01*
G37*
G36*
X479995Y715889D02*
X467046Y710525D01*
X460917Y725321D01*
X473866Y730685D01*
X479995Y715889D01*
G37*
X465500Y650000D03*
X484500Y650000D03*
D16*
X530000Y660500D03*
X530000Y639500D03*
D17*
G36*
X520032Y563181D02*
X508007Y568162D01*
X512988Y580187D01*
X525013Y575206D01*
X520032Y563181D01*
G37*
G36*
X511996Y543779D02*
X499971Y548760D01*
X504952Y560785D01*
X516977Y555804D01*
X511996Y543779D01*
G37*
D14*
G36*
X456312Y576586D02*
X443363Y581950D01*
X449492Y596746D01*
X462441Y591382D01*
X456312Y576586D01*
G37*
G36*
X473866Y569315D02*
X460917Y574679D01*
X467046Y589475D01*
X479995Y584111D01*
X473866Y569315D01*
G37*
D17*
G36*
X470059Y485587D02*
X460856Y494790D01*
X470059Y503993D01*
X479262Y494790D01*
X470059Y485587D01*
G37*
G36*
X455210Y470738D02*
X446007Y479941D01*
X455210Y489144D01*
X464413Y479941D01*
X455210Y470738D01*
G37*
D14*
G36*
X416319Y522357D02*
X406409Y532267D01*
X417733Y543591D01*
X427643Y533681D01*
X416319Y522357D01*
G37*
G36*
X429754Y508922D02*
X419844Y518832D01*
X431168Y530156D01*
X441078Y520246D01*
X429754Y508922D01*
G37*
D17*
G36*
X394196Y433023D02*
X389215Y445048D01*
X401240Y450029D01*
X406221Y438004D01*
X394196Y433023D01*
G37*
G36*
X374794Y424987D02*
X369813Y437012D01*
X381838Y441993D01*
X386819Y429968D01*
X374794Y424987D01*
G37*
D14*
G36*
X358618Y487559D02*
X353254Y500508D01*
X368050Y506637D01*
X373414Y493688D01*
X358618Y487559D01*
G37*
G36*
X365889Y470005D02*
X360525Y482954D01*
X375321Y489083D01*
X380685Y476134D01*
X365889Y470005D01*
G37*
D17*
G36*
X91993Y568162D02*
X79968Y563181D01*
X74987Y575206D01*
X87012Y580187D01*
X91993Y568162D01*
G37*
G36*
X100029Y548760D02*
X88004Y543779D01*
X83023Y555804D01*
X95048Y560785D01*
X100029Y548760D01*
G37*
D14*
G36*
X139083Y574679D02*
X126134Y569315D01*
X120005Y584111D01*
X132954Y589475D01*
X139083Y574679D01*
G37*
G36*
X156637Y581950D02*
X143688Y576586D01*
X137559Y591382D01*
X150508Y596746D01*
X156637Y581950D01*
G37*
D17*
G36*
X139144Y494790D02*
X129941Y485587D01*
X120738Y494790D01*
X129941Y503993D01*
X139144Y494790D01*
G37*
G36*
X153993Y479941D02*
X144790Y470738D01*
X135587Y479941D01*
X144790Y489144D01*
X153993Y479941D01*
G37*
D14*
G36*
X180156Y518832D02*
X170246Y508922D01*
X158922Y520246D01*
X168832Y530156D01*
X180156Y518832D01*
G37*
G36*
X193591Y532267D02*
X183681Y522357D01*
X172357Y533681D01*
X182267Y543591D01*
X193591Y532267D01*
G37*
D17*
G36*
X210785Y445048D02*
X205804Y433023D01*
X193779Y438004D01*
X198760Y450029D01*
X210785Y445048D01*
G37*
G36*
X230187Y437012D02*
X225206Y424987D01*
X213181Y429968D01*
X218162Y441993D01*
X230187Y437012D01*
G37*
D14*
G36*
X239475Y482954D02*
X234111Y470005D01*
X219315Y476134D01*
X224679Y489083D01*
X239475Y482954D01*
G37*
G36*
X246746Y500508D02*
X241382Y487559D01*
X226586Y493688D01*
X231950Y506637D01*
X246746Y500508D01*
G37*
D16*
X289500Y420000D03*
X310500Y420000D03*
D15*
X300000Y484500D03*
X300000Y465500D03*
D14*
X227940Y401320D03*
X208940Y401320D03*
X127660Y401320D03*
X146660Y401320D03*
D15*
X274320Y222860D03*
X274320Y203860D03*
X299720Y222860D03*
X299720Y203860D03*
D18*
X129540Y362220D03*
X226060Y362220D03*
D19*
X37300Y206190D03*
X62700Y206190D03*
X62700Y231590D03*
X37300Y231590D03*
X37300Y180790D03*
X62700Y180790D03*
D20*
X56350Y127450D03*
X43650Y127450D03*
X56350Y114750D03*
X43650Y114750D03*
X56350Y102050D03*
X43650Y102050D03*
D21*
X50000Y140150D03*
X60160Y89350D03*
X39840Y89350D03*
D22*
X471932Y94234D02*
X487172Y94234D01*
X487172Y139446D02*
X471932Y139446D01*
X422148Y94234D02*
X406908Y94234D01*
X406908Y139446D02*
X422148Y139446D01*
D15*
X477520Y197460D03*
X477520Y178460D03*
X431800Y197460D03*
X431800Y178460D03*
X401320Y178460D03*
X401320Y197460D03*
D23*
X336550Y402590D03*
X543560Y604520D03*
X264160Y889000D03*
X66040Y609600D03*
X259080Y518160D03*
D19*
X568960Y246380D03*
X568960Y220980D03*
X568960Y195580D03*
X568960Y170180D03*
M02*
