M48
;GenerationSoftware,Autodesk,EAGLE,9.5.1*%
;CreationDate,2019-11-07T16:07:31Z*%
FMAT,2
ICI,OFF
METRIC,TZ,000.000
T5C0.381
T4C0.400
T3C0.900
T2C0.991
T1C1.016
%
G90
M71
T1
X47955Y13945
X47955Y9423
X41453Y13945
X41453Y9423
T2
X5000Y14015
X3984Y8935
X6016Y8935
T3
X56896Y17018
X3730Y20619
X6270Y20619
X6270Y23159
X3730Y23159
X3730Y18079
X6270Y18079
X56896Y24638
X56896Y22098
X56896Y19558
T4
X22860Y1524
X37592Y1524
X37592Y16764
X31496Y28448
X22860Y16764
T5
X9652Y18079
X30480Y29464
X45720Y17846
X1524Y10160
X28448Y28448
X1524Y12827
X32004Y32512
X1524Y11557
X27432Y27432
X28829Y24130
X29464Y30480
X32004Y31496
M30