G04 EAGLE Gerber RS-274X export*
G75*
%MOMM*%
%FSLAX34Y34*%
%LPD*%
%INBottom Copper*%
%IPPOS*%
%AMOC8*
5,1,8,0,0,1.08239X$1,22.5*%
G01*
%ADD10C,0.203200*%
%ADD11C,1.625600*%
%ADD12C,0.704800*%
%ADD13C,0.254000*%
%ADD14C,0.685800*%

G36*
X390020Y2544D02*
X390020Y2544D01*
X390039Y2542D01*
X390141Y2564D01*
X390243Y2580D01*
X390260Y2590D01*
X390280Y2594D01*
X390369Y2647D01*
X390460Y2696D01*
X390474Y2710D01*
X390491Y2720D01*
X390558Y2799D01*
X390630Y2874D01*
X390638Y2892D01*
X390651Y2907D01*
X390690Y3003D01*
X390733Y3097D01*
X390735Y3117D01*
X390743Y3135D01*
X390761Y3302D01*
X390761Y180000D01*
X390758Y180020D01*
X390760Y180039D01*
X390738Y180141D01*
X390722Y180243D01*
X390712Y180260D01*
X390708Y180280D01*
X390655Y180369D01*
X390606Y180460D01*
X390592Y180474D01*
X390582Y180491D01*
X390503Y180558D01*
X390428Y180630D01*
X390410Y180638D01*
X390395Y180651D01*
X390299Y180690D01*
X390205Y180733D01*
X390185Y180735D01*
X390167Y180743D01*
X390000Y180761D01*
X210000Y180761D01*
X209980Y180758D01*
X209961Y180760D01*
X209859Y180738D01*
X209757Y180722D01*
X209740Y180712D01*
X209720Y180708D01*
X209631Y180655D01*
X209540Y180606D01*
X209526Y180592D01*
X209509Y180582D01*
X209442Y180503D01*
X209371Y180428D01*
X209362Y180410D01*
X209349Y180395D01*
X209310Y180299D01*
X209267Y180205D01*
X209265Y180185D01*
X209257Y180167D01*
X209239Y180000D01*
X209239Y3302D01*
X209242Y3282D01*
X209240Y3263D01*
X209262Y3161D01*
X209279Y3059D01*
X209288Y3042D01*
X209292Y3022D01*
X209345Y2933D01*
X209394Y2842D01*
X209408Y2828D01*
X209418Y2811D01*
X209497Y2744D01*
X209572Y2672D01*
X209590Y2664D01*
X209605Y2651D01*
X209701Y2612D01*
X209795Y2569D01*
X209815Y2567D01*
X209833Y2559D01*
X210000Y2541D01*
X390000Y2541D01*
X390020Y2544D01*
G37*
D10*
X308798Y385925D02*
X308798Y374552D01*
X308796Y374421D01*
X308790Y374290D01*
X308780Y374160D01*
X308767Y374030D01*
X308749Y373900D01*
X308728Y373771D01*
X308702Y373643D01*
X308673Y373515D01*
X308640Y373388D01*
X308604Y373263D01*
X308563Y373138D01*
X308519Y373015D01*
X308471Y372893D01*
X308420Y372773D01*
X308365Y372654D01*
X308306Y372537D01*
X308244Y372422D01*
X308179Y372309D01*
X308110Y372197D01*
X308038Y372088D01*
X307963Y371981D01*
X307884Y371876D01*
X307803Y371774D01*
X307718Y371674D01*
X307630Y371577D01*
X307540Y371482D01*
X307447Y371390D01*
X307351Y371301D01*
X307252Y371215D01*
X307151Y371132D01*
X307048Y371052D01*
X306942Y370975D01*
X306834Y370902D01*
X306723Y370831D01*
X306611Y370764D01*
X306497Y370700D01*
X306381Y370640D01*
X306263Y370583D01*
X306143Y370530D01*
X306022Y370480D01*
X305899Y370434D01*
X305776Y370392D01*
X305651Y370354D01*
X305524Y370319D01*
X305397Y370288D01*
X305269Y370260D01*
X305141Y370237D01*
X305011Y370218D01*
X304881Y370202D01*
X304751Y370190D01*
X304620Y370182D01*
X304489Y370178D01*
X304359Y370178D01*
X304228Y370182D01*
X304097Y370190D01*
X303967Y370202D01*
X303837Y370218D01*
X303707Y370237D01*
X303579Y370260D01*
X303451Y370288D01*
X303324Y370319D01*
X303197Y370354D01*
X303072Y370392D01*
X302949Y370434D01*
X302826Y370480D01*
X302705Y370530D01*
X302585Y370583D01*
X302467Y370640D01*
X302351Y370700D01*
X302237Y370764D01*
X302125Y370831D01*
X302014Y370902D01*
X301906Y370975D01*
X301800Y371052D01*
X301697Y371132D01*
X301596Y371215D01*
X301497Y371301D01*
X301401Y371390D01*
X301308Y371482D01*
X301218Y371577D01*
X301130Y371674D01*
X301045Y371774D01*
X300964Y371876D01*
X300885Y371981D01*
X300810Y372088D01*
X300738Y372197D01*
X300669Y372309D01*
X300604Y372422D01*
X300542Y372537D01*
X300483Y372654D01*
X300428Y372773D01*
X300377Y372893D01*
X300329Y373015D01*
X300285Y373138D01*
X300244Y373263D01*
X300208Y373388D01*
X300175Y373515D01*
X300146Y373643D01*
X300120Y373771D01*
X300099Y373900D01*
X300081Y374030D01*
X300068Y374160D01*
X300058Y374290D01*
X300052Y374421D01*
X300050Y374552D01*
X300049Y374552D02*
X300049Y385925D01*
X291957Y385925D02*
X291957Y370177D01*
X286708Y377176D02*
X291957Y385925D01*
X286708Y377176D02*
X281459Y385925D01*
X281459Y370177D01*
X274763Y370177D02*
X269514Y385925D01*
X264264Y370177D01*
X265577Y374114D02*
X273451Y374114D01*
X253529Y370177D02*
X253412Y370179D01*
X253295Y370185D01*
X253179Y370195D01*
X253062Y370208D01*
X252947Y370226D01*
X252832Y370247D01*
X252718Y370272D01*
X252604Y370301D01*
X252492Y370334D01*
X252381Y370371D01*
X252271Y370411D01*
X252163Y370455D01*
X252056Y370502D01*
X251950Y370553D01*
X251847Y370608D01*
X251745Y370666D01*
X251646Y370727D01*
X251548Y370791D01*
X251453Y370859D01*
X251360Y370930D01*
X251269Y371004D01*
X251181Y371081D01*
X251096Y371161D01*
X251013Y371244D01*
X250933Y371329D01*
X250856Y371417D01*
X250782Y371508D01*
X250711Y371601D01*
X250643Y371696D01*
X250579Y371794D01*
X250518Y371893D01*
X250460Y371995D01*
X250405Y372098D01*
X250354Y372204D01*
X250307Y372311D01*
X250263Y372419D01*
X250223Y372529D01*
X250186Y372640D01*
X250153Y372752D01*
X250124Y372866D01*
X250099Y372980D01*
X250078Y373095D01*
X250060Y373210D01*
X250047Y373327D01*
X250037Y373443D01*
X250031Y373560D01*
X250029Y373677D01*
X253529Y370177D02*
X253706Y370179D01*
X253883Y370185D01*
X254059Y370196D01*
X254235Y370211D01*
X254411Y370230D01*
X254587Y370253D01*
X254761Y370280D01*
X254936Y370312D01*
X255109Y370348D01*
X255281Y370388D01*
X255452Y370432D01*
X255623Y370480D01*
X255792Y370532D01*
X255959Y370588D01*
X256126Y370648D01*
X256291Y370712D01*
X256454Y370780D01*
X256616Y370852D01*
X256775Y370928D01*
X256933Y371007D01*
X257089Y371091D01*
X257243Y371178D01*
X257395Y371269D01*
X257545Y371363D01*
X257692Y371461D01*
X257837Y371562D01*
X257980Y371667D01*
X258120Y371775D01*
X258257Y371886D01*
X258392Y372001D01*
X258523Y372119D01*
X258652Y372240D01*
X258778Y372364D01*
X258341Y382426D02*
X258339Y382543D01*
X258333Y382660D01*
X258323Y382776D01*
X258310Y382893D01*
X258292Y383008D01*
X258271Y383123D01*
X258246Y383237D01*
X258217Y383351D01*
X258184Y383463D01*
X258147Y383574D01*
X258107Y383684D01*
X258063Y383792D01*
X258016Y383899D01*
X257965Y384005D01*
X257910Y384108D01*
X257852Y384210D01*
X257791Y384309D01*
X257727Y384407D01*
X257659Y384502D01*
X257588Y384595D01*
X257514Y384686D01*
X257437Y384774D01*
X257357Y384859D01*
X257274Y384942D01*
X257189Y385022D01*
X257101Y385099D01*
X257010Y385173D01*
X256917Y385244D01*
X256822Y385312D01*
X256724Y385376D01*
X256625Y385437D01*
X256523Y385495D01*
X256420Y385550D01*
X256314Y385601D01*
X256207Y385648D01*
X256099Y385692D01*
X255989Y385732D01*
X255878Y385769D01*
X255766Y385802D01*
X255652Y385831D01*
X255538Y385856D01*
X255423Y385877D01*
X255308Y385895D01*
X255191Y385908D01*
X255075Y385918D01*
X254958Y385924D01*
X254841Y385926D01*
X254841Y385925D02*
X254685Y385923D01*
X254528Y385918D01*
X254372Y385908D01*
X254216Y385895D01*
X254061Y385878D01*
X253906Y385858D01*
X253751Y385834D01*
X253597Y385806D01*
X253444Y385775D01*
X253292Y385740D01*
X253140Y385701D01*
X252990Y385658D01*
X252840Y385613D01*
X252692Y385563D01*
X252545Y385510D01*
X252399Y385454D01*
X252254Y385394D01*
X252111Y385330D01*
X251970Y385264D01*
X251830Y385194D01*
X251692Y385120D01*
X251556Y385043D01*
X251421Y384964D01*
X251289Y384880D01*
X251158Y384794D01*
X251030Y384705D01*
X250904Y384613D01*
X256590Y379364D02*
X256689Y379424D01*
X256785Y379488D01*
X256879Y379554D01*
X256971Y379623D01*
X257061Y379696D01*
X257149Y379771D01*
X257233Y379849D01*
X257316Y379930D01*
X257395Y380013D01*
X257472Y380099D01*
X257546Y380187D01*
X257618Y380278D01*
X257686Y380371D01*
X257751Y380466D01*
X257813Y380564D01*
X257872Y380663D01*
X257927Y380764D01*
X257980Y380867D01*
X258029Y380971D01*
X258074Y381077D01*
X258116Y381184D01*
X258155Y381293D01*
X258190Y381403D01*
X258221Y381514D01*
X258249Y381626D01*
X258273Y381738D01*
X258293Y381852D01*
X258310Y381966D01*
X258323Y382081D01*
X258333Y382196D01*
X258338Y382311D01*
X258340Y382426D01*
X251779Y376739D02*
X251680Y376679D01*
X251584Y376615D01*
X251490Y376549D01*
X251398Y376480D01*
X251308Y376407D01*
X251220Y376332D01*
X251136Y376254D01*
X251053Y376173D01*
X250974Y376090D01*
X250897Y376004D01*
X250823Y375916D01*
X250751Y375825D01*
X250683Y375732D01*
X250618Y375637D01*
X250556Y375539D01*
X250497Y375440D01*
X250442Y375339D01*
X250389Y375236D01*
X250341Y375132D01*
X250295Y375026D01*
X250253Y374919D01*
X250214Y374810D01*
X250179Y374700D01*
X250148Y374589D01*
X250120Y374477D01*
X250096Y374365D01*
X250076Y374251D01*
X250059Y374137D01*
X250046Y374022D01*
X250036Y373907D01*
X250031Y373792D01*
X250029Y373677D01*
X251779Y376739D02*
X256591Y379363D01*
X238940Y370177D02*
X238823Y370179D01*
X238706Y370185D01*
X238590Y370195D01*
X238473Y370208D01*
X238358Y370226D01*
X238243Y370247D01*
X238129Y370272D01*
X238015Y370301D01*
X237903Y370334D01*
X237792Y370371D01*
X237682Y370411D01*
X237574Y370455D01*
X237467Y370502D01*
X237361Y370553D01*
X237258Y370608D01*
X237156Y370666D01*
X237057Y370727D01*
X236959Y370791D01*
X236864Y370859D01*
X236771Y370930D01*
X236680Y371004D01*
X236592Y371081D01*
X236507Y371161D01*
X236424Y371244D01*
X236344Y371329D01*
X236267Y371417D01*
X236193Y371508D01*
X236122Y371601D01*
X236054Y371696D01*
X235990Y371794D01*
X235929Y371893D01*
X235871Y371995D01*
X235816Y372098D01*
X235765Y372204D01*
X235718Y372311D01*
X235674Y372419D01*
X235634Y372529D01*
X235597Y372640D01*
X235564Y372752D01*
X235535Y372866D01*
X235510Y372980D01*
X235489Y373095D01*
X235471Y373210D01*
X235458Y373327D01*
X235448Y373443D01*
X235442Y373560D01*
X235440Y373677D01*
X238940Y370177D02*
X239117Y370179D01*
X239294Y370185D01*
X239470Y370196D01*
X239646Y370211D01*
X239822Y370230D01*
X239998Y370253D01*
X240172Y370280D01*
X240347Y370312D01*
X240520Y370348D01*
X240692Y370388D01*
X240863Y370432D01*
X241034Y370480D01*
X241203Y370532D01*
X241370Y370588D01*
X241537Y370648D01*
X241702Y370712D01*
X241865Y370780D01*
X242027Y370852D01*
X242186Y370928D01*
X242344Y371007D01*
X242500Y371091D01*
X242654Y371178D01*
X242806Y371269D01*
X242956Y371363D01*
X243103Y371461D01*
X243248Y371562D01*
X243391Y371667D01*
X243531Y371775D01*
X243668Y371886D01*
X243803Y372001D01*
X243934Y372119D01*
X244063Y372240D01*
X244189Y372364D01*
X243752Y382426D02*
X243750Y382543D01*
X243744Y382660D01*
X243734Y382776D01*
X243721Y382893D01*
X243703Y383008D01*
X243682Y383123D01*
X243657Y383237D01*
X243628Y383351D01*
X243595Y383463D01*
X243558Y383574D01*
X243518Y383684D01*
X243474Y383792D01*
X243427Y383899D01*
X243376Y384005D01*
X243321Y384108D01*
X243263Y384210D01*
X243202Y384309D01*
X243138Y384407D01*
X243070Y384502D01*
X242999Y384595D01*
X242925Y384686D01*
X242848Y384774D01*
X242768Y384859D01*
X242685Y384942D01*
X242600Y385022D01*
X242512Y385099D01*
X242421Y385173D01*
X242328Y385244D01*
X242233Y385312D01*
X242135Y385376D01*
X242036Y385437D01*
X241934Y385495D01*
X241831Y385550D01*
X241725Y385601D01*
X241618Y385648D01*
X241510Y385692D01*
X241400Y385732D01*
X241289Y385769D01*
X241177Y385802D01*
X241063Y385831D01*
X240949Y385856D01*
X240834Y385877D01*
X240719Y385895D01*
X240602Y385908D01*
X240486Y385918D01*
X240369Y385924D01*
X240252Y385926D01*
X240252Y385925D02*
X240096Y385923D01*
X239939Y385918D01*
X239783Y385908D01*
X239627Y385895D01*
X239472Y385878D01*
X239317Y385858D01*
X239162Y385834D01*
X239008Y385806D01*
X238855Y385775D01*
X238703Y385740D01*
X238551Y385701D01*
X238401Y385658D01*
X238251Y385613D01*
X238103Y385563D01*
X237956Y385510D01*
X237810Y385454D01*
X237665Y385394D01*
X237522Y385330D01*
X237381Y385264D01*
X237241Y385194D01*
X237103Y385120D01*
X236967Y385043D01*
X236832Y384964D01*
X236700Y384880D01*
X236569Y384794D01*
X236441Y384705D01*
X236315Y384613D01*
X242001Y379364D02*
X242100Y379424D01*
X242196Y379488D01*
X242290Y379554D01*
X242382Y379623D01*
X242472Y379696D01*
X242560Y379771D01*
X242644Y379849D01*
X242727Y379930D01*
X242806Y380013D01*
X242883Y380099D01*
X242957Y380187D01*
X243029Y380278D01*
X243097Y380371D01*
X243162Y380466D01*
X243224Y380564D01*
X243283Y380663D01*
X243338Y380764D01*
X243391Y380867D01*
X243440Y380971D01*
X243485Y381077D01*
X243527Y381184D01*
X243566Y381293D01*
X243601Y381403D01*
X243632Y381514D01*
X243660Y381626D01*
X243684Y381738D01*
X243704Y381852D01*
X243721Y381966D01*
X243734Y382081D01*
X243744Y382196D01*
X243749Y382311D01*
X243751Y382426D01*
X237190Y376739D02*
X237091Y376679D01*
X236995Y376615D01*
X236901Y376549D01*
X236809Y376480D01*
X236719Y376407D01*
X236631Y376332D01*
X236547Y376254D01*
X236464Y376173D01*
X236385Y376090D01*
X236308Y376004D01*
X236234Y375916D01*
X236162Y375825D01*
X236094Y375732D01*
X236029Y375637D01*
X235967Y375539D01*
X235908Y375440D01*
X235853Y375339D01*
X235800Y375236D01*
X235752Y375132D01*
X235706Y375026D01*
X235664Y374919D01*
X235625Y374810D01*
X235590Y374700D01*
X235559Y374589D01*
X235531Y374477D01*
X235507Y374365D01*
X235487Y374251D01*
X235470Y374137D01*
X235457Y374022D01*
X235447Y373907D01*
X235442Y373792D01*
X235440Y373677D01*
X237190Y376739D02*
X242002Y379363D01*
X220221Y385925D02*
X220221Y370177D01*
X220221Y385925D02*
X215847Y385925D01*
X215717Y385923D01*
X215588Y385917D01*
X215459Y385908D01*
X215330Y385894D01*
X215201Y385877D01*
X215073Y385856D01*
X214946Y385831D01*
X214820Y385803D01*
X214694Y385770D01*
X214570Y385734D01*
X214446Y385695D01*
X214324Y385651D01*
X214203Y385604D01*
X214084Y385554D01*
X213966Y385500D01*
X213850Y385442D01*
X213735Y385381D01*
X213623Y385317D01*
X213512Y385250D01*
X213403Y385179D01*
X213297Y385105D01*
X213193Y385028D01*
X213091Y384948D01*
X212992Y384864D01*
X212895Y384778D01*
X212800Y384689D01*
X212709Y384598D01*
X212620Y384503D01*
X212534Y384406D01*
X212450Y384307D01*
X212370Y384205D01*
X212293Y384101D01*
X212219Y383995D01*
X212148Y383886D01*
X212081Y383775D01*
X212017Y383663D01*
X211956Y383548D01*
X211898Y383432D01*
X211844Y383314D01*
X211794Y383195D01*
X211747Y383074D01*
X211703Y382952D01*
X211664Y382828D01*
X211628Y382704D01*
X211595Y382578D01*
X211567Y382452D01*
X211542Y382325D01*
X211521Y382197D01*
X211504Y382068D01*
X211490Y381939D01*
X211481Y381810D01*
X211475Y381681D01*
X211473Y381551D01*
X211472Y381551D02*
X211472Y374552D01*
X211473Y374552D02*
X211475Y374422D01*
X211481Y374293D01*
X211490Y374164D01*
X211504Y374035D01*
X211521Y373906D01*
X211542Y373778D01*
X211567Y373651D01*
X211595Y373525D01*
X211628Y373399D01*
X211664Y373275D01*
X211703Y373151D01*
X211747Y373029D01*
X211794Y372908D01*
X211844Y372789D01*
X211898Y372671D01*
X211956Y372555D01*
X212017Y372440D01*
X212081Y372328D01*
X212148Y372217D01*
X212219Y372108D01*
X212293Y372002D01*
X212370Y371898D01*
X212450Y371796D01*
X212534Y371697D01*
X212620Y371600D01*
X212709Y371505D01*
X212800Y371414D01*
X212895Y371325D01*
X212992Y371239D01*
X213091Y371155D01*
X213193Y371075D01*
X213297Y370998D01*
X213403Y370924D01*
X213512Y370853D01*
X213623Y370786D01*
X213735Y370722D01*
X213850Y370661D01*
X213966Y370603D01*
X214084Y370549D01*
X214203Y370499D01*
X214324Y370452D01*
X214446Y370408D01*
X214570Y370369D01*
X214694Y370333D01*
X214820Y370300D01*
X214946Y370272D01*
X215073Y370247D01*
X215201Y370226D01*
X215330Y370209D01*
X215459Y370195D01*
X215588Y370186D01*
X215717Y370180D01*
X215847Y370178D01*
X215847Y370177D02*
X220221Y370177D01*
X201262Y376301D02*
X197325Y376301D01*
X201262Y376301D02*
X201371Y376299D01*
X201480Y376293D01*
X201589Y376283D01*
X201698Y376270D01*
X201806Y376252D01*
X201913Y376231D01*
X202019Y376206D01*
X202125Y376177D01*
X202229Y376144D01*
X202332Y376108D01*
X202434Y376068D01*
X202534Y376024D01*
X202633Y375977D01*
X202729Y375926D01*
X202824Y375872D01*
X202917Y375815D01*
X203008Y375754D01*
X203097Y375690D01*
X203183Y375623D01*
X203267Y375553D01*
X203349Y375480D01*
X203427Y375404D01*
X203503Y375326D01*
X203576Y375244D01*
X203646Y375160D01*
X203713Y375074D01*
X203777Y374985D01*
X203838Y374894D01*
X203895Y374801D01*
X203949Y374706D01*
X204000Y374610D01*
X204047Y374511D01*
X204091Y374411D01*
X204131Y374309D01*
X204167Y374206D01*
X204200Y374102D01*
X204229Y373996D01*
X204254Y373890D01*
X204275Y373783D01*
X204293Y373675D01*
X204306Y373566D01*
X204316Y373457D01*
X204322Y373348D01*
X204324Y373239D01*
X204322Y373130D01*
X204316Y373021D01*
X204306Y372912D01*
X204293Y372803D01*
X204275Y372695D01*
X204254Y372588D01*
X204229Y372482D01*
X204200Y372376D01*
X204167Y372272D01*
X204131Y372169D01*
X204091Y372067D01*
X204047Y371967D01*
X204000Y371868D01*
X203949Y371772D01*
X203895Y371677D01*
X203838Y371584D01*
X203777Y371493D01*
X203713Y371404D01*
X203646Y371318D01*
X203576Y371234D01*
X203503Y371152D01*
X203427Y371074D01*
X203349Y370998D01*
X203267Y370925D01*
X203183Y370855D01*
X203097Y370788D01*
X203008Y370724D01*
X202917Y370663D01*
X202824Y370606D01*
X202729Y370552D01*
X202633Y370501D01*
X202534Y370454D01*
X202434Y370410D01*
X202332Y370370D01*
X202229Y370334D01*
X202125Y370301D01*
X202019Y370272D01*
X201913Y370247D01*
X201806Y370226D01*
X201698Y370208D01*
X201589Y370195D01*
X201480Y370185D01*
X201371Y370179D01*
X201262Y370177D01*
X197325Y370177D01*
X197325Y378051D01*
X197327Y378152D01*
X197333Y378252D01*
X197342Y378352D01*
X197356Y378452D01*
X197373Y378551D01*
X197394Y378649D01*
X197419Y378747D01*
X197447Y378843D01*
X197480Y378938D01*
X197515Y379032D01*
X197555Y379125D01*
X197598Y379216D01*
X197644Y379305D01*
X197694Y379392D01*
X197747Y379478D01*
X197803Y379561D01*
X197862Y379642D01*
X197925Y379721D01*
X197990Y379797D01*
X198059Y379871D01*
X198130Y379942D01*
X198204Y380011D01*
X198280Y380076D01*
X198359Y380139D01*
X198440Y380198D01*
X198523Y380254D01*
X198609Y380307D01*
X198696Y380357D01*
X198785Y380403D01*
X198876Y380446D01*
X198969Y380486D01*
X199063Y380522D01*
X199158Y380554D01*
X199254Y380582D01*
X199352Y380607D01*
X199450Y380628D01*
X199549Y380645D01*
X199649Y380659D01*
X199749Y380668D01*
X199849Y380674D01*
X199950Y380676D01*
X203449Y380676D01*
X189545Y380676D02*
X189545Y370177D01*
X189545Y380676D02*
X184295Y380676D01*
X184295Y378926D01*
X180575Y380676D02*
X175326Y380676D01*
X178825Y385925D02*
X178825Y372802D01*
X178826Y372802D02*
X178824Y372701D01*
X178818Y372601D01*
X178809Y372501D01*
X178795Y372401D01*
X178778Y372302D01*
X178757Y372204D01*
X178732Y372106D01*
X178704Y372010D01*
X178671Y371915D01*
X178636Y371821D01*
X178596Y371728D01*
X178553Y371637D01*
X178507Y371548D01*
X178457Y371461D01*
X178404Y371375D01*
X178348Y371292D01*
X178289Y371211D01*
X178226Y371132D01*
X178161Y371056D01*
X178092Y370982D01*
X178021Y370911D01*
X177947Y370842D01*
X177871Y370777D01*
X177792Y370714D01*
X177711Y370655D01*
X177628Y370599D01*
X177542Y370546D01*
X177455Y370496D01*
X177366Y370450D01*
X177275Y370407D01*
X177182Y370367D01*
X177088Y370331D01*
X176993Y370299D01*
X176897Y370271D01*
X176799Y370246D01*
X176701Y370225D01*
X176602Y370208D01*
X176502Y370194D01*
X176402Y370185D01*
X176302Y370179D01*
X176201Y370177D01*
X175326Y370177D01*
X168471Y370177D02*
X168471Y380676D01*
X160597Y380676D01*
X160496Y380674D01*
X160396Y380668D01*
X160296Y380659D01*
X160196Y380645D01*
X160097Y380628D01*
X159999Y380607D01*
X159901Y380582D01*
X159805Y380554D01*
X159710Y380521D01*
X159616Y380486D01*
X159523Y380446D01*
X159432Y380403D01*
X159343Y380357D01*
X159256Y380307D01*
X159170Y380254D01*
X159087Y380198D01*
X159006Y380139D01*
X158927Y380076D01*
X158851Y380011D01*
X158777Y379942D01*
X158706Y379871D01*
X158637Y379797D01*
X158572Y379721D01*
X158509Y379642D01*
X158450Y379561D01*
X158394Y379478D01*
X158341Y379392D01*
X158291Y379305D01*
X158245Y379216D01*
X158202Y379125D01*
X158162Y379032D01*
X158127Y378938D01*
X158094Y378843D01*
X158066Y378747D01*
X158041Y378649D01*
X158020Y378551D01*
X158003Y378452D01*
X157989Y378352D01*
X157980Y378252D01*
X157974Y378152D01*
X157972Y378051D01*
X157972Y370177D01*
X163221Y370177D02*
X163221Y380676D01*
X150569Y377176D02*
X150569Y373677D01*
X150569Y377176D02*
X150567Y377294D01*
X150561Y377412D01*
X150551Y377530D01*
X150537Y377647D01*
X150519Y377764D01*
X150497Y377881D01*
X150472Y377996D01*
X150442Y378110D01*
X150408Y378224D01*
X150371Y378336D01*
X150330Y378447D01*
X150285Y378556D01*
X150237Y378664D01*
X150185Y378770D01*
X150129Y378875D01*
X150070Y378977D01*
X150008Y379077D01*
X149942Y379175D01*
X149873Y379271D01*
X149800Y379365D01*
X149725Y379456D01*
X149646Y379544D01*
X149565Y379630D01*
X149480Y379713D01*
X149393Y379793D01*
X149304Y379870D01*
X149211Y379944D01*
X149117Y380014D01*
X149020Y380082D01*
X148920Y380146D01*
X148819Y380207D01*
X148716Y380264D01*
X148610Y380318D01*
X148503Y380369D01*
X148395Y380415D01*
X148285Y380458D01*
X148173Y380497D01*
X148060Y380533D01*
X147946Y380564D01*
X147831Y380592D01*
X147716Y380616D01*
X147599Y380636D01*
X147482Y380652D01*
X147364Y380664D01*
X147246Y380672D01*
X147128Y380676D01*
X147010Y380676D01*
X146892Y380672D01*
X146774Y380664D01*
X146656Y380652D01*
X146539Y380636D01*
X146422Y380616D01*
X146307Y380592D01*
X146192Y380564D01*
X146078Y380533D01*
X145965Y380497D01*
X145853Y380458D01*
X145743Y380415D01*
X145635Y380369D01*
X145528Y380318D01*
X145422Y380264D01*
X145319Y380207D01*
X145218Y380146D01*
X145118Y380082D01*
X145021Y380014D01*
X144927Y379944D01*
X144834Y379870D01*
X144745Y379793D01*
X144658Y379713D01*
X144573Y379630D01*
X144492Y379544D01*
X144413Y379456D01*
X144338Y379365D01*
X144265Y379271D01*
X144196Y379175D01*
X144130Y379077D01*
X144068Y378977D01*
X144009Y378875D01*
X143953Y378770D01*
X143901Y378664D01*
X143853Y378556D01*
X143808Y378447D01*
X143767Y378336D01*
X143730Y378224D01*
X143696Y378110D01*
X143666Y377996D01*
X143641Y377881D01*
X143619Y377764D01*
X143601Y377647D01*
X143587Y377530D01*
X143577Y377412D01*
X143571Y377294D01*
X143569Y377176D01*
X143570Y377176D02*
X143570Y373677D01*
X143569Y373677D02*
X143571Y373559D01*
X143577Y373441D01*
X143587Y373323D01*
X143601Y373206D01*
X143619Y373089D01*
X143641Y372972D01*
X143666Y372857D01*
X143696Y372743D01*
X143730Y372629D01*
X143767Y372517D01*
X143808Y372406D01*
X143853Y372297D01*
X143901Y372189D01*
X143953Y372083D01*
X144009Y371978D01*
X144068Y371876D01*
X144130Y371776D01*
X144196Y371678D01*
X144265Y371582D01*
X144338Y371488D01*
X144413Y371397D01*
X144492Y371309D01*
X144573Y371223D01*
X144658Y371140D01*
X144745Y371060D01*
X144834Y370983D01*
X144927Y370909D01*
X145021Y370839D01*
X145118Y370771D01*
X145218Y370707D01*
X145319Y370646D01*
X145422Y370589D01*
X145528Y370535D01*
X145635Y370484D01*
X145743Y370438D01*
X145853Y370395D01*
X145965Y370356D01*
X146078Y370320D01*
X146192Y370289D01*
X146307Y370261D01*
X146422Y370237D01*
X146539Y370217D01*
X146656Y370201D01*
X146774Y370189D01*
X146892Y370181D01*
X147010Y370177D01*
X147128Y370177D01*
X147246Y370181D01*
X147364Y370189D01*
X147482Y370201D01*
X147599Y370217D01*
X147716Y370237D01*
X147831Y370261D01*
X147946Y370289D01*
X148060Y370320D01*
X148173Y370356D01*
X148285Y370395D01*
X148395Y370438D01*
X148503Y370484D01*
X148610Y370535D01*
X148716Y370589D01*
X148819Y370646D01*
X148920Y370707D01*
X149020Y370771D01*
X149117Y370839D01*
X149211Y370909D01*
X149304Y370983D01*
X149393Y371060D01*
X149480Y371140D01*
X149565Y371223D01*
X149646Y371309D01*
X149725Y371397D01*
X149800Y371488D01*
X149873Y371582D01*
X149942Y371678D01*
X150008Y371776D01*
X150070Y371876D01*
X150129Y371978D01*
X150185Y372083D01*
X150237Y372189D01*
X150285Y372297D01*
X150330Y372406D01*
X150371Y372517D01*
X150408Y372629D01*
X150442Y372743D01*
X150472Y372857D01*
X150497Y372972D01*
X150519Y373089D01*
X150537Y373206D01*
X150551Y373323D01*
X150561Y373441D01*
X150567Y373559D01*
X150569Y373677D01*
X136501Y372802D02*
X136501Y380676D01*
X136501Y372802D02*
X136499Y372701D01*
X136493Y372601D01*
X136484Y372501D01*
X136470Y372401D01*
X136453Y372302D01*
X136432Y372204D01*
X136407Y372106D01*
X136379Y372010D01*
X136346Y371915D01*
X136311Y371821D01*
X136271Y371728D01*
X136228Y371637D01*
X136182Y371548D01*
X136132Y371461D01*
X136079Y371375D01*
X136023Y371292D01*
X135964Y371211D01*
X135901Y371132D01*
X135836Y371056D01*
X135767Y370982D01*
X135696Y370911D01*
X135622Y370842D01*
X135546Y370777D01*
X135467Y370714D01*
X135386Y370655D01*
X135303Y370599D01*
X135217Y370546D01*
X135130Y370496D01*
X135041Y370450D01*
X134950Y370407D01*
X134857Y370367D01*
X134763Y370332D01*
X134668Y370299D01*
X134572Y370271D01*
X134474Y370246D01*
X134376Y370225D01*
X134277Y370208D01*
X134177Y370194D01*
X134077Y370185D01*
X133977Y370179D01*
X133876Y370177D01*
X129502Y370177D01*
X129502Y380676D01*
X123782Y380676D02*
X118532Y380676D01*
X122032Y385925D02*
X122032Y372802D01*
X122030Y372701D01*
X122024Y372601D01*
X122015Y372501D01*
X122001Y372401D01*
X121984Y372302D01*
X121963Y372204D01*
X121938Y372106D01*
X121910Y372010D01*
X121877Y371915D01*
X121842Y371821D01*
X121802Y371728D01*
X121759Y371637D01*
X121713Y371548D01*
X121663Y371461D01*
X121610Y371375D01*
X121554Y371292D01*
X121495Y371211D01*
X121432Y371132D01*
X121367Y371056D01*
X121298Y370982D01*
X121227Y370911D01*
X121153Y370842D01*
X121077Y370777D01*
X120998Y370714D01*
X120917Y370655D01*
X120834Y370599D01*
X120748Y370546D01*
X120661Y370496D01*
X120572Y370450D01*
X120481Y370407D01*
X120388Y370367D01*
X120294Y370331D01*
X120199Y370299D01*
X120103Y370271D01*
X120005Y370246D01*
X119907Y370225D01*
X119808Y370208D01*
X119708Y370194D01*
X119608Y370185D01*
X119508Y370179D01*
X119407Y370177D01*
X118532Y370177D01*
X112012Y370177D02*
X112012Y385925D01*
X112012Y380676D02*
X107637Y380676D01*
X107536Y380674D01*
X107436Y380668D01*
X107336Y380659D01*
X107236Y380645D01*
X107137Y380628D01*
X107039Y380607D01*
X106941Y380582D01*
X106845Y380554D01*
X106750Y380521D01*
X106656Y380486D01*
X106563Y380446D01*
X106472Y380403D01*
X106383Y380357D01*
X106296Y380307D01*
X106210Y380254D01*
X106127Y380198D01*
X106046Y380139D01*
X105967Y380076D01*
X105891Y380011D01*
X105817Y379942D01*
X105746Y379871D01*
X105677Y379797D01*
X105612Y379721D01*
X105549Y379642D01*
X105490Y379561D01*
X105434Y379478D01*
X105381Y379392D01*
X105331Y379305D01*
X105285Y379216D01*
X105242Y379125D01*
X105202Y379032D01*
X105167Y378938D01*
X105134Y378843D01*
X105106Y378747D01*
X105081Y378649D01*
X105060Y378551D01*
X105043Y378452D01*
X105029Y378352D01*
X105020Y378252D01*
X105014Y378152D01*
X105012Y378051D01*
X105013Y378051D02*
X105013Y370177D01*
X301799Y339951D02*
X308798Y339951D01*
X308798Y355699D01*
X301799Y355699D01*
X303549Y348700D02*
X308798Y348700D01*
X295796Y342576D02*
X295796Y355699D01*
X295796Y342576D02*
X295794Y342475D01*
X295788Y342375D01*
X295779Y342275D01*
X295765Y342175D01*
X295748Y342076D01*
X295727Y341978D01*
X295702Y341880D01*
X295674Y341784D01*
X295641Y341689D01*
X295606Y341595D01*
X295566Y341502D01*
X295523Y341411D01*
X295477Y341322D01*
X295427Y341235D01*
X295374Y341149D01*
X295318Y341066D01*
X295259Y340985D01*
X295196Y340906D01*
X295131Y340830D01*
X295062Y340756D01*
X294991Y340685D01*
X294917Y340616D01*
X294841Y340551D01*
X294762Y340488D01*
X294681Y340429D01*
X294598Y340373D01*
X294512Y340320D01*
X294425Y340270D01*
X294336Y340224D01*
X294245Y340181D01*
X294152Y340141D01*
X294058Y340106D01*
X293963Y340073D01*
X293867Y340045D01*
X293769Y340020D01*
X293671Y339999D01*
X293572Y339982D01*
X293472Y339968D01*
X293372Y339959D01*
X293272Y339953D01*
X293171Y339951D01*
X285014Y339951D02*
X280639Y339951D01*
X285014Y339951D02*
X285115Y339953D01*
X285215Y339959D01*
X285315Y339968D01*
X285415Y339982D01*
X285514Y339999D01*
X285612Y340020D01*
X285710Y340045D01*
X285806Y340073D01*
X285901Y340106D01*
X285995Y340141D01*
X286088Y340181D01*
X286179Y340224D01*
X286268Y340270D01*
X286355Y340320D01*
X286441Y340373D01*
X286524Y340429D01*
X286605Y340488D01*
X286684Y340551D01*
X286760Y340616D01*
X286834Y340685D01*
X286905Y340756D01*
X286974Y340830D01*
X287039Y340906D01*
X287102Y340985D01*
X287161Y341066D01*
X287217Y341149D01*
X287270Y341235D01*
X287320Y341322D01*
X287366Y341411D01*
X287409Y341502D01*
X287449Y341595D01*
X287485Y341689D01*
X287517Y341784D01*
X287545Y341880D01*
X287570Y341978D01*
X287591Y342076D01*
X287608Y342175D01*
X287622Y342275D01*
X287631Y342375D01*
X287637Y342475D01*
X287639Y342576D01*
X287638Y342576D02*
X287638Y346950D01*
X287639Y346950D02*
X287637Y347068D01*
X287631Y347186D01*
X287621Y347304D01*
X287607Y347421D01*
X287589Y347538D01*
X287567Y347655D01*
X287542Y347770D01*
X287512Y347884D01*
X287478Y347998D01*
X287441Y348110D01*
X287400Y348221D01*
X287355Y348330D01*
X287307Y348438D01*
X287255Y348544D01*
X287199Y348649D01*
X287140Y348751D01*
X287078Y348851D01*
X287012Y348949D01*
X286943Y349045D01*
X286870Y349139D01*
X286795Y349230D01*
X286716Y349318D01*
X286635Y349404D01*
X286550Y349487D01*
X286463Y349567D01*
X286374Y349644D01*
X286281Y349718D01*
X286187Y349788D01*
X286090Y349856D01*
X285990Y349920D01*
X285889Y349981D01*
X285786Y350038D01*
X285680Y350092D01*
X285573Y350143D01*
X285465Y350189D01*
X285355Y350232D01*
X285243Y350271D01*
X285130Y350307D01*
X285016Y350338D01*
X284901Y350366D01*
X284786Y350390D01*
X284669Y350410D01*
X284552Y350426D01*
X284434Y350438D01*
X284316Y350446D01*
X284198Y350450D01*
X284080Y350450D01*
X283962Y350446D01*
X283844Y350438D01*
X283726Y350426D01*
X283609Y350410D01*
X283492Y350390D01*
X283377Y350366D01*
X283262Y350338D01*
X283148Y350307D01*
X283035Y350271D01*
X282923Y350232D01*
X282813Y350189D01*
X282705Y350143D01*
X282598Y350092D01*
X282492Y350038D01*
X282389Y349981D01*
X282288Y349920D01*
X282188Y349856D01*
X282091Y349788D01*
X281997Y349718D01*
X281904Y349644D01*
X281815Y349567D01*
X281728Y349487D01*
X281643Y349404D01*
X281562Y349318D01*
X281483Y349230D01*
X281408Y349139D01*
X281335Y349045D01*
X281266Y348949D01*
X281200Y348851D01*
X281138Y348751D01*
X281079Y348649D01*
X281023Y348544D01*
X280971Y348438D01*
X280923Y348330D01*
X280878Y348221D01*
X280837Y348110D01*
X280800Y347998D01*
X280766Y347884D01*
X280736Y347770D01*
X280711Y347655D01*
X280689Y347538D01*
X280671Y347421D01*
X280657Y347304D01*
X280647Y347186D01*
X280641Y347068D01*
X280639Y346950D01*
X280639Y345200D01*
X287638Y345200D01*
X271445Y339951D02*
X267946Y339951D01*
X271445Y339951D02*
X271546Y339953D01*
X271646Y339959D01*
X271746Y339968D01*
X271846Y339982D01*
X271945Y339999D01*
X272043Y340020D01*
X272141Y340045D01*
X272237Y340073D01*
X272332Y340106D01*
X272426Y340141D01*
X272519Y340181D01*
X272610Y340224D01*
X272699Y340270D01*
X272786Y340320D01*
X272872Y340373D01*
X272955Y340429D01*
X273036Y340488D01*
X273115Y340551D01*
X273191Y340616D01*
X273265Y340685D01*
X273336Y340756D01*
X273405Y340830D01*
X273470Y340906D01*
X273533Y340985D01*
X273592Y341066D01*
X273648Y341149D01*
X273701Y341235D01*
X273751Y341322D01*
X273797Y341411D01*
X273840Y341502D01*
X273880Y341595D01*
X273916Y341689D01*
X273948Y341784D01*
X273976Y341880D01*
X274001Y341978D01*
X274022Y342076D01*
X274039Y342175D01*
X274053Y342275D01*
X274062Y342375D01*
X274068Y342475D01*
X274070Y342576D01*
X274070Y347825D01*
X274068Y347926D01*
X274062Y348026D01*
X274053Y348126D01*
X274039Y348226D01*
X274022Y348325D01*
X274001Y348423D01*
X273976Y348521D01*
X273948Y348617D01*
X273915Y348712D01*
X273880Y348806D01*
X273840Y348899D01*
X273797Y348990D01*
X273751Y349079D01*
X273701Y349166D01*
X273648Y349252D01*
X273592Y349335D01*
X273533Y349416D01*
X273470Y349495D01*
X273405Y349571D01*
X273336Y349645D01*
X273265Y349716D01*
X273191Y349785D01*
X273115Y349850D01*
X273036Y349913D01*
X272955Y349972D01*
X272872Y350028D01*
X272786Y350081D01*
X272699Y350131D01*
X272610Y350177D01*
X272519Y350220D01*
X272426Y350260D01*
X272332Y350295D01*
X272237Y350328D01*
X272141Y350356D01*
X272043Y350381D01*
X271945Y350402D01*
X271846Y350419D01*
X271746Y350433D01*
X271646Y350442D01*
X271546Y350448D01*
X271445Y350450D01*
X267946Y350450D01*
X263456Y350450D02*
X258207Y350450D01*
X261707Y355699D02*
X261707Y342576D01*
X261705Y342475D01*
X261699Y342375D01*
X261690Y342275D01*
X261676Y342175D01*
X261659Y342076D01*
X261638Y341978D01*
X261613Y341880D01*
X261585Y341784D01*
X261552Y341689D01*
X261517Y341595D01*
X261477Y341502D01*
X261434Y341411D01*
X261388Y341322D01*
X261338Y341235D01*
X261285Y341149D01*
X261229Y341066D01*
X261170Y340985D01*
X261107Y340906D01*
X261042Y340830D01*
X260973Y340756D01*
X260902Y340685D01*
X260828Y340616D01*
X260752Y340551D01*
X260673Y340488D01*
X260592Y340429D01*
X260509Y340373D01*
X260423Y340320D01*
X260336Y340270D01*
X260247Y340224D01*
X260156Y340181D01*
X260063Y340141D01*
X259969Y340105D01*
X259874Y340073D01*
X259778Y340045D01*
X259680Y340020D01*
X259582Y339999D01*
X259483Y339982D01*
X259383Y339968D01*
X259283Y339959D01*
X259183Y339953D01*
X259082Y339951D01*
X258207Y339951D01*
X251584Y339951D02*
X251584Y350450D01*
X246335Y350450D01*
X246335Y348700D01*
X241413Y350450D02*
X241413Y339951D01*
X241851Y354824D02*
X241851Y355699D01*
X240976Y355699D01*
X240976Y354824D01*
X241851Y354824D01*
X232367Y339951D02*
X228868Y339951D01*
X232367Y339951D02*
X232468Y339953D01*
X232568Y339959D01*
X232668Y339968D01*
X232768Y339982D01*
X232867Y339999D01*
X232965Y340020D01*
X233063Y340045D01*
X233159Y340073D01*
X233254Y340106D01*
X233348Y340141D01*
X233441Y340181D01*
X233532Y340224D01*
X233621Y340270D01*
X233708Y340320D01*
X233794Y340373D01*
X233877Y340429D01*
X233958Y340488D01*
X234037Y340551D01*
X234113Y340616D01*
X234187Y340685D01*
X234258Y340756D01*
X234327Y340830D01*
X234392Y340906D01*
X234455Y340985D01*
X234514Y341066D01*
X234570Y341149D01*
X234623Y341235D01*
X234673Y341322D01*
X234719Y341411D01*
X234762Y341502D01*
X234802Y341595D01*
X234838Y341689D01*
X234870Y341784D01*
X234898Y341880D01*
X234923Y341978D01*
X234944Y342076D01*
X234961Y342175D01*
X234975Y342275D01*
X234984Y342375D01*
X234990Y342475D01*
X234992Y342576D01*
X234992Y347825D01*
X234990Y347926D01*
X234984Y348026D01*
X234975Y348126D01*
X234961Y348226D01*
X234944Y348325D01*
X234923Y348423D01*
X234898Y348521D01*
X234870Y348617D01*
X234837Y348712D01*
X234802Y348806D01*
X234762Y348899D01*
X234719Y348990D01*
X234673Y349079D01*
X234623Y349166D01*
X234570Y349252D01*
X234514Y349335D01*
X234455Y349416D01*
X234392Y349495D01*
X234327Y349571D01*
X234258Y349645D01*
X234187Y349716D01*
X234113Y349785D01*
X234037Y349850D01*
X233958Y349913D01*
X233877Y349972D01*
X233794Y350028D01*
X233708Y350081D01*
X233621Y350131D01*
X233532Y350177D01*
X233441Y350220D01*
X233348Y350260D01*
X233254Y350295D01*
X233159Y350328D01*
X233063Y350356D01*
X232965Y350381D01*
X232867Y350402D01*
X232768Y350419D01*
X232668Y350433D01*
X232568Y350442D01*
X232468Y350448D01*
X232367Y350450D01*
X228868Y350450D01*
X220055Y346075D02*
X216118Y346075D01*
X220055Y346075D02*
X220164Y346073D01*
X220273Y346067D01*
X220382Y346057D01*
X220491Y346044D01*
X220599Y346026D01*
X220706Y346005D01*
X220812Y345980D01*
X220918Y345951D01*
X221022Y345918D01*
X221125Y345882D01*
X221227Y345842D01*
X221327Y345798D01*
X221426Y345751D01*
X221522Y345700D01*
X221617Y345646D01*
X221710Y345589D01*
X221801Y345528D01*
X221890Y345464D01*
X221976Y345397D01*
X222060Y345327D01*
X222142Y345254D01*
X222220Y345178D01*
X222296Y345100D01*
X222369Y345018D01*
X222439Y344934D01*
X222506Y344848D01*
X222570Y344759D01*
X222631Y344668D01*
X222688Y344575D01*
X222742Y344480D01*
X222793Y344384D01*
X222840Y344285D01*
X222884Y344185D01*
X222924Y344083D01*
X222960Y343980D01*
X222993Y343876D01*
X223022Y343770D01*
X223047Y343664D01*
X223068Y343557D01*
X223086Y343449D01*
X223099Y343340D01*
X223109Y343231D01*
X223115Y343122D01*
X223117Y343013D01*
X223115Y342904D01*
X223109Y342795D01*
X223099Y342686D01*
X223086Y342577D01*
X223068Y342469D01*
X223047Y342362D01*
X223022Y342256D01*
X222993Y342150D01*
X222960Y342046D01*
X222924Y341943D01*
X222884Y341841D01*
X222840Y341741D01*
X222793Y341642D01*
X222742Y341546D01*
X222688Y341451D01*
X222631Y341358D01*
X222570Y341267D01*
X222506Y341178D01*
X222439Y341092D01*
X222369Y341008D01*
X222296Y340926D01*
X222220Y340848D01*
X222142Y340772D01*
X222060Y340699D01*
X221976Y340629D01*
X221890Y340562D01*
X221801Y340498D01*
X221710Y340437D01*
X221617Y340380D01*
X221522Y340326D01*
X221426Y340275D01*
X221327Y340228D01*
X221227Y340184D01*
X221125Y340144D01*
X221022Y340108D01*
X220918Y340075D01*
X220812Y340046D01*
X220706Y340021D01*
X220599Y340000D01*
X220491Y339982D01*
X220382Y339969D01*
X220273Y339959D01*
X220164Y339953D01*
X220055Y339951D01*
X216118Y339951D01*
X216118Y347825D01*
X216120Y347926D01*
X216126Y348026D01*
X216135Y348126D01*
X216149Y348226D01*
X216166Y348325D01*
X216187Y348423D01*
X216212Y348521D01*
X216240Y348617D01*
X216273Y348712D01*
X216308Y348806D01*
X216348Y348899D01*
X216391Y348990D01*
X216437Y349079D01*
X216487Y349166D01*
X216540Y349252D01*
X216596Y349335D01*
X216655Y349416D01*
X216718Y349495D01*
X216783Y349571D01*
X216852Y349645D01*
X216923Y349716D01*
X216997Y349785D01*
X217073Y349850D01*
X217152Y349913D01*
X217233Y349972D01*
X217316Y350028D01*
X217402Y350081D01*
X217489Y350131D01*
X217578Y350177D01*
X217669Y350220D01*
X217762Y350260D01*
X217856Y350296D01*
X217951Y350328D01*
X218047Y350356D01*
X218145Y350381D01*
X218243Y350402D01*
X218342Y350419D01*
X218442Y350433D01*
X218542Y350442D01*
X218642Y350448D01*
X218743Y350450D01*
X222243Y350450D01*
X208782Y355699D02*
X208782Y342576D01*
X208780Y342475D01*
X208774Y342375D01*
X208765Y342275D01*
X208751Y342175D01*
X208734Y342076D01*
X208713Y341978D01*
X208688Y341880D01*
X208660Y341784D01*
X208627Y341689D01*
X208592Y341595D01*
X208552Y341502D01*
X208509Y341411D01*
X208463Y341322D01*
X208413Y341235D01*
X208360Y341149D01*
X208304Y341066D01*
X208245Y340985D01*
X208182Y340906D01*
X208117Y340830D01*
X208048Y340756D01*
X207977Y340685D01*
X207903Y340616D01*
X207827Y340551D01*
X207748Y340488D01*
X207667Y340429D01*
X207584Y340373D01*
X207498Y340320D01*
X207411Y340270D01*
X207322Y340224D01*
X207231Y340181D01*
X207138Y340141D01*
X207044Y340106D01*
X206949Y340073D01*
X206853Y340045D01*
X206755Y340020D01*
X206657Y339999D01*
X206558Y339982D01*
X206458Y339968D01*
X206358Y339959D01*
X206258Y339953D01*
X206157Y339951D01*
X189314Y346075D02*
X185377Y346075D01*
X189314Y346075D02*
X189423Y346073D01*
X189532Y346067D01*
X189641Y346057D01*
X189750Y346044D01*
X189858Y346026D01*
X189965Y346005D01*
X190071Y345980D01*
X190177Y345951D01*
X190281Y345918D01*
X190384Y345882D01*
X190486Y345842D01*
X190586Y345798D01*
X190685Y345751D01*
X190781Y345700D01*
X190876Y345646D01*
X190969Y345589D01*
X191060Y345528D01*
X191149Y345464D01*
X191235Y345397D01*
X191319Y345327D01*
X191401Y345254D01*
X191479Y345178D01*
X191555Y345100D01*
X191628Y345018D01*
X191698Y344934D01*
X191765Y344848D01*
X191829Y344759D01*
X191890Y344668D01*
X191947Y344575D01*
X192001Y344480D01*
X192052Y344384D01*
X192099Y344285D01*
X192143Y344185D01*
X192183Y344083D01*
X192219Y343980D01*
X192252Y343876D01*
X192281Y343770D01*
X192306Y343664D01*
X192327Y343557D01*
X192345Y343449D01*
X192358Y343340D01*
X192368Y343231D01*
X192374Y343122D01*
X192376Y343013D01*
X192374Y342904D01*
X192368Y342795D01*
X192358Y342686D01*
X192345Y342577D01*
X192327Y342469D01*
X192306Y342362D01*
X192281Y342256D01*
X192252Y342150D01*
X192219Y342046D01*
X192183Y341943D01*
X192143Y341841D01*
X192099Y341741D01*
X192052Y341642D01*
X192001Y341546D01*
X191947Y341451D01*
X191890Y341358D01*
X191829Y341267D01*
X191765Y341178D01*
X191698Y341092D01*
X191628Y341008D01*
X191555Y340926D01*
X191479Y340848D01*
X191401Y340772D01*
X191319Y340699D01*
X191235Y340629D01*
X191149Y340562D01*
X191060Y340498D01*
X190969Y340437D01*
X190876Y340380D01*
X190781Y340326D01*
X190685Y340275D01*
X190586Y340228D01*
X190486Y340184D01*
X190384Y340144D01*
X190281Y340108D01*
X190177Y340075D01*
X190071Y340046D01*
X189965Y340021D01*
X189858Y340000D01*
X189750Y339982D01*
X189641Y339969D01*
X189532Y339959D01*
X189423Y339953D01*
X189314Y339951D01*
X185377Y339951D01*
X185377Y347825D01*
X185379Y347926D01*
X185385Y348026D01*
X185394Y348126D01*
X185408Y348226D01*
X185425Y348325D01*
X185446Y348423D01*
X185471Y348521D01*
X185499Y348617D01*
X185532Y348712D01*
X185567Y348806D01*
X185607Y348899D01*
X185650Y348990D01*
X185696Y349079D01*
X185746Y349166D01*
X185799Y349252D01*
X185855Y349335D01*
X185914Y349416D01*
X185977Y349495D01*
X186042Y349571D01*
X186111Y349645D01*
X186182Y349716D01*
X186256Y349785D01*
X186332Y349850D01*
X186411Y349913D01*
X186492Y349972D01*
X186575Y350028D01*
X186661Y350081D01*
X186748Y350131D01*
X186837Y350177D01*
X186928Y350220D01*
X187021Y350260D01*
X187115Y350296D01*
X187210Y350328D01*
X187306Y350356D01*
X187404Y350381D01*
X187502Y350402D01*
X187601Y350419D01*
X187701Y350433D01*
X187801Y350442D01*
X187901Y350448D01*
X188002Y350450D01*
X191501Y350450D01*
X177699Y350450D02*
X177699Y339951D01*
X177699Y350450D02*
X173324Y350450D01*
X173223Y350448D01*
X173123Y350442D01*
X173023Y350433D01*
X172923Y350419D01*
X172824Y350402D01*
X172726Y350381D01*
X172628Y350356D01*
X172532Y350328D01*
X172437Y350295D01*
X172343Y350260D01*
X172250Y350220D01*
X172159Y350177D01*
X172070Y350131D01*
X171983Y350081D01*
X171897Y350028D01*
X171814Y349972D01*
X171733Y349913D01*
X171654Y349850D01*
X171578Y349785D01*
X171504Y349716D01*
X171433Y349645D01*
X171364Y349571D01*
X171299Y349495D01*
X171236Y349416D01*
X171177Y349335D01*
X171121Y349252D01*
X171068Y349166D01*
X171018Y349079D01*
X170972Y348990D01*
X170929Y348899D01*
X170889Y348806D01*
X170854Y348712D01*
X170821Y348617D01*
X170793Y348521D01*
X170768Y348423D01*
X170747Y348325D01*
X170730Y348226D01*
X170716Y348126D01*
X170707Y348026D01*
X170701Y347926D01*
X170699Y347825D01*
X170700Y347825D02*
X170700Y339951D01*
X156720Y339951D02*
X156720Y355699D01*
X156720Y339951D02*
X161094Y339951D01*
X161195Y339953D01*
X161295Y339959D01*
X161395Y339968D01*
X161495Y339982D01*
X161594Y339999D01*
X161692Y340020D01*
X161790Y340045D01*
X161886Y340073D01*
X161981Y340106D01*
X162075Y340141D01*
X162168Y340181D01*
X162259Y340224D01*
X162348Y340270D01*
X162435Y340320D01*
X162521Y340373D01*
X162604Y340429D01*
X162685Y340488D01*
X162764Y340551D01*
X162840Y340616D01*
X162914Y340685D01*
X162985Y340756D01*
X163054Y340830D01*
X163119Y340906D01*
X163182Y340985D01*
X163241Y341066D01*
X163297Y341149D01*
X163350Y341235D01*
X163400Y341322D01*
X163446Y341411D01*
X163489Y341502D01*
X163529Y341595D01*
X163565Y341689D01*
X163597Y341784D01*
X163625Y341880D01*
X163650Y341978D01*
X163671Y342076D01*
X163688Y342175D01*
X163702Y342275D01*
X163711Y342375D01*
X163717Y342475D01*
X163719Y342576D01*
X163719Y347825D01*
X163717Y347926D01*
X163711Y348026D01*
X163702Y348126D01*
X163688Y348226D01*
X163671Y348325D01*
X163650Y348423D01*
X163625Y348521D01*
X163597Y348617D01*
X163564Y348712D01*
X163529Y348806D01*
X163489Y348899D01*
X163446Y348990D01*
X163400Y349079D01*
X163350Y349166D01*
X163297Y349252D01*
X163241Y349335D01*
X163182Y349416D01*
X163119Y349495D01*
X163054Y349571D01*
X162985Y349645D01*
X162914Y349716D01*
X162840Y349785D01*
X162764Y349850D01*
X162685Y349913D01*
X162604Y349972D01*
X162521Y350028D01*
X162435Y350081D01*
X162348Y350131D01*
X162259Y350177D01*
X162168Y350220D01*
X162075Y350260D01*
X161981Y350295D01*
X161886Y350328D01*
X161790Y350356D01*
X161692Y350381D01*
X161594Y350402D01*
X161495Y350419D01*
X161395Y350433D01*
X161295Y350442D01*
X161195Y350448D01*
X161094Y350450D01*
X156720Y350450D01*
X137607Y339951D02*
X134107Y339951D01*
X137607Y339951D02*
X137724Y339953D01*
X137841Y339959D01*
X137957Y339969D01*
X138074Y339982D01*
X138189Y340000D01*
X138304Y340021D01*
X138418Y340046D01*
X138532Y340075D01*
X138644Y340108D01*
X138755Y340145D01*
X138865Y340185D01*
X138973Y340229D01*
X139080Y340276D01*
X139186Y340327D01*
X139289Y340382D01*
X139391Y340440D01*
X139490Y340501D01*
X139588Y340565D01*
X139683Y340633D01*
X139776Y340704D01*
X139867Y340778D01*
X139955Y340855D01*
X140040Y340935D01*
X140123Y341018D01*
X140203Y341103D01*
X140280Y341191D01*
X140354Y341282D01*
X140425Y341375D01*
X140493Y341470D01*
X140557Y341568D01*
X140618Y341667D01*
X140676Y341769D01*
X140731Y341872D01*
X140782Y341978D01*
X140829Y342085D01*
X140873Y342193D01*
X140913Y342303D01*
X140950Y342414D01*
X140983Y342526D01*
X141012Y342640D01*
X141037Y342754D01*
X141058Y342869D01*
X141076Y342985D01*
X141089Y343101D01*
X141099Y343217D01*
X141105Y343334D01*
X141107Y343451D01*
X141106Y343451D02*
X141106Y352200D01*
X141107Y352200D02*
X141105Y352317D01*
X141099Y352434D01*
X141089Y352550D01*
X141076Y352666D01*
X141058Y352782D01*
X141037Y352897D01*
X141012Y353011D01*
X140983Y353125D01*
X140950Y353237D01*
X140913Y353348D01*
X140873Y353458D01*
X140829Y353566D01*
X140782Y353673D01*
X140731Y353779D01*
X140676Y353882D01*
X140618Y353984D01*
X140557Y354083D01*
X140493Y354181D01*
X140425Y354276D01*
X140354Y354369D01*
X140280Y354460D01*
X140203Y354548D01*
X140123Y354633D01*
X140040Y354716D01*
X139955Y354796D01*
X139867Y354873D01*
X139776Y354947D01*
X139683Y355018D01*
X139588Y355086D01*
X139490Y355150D01*
X139391Y355211D01*
X139289Y355269D01*
X139186Y355324D01*
X139080Y355375D01*
X138973Y355422D01*
X138865Y355466D01*
X138755Y355506D01*
X138644Y355543D01*
X138532Y355576D01*
X138418Y355605D01*
X138304Y355630D01*
X138189Y355651D01*
X138074Y355669D01*
X137957Y355682D01*
X137841Y355692D01*
X137724Y355698D01*
X137607Y355700D01*
X137607Y355699D02*
X134107Y355699D01*
X128200Y346950D02*
X128200Y343451D01*
X128200Y346950D02*
X128198Y347068D01*
X128192Y347186D01*
X128182Y347304D01*
X128168Y347421D01*
X128150Y347538D01*
X128128Y347655D01*
X128103Y347770D01*
X128073Y347884D01*
X128039Y347998D01*
X128002Y348110D01*
X127961Y348221D01*
X127916Y348330D01*
X127868Y348438D01*
X127816Y348544D01*
X127760Y348649D01*
X127701Y348751D01*
X127639Y348851D01*
X127573Y348949D01*
X127504Y349045D01*
X127431Y349139D01*
X127356Y349230D01*
X127277Y349318D01*
X127196Y349404D01*
X127111Y349487D01*
X127024Y349567D01*
X126935Y349644D01*
X126842Y349718D01*
X126748Y349788D01*
X126651Y349856D01*
X126551Y349920D01*
X126450Y349981D01*
X126347Y350038D01*
X126241Y350092D01*
X126134Y350143D01*
X126026Y350189D01*
X125916Y350232D01*
X125804Y350271D01*
X125691Y350307D01*
X125577Y350338D01*
X125462Y350366D01*
X125347Y350390D01*
X125230Y350410D01*
X125113Y350426D01*
X124995Y350438D01*
X124877Y350446D01*
X124759Y350450D01*
X124641Y350450D01*
X124523Y350446D01*
X124405Y350438D01*
X124287Y350426D01*
X124170Y350410D01*
X124053Y350390D01*
X123938Y350366D01*
X123823Y350338D01*
X123709Y350307D01*
X123596Y350271D01*
X123484Y350232D01*
X123374Y350189D01*
X123266Y350143D01*
X123159Y350092D01*
X123053Y350038D01*
X122950Y349981D01*
X122849Y349920D01*
X122749Y349856D01*
X122652Y349788D01*
X122558Y349718D01*
X122465Y349644D01*
X122376Y349567D01*
X122289Y349487D01*
X122204Y349404D01*
X122123Y349318D01*
X122044Y349230D01*
X121969Y349139D01*
X121896Y349045D01*
X121827Y348949D01*
X121761Y348851D01*
X121699Y348751D01*
X121640Y348649D01*
X121584Y348544D01*
X121532Y348438D01*
X121484Y348330D01*
X121439Y348221D01*
X121398Y348110D01*
X121361Y347998D01*
X121327Y347884D01*
X121297Y347770D01*
X121272Y347655D01*
X121250Y347538D01*
X121232Y347421D01*
X121218Y347304D01*
X121208Y347186D01*
X121202Y347068D01*
X121200Y346950D01*
X121201Y346950D02*
X121201Y343451D01*
X121200Y343451D02*
X121202Y343333D01*
X121208Y343215D01*
X121218Y343097D01*
X121232Y342980D01*
X121250Y342863D01*
X121272Y342746D01*
X121297Y342631D01*
X121327Y342517D01*
X121361Y342403D01*
X121398Y342291D01*
X121439Y342180D01*
X121484Y342071D01*
X121532Y341963D01*
X121584Y341857D01*
X121640Y341752D01*
X121699Y341650D01*
X121761Y341550D01*
X121827Y341452D01*
X121896Y341356D01*
X121969Y341262D01*
X122044Y341171D01*
X122123Y341083D01*
X122204Y340997D01*
X122289Y340914D01*
X122376Y340834D01*
X122465Y340757D01*
X122558Y340683D01*
X122652Y340613D01*
X122749Y340545D01*
X122849Y340481D01*
X122950Y340420D01*
X123053Y340363D01*
X123159Y340309D01*
X123266Y340258D01*
X123374Y340212D01*
X123484Y340169D01*
X123596Y340130D01*
X123709Y340094D01*
X123823Y340063D01*
X123938Y340035D01*
X124053Y340011D01*
X124170Y339991D01*
X124287Y339975D01*
X124405Y339963D01*
X124523Y339955D01*
X124641Y339951D01*
X124759Y339951D01*
X124877Y339955D01*
X124995Y339963D01*
X125113Y339975D01*
X125230Y339991D01*
X125347Y340011D01*
X125462Y340035D01*
X125577Y340063D01*
X125691Y340094D01*
X125804Y340130D01*
X125916Y340169D01*
X126026Y340212D01*
X126134Y340258D01*
X126241Y340309D01*
X126347Y340363D01*
X126450Y340420D01*
X126551Y340481D01*
X126651Y340545D01*
X126748Y340613D01*
X126842Y340683D01*
X126935Y340757D01*
X127024Y340834D01*
X127111Y340914D01*
X127196Y340997D01*
X127277Y341083D01*
X127356Y341171D01*
X127431Y341262D01*
X127504Y341356D01*
X127573Y341452D01*
X127639Y341550D01*
X127701Y341650D01*
X127760Y341752D01*
X127816Y341857D01*
X127868Y341963D01*
X127916Y342071D01*
X127961Y342180D01*
X128002Y342291D01*
X128039Y342403D01*
X128073Y342517D01*
X128103Y342631D01*
X128128Y342746D01*
X128150Y342863D01*
X128168Y342980D01*
X128182Y343097D01*
X128192Y343215D01*
X128198Y343333D01*
X128200Y343451D01*
X113797Y339951D02*
X113797Y350450D01*
X105923Y350450D01*
X105822Y350448D01*
X105722Y350442D01*
X105622Y350433D01*
X105522Y350419D01*
X105423Y350402D01*
X105325Y350381D01*
X105227Y350356D01*
X105131Y350328D01*
X105036Y350295D01*
X104942Y350260D01*
X104849Y350220D01*
X104758Y350177D01*
X104669Y350131D01*
X104582Y350081D01*
X104496Y350028D01*
X104413Y349972D01*
X104332Y349913D01*
X104253Y349850D01*
X104177Y349785D01*
X104103Y349716D01*
X104032Y349645D01*
X103963Y349571D01*
X103898Y349495D01*
X103835Y349416D01*
X103776Y349335D01*
X103720Y349252D01*
X103667Y349166D01*
X103617Y349079D01*
X103571Y348990D01*
X103528Y348899D01*
X103488Y348806D01*
X103453Y348712D01*
X103420Y348617D01*
X103392Y348521D01*
X103367Y348423D01*
X103346Y348325D01*
X103329Y348226D01*
X103315Y348126D01*
X103306Y348026D01*
X103300Y347926D01*
X103298Y347825D01*
X103299Y347825D02*
X103299Y339951D01*
X108548Y339951D02*
X108548Y350450D01*
X95286Y350450D02*
X95286Y334702D01*
X95286Y350450D02*
X90912Y350450D01*
X90811Y350448D01*
X90711Y350442D01*
X90611Y350433D01*
X90511Y350419D01*
X90412Y350402D01*
X90314Y350381D01*
X90216Y350356D01*
X90120Y350328D01*
X90025Y350295D01*
X89931Y350260D01*
X89838Y350220D01*
X89747Y350177D01*
X89658Y350131D01*
X89571Y350081D01*
X89485Y350028D01*
X89402Y349972D01*
X89321Y349913D01*
X89242Y349850D01*
X89166Y349785D01*
X89092Y349716D01*
X89021Y349645D01*
X88952Y349571D01*
X88887Y349495D01*
X88824Y349416D01*
X88765Y349335D01*
X88709Y349252D01*
X88656Y349166D01*
X88606Y349079D01*
X88560Y348990D01*
X88517Y348899D01*
X88477Y348806D01*
X88442Y348712D01*
X88409Y348617D01*
X88381Y348521D01*
X88356Y348423D01*
X88335Y348325D01*
X88318Y348226D01*
X88304Y348126D01*
X88295Y348026D01*
X88289Y347926D01*
X88287Y347825D01*
X88287Y342576D01*
X88289Y342475D01*
X88295Y342375D01*
X88304Y342275D01*
X88318Y342175D01*
X88335Y342076D01*
X88356Y341978D01*
X88381Y341880D01*
X88409Y341784D01*
X88442Y341689D01*
X88477Y341595D01*
X88517Y341502D01*
X88560Y341411D01*
X88606Y341322D01*
X88656Y341235D01*
X88709Y341149D01*
X88765Y341066D01*
X88824Y340985D01*
X88887Y340906D01*
X88952Y340830D01*
X89021Y340756D01*
X89092Y340685D01*
X89166Y340616D01*
X89242Y340551D01*
X89321Y340488D01*
X89402Y340429D01*
X89485Y340373D01*
X89571Y340320D01*
X89658Y340270D01*
X89747Y340224D01*
X89838Y340181D01*
X89931Y340141D01*
X90025Y340106D01*
X90120Y340073D01*
X90216Y340045D01*
X90314Y340020D01*
X90412Y339999D01*
X90511Y339982D01*
X90611Y339968D01*
X90711Y339959D01*
X90811Y339953D01*
X90912Y339951D01*
X95286Y339951D01*
X81306Y342576D02*
X81306Y350450D01*
X81307Y342576D02*
X81305Y342475D01*
X81299Y342375D01*
X81290Y342275D01*
X81276Y342175D01*
X81259Y342076D01*
X81238Y341978D01*
X81213Y341880D01*
X81185Y341784D01*
X81152Y341689D01*
X81117Y341595D01*
X81077Y341502D01*
X81034Y341411D01*
X80988Y341322D01*
X80938Y341235D01*
X80885Y341149D01*
X80829Y341066D01*
X80770Y340985D01*
X80707Y340906D01*
X80642Y340830D01*
X80573Y340756D01*
X80502Y340685D01*
X80428Y340616D01*
X80352Y340551D01*
X80273Y340488D01*
X80192Y340429D01*
X80109Y340373D01*
X80023Y340320D01*
X79936Y340270D01*
X79847Y340224D01*
X79756Y340181D01*
X79663Y340141D01*
X79569Y340106D01*
X79474Y340073D01*
X79378Y340045D01*
X79280Y340020D01*
X79182Y339999D01*
X79083Y339982D01*
X78983Y339968D01*
X78883Y339959D01*
X78783Y339953D01*
X78682Y339951D01*
X74307Y339951D01*
X74307Y350450D01*
X68587Y350450D02*
X63338Y350450D01*
X66837Y355699D02*
X66837Y342576D01*
X66838Y342576D02*
X66836Y342475D01*
X66830Y342375D01*
X66821Y342275D01*
X66807Y342175D01*
X66790Y342076D01*
X66769Y341978D01*
X66744Y341880D01*
X66716Y341784D01*
X66683Y341689D01*
X66648Y341595D01*
X66608Y341502D01*
X66565Y341411D01*
X66519Y341322D01*
X66469Y341235D01*
X66416Y341149D01*
X66360Y341066D01*
X66301Y340985D01*
X66238Y340906D01*
X66173Y340830D01*
X66104Y340756D01*
X66033Y340685D01*
X65959Y340616D01*
X65883Y340551D01*
X65804Y340488D01*
X65723Y340429D01*
X65640Y340373D01*
X65554Y340320D01*
X65467Y340270D01*
X65378Y340224D01*
X65287Y340181D01*
X65194Y340141D01*
X65100Y340105D01*
X65005Y340073D01*
X64909Y340045D01*
X64811Y340020D01*
X64713Y339999D01*
X64614Y339982D01*
X64514Y339968D01*
X64414Y339959D01*
X64314Y339953D01*
X64213Y339951D01*
X63338Y339951D01*
X54714Y339951D02*
X50339Y339951D01*
X54714Y339951D02*
X54815Y339953D01*
X54915Y339959D01*
X55015Y339968D01*
X55115Y339982D01*
X55214Y339999D01*
X55312Y340020D01*
X55410Y340045D01*
X55506Y340073D01*
X55601Y340106D01*
X55695Y340141D01*
X55788Y340181D01*
X55879Y340224D01*
X55968Y340270D01*
X56055Y340320D01*
X56141Y340373D01*
X56224Y340429D01*
X56305Y340488D01*
X56384Y340551D01*
X56460Y340616D01*
X56534Y340685D01*
X56605Y340756D01*
X56674Y340830D01*
X56739Y340906D01*
X56802Y340985D01*
X56861Y341066D01*
X56917Y341149D01*
X56970Y341235D01*
X57020Y341322D01*
X57066Y341411D01*
X57109Y341502D01*
X57149Y341595D01*
X57185Y341689D01*
X57217Y341784D01*
X57245Y341880D01*
X57270Y341978D01*
X57291Y342076D01*
X57308Y342175D01*
X57322Y342275D01*
X57331Y342375D01*
X57337Y342475D01*
X57339Y342576D01*
X57338Y342576D02*
X57338Y346950D01*
X57339Y346950D02*
X57337Y347068D01*
X57331Y347186D01*
X57321Y347304D01*
X57307Y347421D01*
X57289Y347538D01*
X57267Y347655D01*
X57242Y347770D01*
X57212Y347884D01*
X57178Y347998D01*
X57141Y348110D01*
X57100Y348221D01*
X57055Y348330D01*
X57007Y348438D01*
X56955Y348544D01*
X56899Y348649D01*
X56840Y348751D01*
X56778Y348851D01*
X56712Y348949D01*
X56643Y349045D01*
X56570Y349139D01*
X56495Y349230D01*
X56416Y349318D01*
X56335Y349404D01*
X56250Y349487D01*
X56163Y349567D01*
X56074Y349644D01*
X55981Y349718D01*
X55887Y349788D01*
X55790Y349856D01*
X55690Y349920D01*
X55589Y349981D01*
X55486Y350038D01*
X55380Y350092D01*
X55273Y350143D01*
X55165Y350189D01*
X55055Y350232D01*
X54943Y350271D01*
X54830Y350307D01*
X54716Y350338D01*
X54601Y350366D01*
X54486Y350390D01*
X54369Y350410D01*
X54252Y350426D01*
X54134Y350438D01*
X54016Y350446D01*
X53898Y350450D01*
X53780Y350450D01*
X53662Y350446D01*
X53544Y350438D01*
X53426Y350426D01*
X53309Y350410D01*
X53192Y350390D01*
X53077Y350366D01*
X52962Y350338D01*
X52848Y350307D01*
X52735Y350271D01*
X52623Y350232D01*
X52513Y350189D01*
X52405Y350143D01*
X52298Y350092D01*
X52192Y350038D01*
X52089Y349981D01*
X51988Y349920D01*
X51888Y349856D01*
X51791Y349788D01*
X51697Y349718D01*
X51604Y349644D01*
X51515Y349567D01*
X51428Y349487D01*
X51343Y349404D01*
X51262Y349318D01*
X51183Y349230D01*
X51108Y349139D01*
X51035Y349045D01*
X50966Y348949D01*
X50900Y348851D01*
X50838Y348751D01*
X50779Y348649D01*
X50723Y348544D01*
X50671Y348438D01*
X50623Y348330D01*
X50578Y348221D01*
X50537Y348110D01*
X50500Y347998D01*
X50466Y347884D01*
X50436Y347770D01*
X50411Y347655D01*
X50389Y347538D01*
X50371Y347421D01*
X50357Y347304D01*
X50347Y347186D01*
X50341Y347068D01*
X50339Y346950D01*
X50339Y345200D01*
X57338Y345200D01*
X43168Y339951D02*
X43168Y350450D01*
X37919Y350450D01*
X37919Y348700D01*
X301799Y309725D02*
X308798Y309725D01*
X308798Y325473D01*
X301799Y325473D01*
X303549Y318474D02*
X308798Y318474D01*
X295454Y320224D02*
X295454Y309725D01*
X295454Y320224D02*
X291079Y320224D01*
X290978Y320222D01*
X290878Y320216D01*
X290778Y320207D01*
X290678Y320193D01*
X290579Y320176D01*
X290481Y320155D01*
X290383Y320130D01*
X290287Y320102D01*
X290192Y320069D01*
X290098Y320034D01*
X290005Y319994D01*
X289914Y319951D01*
X289825Y319905D01*
X289738Y319855D01*
X289652Y319802D01*
X289569Y319746D01*
X289488Y319687D01*
X289409Y319624D01*
X289333Y319559D01*
X289259Y319490D01*
X289188Y319419D01*
X289119Y319345D01*
X289054Y319269D01*
X288991Y319190D01*
X288932Y319109D01*
X288876Y319026D01*
X288823Y318940D01*
X288773Y318853D01*
X288727Y318764D01*
X288684Y318673D01*
X288644Y318580D01*
X288609Y318486D01*
X288576Y318391D01*
X288548Y318295D01*
X288523Y318197D01*
X288502Y318099D01*
X288485Y318000D01*
X288471Y317900D01*
X288462Y317800D01*
X288456Y317700D01*
X288454Y317599D01*
X288455Y317599D02*
X288455Y309725D01*
X278849Y309725D02*
X274475Y309725D01*
X278849Y309725D02*
X278950Y309727D01*
X279050Y309733D01*
X279150Y309742D01*
X279250Y309756D01*
X279349Y309773D01*
X279447Y309794D01*
X279545Y309819D01*
X279641Y309847D01*
X279736Y309880D01*
X279830Y309915D01*
X279923Y309955D01*
X280014Y309998D01*
X280103Y310044D01*
X280190Y310094D01*
X280276Y310147D01*
X280359Y310203D01*
X280440Y310262D01*
X280519Y310325D01*
X280595Y310390D01*
X280669Y310459D01*
X280740Y310530D01*
X280809Y310604D01*
X280874Y310680D01*
X280937Y310759D01*
X280996Y310840D01*
X281052Y310923D01*
X281105Y311009D01*
X281155Y311096D01*
X281201Y311185D01*
X281244Y311276D01*
X281284Y311369D01*
X281320Y311463D01*
X281352Y311558D01*
X281380Y311654D01*
X281405Y311752D01*
X281426Y311850D01*
X281443Y311949D01*
X281457Y312049D01*
X281466Y312149D01*
X281472Y312249D01*
X281474Y312350D01*
X281474Y317599D01*
X281472Y317700D01*
X281466Y317800D01*
X281457Y317900D01*
X281443Y318000D01*
X281426Y318099D01*
X281405Y318197D01*
X281380Y318295D01*
X281352Y318391D01*
X281319Y318486D01*
X281284Y318580D01*
X281244Y318673D01*
X281201Y318764D01*
X281155Y318853D01*
X281105Y318940D01*
X281052Y319026D01*
X280996Y319109D01*
X280937Y319190D01*
X280874Y319269D01*
X280809Y319345D01*
X280740Y319419D01*
X280669Y319490D01*
X280595Y319559D01*
X280519Y319624D01*
X280440Y319687D01*
X280359Y319746D01*
X280276Y319802D01*
X280190Y319855D01*
X280103Y319905D01*
X280014Y319951D01*
X279923Y319994D01*
X279830Y320034D01*
X279736Y320069D01*
X279641Y320102D01*
X279545Y320130D01*
X279447Y320155D01*
X279349Y320176D01*
X279250Y320193D01*
X279150Y320207D01*
X279050Y320216D01*
X278950Y320222D01*
X278849Y320224D01*
X274475Y320224D01*
X274475Y307100D01*
X274477Y306999D01*
X274483Y306899D01*
X274492Y306799D01*
X274506Y306699D01*
X274523Y306600D01*
X274544Y306502D01*
X274569Y306404D01*
X274597Y306308D01*
X274630Y306213D01*
X274665Y306119D01*
X274705Y306026D01*
X274748Y305935D01*
X274794Y305846D01*
X274844Y305759D01*
X274897Y305673D01*
X274953Y305590D01*
X275012Y305509D01*
X275075Y305430D01*
X275140Y305354D01*
X275209Y305280D01*
X275280Y305209D01*
X275354Y305140D01*
X275430Y305075D01*
X275509Y305012D01*
X275590Y304953D01*
X275673Y304897D01*
X275759Y304844D01*
X275846Y304794D01*
X275935Y304748D01*
X276026Y304705D01*
X276119Y304665D01*
X276213Y304630D01*
X276308Y304597D01*
X276404Y304569D01*
X276502Y304544D01*
X276600Y304523D01*
X276699Y304506D01*
X276799Y304492D01*
X276899Y304483D01*
X276999Y304477D01*
X277100Y304475D01*
X277100Y304476D02*
X280599Y304476D01*
X267465Y309725D02*
X267465Y320224D01*
X267903Y324598D02*
X267903Y325473D01*
X267028Y325473D01*
X267028Y324598D01*
X267903Y324598D01*
X260544Y320224D02*
X260544Y309725D01*
X260544Y320224D02*
X256170Y320224D01*
X256069Y320222D01*
X255969Y320216D01*
X255869Y320207D01*
X255769Y320193D01*
X255670Y320176D01*
X255572Y320155D01*
X255474Y320130D01*
X255378Y320102D01*
X255283Y320069D01*
X255189Y320034D01*
X255096Y319994D01*
X255005Y319951D01*
X254916Y319905D01*
X254829Y319855D01*
X254743Y319802D01*
X254660Y319746D01*
X254579Y319687D01*
X254500Y319624D01*
X254424Y319559D01*
X254350Y319490D01*
X254279Y319419D01*
X254210Y319345D01*
X254145Y319269D01*
X254082Y319190D01*
X254023Y319109D01*
X253967Y319026D01*
X253914Y318940D01*
X253864Y318853D01*
X253818Y318764D01*
X253775Y318673D01*
X253735Y318580D01*
X253700Y318486D01*
X253667Y318391D01*
X253639Y318295D01*
X253614Y318197D01*
X253593Y318099D01*
X253576Y318000D01*
X253562Y317900D01*
X253553Y317800D01*
X253547Y317700D01*
X253545Y317599D01*
X253545Y309725D01*
X243851Y309725D02*
X239477Y309725D01*
X243851Y309725D02*
X243952Y309727D01*
X244052Y309733D01*
X244152Y309742D01*
X244252Y309756D01*
X244351Y309773D01*
X244449Y309794D01*
X244547Y309819D01*
X244643Y309847D01*
X244738Y309880D01*
X244832Y309915D01*
X244925Y309955D01*
X245016Y309998D01*
X245105Y310044D01*
X245192Y310094D01*
X245278Y310147D01*
X245361Y310203D01*
X245442Y310262D01*
X245521Y310325D01*
X245597Y310390D01*
X245671Y310459D01*
X245742Y310530D01*
X245811Y310604D01*
X245876Y310680D01*
X245939Y310759D01*
X245998Y310840D01*
X246054Y310923D01*
X246107Y311009D01*
X246157Y311096D01*
X246203Y311185D01*
X246246Y311276D01*
X246286Y311369D01*
X246322Y311463D01*
X246354Y311558D01*
X246382Y311654D01*
X246407Y311752D01*
X246428Y311850D01*
X246445Y311949D01*
X246459Y312049D01*
X246468Y312149D01*
X246474Y312249D01*
X246476Y312350D01*
X246476Y316724D01*
X246477Y316724D02*
X246475Y316842D01*
X246469Y316960D01*
X246459Y317078D01*
X246445Y317195D01*
X246427Y317312D01*
X246405Y317429D01*
X246380Y317544D01*
X246350Y317658D01*
X246316Y317772D01*
X246279Y317884D01*
X246238Y317995D01*
X246193Y318104D01*
X246145Y318212D01*
X246093Y318318D01*
X246037Y318423D01*
X245978Y318525D01*
X245916Y318625D01*
X245850Y318723D01*
X245781Y318819D01*
X245708Y318913D01*
X245633Y319004D01*
X245554Y319092D01*
X245473Y319178D01*
X245388Y319261D01*
X245301Y319341D01*
X245212Y319418D01*
X245119Y319492D01*
X245025Y319562D01*
X244928Y319630D01*
X244828Y319694D01*
X244727Y319755D01*
X244624Y319812D01*
X244518Y319866D01*
X244411Y319917D01*
X244303Y319963D01*
X244193Y320006D01*
X244081Y320045D01*
X243968Y320081D01*
X243854Y320112D01*
X243739Y320140D01*
X243624Y320164D01*
X243507Y320184D01*
X243390Y320200D01*
X243272Y320212D01*
X243154Y320220D01*
X243036Y320224D01*
X242918Y320224D01*
X242800Y320220D01*
X242682Y320212D01*
X242564Y320200D01*
X242447Y320184D01*
X242330Y320164D01*
X242215Y320140D01*
X242100Y320112D01*
X241986Y320081D01*
X241873Y320045D01*
X241761Y320006D01*
X241651Y319963D01*
X241543Y319917D01*
X241436Y319866D01*
X241330Y319812D01*
X241227Y319755D01*
X241126Y319694D01*
X241026Y319630D01*
X240929Y319562D01*
X240835Y319492D01*
X240742Y319418D01*
X240653Y319341D01*
X240566Y319261D01*
X240481Y319178D01*
X240400Y319092D01*
X240321Y319004D01*
X240246Y318913D01*
X240173Y318819D01*
X240104Y318723D01*
X240038Y318625D01*
X239976Y318525D01*
X239917Y318423D01*
X239861Y318318D01*
X239809Y318212D01*
X239761Y318104D01*
X239716Y317995D01*
X239675Y317884D01*
X239638Y317772D01*
X239604Y317658D01*
X239574Y317544D01*
X239549Y317429D01*
X239527Y317312D01*
X239509Y317195D01*
X239495Y317078D01*
X239485Y316960D01*
X239479Y316842D01*
X239477Y316724D01*
X239477Y314974D01*
X246476Y314974D01*
X230304Y309725D02*
X225930Y309725D01*
X230304Y309725D02*
X230405Y309727D01*
X230505Y309733D01*
X230605Y309742D01*
X230705Y309756D01*
X230804Y309773D01*
X230902Y309794D01*
X231000Y309819D01*
X231096Y309847D01*
X231191Y309880D01*
X231285Y309915D01*
X231378Y309955D01*
X231469Y309998D01*
X231558Y310044D01*
X231645Y310094D01*
X231731Y310147D01*
X231814Y310203D01*
X231895Y310262D01*
X231974Y310325D01*
X232050Y310390D01*
X232124Y310459D01*
X232195Y310530D01*
X232264Y310604D01*
X232329Y310680D01*
X232392Y310759D01*
X232451Y310840D01*
X232507Y310923D01*
X232560Y311009D01*
X232610Y311096D01*
X232656Y311185D01*
X232699Y311276D01*
X232739Y311369D01*
X232775Y311463D01*
X232807Y311558D01*
X232835Y311654D01*
X232860Y311752D01*
X232881Y311850D01*
X232898Y311949D01*
X232912Y312049D01*
X232921Y312149D01*
X232927Y312249D01*
X232929Y312350D01*
X232929Y316724D01*
X232930Y316724D02*
X232928Y316842D01*
X232922Y316960D01*
X232912Y317078D01*
X232898Y317195D01*
X232880Y317312D01*
X232858Y317429D01*
X232833Y317544D01*
X232803Y317658D01*
X232769Y317772D01*
X232732Y317884D01*
X232691Y317995D01*
X232646Y318104D01*
X232598Y318212D01*
X232546Y318318D01*
X232490Y318423D01*
X232431Y318525D01*
X232369Y318625D01*
X232303Y318723D01*
X232234Y318819D01*
X232161Y318913D01*
X232086Y319004D01*
X232007Y319092D01*
X231926Y319178D01*
X231841Y319261D01*
X231754Y319341D01*
X231665Y319418D01*
X231572Y319492D01*
X231478Y319562D01*
X231381Y319630D01*
X231281Y319694D01*
X231180Y319755D01*
X231077Y319812D01*
X230971Y319866D01*
X230864Y319917D01*
X230756Y319963D01*
X230646Y320006D01*
X230534Y320045D01*
X230421Y320081D01*
X230307Y320112D01*
X230192Y320140D01*
X230077Y320164D01*
X229960Y320184D01*
X229843Y320200D01*
X229725Y320212D01*
X229607Y320220D01*
X229489Y320224D01*
X229371Y320224D01*
X229253Y320220D01*
X229135Y320212D01*
X229017Y320200D01*
X228900Y320184D01*
X228783Y320164D01*
X228668Y320140D01*
X228553Y320112D01*
X228439Y320081D01*
X228326Y320045D01*
X228214Y320006D01*
X228104Y319963D01*
X227996Y319917D01*
X227889Y319866D01*
X227783Y319812D01*
X227680Y319755D01*
X227579Y319694D01*
X227479Y319630D01*
X227382Y319562D01*
X227288Y319492D01*
X227195Y319418D01*
X227106Y319341D01*
X227019Y319261D01*
X226934Y319178D01*
X226853Y319092D01*
X226774Y319004D01*
X226699Y318913D01*
X226626Y318819D01*
X226557Y318723D01*
X226491Y318625D01*
X226429Y318525D01*
X226370Y318423D01*
X226314Y318318D01*
X226262Y318212D01*
X226214Y318104D01*
X226169Y317995D01*
X226128Y317884D01*
X226091Y317772D01*
X226057Y317658D01*
X226027Y317544D01*
X226002Y317429D01*
X225980Y317312D01*
X225962Y317195D01*
X225948Y317078D01*
X225938Y316960D01*
X225932Y316842D01*
X225930Y316724D01*
X225930Y314974D01*
X232929Y314974D01*
X218759Y309725D02*
X218759Y320224D01*
X213510Y320224D01*
X213510Y318474D01*
X208588Y320224D02*
X208588Y309725D01*
X209025Y324598D02*
X209025Y325473D01*
X208151Y325473D01*
X208151Y324598D01*
X209025Y324598D01*
X201667Y320224D02*
X201667Y309725D01*
X201667Y320224D02*
X197292Y320224D01*
X197191Y320222D01*
X197091Y320216D01*
X196991Y320207D01*
X196891Y320193D01*
X196792Y320176D01*
X196694Y320155D01*
X196596Y320130D01*
X196500Y320102D01*
X196405Y320069D01*
X196311Y320034D01*
X196218Y319994D01*
X196127Y319951D01*
X196038Y319905D01*
X195951Y319855D01*
X195865Y319802D01*
X195782Y319746D01*
X195701Y319687D01*
X195622Y319624D01*
X195546Y319559D01*
X195472Y319490D01*
X195401Y319419D01*
X195332Y319345D01*
X195267Y319269D01*
X195204Y319190D01*
X195145Y319109D01*
X195089Y319026D01*
X195036Y318940D01*
X194986Y318853D01*
X194940Y318764D01*
X194897Y318673D01*
X194857Y318580D01*
X194822Y318486D01*
X194789Y318391D01*
X194761Y318295D01*
X194736Y318197D01*
X194715Y318099D01*
X194698Y318000D01*
X194684Y317900D01*
X194675Y317800D01*
X194669Y317700D01*
X194667Y317599D01*
X194668Y317599D02*
X194668Y309725D01*
X185062Y309725D02*
X180688Y309725D01*
X185062Y309725D02*
X185163Y309727D01*
X185263Y309733D01*
X185363Y309742D01*
X185463Y309756D01*
X185562Y309773D01*
X185660Y309794D01*
X185758Y309819D01*
X185854Y309847D01*
X185949Y309880D01*
X186043Y309915D01*
X186136Y309955D01*
X186227Y309998D01*
X186316Y310044D01*
X186403Y310094D01*
X186489Y310147D01*
X186572Y310203D01*
X186653Y310262D01*
X186732Y310325D01*
X186808Y310390D01*
X186882Y310459D01*
X186953Y310530D01*
X187022Y310604D01*
X187087Y310680D01*
X187150Y310759D01*
X187209Y310840D01*
X187265Y310923D01*
X187318Y311009D01*
X187368Y311096D01*
X187414Y311185D01*
X187457Y311276D01*
X187497Y311369D01*
X187533Y311463D01*
X187565Y311558D01*
X187593Y311654D01*
X187618Y311752D01*
X187639Y311850D01*
X187656Y311949D01*
X187670Y312049D01*
X187679Y312149D01*
X187685Y312249D01*
X187687Y312350D01*
X187687Y317599D01*
X187685Y317700D01*
X187679Y317800D01*
X187670Y317900D01*
X187656Y318000D01*
X187639Y318099D01*
X187618Y318197D01*
X187593Y318295D01*
X187565Y318391D01*
X187532Y318486D01*
X187497Y318580D01*
X187457Y318673D01*
X187414Y318764D01*
X187368Y318853D01*
X187318Y318940D01*
X187265Y319026D01*
X187209Y319109D01*
X187150Y319190D01*
X187087Y319269D01*
X187022Y319345D01*
X186953Y319419D01*
X186882Y319490D01*
X186808Y319559D01*
X186732Y319624D01*
X186653Y319687D01*
X186572Y319746D01*
X186489Y319802D01*
X186403Y319855D01*
X186316Y319905D01*
X186227Y319951D01*
X186136Y319994D01*
X186043Y320034D01*
X185949Y320069D01*
X185854Y320102D01*
X185758Y320130D01*
X185660Y320155D01*
X185562Y320176D01*
X185463Y320193D01*
X185363Y320207D01*
X185263Y320216D01*
X185163Y320222D01*
X185062Y320224D01*
X180688Y320224D01*
X180688Y307100D01*
X180687Y307100D02*
X180689Y306999D01*
X180695Y306899D01*
X180704Y306799D01*
X180718Y306699D01*
X180735Y306600D01*
X180756Y306502D01*
X180781Y306404D01*
X180809Y306308D01*
X180842Y306213D01*
X180877Y306119D01*
X180917Y306026D01*
X180960Y305935D01*
X181006Y305846D01*
X181056Y305759D01*
X181109Y305673D01*
X181165Y305590D01*
X181224Y305509D01*
X181287Y305430D01*
X181352Y305354D01*
X181421Y305280D01*
X181492Y305209D01*
X181566Y305140D01*
X181642Y305075D01*
X181721Y305012D01*
X181802Y304953D01*
X181885Y304897D01*
X181971Y304844D01*
X182058Y304794D01*
X182147Y304748D01*
X182238Y304705D01*
X182331Y304665D01*
X182425Y304630D01*
X182520Y304597D01*
X182616Y304569D01*
X182714Y304544D01*
X182812Y304523D01*
X182911Y304506D01*
X183011Y304492D01*
X183111Y304483D01*
X183211Y304477D01*
X183312Y304475D01*
X183312Y304476D02*
X186812Y304476D01*
X164506Y309725D02*
X164506Y325473D01*
X160131Y325473D01*
X160001Y325471D01*
X159872Y325465D01*
X159743Y325456D01*
X159614Y325442D01*
X159485Y325425D01*
X159357Y325404D01*
X159230Y325379D01*
X159104Y325351D01*
X158978Y325318D01*
X158854Y325282D01*
X158730Y325243D01*
X158608Y325199D01*
X158487Y325152D01*
X158368Y325102D01*
X158250Y325048D01*
X158134Y324990D01*
X158019Y324929D01*
X157907Y324865D01*
X157796Y324798D01*
X157687Y324727D01*
X157581Y324653D01*
X157477Y324576D01*
X157375Y324496D01*
X157276Y324412D01*
X157179Y324326D01*
X157084Y324237D01*
X156993Y324146D01*
X156904Y324051D01*
X156818Y323954D01*
X156734Y323855D01*
X156654Y323753D01*
X156577Y323649D01*
X156503Y323543D01*
X156432Y323434D01*
X156365Y323323D01*
X156301Y323211D01*
X156240Y323096D01*
X156182Y322980D01*
X156128Y322862D01*
X156078Y322743D01*
X156031Y322622D01*
X155987Y322500D01*
X155948Y322376D01*
X155912Y322252D01*
X155879Y322126D01*
X155851Y322000D01*
X155826Y321873D01*
X155805Y321745D01*
X155788Y321616D01*
X155774Y321487D01*
X155765Y321358D01*
X155759Y321229D01*
X155757Y321099D01*
X155757Y314100D01*
X155759Y313970D01*
X155765Y313841D01*
X155774Y313712D01*
X155788Y313583D01*
X155805Y313454D01*
X155826Y313326D01*
X155851Y313199D01*
X155879Y313073D01*
X155912Y312947D01*
X155948Y312823D01*
X155987Y312699D01*
X156031Y312577D01*
X156078Y312456D01*
X156128Y312337D01*
X156182Y312219D01*
X156240Y312103D01*
X156301Y311988D01*
X156365Y311876D01*
X156432Y311765D01*
X156503Y311656D01*
X156577Y311550D01*
X156654Y311446D01*
X156734Y311344D01*
X156818Y311245D01*
X156904Y311148D01*
X156993Y311053D01*
X157084Y310962D01*
X157179Y310873D01*
X157276Y310787D01*
X157375Y310703D01*
X157477Y310623D01*
X157581Y310546D01*
X157687Y310472D01*
X157796Y310401D01*
X157907Y310334D01*
X158019Y310270D01*
X158134Y310209D01*
X158250Y310151D01*
X158368Y310097D01*
X158487Y310047D01*
X158608Y310000D01*
X158730Y309956D01*
X158854Y309917D01*
X158978Y309881D01*
X159104Y309848D01*
X159230Y309820D01*
X159357Y309795D01*
X159485Y309774D01*
X159614Y309757D01*
X159743Y309743D01*
X159872Y309734D01*
X160001Y309728D01*
X160131Y309726D01*
X160131Y309725D02*
X164506Y309725D01*
X145896Y309725D02*
X141521Y309725D01*
X145896Y309725D02*
X145997Y309727D01*
X146097Y309733D01*
X146197Y309742D01*
X146297Y309756D01*
X146396Y309773D01*
X146494Y309794D01*
X146592Y309819D01*
X146688Y309847D01*
X146783Y309880D01*
X146877Y309915D01*
X146970Y309955D01*
X147061Y309998D01*
X147150Y310044D01*
X147237Y310094D01*
X147323Y310147D01*
X147406Y310203D01*
X147487Y310262D01*
X147566Y310325D01*
X147642Y310390D01*
X147716Y310459D01*
X147787Y310530D01*
X147856Y310604D01*
X147921Y310680D01*
X147984Y310759D01*
X148043Y310840D01*
X148099Y310923D01*
X148152Y311009D01*
X148202Y311096D01*
X148248Y311185D01*
X148291Y311276D01*
X148331Y311369D01*
X148367Y311463D01*
X148399Y311558D01*
X148427Y311654D01*
X148452Y311752D01*
X148473Y311850D01*
X148490Y311949D01*
X148504Y312049D01*
X148513Y312149D01*
X148519Y312249D01*
X148521Y312350D01*
X148521Y316724D01*
X148519Y316842D01*
X148513Y316960D01*
X148503Y317078D01*
X148489Y317195D01*
X148471Y317312D01*
X148449Y317429D01*
X148424Y317544D01*
X148394Y317658D01*
X148360Y317772D01*
X148323Y317884D01*
X148282Y317995D01*
X148237Y318104D01*
X148189Y318212D01*
X148137Y318318D01*
X148081Y318423D01*
X148022Y318525D01*
X147960Y318625D01*
X147894Y318723D01*
X147825Y318819D01*
X147752Y318913D01*
X147677Y319004D01*
X147598Y319092D01*
X147517Y319178D01*
X147432Y319261D01*
X147345Y319341D01*
X147256Y319418D01*
X147163Y319492D01*
X147069Y319562D01*
X146972Y319630D01*
X146872Y319694D01*
X146771Y319755D01*
X146668Y319812D01*
X146562Y319866D01*
X146455Y319917D01*
X146347Y319963D01*
X146237Y320006D01*
X146125Y320045D01*
X146012Y320081D01*
X145898Y320112D01*
X145783Y320140D01*
X145668Y320164D01*
X145551Y320184D01*
X145434Y320200D01*
X145316Y320212D01*
X145198Y320220D01*
X145080Y320224D01*
X144962Y320224D01*
X144844Y320220D01*
X144726Y320212D01*
X144608Y320200D01*
X144491Y320184D01*
X144374Y320164D01*
X144259Y320140D01*
X144144Y320112D01*
X144030Y320081D01*
X143917Y320045D01*
X143805Y320006D01*
X143695Y319963D01*
X143587Y319917D01*
X143480Y319866D01*
X143374Y319812D01*
X143271Y319755D01*
X143170Y319694D01*
X143070Y319630D01*
X142973Y319562D01*
X142879Y319492D01*
X142786Y319418D01*
X142697Y319341D01*
X142610Y319261D01*
X142525Y319178D01*
X142444Y319092D01*
X142365Y319004D01*
X142290Y318913D01*
X142217Y318819D01*
X142148Y318723D01*
X142082Y318625D01*
X142020Y318525D01*
X141961Y318423D01*
X141905Y318318D01*
X141853Y318212D01*
X141805Y318104D01*
X141760Y317995D01*
X141719Y317884D01*
X141682Y317772D01*
X141648Y317658D01*
X141618Y317544D01*
X141593Y317429D01*
X141571Y317312D01*
X141553Y317195D01*
X141539Y317078D01*
X141529Y316960D01*
X141523Y316842D01*
X141521Y316724D01*
X141521Y314974D01*
X148521Y314974D01*
X134364Y320224D02*
X134364Y304476D01*
X134364Y320224D02*
X129990Y320224D01*
X129889Y320222D01*
X129789Y320216D01*
X129689Y320207D01*
X129589Y320193D01*
X129490Y320176D01*
X129392Y320155D01*
X129294Y320130D01*
X129198Y320102D01*
X129103Y320069D01*
X129009Y320034D01*
X128916Y319994D01*
X128825Y319951D01*
X128736Y319905D01*
X128649Y319855D01*
X128563Y319802D01*
X128480Y319746D01*
X128399Y319687D01*
X128320Y319624D01*
X128244Y319559D01*
X128170Y319490D01*
X128099Y319419D01*
X128030Y319345D01*
X127965Y319269D01*
X127902Y319190D01*
X127843Y319109D01*
X127787Y319026D01*
X127734Y318940D01*
X127684Y318853D01*
X127638Y318764D01*
X127595Y318673D01*
X127555Y318580D01*
X127520Y318486D01*
X127487Y318391D01*
X127459Y318295D01*
X127434Y318197D01*
X127413Y318099D01*
X127396Y318000D01*
X127382Y317900D01*
X127373Y317800D01*
X127367Y317700D01*
X127365Y317599D01*
X127365Y312350D01*
X127367Y312249D01*
X127373Y312149D01*
X127382Y312049D01*
X127396Y311949D01*
X127413Y311850D01*
X127434Y311752D01*
X127459Y311654D01*
X127487Y311558D01*
X127520Y311463D01*
X127555Y311369D01*
X127595Y311276D01*
X127638Y311185D01*
X127684Y311096D01*
X127734Y311009D01*
X127787Y310923D01*
X127843Y310840D01*
X127902Y310759D01*
X127965Y310680D01*
X128030Y310604D01*
X128099Y310530D01*
X128170Y310459D01*
X128244Y310390D01*
X128320Y310325D01*
X128399Y310262D01*
X128480Y310203D01*
X128563Y310147D01*
X128649Y310094D01*
X128736Y310044D01*
X128825Y309998D01*
X128916Y309955D01*
X129009Y309915D01*
X129103Y309880D01*
X129198Y309847D01*
X129294Y309819D01*
X129392Y309794D01*
X129490Y309773D01*
X129589Y309756D01*
X129689Y309742D01*
X129789Y309733D01*
X129889Y309727D01*
X129990Y309725D01*
X134364Y309725D01*
X117931Y315849D02*
X113994Y315849D01*
X117931Y315849D02*
X118040Y315847D01*
X118149Y315841D01*
X118258Y315831D01*
X118367Y315818D01*
X118475Y315800D01*
X118582Y315779D01*
X118688Y315754D01*
X118794Y315725D01*
X118898Y315692D01*
X119001Y315656D01*
X119103Y315616D01*
X119203Y315572D01*
X119302Y315525D01*
X119398Y315474D01*
X119493Y315420D01*
X119586Y315363D01*
X119677Y315302D01*
X119766Y315238D01*
X119852Y315171D01*
X119936Y315101D01*
X120018Y315028D01*
X120096Y314952D01*
X120172Y314874D01*
X120245Y314792D01*
X120315Y314708D01*
X120382Y314622D01*
X120446Y314533D01*
X120507Y314442D01*
X120564Y314349D01*
X120618Y314254D01*
X120669Y314158D01*
X120716Y314059D01*
X120760Y313959D01*
X120800Y313857D01*
X120836Y313754D01*
X120869Y313650D01*
X120898Y313544D01*
X120923Y313438D01*
X120944Y313331D01*
X120962Y313223D01*
X120975Y313114D01*
X120985Y313005D01*
X120991Y312896D01*
X120993Y312787D01*
X120991Y312678D01*
X120985Y312569D01*
X120975Y312460D01*
X120962Y312351D01*
X120944Y312243D01*
X120923Y312136D01*
X120898Y312030D01*
X120869Y311924D01*
X120836Y311820D01*
X120800Y311717D01*
X120760Y311615D01*
X120716Y311515D01*
X120669Y311416D01*
X120618Y311320D01*
X120564Y311225D01*
X120507Y311132D01*
X120446Y311041D01*
X120382Y310952D01*
X120315Y310866D01*
X120245Y310782D01*
X120172Y310700D01*
X120096Y310622D01*
X120018Y310546D01*
X119936Y310473D01*
X119852Y310403D01*
X119766Y310336D01*
X119677Y310272D01*
X119586Y310211D01*
X119493Y310154D01*
X119398Y310100D01*
X119302Y310049D01*
X119203Y310002D01*
X119103Y309958D01*
X119001Y309918D01*
X118898Y309882D01*
X118794Y309849D01*
X118688Y309820D01*
X118582Y309795D01*
X118475Y309774D01*
X118367Y309756D01*
X118258Y309743D01*
X118149Y309733D01*
X118040Y309727D01*
X117931Y309725D01*
X113994Y309725D01*
X113994Y317599D01*
X113996Y317700D01*
X114002Y317800D01*
X114011Y317900D01*
X114025Y318000D01*
X114042Y318099D01*
X114063Y318197D01*
X114088Y318295D01*
X114116Y318391D01*
X114149Y318486D01*
X114184Y318580D01*
X114224Y318673D01*
X114267Y318764D01*
X114313Y318853D01*
X114363Y318940D01*
X114416Y319026D01*
X114472Y319109D01*
X114531Y319190D01*
X114594Y319269D01*
X114659Y319345D01*
X114728Y319419D01*
X114799Y319490D01*
X114873Y319559D01*
X114949Y319624D01*
X115028Y319687D01*
X115109Y319746D01*
X115192Y319802D01*
X115278Y319855D01*
X115365Y319905D01*
X115454Y319951D01*
X115545Y319994D01*
X115638Y320034D01*
X115732Y320070D01*
X115827Y320102D01*
X115923Y320130D01*
X116021Y320155D01*
X116119Y320176D01*
X116218Y320193D01*
X116318Y320207D01*
X116418Y320216D01*
X116518Y320222D01*
X116619Y320224D01*
X120119Y320224D01*
X106214Y320224D02*
X106214Y309725D01*
X106214Y320224D02*
X100965Y320224D01*
X100965Y318474D01*
X97245Y320224D02*
X91995Y320224D01*
X95495Y325473D02*
X95495Y312350D01*
X95493Y312249D01*
X95487Y312149D01*
X95478Y312049D01*
X95464Y311949D01*
X95447Y311850D01*
X95426Y311752D01*
X95401Y311654D01*
X95373Y311558D01*
X95340Y311463D01*
X95305Y311369D01*
X95265Y311276D01*
X95222Y311185D01*
X95176Y311096D01*
X95126Y311009D01*
X95073Y310923D01*
X95017Y310840D01*
X94958Y310759D01*
X94895Y310680D01*
X94830Y310604D01*
X94761Y310530D01*
X94690Y310459D01*
X94616Y310390D01*
X94540Y310325D01*
X94461Y310262D01*
X94380Y310203D01*
X94297Y310147D01*
X94211Y310094D01*
X94124Y310044D01*
X94035Y309998D01*
X93944Y309955D01*
X93851Y309915D01*
X93757Y309879D01*
X93662Y309847D01*
X93566Y309819D01*
X93468Y309794D01*
X93370Y309773D01*
X93271Y309756D01*
X93171Y309742D01*
X93071Y309733D01*
X92971Y309727D01*
X92870Y309725D01*
X91995Y309725D01*
X85140Y309725D02*
X85140Y320224D01*
X77266Y320224D01*
X77165Y320222D01*
X77065Y320216D01*
X76965Y320207D01*
X76865Y320193D01*
X76766Y320176D01*
X76668Y320155D01*
X76570Y320130D01*
X76474Y320102D01*
X76379Y320069D01*
X76285Y320034D01*
X76192Y319994D01*
X76101Y319951D01*
X76012Y319905D01*
X75925Y319855D01*
X75839Y319802D01*
X75756Y319746D01*
X75675Y319687D01*
X75596Y319624D01*
X75520Y319559D01*
X75446Y319490D01*
X75375Y319419D01*
X75306Y319345D01*
X75241Y319269D01*
X75178Y319190D01*
X75119Y319109D01*
X75063Y319026D01*
X75010Y318940D01*
X74960Y318853D01*
X74914Y318764D01*
X74871Y318673D01*
X74831Y318580D01*
X74796Y318486D01*
X74763Y318391D01*
X74735Y318295D01*
X74710Y318197D01*
X74689Y318099D01*
X74672Y318000D01*
X74658Y317900D01*
X74649Y317800D01*
X74643Y317700D01*
X74641Y317599D01*
X74642Y317599D02*
X74642Y309725D01*
X79891Y309725D02*
X79891Y320224D01*
X64614Y309725D02*
X60239Y309725D01*
X64614Y309725D02*
X64715Y309727D01*
X64815Y309733D01*
X64915Y309742D01*
X65015Y309756D01*
X65114Y309773D01*
X65212Y309794D01*
X65310Y309819D01*
X65406Y309847D01*
X65501Y309880D01*
X65595Y309915D01*
X65688Y309955D01*
X65779Y309998D01*
X65868Y310044D01*
X65955Y310094D01*
X66041Y310147D01*
X66124Y310203D01*
X66205Y310262D01*
X66284Y310325D01*
X66360Y310390D01*
X66434Y310459D01*
X66505Y310530D01*
X66574Y310604D01*
X66639Y310680D01*
X66702Y310759D01*
X66761Y310840D01*
X66817Y310923D01*
X66870Y311009D01*
X66920Y311096D01*
X66966Y311185D01*
X67009Y311276D01*
X67049Y311369D01*
X67085Y311463D01*
X67117Y311558D01*
X67145Y311654D01*
X67170Y311752D01*
X67191Y311850D01*
X67208Y311949D01*
X67222Y312049D01*
X67231Y312149D01*
X67237Y312249D01*
X67239Y312350D01*
X67238Y312350D02*
X67238Y316724D01*
X67239Y316724D02*
X67237Y316842D01*
X67231Y316960D01*
X67221Y317078D01*
X67207Y317195D01*
X67189Y317312D01*
X67167Y317429D01*
X67142Y317544D01*
X67112Y317658D01*
X67078Y317772D01*
X67041Y317884D01*
X67000Y317995D01*
X66955Y318104D01*
X66907Y318212D01*
X66855Y318318D01*
X66799Y318423D01*
X66740Y318525D01*
X66678Y318625D01*
X66612Y318723D01*
X66543Y318819D01*
X66470Y318913D01*
X66395Y319004D01*
X66316Y319092D01*
X66235Y319178D01*
X66150Y319261D01*
X66063Y319341D01*
X65974Y319418D01*
X65881Y319492D01*
X65787Y319562D01*
X65690Y319630D01*
X65590Y319694D01*
X65489Y319755D01*
X65386Y319812D01*
X65280Y319866D01*
X65173Y319917D01*
X65065Y319963D01*
X64955Y320006D01*
X64843Y320045D01*
X64730Y320081D01*
X64616Y320112D01*
X64501Y320140D01*
X64386Y320164D01*
X64269Y320184D01*
X64152Y320200D01*
X64034Y320212D01*
X63916Y320220D01*
X63798Y320224D01*
X63680Y320224D01*
X63562Y320220D01*
X63444Y320212D01*
X63326Y320200D01*
X63209Y320184D01*
X63092Y320164D01*
X62977Y320140D01*
X62862Y320112D01*
X62748Y320081D01*
X62635Y320045D01*
X62523Y320006D01*
X62413Y319963D01*
X62305Y319917D01*
X62198Y319866D01*
X62092Y319812D01*
X61989Y319755D01*
X61888Y319694D01*
X61788Y319630D01*
X61691Y319562D01*
X61597Y319492D01*
X61504Y319418D01*
X61415Y319341D01*
X61328Y319261D01*
X61243Y319178D01*
X61162Y319092D01*
X61083Y319004D01*
X61008Y318913D01*
X60935Y318819D01*
X60866Y318723D01*
X60800Y318625D01*
X60738Y318525D01*
X60679Y318423D01*
X60623Y318318D01*
X60571Y318212D01*
X60523Y318104D01*
X60478Y317995D01*
X60437Y317884D01*
X60400Y317772D01*
X60366Y317658D01*
X60336Y317544D01*
X60311Y317429D01*
X60289Y317312D01*
X60271Y317195D01*
X60257Y317078D01*
X60247Y316960D01*
X60241Y316842D01*
X60239Y316724D01*
X60239Y314974D01*
X67238Y314974D01*
X53170Y309725D02*
X53170Y320224D01*
X48796Y320224D01*
X48695Y320222D01*
X48595Y320216D01*
X48495Y320207D01*
X48395Y320193D01*
X48296Y320176D01*
X48198Y320155D01*
X48100Y320130D01*
X48004Y320102D01*
X47909Y320069D01*
X47815Y320034D01*
X47722Y319994D01*
X47631Y319951D01*
X47542Y319905D01*
X47455Y319855D01*
X47369Y319802D01*
X47286Y319746D01*
X47205Y319687D01*
X47126Y319624D01*
X47050Y319559D01*
X46976Y319490D01*
X46905Y319419D01*
X46836Y319345D01*
X46771Y319269D01*
X46708Y319190D01*
X46649Y319109D01*
X46593Y319026D01*
X46540Y318940D01*
X46490Y318853D01*
X46444Y318764D01*
X46401Y318673D01*
X46361Y318580D01*
X46326Y318486D01*
X46293Y318391D01*
X46265Y318295D01*
X46240Y318197D01*
X46219Y318099D01*
X46202Y318000D01*
X46188Y317900D01*
X46179Y317800D01*
X46173Y317700D01*
X46171Y317599D01*
X46171Y309725D01*
X40451Y320224D02*
X35202Y320224D01*
X38701Y325473D02*
X38701Y312350D01*
X38702Y312350D02*
X38700Y312249D01*
X38694Y312149D01*
X38685Y312049D01*
X38671Y311949D01*
X38654Y311850D01*
X38633Y311752D01*
X38608Y311654D01*
X38580Y311558D01*
X38547Y311463D01*
X38512Y311369D01*
X38472Y311276D01*
X38429Y311185D01*
X38383Y311096D01*
X38333Y311009D01*
X38280Y310923D01*
X38224Y310840D01*
X38165Y310759D01*
X38102Y310680D01*
X38037Y310604D01*
X37968Y310530D01*
X37897Y310459D01*
X37823Y310390D01*
X37747Y310325D01*
X37668Y310262D01*
X37587Y310203D01*
X37504Y310147D01*
X37418Y310094D01*
X37331Y310044D01*
X37242Y309998D01*
X37151Y309955D01*
X37058Y309915D01*
X36964Y309879D01*
X36869Y309847D01*
X36773Y309819D01*
X36675Y309794D01*
X36577Y309773D01*
X36478Y309756D01*
X36378Y309742D01*
X36278Y309733D01*
X36178Y309727D01*
X36077Y309725D01*
X35202Y309725D01*
D11*
X37300Y206190D03*
X62700Y206190D03*
X62700Y231590D03*
X37300Y231590D03*
X37300Y180790D03*
X62700Y180790D03*
D12*
X228600Y167640D03*
X228600Y15240D03*
X375920Y15240D03*
X375920Y167640D03*
D13*
X92260Y180790D02*
X62700Y180790D01*
X92260Y180790D02*
X92710Y180340D01*
D14*
X92710Y180340D03*
D12*
X314960Y284480D03*
D13*
X314960Y267829D01*
X49550Y193040D02*
X37300Y180790D01*
X240171Y193040D02*
X314960Y267829D01*
X240171Y193040D02*
X49550Y193040D01*
X37300Y180790D02*
X27849Y171339D01*
X27849Y114209D01*
D14*
X15240Y101600D03*
D13*
X27849Y114209D01*
D12*
X284480Y284480D03*
D13*
X284480Y243840D01*
X246830Y206190D02*
X62700Y206190D01*
X246830Y206190D02*
X284480Y243840D01*
X49550Y218440D02*
X37300Y206190D01*
X49550Y218440D02*
X218440Y218440D01*
X37300Y206190D02*
X23259Y192149D01*
X23259Y122319D01*
D14*
X274320Y274320D03*
D13*
X218440Y218440D01*
D14*
X15240Y114808D03*
D13*
X15748Y114808D01*
X23259Y122319D01*
X23310Y231590D02*
X37300Y231590D01*
X10160Y218440D02*
X10160Y133350D01*
X15240Y128270D01*
D14*
X15240Y128270D03*
D13*
X10160Y218440D02*
X23310Y231590D01*
M02*
