G04 EAGLE Gerber RS-274X export*
G75*
%MOMM*%
%FSLAX34Y34*%
%LPD*%
%IN*%
%IPPOS*%
%AMOC8*
5,1,8,0,0,1.08239X$1,22.5*%
G01*
%ADD10C,0.254000*%


D10*
X0Y0D02*
X600000Y0D01*
X600000Y640000D01*
X598858Y666147D01*
X595442Y692094D01*
X589778Y717646D01*
X581908Y742606D01*
X571892Y766785D01*
X559808Y790000D01*
X545746Y812073D01*
X529813Y832836D01*
X512132Y852132D01*
X492836Y869813D01*
X472073Y885746D01*
X450000Y899808D01*
X426785Y911892D01*
X402606Y921908D01*
X377646Y929778D01*
X352094Y935442D01*
X326147Y938858D01*
X300000Y940000D01*
X273853Y938858D01*
X247906Y935442D01*
X222354Y929778D01*
X197394Y921908D01*
X173215Y911892D01*
X150000Y899808D01*
X127927Y885746D01*
X107164Y869813D01*
X87868Y852132D01*
X70187Y832836D01*
X54254Y812073D01*
X40192Y790000D01*
X28108Y766785D01*
X18092Y742606D01*
X10222Y717646D01*
X4558Y692094D01*
X1142Y666147D01*
X0Y640000D01*
X0Y0D01*
X49722Y135197D02*
X49169Y135259D01*
X48627Y135383D01*
X48102Y135567D01*
X47600Y135808D01*
X47129Y136104D01*
X46694Y136451D01*
X46301Y136844D01*
X45954Y137279D01*
X45658Y137750D01*
X45417Y138252D01*
X45233Y138777D01*
X45109Y139319D01*
X45047Y139872D01*
X45047Y140428D01*
X45109Y140981D01*
X45233Y141523D01*
X45417Y142048D01*
X45658Y142550D01*
X45954Y143021D01*
X46301Y143456D01*
X46694Y143849D01*
X47129Y144196D01*
X47600Y144492D01*
X48102Y144733D01*
X48627Y144917D01*
X49169Y145041D01*
X49722Y145103D01*
X50278Y145103D01*
X50831Y145041D01*
X51373Y144917D01*
X51898Y144733D01*
X52400Y144492D01*
X52871Y144196D01*
X53306Y143849D01*
X53699Y143456D01*
X54046Y143021D01*
X54342Y142550D01*
X54583Y142048D01*
X54767Y141523D01*
X54891Y140981D01*
X54953Y140428D01*
X54953Y139872D01*
X54891Y139319D01*
X54767Y138777D01*
X54583Y138252D01*
X54342Y137750D01*
X54046Y137279D01*
X53699Y136844D01*
X53306Y136451D01*
X52871Y136104D01*
X52400Y135808D01*
X51898Y135567D01*
X51373Y135383D01*
X50831Y135259D01*
X50278Y135197D01*
X49722Y135197D01*
X59882Y84397D02*
X59329Y84459D01*
X58787Y84583D01*
X58262Y84767D01*
X57760Y85008D01*
X57289Y85304D01*
X56854Y85651D01*
X56461Y86044D01*
X56114Y86479D01*
X55818Y86950D01*
X55577Y87452D01*
X55393Y87977D01*
X55269Y88519D01*
X55207Y89072D01*
X55207Y89628D01*
X55269Y90181D01*
X55393Y90723D01*
X55577Y91248D01*
X55818Y91750D01*
X56114Y92221D01*
X56461Y92656D01*
X56854Y93049D01*
X57289Y93396D01*
X57760Y93692D01*
X58262Y93933D01*
X58787Y94117D01*
X59329Y94241D01*
X59882Y94303D01*
X60438Y94303D01*
X60991Y94241D01*
X61533Y94117D01*
X62058Y93933D01*
X62560Y93692D01*
X63031Y93396D01*
X63466Y93049D01*
X63859Y92656D01*
X64206Y92221D01*
X64502Y91750D01*
X64743Y91248D01*
X64927Y90723D01*
X65051Y90181D01*
X65113Y89628D01*
X65113Y89072D01*
X65051Y88519D01*
X64927Y87977D01*
X64743Y87452D01*
X64502Y86950D01*
X64206Y86479D01*
X63859Y86044D01*
X63466Y85651D01*
X63031Y85304D01*
X62560Y85008D01*
X62058Y84767D01*
X61533Y84583D01*
X60991Y84459D01*
X60438Y84397D01*
X59882Y84397D01*
X39562Y84397D02*
X39009Y84459D01*
X38467Y84583D01*
X37942Y84767D01*
X37440Y85008D01*
X36969Y85304D01*
X36534Y85651D01*
X36141Y86044D01*
X35794Y86479D01*
X35498Y86950D01*
X35257Y87452D01*
X35073Y87977D01*
X34949Y88519D01*
X34887Y89072D01*
X34887Y89628D01*
X34949Y90181D01*
X35073Y90723D01*
X35257Y91248D01*
X35498Y91750D01*
X35794Y92221D01*
X36141Y92656D01*
X36534Y93049D01*
X36969Y93396D01*
X37440Y93692D01*
X37942Y93933D01*
X38467Y94117D01*
X39009Y94241D01*
X39562Y94303D01*
X40118Y94303D01*
X40671Y94241D01*
X41213Y94117D01*
X41738Y93933D01*
X42240Y93692D01*
X42711Y93396D01*
X43146Y93049D01*
X43539Y92656D01*
X43886Y92221D01*
X44182Y91750D01*
X44423Y91248D01*
X44607Y90723D01*
X44731Y90181D01*
X44793Y89628D01*
X44793Y89072D01*
X44731Y88519D01*
X44607Y87977D01*
X44423Y87452D01*
X44182Y86950D01*
X43886Y86479D01*
X43539Y86044D01*
X43146Y85651D01*
X42711Y85304D01*
X42240Y85008D01*
X41738Y84767D01*
X41213Y84583D01*
X40671Y84459D01*
X40118Y84397D01*
X39562Y84397D01*
M02*
