M48
;GenerationSoftware,Autodesk,EAGLE,9.5.1*%
;CreationDate,2019-11-03T22:53:47Z*%
FMAT,2
ICI,OFF
METRIC,TZ,000.000
T4C0.381
T3C0.400
T2C0.900
T1C0.991
%
G90
M71
T1
X5000Y14015
X6016Y8935
X3984Y8935
T2
X3730Y20619
X6270Y20619
X6270Y23159
X3730Y23159
X3730Y18079
X6270Y18079
T3
X22860Y16764
X22860Y1524
X37592Y1524
X37592Y16764
X31496Y28448
X28448Y28448
T4
X9271Y18034
X1524Y10160
X27432Y27432
X1524Y11481
X1524Y12827
M30