0
SECTION
2
HEADER
9
$INSUNITS
70
4
9
$ACADVER
1
AC1014
9
$HANDSEED
5
FFFF
0
ENDSEC
0
SECTION
2
TABLES
0
TABLE
2
VPORT
5
8
100
AcDbSymbolTable
0
ENDTAB
0
TABLE
2
LTYPE
5
5
100
AcDbSymbolTable
0
LTYPE
5
14
100
AcDbSymbolTableRecord
100
AcDbLinetypeTableRecord
2
BYBLOCK
70
0
0
LTYPE
5
15
100
AcDbSymbolTableRecord
100
AcDbLinetypeTableRecord
2
BYLAYER
70
0
0
ENDTAB
0
TABLE
2
LAYER
5
2
100
AcDbSymbolTable
70
2
0
LAYER
5
50
100
AcDbSymbolTableRecord
100
AcDbLayerTableRecord
2
0
70
0
6
CONTINUOUS
0
ENDTAB
0
TABLE
2
STYLE
5
3
100
AcDbSymbolTable
70
1
0
STYLE
5
11
100
AcDbSymbolTableRecord
100
AcDbTextStyleTableRecord
2
STANDARD
70
0
0
ENDTAB
0
TABLE
2
VIEW
5
6
100
AcDbSymbolTable
70
0
0
ENDTAB
0
TABLE
2
UCS
5
7
100
AcDbSymbolTable
70
0
0
ENDTAB
0
TABLE
2
APPID
5
9
100
AcDbSymbolTable
70
2
0
APPID
5
12
100
AcDbSymbolTableRecord
100
AcDbRegAppTableRecord
2
ACAD
70
0
0
ENDTAB
0
TABLE
2
DIMSTYLE
5
A
100
AcDbSymbolTable
70
1
0
ENDTAB
0
TABLE
2
BLOCK_RECORD
5
1
100
AcDbSymbolTable
70
1
0
BLOCK_RECORD
5
1F
100
AcDbSymbolTableRecord
100
AcDbBlockTableRecord
2
*MODEL_SPACE
0
BLOCK_RECORD
5
1B
100
AcDbSymbolTableRecord
100
AcDbBlockTableRecord
2
*PAPER_SPACE
0
ENDTAB
0
ENDSEC
0
SECTION
2
BLOCKS
0
BLOCK
5
20
100
AcDbEntity
100
AcDbBlockBegin
2
*MODEL_SPACE
0
ENDBLK
5
21
100
AcDbEntity
100
AcDbBlockEnd
0
BLOCK
5
1C
100
AcDbEntity
100
AcDbBlockBegin
2
*PAPER_SPACE
0
ENDBLK
5
1D
100
AcDbEntity
100
AcDbBlockEnd
0
ENDSEC
0
SECTION
2
ENTITIES
0
CIRCLE
5
100
100
AcDbEntity
8
0
100
AcDbCircle
10
-3.5000000000000004
20
-3.4999999999999964
30
0
40
1.5
210
0
220
0
230
1
0
CIRCLE
5
101
100
AcDbEntity
8
0
100
AcDbCircle
10
-98.100000000000009
20
-3.5000000000000004
30
0
40
1.5000000000000036
210
0
220
0
230
1
0
CIRCLE
5
102
100
AcDbEntity
8
0
100
AcDbCircle
10
-98.100000000000009
20
-148.90000000000003
30
0
40
1.5000000000000036
210
0
220
0
230
1
0
CIRCLE
5
103
100
AcDbEntity
8
0
100
AcDbCircle
10
-3.5000000000000004
20
-148.90000000000003
30
0
40
1.5000000000000038
210
0
220
0
230
1
0
LWPOLYLINE
5
104
100
AcDbEntity
8
0
100
AcDbPolyline
90
4
70
1
43
0.0
10
0
20
-152.40000000000003
10
-101.59999999999999
20
-152.40000000000003
10
-101.59999999999999
20
0
10
0
20
0
0
LWPOLYLINE
5
105
100
AcDbEntity
8
0
100
AcDbPolyline
90
4
70
1
43
0.0
10
-33
20
-145.40000000000003
10
-7.0000000000000009
20
-145.40000000000003
10
-7.0000000000000018
20
-137.80000000000004
10
-33
20
-137.80000000000004
0
LWPOLYLINE
5
106
100
AcDbEntity
8
0
100
AcDbPolyline
90
4
70
1
43
0.0
10
-37
20
-137.80000000000004
10
-63.000000000000007
20
-137.80000000000004
10
-63.000000000000007
20
-145.40000000000003
10
-37
20
-145.40000000000003
0
LWPOLYLINE
5
107
100
AcDbEntity
8
0
100
AcDbPolyline
90
4
70
1
43
0.0
10
-67
20
-137.80000000000004
10
-93
20
-137.80000000000004
10
-93
20
-145.40000000000003
10
-67
20
-145.40000000000003
0
LWPOLYLINE
5
108
100
AcDbEntity
8
0
100
AcDbPolyline
90
4
70
1
43
0.0
10
-7.0000000000000018
20
-123.35555555555558
10
-33
20
-123.35555555555558
10
-33
20
-130.95555555555558
10
-7.0000000000000009
20
-130.95555555555558
0
LWPOLYLINE
5
109
100
AcDbEntity
8
0
100
AcDbPolyline
90
4
70
1
43
0.0
10
-37
20
-123.35555555555558
10
-63.000000000000007
20
-123.35555555555558
10
-63.000000000000007
20
-130.95555555555558
10
-37
20
-130.95555555555558
0
LWPOLYLINE
5
110
100
AcDbEntity
8
0
100
AcDbPolyline
90
4
70
1
43
0.0
10
-67
20
-123.35555555555558
10
-93
20
-123.35555555555558
10
-93
20
-130.95555555555558
10
-67
20
-130.95555555555558
0
LWPOLYLINE
5
111
100
AcDbEntity
8
0
100
AcDbPolyline
90
4
70
1
43
0.0
10
-7.0000000000000018
20
-108.91111111111114
10
-33
20
-108.91111111111114
10
-33
20
-116.51111111111113
10
-7.0000000000000009
20
-116.51111111111113
0
LWPOLYLINE
5
112
100
AcDbEntity
8
0
100
AcDbPolyline
90
4
70
1
43
0.0
10
-37
20
-108.91111111111114
10
-63.000000000000007
20
-108.91111111111114
10
-63.000000000000007
20
-116.51111111111113
10
-37
20
-116.51111111111113
0
LWPOLYLINE
5
113
100
AcDbEntity
8
0
100
AcDbPolyline
90
4
70
1
43
0.0
10
-67
20
-108.91111111111114
10
-93
20
-108.91111111111114
10
-93
20
-116.51111111111113
10
-67
20
-116.51111111111113
0
LWPOLYLINE
5
114
100
AcDbEntity
8
0
100
AcDbPolyline
90
4
70
1
43
0.0
10
-7.0000000000000018
20
-94.466666666666697
10
-33
20
-94.466666666666697
10
-33
20
-102.06666666666671
10
-7.0000000000000009
20
-102.06666666666671
0
LWPOLYLINE
5
115
100
AcDbEntity
8
0
100
AcDbPolyline
90
4
70
1
43
0.0
10
-37
20
-94.466666666666697
10
-63.000000000000007
20
-94.466666666666697
10
-63.000000000000007
20
-102.06666666666671
10
-37
20
-102.06666666666671
0
LWPOLYLINE
5
116
100
AcDbEntity
8
0
100
AcDbPolyline
90
4
70
1
43
0.0
10
-67
20
-94.466666666666697
10
-93
20
-94.466666666666697
10
-93
20
-102.06666666666671
10
-67
20
-102.06666666666671
0
LWPOLYLINE
5
117
100
AcDbEntity
8
0
100
AcDbPolyline
90
4
70
1
43
0.0
10
-7.0000000000000018
20
-80.022222222222268
10
-33
20
-80.022222222222268
10
-33
20
-87.622222222222234
10
-7.0000000000000009
20
-87.622222222222234
0
LWPOLYLINE
5
118
100
AcDbEntity
8
0
100
AcDbPolyline
90
4
70
1
43
0.0
10
-37
20
-80.022222222222268
10
-63.000000000000007
20
-80.022222222222268
10
-63.000000000000007
20
-87.622222222222234
10
-37
20
-87.622222222222234
0
LWPOLYLINE
5
119
100
AcDbEntity
8
0
100
AcDbPolyline
90
4
70
1
43
0.0
10
-67
20
-80.022222222222268
10
-93
20
-80.022222222222268
10
-93
20
-87.622222222222234
10
-67
20
-87.622222222222234
0
LWPOLYLINE
5
120
100
AcDbEntity
8
0
100
AcDbPolyline
90
4
70
1
43
0.0
10
-7.0000000000000018
20
-65.577777777777811
10
-33
20
-65.577777777777811
10
-33
20
-73.177777777777806
10
-7.0000000000000009
20
-73.177777777777806
0
LWPOLYLINE
5
121
100
AcDbEntity
8
0
100
AcDbPolyline
90
4
70
1
43
0.0
10
-37
20
-65.577777777777811
10
-63.000000000000007
20
-65.577777777777811
10
-63.000000000000007
20
-73.177777777777806
10
-37
20
-73.177777777777806
0
LWPOLYLINE
5
122
100
AcDbEntity
8
0
100
AcDbPolyline
90
4
70
1
43
0.0
10
-67
20
-65.577777777777811
10
-93
20
-65.577777777777811
10
-93
20
-73.177777777777806
10
-67
20
-73.177777777777806
0
LWPOLYLINE
5
123
100
AcDbEntity
8
0
100
AcDbPolyline
90
4
70
1
43
0.0
10
-7.0000000000000018
20
-51.133333333333368
10
-33
20
-51.133333333333368
10
-33
20
-58.733333333333363
10
-7.0000000000000009
20
-58.733333333333363
0
LWPOLYLINE
5
124
100
AcDbEntity
8
0
100
AcDbPolyline
90
4
70
1
43
0.0
10
-37
20
-51.133333333333368
10
-63.000000000000007
20
-51.133333333333368
10
-63.000000000000007
20
-58.733333333333363
10
-37
20
-58.733333333333363
0
LWPOLYLINE
5
125
100
AcDbEntity
8
0
100
AcDbPolyline
90
4
70
1
43
0.0
10
-67
20
-51.133333333333368
10
-93
20
-51.133333333333368
10
-93
20
-58.733333333333363
10
-67
20
-58.733333333333363
0
LWPOLYLINE
5
126
100
AcDbEntity
8
0
100
AcDbPolyline
90
4
70
1
43
0.0
10
-7.0000000000000018
20
-36.688888888888926
10
-33
20
-36.688888888888926
10
-33
20
-44.28888888888892
10
-7.0000000000000009
20
-44.28888888888892
0
LWPOLYLINE
5
127
100
AcDbEntity
8
0
100
AcDbPolyline
90
4
70
1
43
0.0
10
-37
20
-36.688888888888926
10
-63.000000000000007
20
-36.688888888888926
10
-63.000000000000007
20
-44.28888888888892
10
-37
20
-44.28888888888892
0
LWPOLYLINE
5
128
100
AcDbEntity
8
0
100
AcDbPolyline
90
4
70
1
43
0.0
10
-67
20
-36.688888888888926
10
-93
20
-36.688888888888926
10
-93
20
-44.28888888888892
10
-67
20
-44.28888888888892
0
LWPOLYLINE
5
129
100
AcDbEntity
8
0
100
AcDbPolyline
90
4
70
1
43
0.0
10
-7.0000000000000018
20
-22.244444444444476
10
-33
20
-22.244444444444476
10
-33
20
-29.844444444444473
10
-7.0000000000000009
20
-29.844444444444473
0
LWPOLYLINE
5
130
100
AcDbEntity
8
0
100
AcDbPolyline
90
4
70
1
43
0.0
10
-37
20
-22.244444444444476
10
-63.000000000000007
20
-22.244444444444476
10
-63.000000000000007
20
-29.844444444444473
10
-37
20
-29.844444444444473
0
LWPOLYLINE
5
131
100
AcDbEntity
8
0
100
AcDbPolyline
90
4
70
1
43
0.0
10
-67
20
-22.244444444444476
10
-93
20
-22.244444444444476
10
-93
20
-29.844444444444473
10
-67
20
-29.844444444444473
0
LWPOLYLINE
5
132
100
AcDbEntity
8
0
100
AcDbPolyline
90
4
70
1
43
0.0
10
-7.0000000000000018
20
-7.8000000000000291
10
-33
20
-7.8000000000000291
10
-33
20
-15.400000000000027
10
-7.0000000000000009
20
-15.400000000000027
0
LWPOLYLINE
5
133
100
AcDbEntity
8
0
100
AcDbPolyline
90
4
70
1
43
0.0
10
-37
20
-7.8000000000000291
10
-63.000000000000007
20
-7.8000000000000291
10
-63.000000000000007
20
-15.400000000000027
10
-37
20
-15.400000000000027
0
LWPOLYLINE
5
134
100
AcDbEntity
8
0
100
AcDbPolyline
90
4
70
1
43
0.0
10
-67
20
-7.8000000000000291
10
-93
20
-7.8000000000000291
10
-93
20
-15.400000000000027
10
-67
20
-15.400000000000027
0
ENDSEC
0
SECTION
2
OBJECTS
0
DICTIONARY
5
C
100
AcDbDictionary
3
ACAD_GROUP
350
D
3
ACAD_MLINESTYLE
350
17
0
DICTIONARY
5
D
100
AcDbDictionary
0
DICTIONARY
5
1A
330
C
100
AcDbDictionary
0
DICTIONARY
5
17
100
AcDbDictionary
0
ENDSEC
0
EOF
