0
SECTION
2
HEADER
9
$INSUNITS
70
4
9
$ACADVER
1
AC1014
9
$HANDSEED
5
FFFF
0
ENDSEC
0
SECTION
2
TABLES
0
TABLE
2
VPORT
5
8
100
AcDbSymbolTable
0
ENDTAB
0
TABLE
2
LTYPE
5
5
100
AcDbSymbolTable
0
LTYPE
5
14
100
AcDbSymbolTableRecord
100
AcDbLinetypeTableRecord
2
BYBLOCK
70
0
0
LTYPE
5
15
100
AcDbSymbolTableRecord
100
AcDbLinetypeTableRecord
2
BYLAYER
70
0
0
ENDTAB
0
TABLE
2
LAYER
5
2
100
AcDbSymbolTable
70
2
0
LAYER
5
50
100
AcDbSymbolTableRecord
100
AcDbLayerTableRecord
2
0
70
0
6
CONTINUOUS
0
ENDTAB
0
TABLE
2
STYLE
5
3
100
AcDbSymbolTable
70
1
0
STYLE
5
11
100
AcDbSymbolTableRecord
100
AcDbTextStyleTableRecord
2
STANDARD
70
0
0
ENDTAB
0
TABLE
2
VIEW
5
6
100
AcDbSymbolTable
70
0
0
ENDTAB
0
TABLE
2
UCS
5
7
100
AcDbSymbolTable
70
0
0
ENDTAB
0
TABLE
2
APPID
5
9
100
AcDbSymbolTable
70
2
0
APPID
5
12
100
AcDbSymbolTableRecord
100
AcDbRegAppTableRecord
2
ACAD
70
0
0
ENDTAB
0
TABLE
2
DIMSTYLE
5
A
100
AcDbSymbolTable
70
1
0
ENDTAB
0
TABLE
2
BLOCK_RECORD
5
1
100
AcDbSymbolTable
70
1
0
BLOCK_RECORD
5
1F
100
AcDbSymbolTableRecord
100
AcDbBlockTableRecord
2
*MODEL_SPACE
0
BLOCK_RECORD
5
1B
100
AcDbSymbolTableRecord
100
AcDbBlockTableRecord
2
*PAPER_SPACE
0
ENDTAB
0
ENDSEC
0
SECTION
2
BLOCKS
0
BLOCK
5
20
100
AcDbEntity
100
AcDbBlockBegin
2
*MODEL_SPACE
0
ENDBLK
5
21
100
AcDbEntity
100
AcDbBlockEnd
0
BLOCK
5
1C
100
AcDbEntity
100
AcDbBlockBegin
2
*PAPER_SPACE
0
ENDBLK
5
1D
100
AcDbEntity
100
AcDbBlockEnd
0
ENDSEC
0
SECTION
2
ENTITIES
0
CIRCLE
5
100
100
AcDbEntity
8
0
100
AcDbCircle
10
-2.500000037252903
20
-3.1000022426247575
30
0
40
1.5000000000000038
210
0
220
0
230
1
0
CIRCLE
5
101
100
AcDbEntity
8
0
100
AcDbCircle
10
-99.100000037252897
20
-150.50000224262479
30
0
40
1.5000000000000036
210
0
220
0
230
1
0
CIRCLE
5
102
100
AcDbEntity
8
0
100
AcDbCircle
10
-99.100000037252897
20
-3.1000022426247575
30
0
40
1.5000000000000036
210
0
220
0
230
1
0
CIRCLE
5
103
100
AcDbEntity
8
0
100
AcDbCircle
10
-2.500000037252903
20
-150.50000224262479
30
0
40
1.5000000000000038
210
0
220
0
230
1
0
LWPOLYLINE
5
104
100
AcDbEntity
8
0
100
AcDbPolyline
90
4
70
1
43
0.0
10
0
20
0
10
0
20
-152.40000000000003
10
-101.59999999999999
20
-152.40000000000003
10
-101.59999999999999
20
0
0
LWPOLYLINE
5
105
100
AcDbEntity
8
0
100
AcDbPolyline
90
4
70
1
43
0.0
10
-33.000000104308128
20
-148.00000220537186
10
-7.0000001043081284
20
-148.00000220537186
10
-7.0000001043081284
20
-137.47000220537186
10
-33.000000104308128
20
-137.47000220537186
0
LWPOLYLINE
5
106
100
AcDbEntity
8
0
100
AcDbPolyline
90
4
70
1
43
0.0
10
-64.500000104308143
20
-137.47000220537186
10
-64.500000104308143
20
-148.00000220537186
10
-38.500000104308135
20
-148.00000220537186
10
-38.500000104308135
20
-137.47000220537186
0
LWPOLYLINE
5
107
100
AcDbEntity
8
0
100
AcDbPolyline
90
4
70
1
43
0.0
10
-96.000000104308157
20
-137.47000220537186
10
-96.000000104308157
20
-148.00000220537186
10
-70.000000104308143
20
-148.00000220537186
10
-70.000000104308143
20
-137.47000220537186
0
LWPOLYLINE
5
108
100
AcDbEntity
8
0
100
AcDbPolyline
90
4
70
1
43
0.0
10
-33.000000104308128
20
-124.47000220537184
10
-33.000000104308128
20
-135.00000220537186
10
-7.0000001043081284
20
-135.00000220537186
10
-7.0000001043081284
20
-124.47000220537184
0
LWPOLYLINE
5
109
100
AcDbEntity
8
0
100
AcDbPolyline
90
4
70
1
43
0.0
10
-64.500000104308143
20
-124.47000220537184
10
-64.500000104308143
20
-135.00000220537186
10
-38.500000104308135
20
-135.00000220537186
10
-38.500000104308135
20
-124.47000220537184
0
LWPOLYLINE
5
110
100
AcDbEntity
8
0
100
AcDbPolyline
90
4
70
1
43
0.0
10
-96.000000104308157
20
-124.47000220537184
10
-96.000000104308157
20
-135.00000220537186
10
-70.000000104308143
20
-135.00000220537186
10
-70.000000104308143
20
-124.47000220537184
0
LWPOLYLINE
5
111
100
AcDbEntity
8
0
100
AcDbPolyline
90
4
70
1
43
0.0
10
-33.000000104308128
20
-111.47000220537186
10
-33.000000104308128
20
-122.00000220537186
10
-7.0000001043081284
20
-122.00000220537186
10
-7.0000001043081284
20
-111.47000220537186
0
LWPOLYLINE
5
112
100
AcDbEntity
8
0
100
AcDbPolyline
90
4
70
1
43
0.0
10
-64.500000104308143
20
-111.47000220537186
10
-64.500000104308143
20
-122.00000220537186
10
-38.500000104308135
20
-122.00000220537186
10
-38.500000104308135
20
-111.47000220537186
0
LWPOLYLINE
5
113
100
AcDbEntity
8
0
100
AcDbPolyline
90
4
70
1
43
0.0
10
-96.000000104308157
20
-111.47000220537186
10
-96.000000104308157
20
-122.00000220537186
10
-70.000000104308143
20
-122.00000220537186
10
-70.000000104308143
20
-111.47000220537186
0
LWPOLYLINE
5
114
100
AcDbEntity
8
0
100
AcDbPolyline
90
4
70
1
43
0.0
10
-33.000000104308128
20
-98.470002205371841
10
-33.000000104308128
20
-109.00000220537186
10
-7.0000001043081284
20
-109.00000220537186
10
-7.0000001043081284
20
-98.470002205371841
0
LWPOLYLINE
5
115
100
AcDbEntity
8
0
100
AcDbPolyline
90
4
70
1
43
0.0
10
-64.500000104308143
20
-98.470002205371841
10
-64.500000104308143
20
-109.00000220537186
10
-38.500000104308135
20
-109.00000220537186
10
-38.500000104308135
20
-98.470002205371841
0
LWPOLYLINE
5
116
100
AcDbEntity
8
0
100
AcDbPolyline
90
4
70
1
43
0.0
10
-96.000000104308157
20
-98.470002205371841
10
-96.000000104308157
20
-109.00000220537186
10
-70.000000104308143
20
-109.00000220537186
10
-70.000000104308143
20
-98.470002205371841
0
LWPOLYLINE
5
117
100
AcDbEntity
8
0
100
AcDbPolyline
90
4
70
1
43
0.0
10
-33.000000104308128
20
-85.470002205371856
10
-33.000000104308128
20
-96.000002205371857
10
-7.0000001043081284
20
-96.000002205371857
10
-7.0000001043081284
20
-85.470002205371856
0
LWPOLYLINE
5
118
100
AcDbEntity
8
0
100
AcDbPolyline
90
4
70
1
43
0.0
10
-64.500000104308143
20
-85.470002205371856
10
-64.500000104308143
20
-96.000002205371857
10
-38.500000104308135
20
-96.000002205371857
10
-38.500000104308135
20
-85.470002205371856
0
LWPOLYLINE
5
119
100
AcDbEntity
8
0
100
AcDbPolyline
90
4
70
1
43
0.0
10
-96.000000104308157
20
-85.470002205371856
10
-96.000000104308157
20
-96.000002205371857
10
-70.000000104308143
20
-96.000002205371857
10
-70.000000104308143
20
-85.470002205371856
0
LWPOLYLINE
5
120
100
AcDbEntity
8
0
100
AcDbPolyline
90
4
70
1
43
0.0
10
-33.000000104308128
20
-72.470002205371856
10
-33.000000104308128
20
-83.000002205371857
10
-7.0000001043081284
20
-83.000002205371857
10
-7.0000001043081284
20
-72.470002205371856
0
LWPOLYLINE
5
121
100
AcDbEntity
8
0
100
AcDbPolyline
90
4
70
1
43
0.0
10
-64.500000104308143
20
-72.470002205371856
10
-64.500000104308143
20
-83.000002205371857
10
-38.500000104308135
20
-83.000002205371857
10
-38.500000104308135
20
-72.470002205371856
0
LWPOLYLINE
5
122
100
AcDbEntity
8
0
100
AcDbPolyline
90
4
70
1
43
0.0
10
-96.000000104308157
20
-72.470002205371856
10
-96.000000104308157
20
-83.000002205371857
10
-70.000000104308143
20
-83.000002205371857
10
-70.000000104308143
20
-72.470002205371856
0
LWPOLYLINE
5
123
100
AcDbEntity
8
0
100
AcDbPolyline
90
4
70
1
43
0.0
10
-33.000000104308128
20
-59.470002205371841
10
-33.000000104308128
20
-70.000002205371857
10
-7.0000001043081284
20
-70.000002205371857
10
-7.0000001043081284
20
-59.470002205371841
0
LWPOLYLINE
5
124
100
AcDbEntity
8
0
100
AcDbPolyline
90
4
70
1
43
0.0
10
-64.500000104308143
20
-59.470002205371841
10
-64.500000104308143
20
-70.000002205371857
10
-38.500000104308135
20
-70.000002205371857
10
-38.500000104308135
20
-59.470002205371841
0
LWPOLYLINE
5
125
100
AcDbEntity
8
0
100
AcDbPolyline
90
4
70
1
43
0.0
10
-96.000000104308157
20
-59.470002205371841
10
-96.000000104308157
20
-70.000002205371857
10
-70.000000104308143
20
-70.000002205371857
10
-70.000000104308143
20
-59.470002205371841
0
LWPOLYLINE
5
126
100
AcDbEntity
8
0
100
AcDbPolyline
90
4
70
1
43
0.0
10
-33.000000104308128
20
-46.470002205371856
10
-33.000000104308128
20
-57.000002205371857
10
-7.0000001043081284
20
-57.000002205371857
10
-7.0000001043081284
20
-46.470002205371856
0
LWPOLYLINE
5
127
100
AcDbEntity
8
0
100
AcDbPolyline
90
4
70
1
43
0.0
10
-64.500000104308143
20
-46.470002205371856
10
-64.500000104308143
20
-57.000002205371857
10
-38.500000104308135
20
-57.000002205371857
10
-38.500000104308135
20
-46.470002205371856
0
LWPOLYLINE
5
128
100
AcDbEntity
8
0
100
AcDbPolyline
90
4
70
1
43
0.0
10
-96.000000104308157
20
-46.470002205371856
10
-96.000000104308157
20
-57.000002205371857
10
-70.000000104308143
20
-57.000002205371857
10
-70.000000104308143
20
-46.470002205371856
0
LWPOLYLINE
5
129
100
AcDbEntity
8
0
100
AcDbPolyline
90
4
70
1
43
0.0
10
-33.000000104308128
20
-33.470002205371841
10
-33.000000104308128
20
-44.000002205371857
10
-7.0000001043081284
20
-44.000002205371857
10
-7.0000001043081284
20
-33.470002205371841
0
LWPOLYLINE
5
130
100
AcDbEntity
8
0
100
AcDbPolyline
90
4
70
1
43
0.0
10
-64.500000104308143
20
-33.470002205371841
10
-64.500000104308143
20
-44.000002205371857
10
-38.500000104308135
20
-44.000002205371857
10
-38.500000104308135
20
-33.470002205371841
0
LWPOLYLINE
5
131
100
AcDbEntity
8
0
100
AcDbPolyline
90
4
70
1
43
0.0
10
-96.000000104308157
20
-33.470002205371841
10
-96.000000104308157
20
-44.000002205371857
10
-70.000000104308143
20
-44.000002205371857
10
-70.000000104308143
20
-33.470002205371841
0
LWPOLYLINE
5
132
100
AcDbEntity
8
0
100
AcDbPolyline
90
4
70
1
43
0.0
10
-33.000000104308128
20
-20.470002205371838
10
-33.000000104308128
20
-31.000002205371846
10
-7.0000001043081284
20
-31.000002205371846
10
-7.0000001043081284
20
-20.470002205371838
0
LWPOLYLINE
5
133
100
AcDbEntity
8
0
100
AcDbPolyline
90
4
70
1
43
0.0
10
-64.500000104308143
20
-20.470002205371838
10
-64.500000104308143
20
-31.000002205371846
10
-38.500000104308135
20
-31.000002205371846
10
-38.500000104308135
20
-20.470002205371838
0
LWPOLYLINE
5
134
100
AcDbEntity
8
0
100
AcDbPolyline
90
4
70
1
43
0.0
10
-96.000000104308157
20
-20.470002205371838
10
-96.000000104308157
20
-31.000002205371846
10
-70.000000104308143
20
-31.000002205371846
10
-70.000000104308143
20
-20.470002205371838
0
LWPOLYLINE
5
135
100
AcDbEntity
8
0
100
AcDbPolyline
90
4
70
1
43
0.0
10
-33.000000104308128
20
-7.4700022053718484
10
-33.000000104308128
20
-18.000002205371857
10
-7.0000001043081284
20
-18.000002205371857
10
-7.0000001043081284
20
-7.4700022053718484
0
LWPOLYLINE
5
136
100
AcDbEntity
8
0
100
AcDbPolyline
90
4
70
1
43
0.0
10
-64.500000104308143
20
-7.4700022053718484
10
-64.500000104308143
20
-18.000002205371857
10
-38.500000104308135
20
-18.000002205371857
10
-38.500000104308135
20
-7.4700022053718484
0
LWPOLYLINE
5
137
100
AcDbEntity
8
0
100
AcDbPolyline
90
4
70
1
43
0.0
10
-96.000000104308157
20
-7.4700022053718484
10
-96.000000104308157
20
-18.000002205371857
10
-70.000000104308143
20
-18.000002205371857
10
-70.000000104308143
20
-7.4700022053718484
0
ENDSEC
0
SECTION
2
OBJECTS
0
DICTIONARY
5
C
100
AcDbDictionary
3
ACAD_GROUP
350
D
3
ACAD_MLINESTYLE
350
17
0
DICTIONARY
5
D
100
AcDbDictionary
0
DICTIONARY
5
1A
330
C
100
AcDbDictionary
0
DICTIONARY
5
17
100
AcDbDictionary
0
ENDSEC
0
EOF
