G04 EAGLE Gerber RS-274X export*
G75*
%MOMM*%
%FSLAX34Y34*%
%LPD*%
%INBottom Copper*%
%IPPOS*%
%AMOC8*
5,1,8,0,0,1.08239X$1,22.5*%
G01*
%ADD10C,0.203200*%
%ADD11C,1.625600*%
%ADD12C,1.524000*%
%ADD13C,0.704800*%
%ADD14C,0.254000*%
%ADD15C,0.685800*%

G36*
X390020Y2544D02*
X390020Y2544D01*
X390039Y2542D01*
X390141Y2564D01*
X390243Y2580D01*
X390260Y2590D01*
X390280Y2594D01*
X390369Y2647D01*
X390460Y2696D01*
X390474Y2710D01*
X390491Y2720D01*
X390558Y2799D01*
X390630Y2874D01*
X390638Y2892D01*
X390651Y2907D01*
X390690Y3003D01*
X390733Y3097D01*
X390735Y3117D01*
X390743Y3135D01*
X390761Y3302D01*
X390761Y180000D01*
X390758Y180020D01*
X390760Y180039D01*
X390738Y180141D01*
X390722Y180243D01*
X390712Y180260D01*
X390708Y180280D01*
X390655Y180369D01*
X390606Y180460D01*
X390592Y180474D01*
X390582Y180491D01*
X390503Y180558D01*
X390428Y180630D01*
X390410Y180638D01*
X390395Y180651D01*
X390299Y180690D01*
X390205Y180733D01*
X390185Y180735D01*
X390167Y180743D01*
X390000Y180761D01*
X210000Y180761D01*
X209980Y180758D01*
X209961Y180760D01*
X209859Y180738D01*
X209757Y180722D01*
X209740Y180712D01*
X209720Y180708D01*
X209631Y180655D01*
X209540Y180606D01*
X209526Y180592D01*
X209509Y180582D01*
X209442Y180503D01*
X209371Y180428D01*
X209362Y180410D01*
X209349Y180395D01*
X209310Y180299D01*
X209267Y180205D01*
X209265Y180185D01*
X209257Y180167D01*
X209239Y180000D01*
X209239Y3302D01*
X209242Y3282D01*
X209240Y3263D01*
X209262Y3161D01*
X209279Y3059D01*
X209288Y3042D01*
X209292Y3022D01*
X209345Y2933D01*
X209394Y2842D01*
X209408Y2828D01*
X209418Y2811D01*
X209497Y2744D01*
X209572Y2672D01*
X209590Y2664D01*
X209605Y2651D01*
X209701Y2612D01*
X209795Y2569D01*
X209815Y2567D01*
X209833Y2559D01*
X210000Y2541D01*
X390000Y2541D01*
X390020Y2544D01*
G37*
%LPC*%
G36*
X229599Y168639D02*
X229599Y168639D01*
X229599Y173625D01*
X230369Y173472D01*
X231473Y173015D01*
X232466Y172351D01*
X233311Y171506D01*
X233975Y170513D01*
X234432Y169409D01*
X234585Y168639D01*
X229599Y168639D01*
G37*
%LPD*%
%LPC*%
G36*
X376919Y168639D02*
X376919Y168639D01*
X376919Y173625D01*
X377689Y173472D01*
X378793Y173015D01*
X379786Y172351D01*
X380631Y171506D01*
X381295Y170513D01*
X381752Y169409D01*
X381905Y168639D01*
X376919Y168639D01*
G37*
%LPD*%
%LPC*%
G36*
X229599Y16239D02*
X229599Y16239D01*
X229599Y21225D01*
X230369Y21072D01*
X231473Y20615D01*
X232466Y19951D01*
X233311Y19106D01*
X233975Y18113D01*
X234432Y17009D01*
X234585Y16239D01*
X229599Y16239D01*
G37*
%LPD*%
%LPC*%
G36*
X376919Y16239D02*
X376919Y16239D01*
X376919Y21225D01*
X377689Y21072D01*
X378793Y20615D01*
X379786Y19951D01*
X380631Y19106D01*
X381295Y18113D01*
X381752Y17009D01*
X381905Y16239D01*
X376919Y16239D01*
G37*
%LPD*%
%LPC*%
G36*
X222615Y168639D02*
X222615Y168639D01*
X222768Y169409D01*
X223225Y170513D01*
X223889Y171506D01*
X224734Y172351D01*
X225727Y173015D01*
X226831Y173472D01*
X227601Y173625D01*
X227601Y168639D01*
X222615Y168639D01*
G37*
%LPD*%
%LPC*%
G36*
X369935Y168639D02*
X369935Y168639D01*
X370088Y169409D01*
X370545Y170513D01*
X371209Y171506D01*
X372054Y172351D01*
X373047Y173015D01*
X374151Y173472D01*
X374921Y173625D01*
X374921Y168639D01*
X369935Y168639D01*
G37*
%LPD*%
%LPC*%
G36*
X376919Y166641D02*
X376919Y166641D01*
X381905Y166641D01*
X381752Y165871D01*
X381295Y164767D01*
X380631Y163774D01*
X379786Y162929D01*
X378793Y162265D01*
X377689Y161808D01*
X376919Y161655D01*
X376919Y166641D01*
G37*
%LPD*%
%LPC*%
G36*
X229599Y166641D02*
X229599Y166641D01*
X234585Y166641D01*
X234432Y165871D01*
X233975Y164767D01*
X233311Y163774D01*
X232466Y162929D01*
X231473Y162265D01*
X230369Y161808D01*
X229599Y161655D01*
X229599Y166641D01*
G37*
%LPD*%
%LPC*%
G36*
X222615Y16239D02*
X222615Y16239D01*
X222768Y17009D01*
X223225Y18113D01*
X223889Y19106D01*
X224734Y19951D01*
X225727Y20615D01*
X226831Y21072D01*
X227601Y21225D01*
X227601Y16239D01*
X222615Y16239D01*
G37*
%LPD*%
%LPC*%
G36*
X369935Y16239D02*
X369935Y16239D01*
X370088Y17009D01*
X370545Y18113D01*
X371209Y19106D01*
X372054Y19951D01*
X373047Y20615D01*
X374151Y21072D01*
X374921Y21225D01*
X374921Y16239D01*
X369935Y16239D01*
G37*
%LPD*%
%LPC*%
G36*
X376919Y14241D02*
X376919Y14241D01*
X381905Y14241D01*
X381752Y13471D01*
X381295Y12367D01*
X380631Y11374D01*
X379786Y10529D01*
X378793Y9865D01*
X377689Y9408D01*
X376919Y9255D01*
X376919Y14241D01*
G37*
%LPD*%
%LPC*%
G36*
X229599Y14241D02*
X229599Y14241D01*
X234585Y14241D01*
X234432Y13471D01*
X233975Y12367D01*
X233311Y11374D01*
X232466Y10529D01*
X231473Y9865D01*
X230369Y9408D01*
X229599Y9255D01*
X229599Y14241D01*
G37*
%LPD*%
%LPC*%
G36*
X374151Y161808D02*
X374151Y161808D01*
X373047Y162265D01*
X372054Y162929D01*
X371209Y163774D01*
X370545Y164767D01*
X370088Y165871D01*
X369935Y166641D01*
X374921Y166641D01*
X374921Y161655D01*
X374151Y161808D01*
G37*
%LPD*%
%LPC*%
G36*
X226831Y161808D02*
X226831Y161808D01*
X225727Y162265D01*
X224734Y162929D01*
X223889Y163774D01*
X223225Y164767D01*
X222768Y165871D01*
X222615Y166641D01*
X227601Y166641D01*
X227601Y161655D01*
X226831Y161808D01*
G37*
%LPD*%
%LPC*%
G36*
X374151Y9408D02*
X374151Y9408D01*
X373047Y9865D01*
X372054Y10529D01*
X371209Y11374D01*
X370545Y12367D01*
X370088Y13471D01*
X369935Y14241D01*
X374921Y14241D01*
X374921Y9255D01*
X374151Y9408D01*
G37*
%LPD*%
%LPC*%
G36*
X226831Y9408D02*
X226831Y9408D01*
X225727Y9865D01*
X224734Y10529D01*
X223889Y11374D01*
X223225Y12367D01*
X222768Y13471D01*
X222615Y14241D01*
X227601Y14241D01*
X227601Y9255D01*
X226831Y9408D01*
G37*
%LPD*%
D10*
X293558Y396085D02*
X293558Y384712D01*
X293556Y384581D01*
X293550Y384450D01*
X293540Y384320D01*
X293527Y384190D01*
X293509Y384060D01*
X293488Y383931D01*
X293462Y383803D01*
X293433Y383675D01*
X293400Y383548D01*
X293364Y383423D01*
X293323Y383298D01*
X293279Y383175D01*
X293231Y383053D01*
X293180Y382933D01*
X293125Y382814D01*
X293066Y382697D01*
X293004Y382582D01*
X292939Y382469D01*
X292870Y382357D01*
X292798Y382248D01*
X292723Y382141D01*
X292644Y382036D01*
X292563Y381934D01*
X292478Y381834D01*
X292390Y381737D01*
X292300Y381642D01*
X292207Y381550D01*
X292111Y381461D01*
X292012Y381375D01*
X291911Y381292D01*
X291808Y381212D01*
X291702Y381135D01*
X291594Y381062D01*
X291483Y380991D01*
X291371Y380924D01*
X291257Y380860D01*
X291141Y380800D01*
X291023Y380743D01*
X290903Y380690D01*
X290782Y380640D01*
X290659Y380594D01*
X290536Y380552D01*
X290411Y380514D01*
X290284Y380479D01*
X290157Y380448D01*
X290029Y380420D01*
X289901Y380397D01*
X289771Y380378D01*
X289641Y380362D01*
X289511Y380350D01*
X289380Y380342D01*
X289249Y380338D01*
X289119Y380338D01*
X288988Y380342D01*
X288857Y380350D01*
X288727Y380362D01*
X288597Y380378D01*
X288467Y380397D01*
X288339Y380420D01*
X288211Y380448D01*
X288084Y380479D01*
X287957Y380514D01*
X287832Y380552D01*
X287709Y380594D01*
X287586Y380640D01*
X287465Y380690D01*
X287345Y380743D01*
X287227Y380800D01*
X287111Y380860D01*
X286997Y380924D01*
X286885Y380991D01*
X286774Y381062D01*
X286666Y381135D01*
X286560Y381212D01*
X286457Y381292D01*
X286356Y381375D01*
X286257Y381461D01*
X286161Y381550D01*
X286068Y381642D01*
X285978Y381737D01*
X285890Y381834D01*
X285805Y381934D01*
X285724Y382036D01*
X285645Y382141D01*
X285570Y382248D01*
X285498Y382357D01*
X285429Y382469D01*
X285364Y382582D01*
X285302Y382697D01*
X285243Y382814D01*
X285188Y382933D01*
X285137Y383053D01*
X285089Y383175D01*
X285045Y383298D01*
X285004Y383423D01*
X284968Y383548D01*
X284935Y383675D01*
X284906Y383803D01*
X284880Y383931D01*
X284859Y384060D01*
X284841Y384190D01*
X284828Y384320D01*
X284818Y384450D01*
X284812Y384581D01*
X284810Y384712D01*
X284809Y384712D02*
X284809Y396085D01*
X276717Y396085D02*
X276717Y380337D01*
X271468Y387336D02*
X276717Y396085D01*
X271468Y387336D02*
X266219Y396085D01*
X266219Y380337D01*
X259523Y380337D02*
X254274Y396085D01*
X249024Y380337D01*
X250337Y384274D02*
X258211Y384274D01*
X238289Y380337D02*
X238172Y380339D01*
X238055Y380345D01*
X237939Y380355D01*
X237822Y380368D01*
X237707Y380386D01*
X237592Y380407D01*
X237478Y380432D01*
X237364Y380461D01*
X237252Y380494D01*
X237141Y380531D01*
X237031Y380571D01*
X236923Y380615D01*
X236816Y380662D01*
X236710Y380713D01*
X236607Y380768D01*
X236505Y380826D01*
X236406Y380887D01*
X236308Y380951D01*
X236213Y381019D01*
X236120Y381090D01*
X236029Y381164D01*
X235941Y381241D01*
X235856Y381321D01*
X235773Y381404D01*
X235693Y381489D01*
X235616Y381577D01*
X235542Y381668D01*
X235471Y381761D01*
X235403Y381856D01*
X235339Y381954D01*
X235278Y382053D01*
X235220Y382155D01*
X235165Y382258D01*
X235114Y382364D01*
X235067Y382471D01*
X235023Y382579D01*
X234983Y382689D01*
X234946Y382800D01*
X234913Y382912D01*
X234884Y383026D01*
X234859Y383140D01*
X234838Y383255D01*
X234820Y383370D01*
X234807Y383487D01*
X234797Y383603D01*
X234791Y383720D01*
X234789Y383837D01*
X238289Y380337D02*
X238466Y380339D01*
X238643Y380345D01*
X238819Y380356D01*
X238995Y380371D01*
X239171Y380390D01*
X239347Y380413D01*
X239521Y380440D01*
X239696Y380472D01*
X239869Y380508D01*
X240041Y380548D01*
X240212Y380592D01*
X240383Y380640D01*
X240552Y380692D01*
X240719Y380748D01*
X240886Y380808D01*
X241051Y380872D01*
X241214Y380940D01*
X241376Y381012D01*
X241535Y381088D01*
X241693Y381167D01*
X241849Y381251D01*
X242003Y381338D01*
X242155Y381429D01*
X242305Y381523D01*
X242452Y381621D01*
X242597Y381722D01*
X242740Y381827D01*
X242880Y381935D01*
X243017Y382046D01*
X243152Y382161D01*
X243283Y382279D01*
X243412Y382400D01*
X243538Y382524D01*
X243101Y392586D02*
X243099Y392703D01*
X243093Y392820D01*
X243083Y392936D01*
X243070Y393053D01*
X243052Y393168D01*
X243031Y393283D01*
X243006Y393397D01*
X242977Y393511D01*
X242944Y393623D01*
X242907Y393734D01*
X242867Y393844D01*
X242823Y393952D01*
X242776Y394059D01*
X242725Y394165D01*
X242670Y394268D01*
X242612Y394370D01*
X242551Y394469D01*
X242487Y394567D01*
X242419Y394662D01*
X242348Y394755D01*
X242274Y394846D01*
X242197Y394934D01*
X242117Y395019D01*
X242034Y395102D01*
X241949Y395182D01*
X241861Y395259D01*
X241770Y395333D01*
X241677Y395404D01*
X241582Y395472D01*
X241484Y395536D01*
X241385Y395597D01*
X241283Y395655D01*
X241180Y395710D01*
X241074Y395761D01*
X240967Y395808D01*
X240859Y395852D01*
X240749Y395892D01*
X240638Y395929D01*
X240526Y395962D01*
X240412Y395991D01*
X240298Y396016D01*
X240183Y396037D01*
X240068Y396055D01*
X239951Y396068D01*
X239835Y396078D01*
X239718Y396084D01*
X239601Y396086D01*
X239601Y396085D02*
X239445Y396083D01*
X239288Y396078D01*
X239132Y396068D01*
X238976Y396055D01*
X238821Y396038D01*
X238666Y396018D01*
X238511Y395994D01*
X238357Y395966D01*
X238204Y395935D01*
X238052Y395900D01*
X237900Y395861D01*
X237750Y395818D01*
X237600Y395773D01*
X237452Y395723D01*
X237305Y395670D01*
X237159Y395614D01*
X237014Y395554D01*
X236871Y395490D01*
X236730Y395424D01*
X236590Y395354D01*
X236452Y395280D01*
X236316Y395203D01*
X236181Y395124D01*
X236049Y395040D01*
X235918Y394954D01*
X235790Y394865D01*
X235664Y394773D01*
X241350Y389524D02*
X241449Y389584D01*
X241545Y389648D01*
X241639Y389714D01*
X241731Y389783D01*
X241821Y389856D01*
X241909Y389931D01*
X241993Y390009D01*
X242076Y390090D01*
X242155Y390173D01*
X242232Y390259D01*
X242306Y390347D01*
X242378Y390438D01*
X242446Y390531D01*
X242511Y390626D01*
X242573Y390724D01*
X242632Y390823D01*
X242687Y390924D01*
X242740Y391027D01*
X242789Y391131D01*
X242834Y391237D01*
X242876Y391344D01*
X242915Y391453D01*
X242950Y391563D01*
X242981Y391674D01*
X243009Y391786D01*
X243033Y391898D01*
X243053Y392012D01*
X243070Y392126D01*
X243083Y392241D01*
X243093Y392356D01*
X243098Y392471D01*
X243100Y392586D01*
X236539Y386899D02*
X236440Y386839D01*
X236344Y386775D01*
X236250Y386709D01*
X236158Y386640D01*
X236068Y386567D01*
X235980Y386492D01*
X235896Y386414D01*
X235813Y386333D01*
X235734Y386250D01*
X235657Y386164D01*
X235583Y386076D01*
X235511Y385985D01*
X235443Y385892D01*
X235378Y385797D01*
X235316Y385699D01*
X235257Y385600D01*
X235202Y385499D01*
X235149Y385396D01*
X235101Y385292D01*
X235055Y385186D01*
X235013Y385079D01*
X234974Y384970D01*
X234939Y384860D01*
X234908Y384749D01*
X234880Y384637D01*
X234856Y384525D01*
X234836Y384411D01*
X234819Y384297D01*
X234806Y384182D01*
X234796Y384067D01*
X234791Y383952D01*
X234789Y383837D01*
X236539Y386899D02*
X241351Y389523D01*
X223700Y380337D02*
X223583Y380339D01*
X223466Y380345D01*
X223350Y380355D01*
X223233Y380368D01*
X223118Y380386D01*
X223003Y380407D01*
X222889Y380432D01*
X222775Y380461D01*
X222663Y380494D01*
X222552Y380531D01*
X222442Y380571D01*
X222334Y380615D01*
X222227Y380662D01*
X222121Y380713D01*
X222018Y380768D01*
X221916Y380826D01*
X221817Y380887D01*
X221719Y380951D01*
X221624Y381019D01*
X221531Y381090D01*
X221440Y381164D01*
X221352Y381241D01*
X221267Y381321D01*
X221184Y381404D01*
X221104Y381489D01*
X221027Y381577D01*
X220953Y381668D01*
X220882Y381761D01*
X220814Y381856D01*
X220750Y381954D01*
X220689Y382053D01*
X220631Y382155D01*
X220576Y382258D01*
X220525Y382364D01*
X220478Y382471D01*
X220434Y382579D01*
X220394Y382689D01*
X220357Y382800D01*
X220324Y382912D01*
X220295Y383026D01*
X220270Y383140D01*
X220249Y383255D01*
X220231Y383370D01*
X220218Y383487D01*
X220208Y383603D01*
X220202Y383720D01*
X220200Y383837D01*
X223700Y380337D02*
X223877Y380339D01*
X224054Y380345D01*
X224230Y380356D01*
X224406Y380371D01*
X224582Y380390D01*
X224758Y380413D01*
X224932Y380440D01*
X225107Y380472D01*
X225280Y380508D01*
X225452Y380548D01*
X225623Y380592D01*
X225794Y380640D01*
X225963Y380692D01*
X226130Y380748D01*
X226297Y380808D01*
X226462Y380872D01*
X226625Y380940D01*
X226787Y381012D01*
X226946Y381088D01*
X227104Y381167D01*
X227260Y381251D01*
X227414Y381338D01*
X227566Y381429D01*
X227716Y381523D01*
X227863Y381621D01*
X228008Y381722D01*
X228151Y381827D01*
X228291Y381935D01*
X228428Y382046D01*
X228563Y382161D01*
X228694Y382279D01*
X228823Y382400D01*
X228949Y382524D01*
X228512Y392586D02*
X228510Y392703D01*
X228504Y392820D01*
X228494Y392936D01*
X228481Y393053D01*
X228463Y393168D01*
X228442Y393283D01*
X228417Y393397D01*
X228388Y393511D01*
X228355Y393623D01*
X228318Y393734D01*
X228278Y393844D01*
X228234Y393952D01*
X228187Y394059D01*
X228136Y394165D01*
X228081Y394268D01*
X228023Y394370D01*
X227962Y394469D01*
X227898Y394567D01*
X227830Y394662D01*
X227759Y394755D01*
X227685Y394846D01*
X227608Y394934D01*
X227528Y395019D01*
X227445Y395102D01*
X227360Y395182D01*
X227272Y395259D01*
X227181Y395333D01*
X227088Y395404D01*
X226993Y395472D01*
X226895Y395536D01*
X226796Y395597D01*
X226694Y395655D01*
X226591Y395710D01*
X226485Y395761D01*
X226378Y395808D01*
X226270Y395852D01*
X226160Y395892D01*
X226049Y395929D01*
X225937Y395962D01*
X225823Y395991D01*
X225709Y396016D01*
X225594Y396037D01*
X225479Y396055D01*
X225362Y396068D01*
X225246Y396078D01*
X225129Y396084D01*
X225012Y396086D01*
X225012Y396085D02*
X224856Y396083D01*
X224699Y396078D01*
X224543Y396068D01*
X224387Y396055D01*
X224232Y396038D01*
X224077Y396018D01*
X223922Y395994D01*
X223768Y395966D01*
X223615Y395935D01*
X223463Y395900D01*
X223311Y395861D01*
X223161Y395818D01*
X223011Y395773D01*
X222863Y395723D01*
X222716Y395670D01*
X222570Y395614D01*
X222425Y395554D01*
X222282Y395490D01*
X222141Y395424D01*
X222001Y395354D01*
X221863Y395280D01*
X221727Y395203D01*
X221592Y395124D01*
X221460Y395040D01*
X221329Y394954D01*
X221201Y394865D01*
X221075Y394773D01*
X226761Y389524D02*
X226860Y389584D01*
X226956Y389648D01*
X227050Y389714D01*
X227142Y389783D01*
X227232Y389856D01*
X227320Y389931D01*
X227404Y390009D01*
X227487Y390090D01*
X227566Y390173D01*
X227643Y390259D01*
X227717Y390347D01*
X227789Y390438D01*
X227857Y390531D01*
X227922Y390626D01*
X227984Y390724D01*
X228043Y390823D01*
X228098Y390924D01*
X228151Y391027D01*
X228200Y391131D01*
X228245Y391237D01*
X228287Y391344D01*
X228326Y391453D01*
X228361Y391563D01*
X228392Y391674D01*
X228420Y391786D01*
X228444Y391898D01*
X228464Y392012D01*
X228481Y392126D01*
X228494Y392241D01*
X228504Y392356D01*
X228509Y392471D01*
X228511Y392586D01*
X221950Y386899D02*
X221851Y386839D01*
X221755Y386775D01*
X221661Y386709D01*
X221569Y386640D01*
X221479Y386567D01*
X221391Y386492D01*
X221307Y386414D01*
X221224Y386333D01*
X221145Y386250D01*
X221068Y386164D01*
X220994Y386076D01*
X220922Y385985D01*
X220854Y385892D01*
X220789Y385797D01*
X220727Y385699D01*
X220668Y385600D01*
X220613Y385499D01*
X220560Y385396D01*
X220512Y385292D01*
X220466Y385186D01*
X220424Y385079D01*
X220385Y384970D01*
X220350Y384860D01*
X220319Y384749D01*
X220291Y384637D01*
X220267Y384525D01*
X220247Y384411D01*
X220230Y384297D01*
X220217Y384182D01*
X220207Y384067D01*
X220202Y383952D01*
X220200Y383837D01*
X221950Y386899D02*
X226762Y389523D01*
X204981Y396085D02*
X204981Y380337D01*
X204981Y396085D02*
X200607Y396085D01*
X200477Y396083D01*
X200348Y396077D01*
X200219Y396068D01*
X200090Y396054D01*
X199961Y396037D01*
X199833Y396016D01*
X199706Y395991D01*
X199580Y395963D01*
X199454Y395930D01*
X199330Y395894D01*
X199206Y395855D01*
X199084Y395811D01*
X198963Y395764D01*
X198844Y395714D01*
X198726Y395660D01*
X198610Y395602D01*
X198495Y395541D01*
X198383Y395477D01*
X198272Y395410D01*
X198163Y395339D01*
X198057Y395265D01*
X197953Y395188D01*
X197851Y395108D01*
X197752Y395024D01*
X197655Y394938D01*
X197560Y394849D01*
X197469Y394758D01*
X197380Y394663D01*
X197294Y394566D01*
X197210Y394467D01*
X197130Y394365D01*
X197053Y394261D01*
X196979Y394155D01*
X196908Y394046D01*
X196841Y393935D01*
X196777Y393823D01*
X196716Y393708D01*
X196658Y393592D01*
X196604Y393474D01*
X196554Y393355D01*
X196507Y393234D01*
X196463Y393112D01*
X196424Y392988D01*
X196388Y392864D01*
X196355Y392738D01*
X196327Y392612D01*
X196302Y392485D01*
X196281Y392357D01*
X196264Y392228D01*
X196250Y392099D01*
X196241Y391970D01*
X196235Y391841D01*
X196233Y391711D01*
X196232Y391711D02*
X196232Y384712D01*
X196233Y384712D02*
X196235Y384582D01*
X196241Y384453D01*
X196250Y384324D01*
X196264Y384195D01*
X196281Y384066D01*
X196302Y383938D01*
X196327Y383811D01*
X196355Y383685D01*
X196388Y383559D01*
X196424Y383435D01*
X196463Y383311D01*
X196507Y383189D01*
X196554Y383068D01*
X196604Y382949D01*
X196658Y382831D01*
X196716Y382715D01*
X196777Y382600D01*
X196841Y382488D01*
X196908Y382377D01*
X196979Y382268D01*
X197053Y382162D01*
X197130Y382058D01*
X197210Y381956D01*
X197294Y381857D01*
X197380Y381760D01*
X197469Y381665D01*
X197560Y381574D01*
X197655Y381485D01*
X197752Y381399D01*
X197851Y381315D01*
X197953Y381235D01*
X198057Y381158D01*
X198163Y381084D01*
X198272Y381013D01*
X198383Y380946D01*
X198495Y380882D01*
X198610Y380821D01*
X198726Y380763D01*
X198844Y380709D01*
X198963Y380659D01*
X199084Y380612D01*
X199206Y380568D01*
X199330Y380529D01*
X199454Y380493D01*
X199580Y380460D01*
X199706Y380432D01*
X199833Y380407D01*
X199961Y380386D01*
X200090Y380369D01*
X200219Y380355D01*
X200348Y380346D01*
X200477Y380340D01*
X200607Y380338D01*
X200607Y380337D02*
X204981Y380337D01*
X186022Y386461D02*
X182085Y386461D01*
X186022Y386461D02*
X186131Y386459D01*
X186240Y386453D01*
X186349Y386443D01*
X186458Y386430D01*
X186566Y386412D01*
X186673Y386391D01*
X186779Y386366D01*
X186885Y386337D01*
X186989Y386304D01*
X187092Y386268D01*
X187194Y386228D01*
X187294Y386184D01*
X187393Y386137D01*
X187489Y386086D01*
X187584Y386032D01*
X187677Y385975D01*
X187768Y385914D01*
X187857Y385850D01*
X187943Y385783D01*
X188027Y385713D01*
X188109Y385640D01*
X188187Y385564D01*
X188263Y385486D01*
X188336Y385404D01*
X188406Y385320D01*
X188473Y385234D01*
X188537Y385145D01*
X188598Y385054D01*
X188655Y384961D01*
X188709Y384866D01*
X188760Y384770D01*
X188807Y384671D01*
X188851Y384571D01*
X188891Y384469D01*
X188927Y384366D01*
X188960Y384262D01*
X188989Y384156D01*
X189014Y384050D01*
X189035Y383943D01*
X189053Y383835D01*
X189066Y383726D01*
X189076Y383617D01*
X189082Y383508D01*
X189084Y383399D01*
X189082Y383290D01*
X189076Y383181D01*
X189066Y383072D01*
X189053Y382963D01*
X189035Y382855D01*
X189014Y382748D01*
X188989Y382642D01*
X188960Y382536D01*
X188927Y382432D01*
X188891Y382329D01*
X188851Y382227D01*
X188807Y382127D01*
X188760Y382028D01*
X188709Y381932D01*
X188655Y381837D01*
X188598Y381744D01*
X188537Y381653D01*
X188473Y381564D01*
X188406Y381478D01*
X188336Y381394D01*
X188263Y381312D01*
X188187Y381234D01*
X188109Y381158D01*
X188027Y381085D01*
X187943Y381015D01*
X187857Y380948D01*
X187768Y380884D01*
X187677Y380823D01*
X187584Y380766D01*
X187489Y380712D01*
X187393Y380661D01*
X187294Y380614D01*
X187194Y380570D01*
X187092Y380530D01*
X186989Y380494D01*
X186885Y380461D01*
X186779Y380432D01*
X186673Y380407D01*
X186566Y380386D01*
X186458Y380368D01*
X186349Y380355D01*
X186240Y380345D01*
X186131Y380339D01*
X186022Y380337D01*
X182085Y380337D01*
X182085Y388211D01*
X182087Y388312D01*
X182093Y388412D01*
X182102Y388512D01*
X182116Y388612D01*
X182133Y388711D01*
X182154Y388809D01*
X182179Y388907D01*
X182207Y389003D01*
X182240Y389098D01*
X182275Y389192D01*
X182315Y389285D01*
X182358Y389376D01*
X182404Y389465D01*
X182454Y389552D01*
X182507Y389638D01*
X182563Y389721D01*
X182622Y389802D01*
X182685Y389881D01*
X182750Y389957D01*
X182819Y390031D01*
X182890Y390102D01*
X182964Y390171D01*
X183040Y390236D01*
X183119Y390299D01*
X183200Y390358D01*
X183283Y390414D01*
X183369Y390467D01*
X183456Y390517D01*
X183545Y390563D01*
X183636Y390606D01*
X183729Y390646D01*
X183823Y390682D01*
X183918Y390714D01*
X184014Y390742D01*
X184112Y390767D01*
X184210Y390788D01*
X184309Y390805D01*
X184409Y390819D01*
X184509Y390828D01*
X184609Y390834D01*
X184710Y390836D01*
X188209Y390836D01*
X174305Y390836D02*
X174305Y380337D01*
X174305Y390836D02*
X169055Y390836D01*
X169055Y389086D01*
X165335Y390836D02*
X160086Y390836D01*
X163585Y396085D02*
X163585Y382962D01*
X163586Y382962D02*
X163584Y382861D01*
X163578Y382761D01*
X163569Y382661D01*
X163555Y382561D01*
X163538Y382462D01*
X163517Y382364D01*
X163492Y382266D01*
X163464Y382170D01*
X163431Y382075D01*
X163396Y381981D01*
X163356Y381888D01*
X163313Y381797D01*
X163267Y381708D01*
X163217Y381621D01*
X163164Y381535D01*
X163108Y381452D01*
X163049Y381371D01*
X162986Y381292D01*
X162921Y381216D01*
X162852Y381142D01*
X162781Y381071D01*
X162707Y381002D01*
X162631Y380937D01*
X162552Y380874D01*
X162471Y380815D01*
X162388Y380759D01*
X162302Y380706D01*
X162215Y380656D01*
X162126Y380610D01*
X162035Y380567D01*
X161942Y380527D01*
X161848Y380491D01*
X161753Y380459D01*
X161657Y380431D01*
X161559Y380406D01*
X161461Y380385D01*
X161362Y380368D01*
X161262Y380354D01*
X161162Y380345D01*
X161062Y380339D01*
X160961Y380337D01*
X160086Y380337D01*
X153231Y380337D02*
X153231Y390836D01*
X145357Y390836D01*
X145256Y390834D01*
X145156Y390828D01*
X145056Y390819D01*
X144956Y390805D01*
X144857Y390788D01*
X144759Y390767D01*
X144661Y390742D01*
X144565Y390714D01*
X144470Y390681D01*
X144376Y390646D01*
X144283Y390606D01*
X144192Y390563D01*
X144103Y390517D01*
X144016Y390467D01*
X143930Y390414D01*
X143847Y390358D01*
X143766Y390299D01*
X143687Y390236D01*
X143611Y390171D01*
X143537Y390102D01*
X143466Y390031D01*
X143397Y389957D01*
X143332Y389881D01*
X143269Y389802D01*
X143210Y389721D01*
X143154Y389638D01*
X143101Y389552D01*
X143051Y389465D01*
X143005Y389376D01*
X142962Y389285D01*
X142922Y389192D01*
X142887Y389098D01*
X142854Y389003D01*
X142826Y388907D01*
X142801Y388809D01*
X142780Y388711D01*
X142763Y388612D01*
X142749Y388512D01*
X142740Y388412D01*
X142734Y388312D01*
X142732Y388211D01*
X142732Y380337D01*
X147981Y380337D02*
X147981Y390836D01*
X135329Y387336D02*
X135329Y383837D01*
X135329Y387336D02*
X135327Y387454D01*
X135321Y387572D01*
X135311Y387690D01*
X135297Y387807D01*
X135279Y387924D01*
X135257Y388041D01*
X135232Y388156D01*
X135202Y388270D01*
X135168Y388384D01*
X135131Y388496D01*
X135090Y388607D01*
X135045Y388716D01*
X134997Y388824D01*
X134945Y388930D01*
X134889Y389035D01*
X134830Y389137D01*
X134768Y389237D01*
X134702Y389335D01*
X134633Y389431D01*
X134560Y389525D01*
X134485Y389616D01*
X134406Y389704D01*
X134325Y389790D01*
X134240Y389873D01*
X134153Y389953D01*
X134064Y390030D01*
X133971Y390104D01*
X133877Y390174D01*
X133780Y390242D01*
X133680Y390306D01*
X133579Y390367D01*
X133476Y390424D01*
X133370Y390478D01*
X133263Y390529D01*
X133155Y390575D01*
X133045Y390618D01*
X132933Y390657D01*
X132820Y390693D01*
X132706Y390724D01*
X132591Y390752D01*
X132476Y390776D01*
X132359Y390796D01*
X132242Y390812D01*
X132124Y390824D01*
X132006Y390832D01*
X131888Y390836D01*
X131770Y390836D01*
X131652Y390832D01*
X131534Y390824D01*
X131416Y390812D01*
X131299Y390796D01*
X131182Y390776D01*
X131067Y390752D01*
X130952Y390724D01*
X130838Y390693D01*
X130725Y390657D01*
X130613Y390618D01*
X130503Y390575D01*
X130395Y390529D01*
X130288Y390478D01*
X130182Y390424D01*
X130079Y390367D01*
X129978Y390306D01*
X129878Y390242D01*
X129781Y390174D01*
X129687Y390104D01*
X129594Y390030D01*
X129505Y389953D01*
X129418Y389873D01*
X129333Y389790D01*
X129252Y389704D01*
X129173Y389616D01*
X129098Y389525D01*
X129025Y389431D01*
X128956Y389335D01*
X128890Y389237D01*
X128828Y389137D01*
X128769Y389035D01*
X128713Y388930D01*
X128661Y388824D01*
X128613Y388716D01*
X128568Y388607D01*
X128527Y388496D01*
X128490Y388384D01*
X128456Y388270D01*
X128426Y388156D01*
X128401Y388041D01*
X128379Y387924D01*
X128361Y387807D01*
X128347Y387690D01*
X128337Y387572D01*
X128331Y387454D01*
X128329Y387336D01*
X128330Y387336D02*
X128330Y383837D01*
X128329Y383837D02*
X128331Y383719D01*
X128337Y383601D01*
X128347Y383483D01*
X128361Y383366D01*
X128379Y383249D01*
X128401Y383132D01*
X128426Y383017D01*
X128456Y382903D01*
X128490Y382789D01*
X128527Y382677D01*
X128568Y382566D01*
X128613Y382457D01*
X128661Y382349D01*
X128713Y382243D01*
X128769Y382138D01*
X128828Y382036D01*
X128890Y381936D01*
X128956Y381838D01*
X129025Y381742D01*
X129098Y381648D01*
X129173Y381557D01*
X129252Y381469D01*
X129333Y381383D01*
X129418Y381300D01*
X129505Y381220D01*
X129594Y381143D01*
X129687Y381069D01*
X129781Y380999D01*
X129878Y380931D01*
X129978Y380867D01*
X130079Y380806D01*
X130182Y380749D01*
X130288Y380695D01*
X130395Y380644D01*
X130503Y380598D01*
X130613Y380555D01*
X130725Y380516D01*
X130838Y380480D01*
X130952Y380449D01*
X131067Y380421D01*
X131182Y380397D01*
X131299Y380377D01*
X131416Y380361D01*
X131534Y380349D01*
X131652Y380341D01*
X131770Y380337D01*
X131888Y380337D01*
X132006Y380341D01*
X132124Y380349D01*
X132242Y380361D01*
X132359Y380377D01*
X132476Y380397D01*
X132591Y380421D01*
X132706Y380449D01*
X132820Y380480D01*
X132933Y380516D01*
X133045Y380555D01*
X133155Y380598D01*
X133263Y380644D01*
X133370Y380695D01*
X133476Y380749D01*
X133579Y380806D01*
X133680Y380867D01*
X133780Y380931D01*
X133877Y380999D01*
X133971Y381069D01*
X134064Y381143D01*
X134153Y381220D01*
X134240Y381300D01*
X134325Y381383D01*
X134406Y381469D01*
X134485Y381557D01*
X134560Y381648D01*
X134633Y381742D01*
X134702Y381838D01*
X134768Y381936D01*
X134830Y382036D01*
X134889Y382138D01*
X134945Y382243D01*
X134997Y382349D01*
X135045Y382457D01*
X135090Y382566D01*
X135131Y382677D01*
X135168Y382789D01*
X135202Y382903D01*
X135232Y383017D01*
X135257Y383132D01*
X135279Y383249D01*
X135297Y383366D01*
X135311Y383483D01*
X135321Y383601D01*
X135327Y383719D01*
X135329Y383837D01*
X121261Y382962D02*
X121261Y390836D01*
X121261Y382962D02*
X121259Y382861D01*
X121253Y382761D01*
X121244Y382661D01*
X121230Y382561D01*
X121213Y382462D01*
X121192Y382364D01*
X121167Y382266D01*
X121139Y382170D01*
X121106Y382075D01*
X121071Y381981D01*
X121031Y381888D01*
X120988Y381797D01*
X120942Y381708D01*
X120892Y381621D01*
X120839Y381535D01*
X120783Y381452D01*
X120724Y381371D01*
X120661Y381292D01*
X120596Y381216D01*
X120527Y381142D01*
X120456Y381071D01*
X120382Y381002D01*
X120306Y380937D01*
X120227Y380874D01*
X120146Y380815D01*
X120063Y380759D01*
X119977Y380706D01*
X119890Y380656D01*
X119801Y380610D01*
X119710Y380567D01*
X119617Y380527D01*
X119523Y380492D01*
X119428Y380459D01*
X119332Y380431D01*
X119234Y380406D01*
X119136Y380385D01*
X119037Y380368D01*
X118937Y380354D01*
X118837Y380345D01*
X118737Y380339D01*
X118636Y380337D01*
X114262Y380337D01*
X114262Y390836D01*
X108542Y390836D02*
X103292Y390836D01*
X106792Y396085D02*
X106792Y382962D01*
X106790Y382861D01*
X106784Y382761D01*
X106775Y382661D01*
X106761Y382561D01*
X106744Y382462D01*
X106723Y382364D01*
X106698Y382266D01*
X106670Y382170D01*
X106637Y382075D01*
X106602Y381981D01*
X106562Y381888D01*
X106519Y381797D01*
X106473Y381708D01*
X106423Y381621D01*
X106370Y381535D01*
X106314Y381452D01*
X106255Y381371D01*
X106192Y381292D01*
X106127Y381216D01*
X106058Y381142D01*
X105987Y381071D01*
X105913Y381002D01*
X105837Y380937D01*
X105758Y380874D01*
X105677Y380815D01*
X105594Y380759D01*
X105508Y380706D01*
X105421Y380656D01*
X105332Y380610D01*
X105241Y380567D01*
X105148Y380527D01*
X105054Y380491D01*
X104959Y380459D01*
X104863Y380431D01*
X104765Y380406D01*
X104667Y380385D01*
X104568Y380368D01*
X104468Y380354D01*
X104368Y380345D01*
X104268Y380339D01*
X104167Y380337D01*
X103292Y380337D01*
X96772Y380337D02*
X96772Y396085D01*
X96772Y390836D02*
X92397Y390836D01*
X92296Y390834D01*
X92196Y390828D01*
X92096Y390819D01*
X91996Y390805D01*
X91897Y390788D01*
X91799Y390767D01*
X91701Y390742D01*
X91605Y390714D01*
X91510Y390681D01*
X91416Y390646D01*
X91323Y390606D01*
X91232Y390563D01*
X91143Y390517D01*
X91056Y390467D01*
X90970Y390414D01*
X90887Y390358D01*
X90806Y390299D01*
X90727Y390236D01*
X90651Y390171D01*
X90577Y390102D01*
X90506Y390031D01*
X90437Y389957D01*
X90372Y389881D01*
X90309Y389802D01*
X90250Y389721D01*
X90194Y389638D01*
X90141Y389552D01*
X90091Y389465D01*
X90045Y389376D01*
X90002Y389285D01*
X89962Y389192D01*
X89927Y389098D01*
X89894Y389003D01*
X89866Y388907D01*
X89841Y388809D01*
X89820Y388711D01*
X89803Y388612D01*
X89789Y388512D01*
X89780Y388412D01*
X89774Y388312D01*
X89772Y388211D01*
X89773Y388211D02*
X89773Y380337D01*
X286559Y350111D02*
X293558Y350111D01*
X293558Y365859D01*
X286559Y365859D01*
X288309Y358860D02*
X293558Y358860D01*
X280556Y352736D02*
X280556Y365859D01*
X280556Y352736D02*
X280554Y352635D01*
X280548Y352535D01*
X280539Y352435D01*
X280525Y352335D01*
X280508Y352236D01*
X280487Y352138D01*
X280462Y352040D01*
X280434Y351944D01*
X280401Y351849D01*
X280366Y351755D01*
X280326Y351662D01*
X280283Y351571D01*
X280237Y351482D01*
X280187Y351395D01*
X280134Y351309D01*
X280078Y351226D01*
X280019Y351145D01*
X279956Y351066D01*
X279891Y350990D01*
X279822Y350916D01*
X279751Y350845D01*
X279677Y350776D01*
X279601Y350711D01*
X279522Y350648D01*
X279441Y350589D01*
X279358Y350533D01*
X279272Y350480D01*
X279185Y350430D01*
X279096Y350384D01*
X279005Y350341D01*
X278912Y350301D01*
X278818Y350266D01*
X278723Y350233D01*
X278627Y350205D01*
X278529Y350180D01*
X278431Y350159D01*
X278332Y350142D01*
X278232Y350128D01*
X278132Y350119D01*
X278032Y350113D01*
X277931Y350111D01*
X269774Y350111D02*
X265399Y350111D01*
X269774Y350111D02*
X269875Y350113D01*
X269975Y350119D01*
X270075Y350128D01*
X270175Y350142D01*
X270274Y350159D01*
X270372Y350180D01*
X270470Y350205D01*
X270566Y350233D01*
X270661Y350266D01*
X270755Y350301D01*
X270848Y350341D01*
X270939Y350384D01*
X271028Y350430D01*
X271115Y350480D01*
X271201Y350533D01*
X271284Y350589D01*
X271365Y350648D01*
X271444Y350711D01*
X271520Y350776D01*
X271594Y350845D01*
X271665Y350916D01*
X271734Y350990D01*
X271799Y351066D01*
X271862Y351145D01*
X271921Y351226D01*
X271977Y351309D01*
X272030Y351395D01*
X272080Y351482D01*
X272126Y351571D01*
X272169Y351662D01*
X272209Y351755D01*
X272245Y351849D01*
X272277Y351944D01*
X272305Y352040D01*
X272330Y352138D01*
X272351Y352236D01*
X272368Y352335D01*
X272382Y352435D01*
X272391Y352535D01*
X272397Y352635D01*
X272399Y352736D01*
X272398Y352736D02*
X272398Y357110D01*
X272399Y357110D02*
X272397Y357228D01*
X272391Y357346D01*
X272381Y357464D01*
X272367Y357581D01*
X272349Y357698D01*
X272327Y357815D01*
X272302Y357930D01*
X272272Y358044D01*
X272238Y358158D01*
X272201Y358270D01*
X272160Y358381D01*
X272115Y358490D01*
X272067Y358598D01*
X272015Y358704D01*
X271959Y358809D01*
X271900Y358911D01*
X271838Y359011D01*
X271772Y359109D01*
X271703Y359205D01*
X271630Y359299D01*
X271555Y359390D01*
X271476Y359478D01*
X271395Y359564D01*
X271310Y359647D01*
X271223Y359727D01*
X271134Y359804D01*
X271041Y359878D01*
X270947Y359948D01*
X270850Y360016D01*
X270750Y360080D01*
X270649Y360141D01*
X270546Y360198D01*
X270440Y360252D01*
X270333Y360303D01*
X270225Y360349D01*
X270115Y360392D01*
X270003Y360431D01*
X269890Y360467D01*
X269776Y360498D01*
X269661Y360526D01*
X269546Y360550D01*
X269429Y360570D01*
X269312Y360586D01*
X269194Y360598D01*
X269076Y360606D01*
X268958Y360610D01*
X268840Y360610D01*
X268722Y360606D01*
X268604Y360598D01*
X268486Y360586D01*
X268369Y360570D01*
X268252Y360550D01*
X268137Y360526D01*
X268022Y360498D01*
X267908Y360467D01*
X267795Y360431D01*
X267683Y360392D01*
X267573Y360349D01*
X267465Y360303D01*
X267358Y360252D01*
X267252Y360198D01*
X267149Y360141D01*
X267048Y360080D01*
X266948Y360016D01*
X266851Y359948D01*
X266757Y359878D01*
X266664Y359804D01*
X266575Y359727D01*
X266488Y359647D01*
X266403Y359564D01*
X266322Y359478D01*
X266243Y359390D01*
X266168Y359299D01*
X266095Y359205D01*
X266026Y359109D01*
X265960Y359011D01*
X265898Y358911D01*
X265839Y358809D01*
X265783Y358704D01*
X265731Y358598D01*
X265683Y358490D01*
X265638Y358381D01*
X265597Y358270D01*
X265560Y358158D01*
X265526Y358044D01*
X265496Y357930D01*
X265471Y357815D01*
X265449Y357698D01*
X265431Y357581D01*
X265417Y357464D01*
X265407Y357346D01*
X265401Y357228D01*
X265399Y357110D01*
X265399Y355360D01*
X272398Y355360D01*
X256205Y350111D02*
X252706Y350111D01*
X256205Y350111D02*
X256306Y350113D01*
X256406Y350119D01*
X256506Y350128D01*
X256606Y350142D01*
X256705Y350159D01*
X256803Y350180D01*
X256901Y350205D01*
X256997Y350233D01*
X257092Y350266D01*
X257186Y350301D01*
X257279Y350341D01*
X257370Y350384D01*
X257459Y350430D01*
X257546Y350480D01*
X257632Y350533D01*
X257715Y350589D01*
X257796Y350648D01*
X257875Y350711D01*
X257951Y350776D01*
X258025Y350845D01*
X258096Y350916D01*
X258165Y350990D01*
X258230Y351066D01*
X258293Y351145D01*
X258352Y351226D01*
X258408Y351309D01*
X258461Y351395D01*
X258511Y351482D01*
X258557Y351571D01*
X258600Y351662D01*
X258640Y351755D01*
X258676Y351849D01*
X258708Y351944D01*
X258736Y352040D01*
X258761Y352138D01*
X258782Y352236D01*
X258799Y352335D01*
X258813Y352435D01*
X258822Y352535D01*
X258828Y352635D01*
X258830Y352736D01*
X258830Y357985D01*
X258828Y358086D01*
X258822Y358186D01*
X258813Y358286D01*
X258799Y358386D01*
X258782Y358485D01*
X258761Y358583D01*
X258736Y358681D01*
X258708Y358777D01*
X258675Y358872D01*
X258640Y358966D01*
X258600Y359059D01*
X258557Y359150D01*
X258511Y359239D01*
X258461Y359326D01*
X258408Y359412D01*
X258352Y359495D01*
X258293Y359576D01*
X258230Y359655D01*
X258165Y359731D01*
X258096Y359805D01*
X258025Y359876D01*
X257951Y359945D01*
X257875Y360010D01*
X257796Y360073D01*
X257715Y360132D01*
X257632Y360188D01*
X257546Y360241D01*
X257459Y360291D01*
X257370Y360337D01*
X257279Y360380D01*
X257186Y360420D01*
X257092Y360455D01*
X256997Y360488D01*
X256901Y360516D01*
X256803Y360541D01*
X256705Y360562D01*
X256606Y360579D01*
X256506Y360593D01*
X256406Y360602D01*
X256306Y360608D01*
X256205Y360610D01*
X252706Y360610D01*
X248216Y360610D02*
X242967Y360610D01*
X246467Y365859D02*
X246467Y352736D01*
X246465Y352635D01*
X246459Y352535D01*
X246450Y352435D01*
X246436Y352335D01*
X246419Y352236D01*
X246398Y352138D01*
X246373Y352040D01*
X246345Y351944D01*
X246312Y351849D01*
X246277Y351755D01*
X246237Y351662D01*
X246194Y351571D01*
X246148Y351482D01*
X246098Y351395D01*
X246045Y351309D01*
X245989Y351226D01*
X245930Y351145D01*
X245867Y351066D01*
X245802Y350990D01*
X245733Y350916D01*
X245662Y350845D01*
X245588Y350776D01*
X245512Y350711D01*
X245433Y350648D01*
X245352Y350589D01*
X245269Y350533D01*
X245183Y350480D01*
X245096Y350430D01*
X245007Y350384D01*
X244916Y350341D01*
X244823Y350301D01*
X244729Y350265D01*
X244634Y350233D01*
X244538Y350205D01*
X244440Y350180D01*
X244342Y350159D01*
X244243Y350142D01*
X244143Y350128D01*
X244043Y350119D01*
X243943Y350113D01*
X243842Y350111D01*
X242967Y350111D01*
X236344Y350111D02*
X236344Y360610D01*
X231095Y360610D01*
X231095Y358860D01*
X226173Y360610D02*
X226173Y350111D01*
X226611Y364984D02*
X226611Y365859D01*
X225736Y365859D01*
X225736Y364984D01*
X226611Y364984D01*
X217127Y350111D02*
X213628Y350111D01*
X217127Y350111D02*
X217228Y350113D01*
X217328Y350119D01*
X217428Y350128D01*
X217528Y350142D01*
X217627Y350159D01*
X217725Y350180D01*
X217823Y350205D01*
X217919Y350233D01*
X218014Y350266D01*
X218108Y350301D01*
X218201Y350341D01*
X218292Y350384D01*
X218381Y350430D01*
X218468Y350480D01*
X218554Y350533D01*
X218637Y350589D01*
X218718Y350648D01*
X218797Y350711D01*
X218873Y350776D01*
X218947Y350845D01*
X219018Y350916D01*
X219087Y350990D01*
X219152Y351066D01*
X219215Y351145D01*
X219274Y351226D01*
X219330Y351309D01*
X219383Y351395D01*
X219433Y351482D01*
X219479Y351571D01*
X219522Y351662D01*
X219562Y351755D01*
X219598Y351849D01*
X219630Y351944D01*
X219658Y352040D01*
X219683Y352138D01*
X219704Y352236D01*
X219721Y352335D01*
X219735Y352435D01*
X219744Y352535D01*
X219750Y352635D01*
X219752Y352736D01*
X219752Y357985D01*
X219750Y358086D01*
X219744Y358186D01*
X219735Y358286D01*
X219721Y358386D01*
X219704Y358485D01*
X219683Y358583D01*
X219658Y358681D01*
X219630Y358777D01*
X219597Y358872D01*
X219562Y358966D01*
X219522Y359059D01*
X219479Y359150D01*
X219433Y359239D01*
X219383Y359326D01*
X219330Y359412D01*
X219274Y359495D01*
X219215Y359576D01*
X219152Y359655D01*
X219087Y359731D01*
X219018Y359805D01*
X218947Y359876D01*
X218873Y359945D01*
X218797Y360010D01*
X218718Y360073D01*
X218637Y360132D01*
X218554Y360188D01*
X218468Y360241D01*
X218381Y360291D01*
X218292Y360337D01*
X218201Y360380D01*
X218108Y360420D01*
X218014Y360455D01*
X217919Y360488D01*
X217823Y360516D01*
X217725Y360541D01*
X217627Y360562D01*
X217528Y360579D01*
X217428Y360593D01*
X217328Y360602D01*
X217228Y360608D01*
X217127Y360610D01*
X213628Y360610D01*
X204815Y356235D02*
X200878Y356235D01*
X204815Y356235D02*
X204924Y356233D01*
X205033Y356227D01*
X205142Y356217D01*
X205251Y356204D01*
X205359Y356186D01*
X205466Y356165D01*
X205572Y356140D01*
X205678Y356111D01*
X205782Y356078D01*
X205885Y356042D01*
X205987Y356002D01*
X206087Y355958D01*
X206186Y355911D01*
X206282Y355860D01*
X206377Y355806D01*
X206470Y355749D01*
X206561Y355688D01*
X206650Y355624D01*
X206736Y355557D01*
X206820Y355487D01*
X206902Y355414D01*
X206980Y355338D01*
X207056Y355260D01*
X207129Y355178D01*
X207199Y355094D01*
X207266Y355008D01*
X207330Y354919D01*
X207391Y354828D01*
X207448Y354735D01*
X207502Y354640D01*
X207553Y354544D01*
X207600Y354445D01*
X207644Y354345D01*
X207684Y354243D01*
X207720Y354140D01*
X207753Y354036D01*
X207782Y353930D01*
X207807Y353824D01*
X207828Y353717D01*
X207846Y353609D01*
X207859Y353500D01*
X207869Y353391D01*
X207875Y353282D01*
X207877Y353173D01*
X207875Y353064D01*
X207869Y352955D01*
X207859Y352846D01*
X207846Y352737D01*
X207828Y352629D01*
X207807Y352522D01*
X207782Y352416D01*
X207753Y352310D01*
X207720Y352206D01*
X207684Y352103D01*
X207644Y352001D01*
X207600Y351901D01*
X207553Y351802D01*
X207502Y351706D01*
X207448Y351611D01*
X207391Y351518D01*
X207330Y351427D01*
X207266Y351338D01*
X207199Y351252D01*
X207129Y351168D01*
X207056Y351086D01*
X206980Y351008D01*
X206902Y350932D01*
X206820Y350859D01*
X206736Y350789D01*
X206650Y350722D01*
X206561Y350658D01*
X206470Y350597D01*
X206377Y350540D01*
X206282Y350486D01*
X206186Y350435D01*
X206087Y350388D01*
X205987Y350344D01*
X205885Y350304D01*
X205782Y350268D01*
X205678Y350235D01*
X205572Y350206D01*
X205466Y350181D01*
X205359Y350160D01*
X205251Y350142D01*
X205142Y350129D01*
X205033Y350119D01*
X204924Y350113D01*
X204815Y350111D01*
X200878Y350111D01*
X200878Y357985D01*
X200880Y358086D01*
X200886Y358186D01*
X200895Y358286D01*
X200909Y358386D01*
X200926Y358485D01*
X200947Y358583D01*
X200972Y358681D01*
X201000Y358777D01*
X201033Y358872D01*
X201068Y358966D01*
X201108Y359059D01*
X201151Y359150D01*
X201197Y359239D01*
X201247Y359326D01*
X201300Y359412D01*
X201356Y359495D01*
X201415Y359576D01*
X201478Y359655D01*
X201543Y359731D01*
X201612Y359805D01*
X201683Y359876D01*
X201757Y359945D01*
X201833Y360010D01*
X201912Y360073D01*
X201993Y360132D01*
X202076Y360188D01*
X202162Y360241D01*
X202249Y360291D01*
X202338Y360337D01*
X202429Y360380D01*
X202522Y360420D01*
X202616Y360456D01*
X202711Y360488D01*
X202807Y360516D01*
X202905Y360541D01*
X203003Y360562D01*
X203102Y360579D01*
X203202Y360593D01*
X203302Y360602D01*
X203402Y360608D01*
X203503Y360610D01*
X207003Y360610D01*
X193542Y365859D02*
X193542Y352736D01*
X193540Y352635D01*
X193534Y352535D01*
X193525Y352435D01*
X193511Y352335D01*
X193494Y352236D01*
X193473Y352138D01*
X193448Y352040D01*
X193420Y351944D01*
X193387Y351849D01*
X193352Y351755D01*
X193312Y351662D01*
X193269Y351571D01*
X193223Y351482D01*
X193173Y351395D01*
X193120Y351309D01*
X193064Y351226D01*
X193005Y351145D01*
X192942Y351066D01*
X192877Y350990D01*
X192808Y350916D01*
X192737Y350845D01*
X192663Y350776D01*
X192587Y350711D01*
X192508Y350648D01*
X192427Y350589D01*
X192344Y350533D01*
X192258Y350480D01*
X192171Y350430D01*
X192082Y350384D01*
X191991Y350341D01*
X191898Y350301D01*
X191804Y350266D01*
X191709Y350233D01*
X191613Y350205D01*
X191515Y350180D01*
X191417Y350159D01*
X191318Y350142D01*
X191218Y350128D01*
X191118Y350119D01*
X191018Y350113D01*
X190917Y350111D01*
X174074Y356235D02*
X170137Y356235D01*
X174074Y356235D02*
X174183Y356233D01*
X174292Y356227D01*
X174401Y356217D01*
X174510Y356204D01*
X174618Y356186D01*
X174725Y356165D01*
X174831Y356140D01*
X174937Y356111D01*
X175041Y356078D01*
X175144Y356042D01*
X175246Y356002D01*
X175346Y355958D01*
X175445Y355911D01*
X175541Y355860D01*
X175636Y355806D01*
X175729Y355749D01*
X175820Y355688D01*
X175909Y355624D01*
X175995Y355557D01*
X176079Y355487D01*
X176161Y355414D01*
X176239Y355338D01*
X176315Y355260D01*
X176388Y355178D01*
X176458Y355094D01*
X176525Y355008D01*
X176589Y354919D01*
X176650Y354828D01*
X176707Y354735D01*
X176761Y354640D01*
X176812Y354544D01*
X176859Y354445D01*
X176903Y354345D01*
X176943Y354243D01*
X176979Y354140D01*
X177012Y354036D01*
X177041Y353930D01*
X177066Y353824D01*
X177087Y353717D01*
X177105Y353609D01*
X177118Y353500D01*
X177128Y353391D01*
X177134Y353282D01*
X177136Y353173D01*
X177134Y353064D01*
X177128Y352955D01*
X177118Y352846D01*
X177105Y352737D01*
X177087Y352629D01*
X177066Y352522D01*
X177041Y352416D01*
X177012Y352310D01*
X176979Y352206D01*
X176943Y352103D01*
X176903Y352001D01*
X176859Y351901D01*
X176812Y351802D01*
X176761Y351706D01*
X176707Y351611D01*
X176650Y351518D01*
X176589Y351427D01*
X176525Y351338D01*
X176458Y351252D01*
X176388Y351168D01*
X176315Y351086D01*
X176239Y351008D01*
X176161Y350932D01*
X176079Y350859D01*
X175995Y350789D01*
X175909Y350722D01*
X175820Y350658D01*
X175729Y350597D01*
X175636Y350540D01*
X175541Y350486D01*
X175445Y350435D01*
X175346Y350388D01*
X175246Y350344D01*
X175144Y350304D01*
X175041Y350268D01*
X174937Y350235D01*
X174831Y350206D01*
X174725Y350181D01*
X174618Y350160D01*
X174510Y350142D01*
X174401Y350129D01*
X174292Y350119D01*
X174183Y350113D01*
X174074Y350111D01*
X170137Y350111D01*
X170137Y357985D01*
X170139Y358086D01*
X170145Y358186D01*
X170154Y358286D01*
X170168Y358386D01*
X170185Y358485D01*
X170206Y358583D01*
X170231Y358681D01*
X170259Y358777D01*
X170292Y358872D01*
X170327Y358966D01*
X170367Y359059D01*
X170410Y359150D01*
X170456Y359239D01*
X170506Y359326D01*
X170559Y359412D01*
X170615Y359495D01*
X170674Y359576D01*
X170737Y359655D01*
X170802Y359731D01*
X170871Y359805D01*
X170942Y359876D01*
X171016Y359945D01*
X171092Y360010D01*
X171171Y360073D01*
X171252Y360132D01*
X171335Y360188D01*
X171421Y360241D01*
X171508Y360291D01*
X171597Y360337D01*
X171688Y360380D01*
X171781Y360420D01*
X171875Y360456D01*
X171970Y360488D01*
X172066Y360516D01*
X172164Y360541D01*
X172262Y360562D01*
X172361Y360579D01*
X172461Y360593D01*
X172561Y360602D01*
X172661Y360608D01*
X172762Y360610D01*
X176261Y360610D01*
X162459Y360610D02*
X162459Y350111D01*
X162459Y360610D02*
X158084Y360610D01*
X157983Y360608D01*
X157883Y360602D01*
X157783Y360593D01*
X157683Y360579D01*
X157584Y360562D01*
X157486Y360541D01*
X157388Y360516D01*
X157292Y360488D01*
X157197Y360455D01*
X157103Y360420D01*
X157010Y360380D01*
X156919Y360337D01*
X156830Y360291D01*
X156743Y360241D01*
X156657Y360188D01*
X156574Y360132D01*
X156493Y360073D01*
X156414Y360010D01*
X156338Y359945D01*
X156264Y359876D01*
X156193Y359805D01*
X156124Y359731D01*
X156059Y359655D01*
X155996Y359576D01*
X155937Y359495D01*
X155881Y359412D01*
X155828Y359326D01*
X155778Y359239D01*
X155732Y359150D01*
X155689Y359059D01*
X155649Y358966D01*
X155614Y358872D01*
X155581Y358777D01*
X155553Y358681D01*
X155528Y358583D01*
X155507Y358485D01*
X155490Y358386D01*
X155476Y358286D01*
X155467Y358186D01*
X155461Y358086D01*
X155459Y357985D01*
X155460Y357985D02*
X155460Y350111D01*
X141480Y350111D02*
X141480Y365859D01*
X141480Y350111D02*
X145854Y350111D01*
X145955Y350113D01*
X146055Y350119D01*
X146155Y350128D01*
X146255Y350142D01*
X146354Y350159D01*
X146452Y350180D01*
X146550Y350205D01*
X146646Y350233D01*
X146741Y350266D01*
X146835Y350301D01*
X146928Y350341D01*
X147019Y350384D01*
X147108Y350430D01*
X147195Y350480D01*
X147281Y350533D01*
X147364Y350589D01*
X147445Y350648D01*
X147524Y350711D01*
X147600Y350776D01*
X147674Y350845D01*
X147745Y350916D01*
X147814Y350990D01*
X147879Y351066D01*
X147942Y351145D01*
X148001Y351226D01*
X148057Y351309D01*
X148110Y351395D01*
X148160Y351482D01*
X148206Y351571D01*
X148249Y351662D01*
X148289Y351755D01*
X148325Y351849D01*
X148357Y351944D01*
X148385Y352040D01*
X148410Y352138D01*
X148431Y352236D01*
X148448Y352335D01*
X148462Y352435D01*
X148471Y352535D01*
X148477Y352635D01*
X148479Y352736D01*
X148479Y357985D01*
X148477Y358086D01*
X148471Y358186D01*
X148462Y358286D01*
X148448Y358386D01*
X148431Y358485D01*
X148410Y358583D01*
X148385Y358681D01*
X148357Y358777D01*
X148324Y358872D01*
X148289Y358966D01*
X148249Y359059D01*
X148206Y359150D01*
X148160Y359239D01*
X148110Y359326D01*
X148057Y359412D01*
X148001Y359495D01*
X147942Y359576D01*
X147879Y359655D01*
X147814Y359731D01*
X147745Y359805D01*
X147674Y359876D01*
X147600Y359945D01*
X147524Y360010D01*
X147445Y360073D01*
X147364Y360132D01*
X147281Y360188D01*
X147195Y360241D01*
X147108Y360291D01*
X147019Y360337D01*
X146928Y360380D01*
X146835Y360420D01*
X146741Y360455D01*
X146646Y360488D01*
X146550Y360516D01*
X146452Y360541D01*
X146354Y360562D01*
X146255Y360579D01*
X146155Y360593D01*
X146055Y360602D01*
X145955Y360608D01*
X145854Y360610D01*
X141480Y360610D01*
X122367Y350111D02*
X118867Y350111D01*
X122367Y350111D02*
X122484Y350113D01*
X122601Y350119D01*
X122717Y350129D01*
X122834Y350142D01*
X122949Y350160D01*
X123064Y350181D01*
X123178Y350206D01*
X123292Y350235D01*
X123404Y350268D01*
X123515Y350305D01*
X123625Y350345D01*
X123733Y350389D01*
X123840Y350436D01*
X123946Y350487D01*
X124049Y350542D01*
X124151Y350600D01*
X124250Y350661D01*
X124348Y350725D01*
X124443Y350793D01*
X124536Y350864D01*
X124627Y350938D01*
X124715Y351015D01*
X124800Y351095D01*
X124883Y351178D01*
X124963Y351263D01*
X125040Y351351D01*
X125114Y351442D01*
X125185Y351535D01*
X125253Y351630D01*
X125317Y351728D01*
X125378Y351827D01*
X125436Y351929D01*
X125491Y352032D01*
X125542Y352138D01*
X125589Y352245D01*
X125633Y352353D01*
X125673Y352463D01*
X125710Y352574D01*
X125743Y352686D01*
X125772Y352800D01*
X125797Y352914D01*
X125818Y353029D01*
X125836Y353145D01*
X125849Y353261D01*
X125859Y353377D01*
X125865Y353494D01*
X125867Y353611D01*
X125866Y353611D02*
X125866Y362360D01*
X125867Y362360D02*
X125865Y362477D01*
X125859Y362594D01*
X125849Y362710D01*
X125836Y362826D01*
X125818Y362942D01*
X125797Y363057D01*
X125772Y363171D01*
X125743Y363285D01*
X125710Y363397D01*
X125673Y363508D01*
X125633Y363618D01*
X125589Y363726D01*
X125542Y363833D01*
X125491Y363939D01*
X125436Y364042D01*
X125378Y364144D01*
X125317Y364243D01*
X125253Y364341D01*
X125185Y364436D01*
X125114Y364529D01*
X125040Y364620D01*
X124963Y364708D01*
X124883Y364793D01*
X124800Y364876D01*
X124715Y364956D01*
X124627Y365033D01*
X124536Y365107D01*
X124443Y365178D01*
X124348Y365246D01*
X124250Y365310D01*
X124151Y365371D01*
X124049Y365429D01*
X123946Y365484D01*
X123840Y365535D01*
X123733Y365582D01*
X123625Y365626D01*
X123515Y365666D01*
X123404Y365703D01*
X123292Y365736D01*
X123178Y365765D01*
X123064Y365790D01*
X122949Y365811D01*
X122834Y365829D01*
X122717Y365842D01*
X122601Y365852D01*
X122484Y365858D01*
X122367Y365860D01*
X122367Y365859D02*
X118867Y365859D01*
X112960Y357110D02*
X112960Y353611D01*
X112960Y357110D02*
X112958Y357228D01*
X112952Y357346D01*
X112942Y357464D01*
X112928Y357581D01*
X112910Y357698D01*
X112888Y357815D01*
X112863Y357930D01*
X112833Y358044D01*
X112799Y358158D01*
X112762Y358270D01*
X112721Y358381D01*
X112676Y358490D01*
X112628Y358598D01*
X112576Y358704D01*
X112520Y358809D01*
X112461Y358911D01*
X112399Y359011D01*
X112333Y359109D01*
X112264Y359205D01*
X112191Y359299D01*
X112116Y359390D01*
X112037Y359478D01*
X111956Y359564D01*
X111871Y359647D01*
X111784Y359727D01*
X111695Y359804D01*
X111602Y359878D01*
X111508Y359948D01*
X111411Y360016D01*
X111311Y360080D01*
X111210Y360141D01*
X111107Y360198D01*
X111001Y360252D01*
X110894Y360303D01*
X110786Y360349D01*
X110676Y360392D01*
X110564Y360431D01*
X110451Y360467D01*
X110337Y360498D01*
X110222Y360526D01*
X110107Y360550D01*
X109990Y360570D01*
X109873Y360586D01*
X109755Y360598D01*
X109637Y360606D01*
X109519Y360610D01*
X109401Y360610D01*
X109283Y360606D01*
X109165Y360598D01*
X109047Y360586D01*
X108930Y360570D01*
X108813Y360550D01*
X108698Y360526D01*
X108583Y360498D01*
X108469Y360467D01*
X108356Y360431D01*
X108244Y360392D01*
X108134Y360349D01*
X108026Y360303D01*
X107919Y360252D01*
X107813Y360198D01*
X107710Y360141D01*
X107609Y360080D01*
X107509Y360016D01*
X107412Y359948D01*
X107318Y359878D01*
X107225Y359804D01*
X107136Y359727D01*
X107049Y359647D01*
X106964Y359564D01*
X106883Y359478D01*
X106804Y359390D01*
X106729Y359299D01*
X106656Y359205D01*
X106587Y359109D01*
X106521Y359011D01*
X106459Y358911D01*
X106400Y358809D01*
X106344Y358704D01*
X106292Y358598D01*
X106244Y358490D01*
X106199Y358381D01*
X106158Y358270D01*
X106121Y358158D01*
X106087Y358044D01*
X106057Y357930D01*
X106032Y357815D01*
X106010Y357698D01*
X105992Y357581D01*
X105978Y357464D01*
X105968Y357346D01*
X105962Y357228D01*
X105960Y357110D01*
X105961Y357110D02*
X105961Y353611D01*
X105960Y353611D02*
X105962Y353493D01*
X105968Y353375D01*
X105978Y353257D01*
X105992Y353140D01*
X106010Y353023D01*
X106032Y352906D01*
X106057Y352791D01*
X106087Y352677D01*
X106121Y352563D01*
X106158Y352451D01*
X106199Y352340D01*
X106244Y352231D01*
X106292Y352123D01*
X106344Y352017D01*
X106400Y351912D01*
X106459Y351810D01*
X106521Y351710D01*
X106587Y351612D01*
X106656Y351516D01*
X106729Y351422D01*
X106804Y351331D01*
X106883Y351243D01*
X106964Y351157D01*
X107049Y351074D01*
X107136Y350994D01*
X107225Y350917D01*
X107318Y350843D01*
X107412Y350773D01*
X107509Y350705D01*
X107609Y350641D01*
X107710Y350580D01*
X107813Y350523D01*
X107919Y350469D01*
X108026Y350418D01*
X108134Y350372D01*
X108244Y350329D01*
X108356Y350290D01*
X108469Y350254D01*
X108583Y350223D01*
X108698Y350195D01*
X108813Y350171D01*
X108930Y350151D01*
X109047Y350135D01*
X109165Y350123D01*
X109283Y350115D01*
X109401Y350111D01*
X109519Y350111D01*
X109637Y350115D01*
X109755Y350123D01*
X109873Y350135D01*
X109990Y350151D01*
X110107Y350171D01*
X110222Y350195D01*
X110337Y350223D01*
X110451Y350254D01*
X110564Y350290D01*
X110676Y350329D01*
X110786Y350372D01*
X110894Y350418D01*
X111001Y350469D01*
X111107Y350523D01*
X111210Y350580D01*
X111311Y350641D01*
X111411Y350705D01*
X111508Y350773D01*
X111602Y350843D01*
X111695Y350917D01*
X111784Y350994D01*
X111871Y351074D01*
X111956Y351157D01*
X112037Y351243D01*
X112116Y351331D01*
X112191Y351422D01*
X112264Y351516D01*
X112333Y351612D01*
X112399Y351710D01*
X112461Y351810D01*
X112520Y351912D01*
X112576Y352017D01*
X112628Y352123D01*
X112676Y352231D01*
X112721Y352340D01*
X112762Y352451D01*
X112799Y352563D01*
X112833Y352677D01*
X112863Y352791D01*
X112888Y352906D01*
X112910Y353023D01*
X112928Y353140D01*
X112942Y353257D01*
X112952Y353375D01*
X112958Y353493D01*
X112960Y353611D01*
X98557Y350111D02*
X98557Y360610D01*
X90683Y360610D01*
X90582Y360608D01*
X90482Y360602D01*
X90382Y360593D01*
X90282Y360579D01*
X90183Y360562D01*
X90085Y360541D01*
X89987Y360516D01*
X89891Y360488D01*
X89796Y360455D01*
X89702Y360420D01*
X89609Y360380D01*
X89518Y360337D01*
X89429Y360291D01*
X89342Y360241D01*
X89256Y360188D01*
X89173Y360132D01*
X89092Y360073D01*
X89013Y360010D01*
X88937Y359945D01*
X88863Y359876D01*
X88792Y359805D01*
X88723Y359731D01*
X88658Y359655D01*
X88595Y359576D01*
X88536Y359495D01*
X88480Y359412D01*
X88427Y359326D01*
X88377Y359239D01*
X88331Y359150D01*
X88288Y359059D01*
X88248Y358966D01*
X88213Y358872D01*
X88180Y358777D01*
X88152Y358681D01*
X88127Y358583D01*
X88106Y358485D01*
X88089Y358386D01*
X88075Y358286D01*
X88066Y358186D01*
X88060Y358086D01*
X88058Y357985D01*
X88059Y357985D02*
X88059Y350111D01*
X93308Y350111D02*
X93308Y360610D01*
X80046Y360610D02*
X80046Y344862D01*
X80046Y360610D02*
X75672Y360610D01*
X75571Y360608D01*
X75471Y360602D01*
X75371Y360593D01*
X75271Y360579D01*
X75172Y360562D01*
X75074Y360541D01*
X74976Y360516D01*
X74880Y360488D01*
X74785Y360455D01*
X74691Y360420D01*
X74598Y360380D01*
X74507Y360337D01*
X74418Y360291D01*
X74331Y360241D01*
X74245Y360188D01*
X74162Y360132D01*
X74081Y360073D01*
X74002Y360010D01*
X73926Y359945D01*
X73852Y359876D01*
X73781Y359805D01*
X73712Y359731D01*
X73647Y359655D01*
X73584Y359576D01*
X73525Y359495D01*
X73469Y359412D01*
X73416Y359326D01*
X73366Y359239D01*
X73320Y359150D01*
X73277Y359059D01*
X73237Y358966D01*
X73202Y358872D01*
X73169Y358777D01*
X73141Y358681D01*
X73116Y358583D01*
X73095Y358485D01*
X73078Y358386D01*
X73064Y358286D01*
X73055Y358186D01*
X73049Y358086D01*
X73047Y357985D01*
X73047Y352736D01*
X73049Y352635D01*
X73055Y352535D01*
X73064Y352435D01*
X73078Y352335D01*
X73095Y352236D01*
X73116Y352138D01*
X73141Y352040D01*
X73169Y351944D01*
X73202Y351849D01*
X73237Y351755D01*
X73277Y351662D01*
X73320Y351571D01*
X73366Y351482D01*
X73416Y351395D01*
X73469Y351309D01*
X73525Y351226D01*
X73584Y351145D01*
X73647Y351066D01*
X73712Y350990D01*
X73781Y350916D01*
X73852Y350845D01*
X73926Y350776D01*
X74002Y350711D01*
X74081Y350648D01*
X74162Y350589D01*
X74245Y350533D01*
X74331Y350480D01*
X74418Y350430D01*
X74507Y350384D01*
X74598Y350341D01*
X74691Y350301D01*
X74785Y350266D01*
X74880Y350233D01*
X74976Y350205D01*
X75074Y350180D01*
X75172Y350159D01*
X75271Y350142D01*
X75371Y350128D01*
X75471Y350119D01*
X75571Y350113D01*
X75672Y350111D01*
X80046Y350111D01*
X66066Y352736D02*
X66066Y360610D01*
X66067Y352736D02*
X66065Y352635D01*
X66059Y352535D01*
X66050Y352435D01*
X66036Y352335D01*
X66019Y352236D01*
X65998Y352138D01*
X65973Y352040D01*
X65945Y351944D01*
X65912Y351849D01*
X65877Y351755D01*
X65837Y351662D01*
X65794Y351571D01*
X65748Y351482D01*
X65698Y351395D01*
X65645Y351309D01*
X65589Y351226D01*
X65530Y351145D01*
X65467Y351066D01*
X65402Y350990D01*
X65333Y350916D01*
X65262Y350845D01*
X65188Y350776D01*
X65112Y350711D01*
X65033Y350648D01*
X64952Y350589D01*
X64869Y350533D01*
X64783Y350480D01*
X64696Y350430D01*
X64607Y350384D01*
X64516Y350341D01*
X64423Y350301D01*
X64329Y350266D01*
X64234Y350233D01*
X64138Y350205D01*
X64040Y350180D01*
X63942Y350159D01*
X63843Y350142D01*
X63743Y350128D01*
X63643Y350119D01*
X63543Y350113D01*
X63442Y350111D01*
X59067Y350111D01*
X59067Y360610D01*
X53347Y360610D02*
X48098Y360610D01*
X51597Y365859D02*
X51597Y352736D01*
X51598Y352736D02*
X51596Y352635D01*
X51590Y352535D01*
X51581Y352435D01*
X51567Y352335D01*
X51550Y352236D01*
X51529Y352138D01*
X51504Y352040D01*
X51476Y351944D01*
X51443Y351849D01*
X51408Y351755D01*
X51368Y351662D01*
X51325Y351571D01*
X51279Y351482D01*
X51229Y351395D01*
X51176Y351309D01*
X51120Y351226D01*
X51061Y351145D01*
X50998Y351066D01*
X50933Y350990D01*
X50864Y350916D01*
X50793Y350845D01*
X50719Y350776D01*
X50643Y350711D01*
X50564Y350648D01*
X50483Y350589D01*
X50400Y350533D01*
X50314Y350480D01*
X50227Y350430D01*
X50138Y350384D01*
X50047Y350341D01*
X49954Y350301D01*
X49860Y350265D01*
X49765Y350233D01*
X49669Y350205D01*
X49571Y350180D01*
X49473Y350159D01*
X49374Y350142D01*
X49274Y350128D01*
X49174Y350119D01*
X49074Y350113D01*
X48973Y350111D01*
X48098Y350111D01*
X39474Y350111D02*
X35099Y350111D01*
X39474Y350111D02*
X39575Y350113D01*
X39675Y350119D01*
X39775Y350128D01*
X39875Y350142D01*
X39974Y350159D01*
X40072Y350180D01*
X40170Y350205D01*
X40266Y350233D01*
X40361Y350266D01*
X40455Y350301D01*
X40548Y350341D01*
X40639Y350384D01*
X40728Y350430D01*
X40815Y350480D01*
X40901Y350533D01*
X40984Y350589D01*
X41065Y350648D01*
X41144Y350711D01*
X41220Y350776D01*
X41294Y350845D01*
X41365Y350916D01*
X41434Y350990D01*
X41499Y351066D01*
X41562Y351145D01*
X41621Y351226D01*
X41677Y351309D01*
X41730Y351395D01*
X41780Y351482D01*
X41826Y351571D01*
X41869Y351662D01*
X41909Y351755D01*
X41945Y351849D01*
X41977Y351944D01*
X42005Y352040D01*
X42030Y352138D01*
X42051Y352236D01*
X42068Y352335D01*
X42082Y352435D01*
X42091Y352535D01*
X42097Y352635D01*
X42099Y352736D01*
X42098Y352736D02*
X42098Y357110D01*
X42099Y357110D02*
X42097Y357228D01*
X42091Y357346D01*
X42081Y357464D01*
X42067Y357581D01*
X42049Y357698D01*
X42027Y357815D01*
X42002Y357930D01*
X41972Y358044D01*
X41938Y358158D01*
X41901Y358270D01*
X41860Y358381D01*
X41815Y358490D01*
X41767Y358598D01*
X41715Y358704D01*
X41659Y358809D01*
X41600Y358911D01*
X41538Y359011D01*
X41472Y359109D01*
X41403Y359205D01*
X41330Y359299D01*
X41255Y359390D01*
X41176Y359478D01*
X41095Y359564D01*
X41010Y359647D01*
X40923Y359727D01*
X40834Y359804D01*
X40741Y359878D01*
X40647Y359948D01*
X40550Y360016D01*
X40450Y360080D01*
X40349Y360141D01*
X40246Y360198D01*
X40140Y360252D01*
X40033Y360303D01*
X39925Y360349D01*
X39815Y360392D01*
X39703Y360431D01*
X39590Y360467D01*
X39476Y360498D01*
X39361Y360526D01*
X39246Y360550D01*
X39129Y360570D01*
X39012Y360586D01*
X38894Y360598D01*
X38776Y360606D01*
X38658Y360610D01*
X38540Y360610D01*
X38422Y360606D01*
X38304Y360598D01*
X38186Y360586D01*
X38069Y360570D01*
X37952Y360550D01*
X37837Y360526D01*
X37722Y360498D01*
X37608Y360467D01*
X37495Y360431D01*
X37383Y360392D01*
X37273Y360349D01*
X37165Y360303D01*
X37058Y360252D01*
X36952Y360198D01*
X36849Y360141D01*
X36748Y360080D01*
X36648Y360016D01*
X36551Y359948D01*
X36457Y359878D01*
X36364Y359804D01*
X36275Y359727D01*
X36188Y359647D01*
X36103Y359564D01*
X36022Y359478D01*
X35943Y359390D01*
X35868Y359299D01*
X35795Y359205D01*
X35726Y359109D01*
X35660Y359011D01*
X35598Y358911D01*
X35539Y358809D01*
X35483Y358704D01*
X35431Y358598D01*
X35383Y358490D01*
X35338Y358381D01*
X35297Y358270D01*
X35260Y358158D01*
X35226Y358044D01*
X35196Y357930D01*
X35171Y357815D01*
X35149Y357698D01*
X35131Y357581D01*
X35117Y357464D01*
X35107Y357346D01*
X35101Y357228D01*
X35099Y357110D01*
X35099Y355360D01*
X42098Y355360D01*
X27928Y350111D02*
X27928Y360610D01*
X22679Y360610D01*
X22679Y358860D01*
X286559Y319885D02*
X293558Y319885D01*
X293558Y335633D01*
X286559Y335633D01*
X288309Y328634D02*
X293558Y328634D01*
X280214Y330384D02*
X280214Y319885D01*
X280214Y330384D02*
X275839Y330384D01*
X275738Y330382D01*
X275638Y330376D01*
X275538Y330367D01*
X275438Y330353D01*
X275339Y330336D01*
X275241Y330315D01*
X275143Y330290D01*
X275047Y330262D01*
X274952Y330229D01*
X274858Y330194D01*
X274765Y330154D01*
X274674Y330111D01*
X274585Y330065D01*
X274498Y330015D01*
X274412Y329962D01*
X274329Y329906D01*
X274248Y329847D01*
X274169Y329784D01*
X274093Y329719D01*
X274019Y329650D01*
X273948Y329579D01*
X273879Y329505D01*
X273814Y329429D01*
X273751Y329350D01*
X273692Y329269D01*
X273636Y329186D01*
X273583Y329100D01*
X273533Y329013D01*
X273487Y328924D01*
X273444Y328833D01*
X273404Y328740D01*
X273369Y328646D01*
X273336Y328551D01*
X273308Y328455D01*
X273283Y328357D01*
X273262Y328259D01*
X273245Y328160D01*
X273231Y328060D01*
X273222Y327960D01*
X273216Y327860D01*
X273214Y327759D01*
X273215Y327759D02*
X273215Y319885D01*
X263609Y319885D02*
X259235Y319885D01*
X263609Y319885D02*
X263710Y319887D01*
X263810Y319893D01*
X263910Y319902D01*
X264010Y319916D01*
X264109Y319933D01*
X264207Y319954D01*
X264305Y319979D01*
X264401Y320007D01*
X264496Y320040D01*
X264590Y320075D01*
X264683Y320115D01*
X264774Y320158D01*
X264863Y320204D01*
X264950Y320254D01*
X265036Y320307D01*
X265119Y320363D01*
X265200Y320422D01*
X265279Y320485D01*
X265355Y320550D01*
X265429Y320619D01*
X265500Y320690D01*
X265569Y320764D01*
X265634Y320840D01*
X265697Y320919D01*
X265756Y321000D01*
X265812Y321083D01*
X265865Y321169D01*
X265915Y321256D01*
X265961Y321345D01*
X266004Y321436D01*
X266044Y321529D01*
X266080Y321623D01*
X266112Y321718D01*
X266140Y321814D01*
X266165Y321912D01*
X266186Y322010D01*
X266203Y322109D01*
X266217Y322209D01*
X266226Y322309D01*
X266232Y322409D01*
X266234Y322510D01*
X266234Y327759D01*
X266232Y327860D01*
X266226Y327960D01*
X266217Y328060D01*
X266203Y328160D01*
X266186Y328259D01*
X266165Y328357D01*
X266140Y328455D01*
X266112Y328551D01*
X266079Y328646D01*
X266044Y328740D01*
X266004Y328833D01*
X265961Y328924D01*
X265915Y329013D01*
X265865Y329100D01*
X265812Y329186D01*
X265756Y329269D01*
X265697Y329350D01*
X265634Y329429D01*
X265569Y329505D01*
X265500Y329579D01*
X265429Y329650D01*
X265355Y329719D01*
X265279Y329784D01*
X265200Y329847D01*
X265119Y329906D01*
X265036Y329962D01*
X264950Y330015D01*
X264863Y330065D01*
X264774Y330111D01*
X264683Y330154D01*
X264590Y330194D01*
X264496Y330229D01*
X264401Y330262D01*
X264305Y330290D01*
X264207Y330315D01*
X264109Y330336D01*
X264010Y330353D01*
X263910Y330367D01*
X263810Y330376D01*
X263710Y330382D01*
X263609Y330384D01*
X259235Y330384D01*
X259235Y317260D01*
X259237Y317159D01*
X259243Y317059D01*
X259252Y316959D01*
X259266Y316859D01*
X259283Y316760D01*
X259304Y316662D01*
X259329Y316564D01*
X259357Y316468D01*
X259390Y316373D01*
X259425Y316279D01*
X259465Y316186D01*
X259508Y316095D01*
X259554Y316006D01*
X259604Y315919D01*
X259657Y315833D01*
X259713Y315750D01*
X259772Y315669D01*
X259835Y315590D01*
X259900Y315514D01*
X259969Y315440D01*
X260040Y315369D01*
X260114Y315300D01*
X260190Y315235D01*
X260269Y315172D01*
X260350Y315113D01*
X260433Y315057D01*
X260519Y315004D01*
X260606Y314954D01*
X260695Y314908D01*
X260786Y314865D01*
X260879Y314825D01*
X260973Y314790D01*
X261068Y314757D01*
X261164Y314729D01*
X261262Y314704D01*
X261360Y314683D01*
X261459Y314666D01*
X261559Y314652D01*
X261659Y314643D01*
X261759Y314637D01*
X261860Y314635D01*
X261860Y314636D02*
X265359Y314636D01*
X252225Y319885D02*
X252225Y330384D01*
X252663Y334758D02*
X252663Y335633D01*
X251788Y335633D01*
X251788Y334758D01*
X252663Y334758D01*
X245304Y330384D02*
X245304Y319885D01*
X245304Y330384D02*
X240930Y330384D01*
X240829Y330382D01*
X240729Y330376D01*
X240629Y330367D01*
X240529Y330353D01*
X240430Y330336D01*
X240332Y330315D01*
X240234Y330290D01*
X240138Y330262D01*
X240043Y330229D01*
X239949Y330194D01*
X239856Y330154D01*
X239765Y330111D01*
X239676Y330065D01*
X239589Y330015D01*
X239503Y329962D01*
X239420Y329906D01*
X239339Y329847D01*
X239260Y329784D01*
X239184Y329719D01*
X239110Y329650D01*
X239039Y329579D01*
X238970Y329505D01*
X238905Y329429D01*
X238842Y329350D01*
X238783Y329269D01*
X238727Y329186D01*
X238674Y329100D01*
X238624Y329013D01*
X238578Y328924D01*
X238535Y328833D01*
X238495Y328740D01*
X238460Y328646D01*
X238427Y328551D01*
X238399Y328455D01*
X238374Y328357D01*
X238353Y328259D01*
X238336Y328160D01*
X238322Y328060D01*
X238313Y327960D01*
X238307Y327860D01*
X238305Y327759D01*
X238305Y319885D01*
X228611Y319885D02*
X224237Y319885D01*
X228611Y319885D02*
X228712Y319887D01*
X228812Y319893D01*
X228912Y319902D01*
X229012Y319916D01*
X229111Y319933D01*
X229209Y319954D01*
X229307Y319979D01*
X229403Y320007D01*
X229498Y320040D01*
X229592Y320075D01*
X229685Y320115D01*
X229776Y320158D01*
X229865Y320204D01*
X229952Y320254D01*
X230038Y320307D01*
X230121Y320363D01*
X230202Y320422D01*
X230281Y320485D01*
X230357Y320550D01*
X230431Y320619D01*
X230502Y320690D01*
X230571Y320764D01*
X230636Y320840D01*
X230699Y320919D01*
X230758Y321000D01*
X230814Y321083D01*
X230867Y321169D01*
X230917Y321256D01*
X230963Y321345D01*
X231006Y321436D01*
X231046Y321529D01*
X231082Y321623D01*
X231114Y321718D01*
X231142Y321814D01*
X231167Y321912D01*
X231188Y322010D01*
X231205Y322109D01*
X231219Y322209D01*
X231228Y322309D01*
X231234Y322409D01*
X231236Y322510D01*
X231236Y326884D01*
X231237Y326884D02*
X231235Y327002D01*
X231229Y327120D01*
X231219Y327238D01*
X231205Y327355D01*
X231187Y327472D01*
X231165Y327589D01*
X231140Y327704D01*
X231110Y327818D01*
X231076Y327932D01*
X231039Y328044D01*
X230998Y328155D01*
X230953Y328264D01*
X230905Y328372D01*
X230853Y328478D01*
X230797Y328583D01*
X230738Y328685D01*
X230676Y328785D01*
X230610Y328883D01*
X230541Y328979D01*
X230468Y329073D01*
X230393Y329164D01*
X230314Y329252D01*
X230233Y329338D01*
X230148Y329421D01*
X230061Y329501D01*
X229972Y329578D01*
X229879Y329652D01*
X229785Y329722D01*
X229688Y329790D01*
X229588Y329854D01*
X229487Y329915D01*
X229384Y329972D01*
X229278Y330026D01*
X229171Y330077D01*
X229063Y330123D01*
X228953Y330166D01*
X228841Y330205D01*
X228728Y330241D01*
X228614Y330272D01*
X228499Y330300D01*
X228384Y330324D01*
X228267Y330344D01*
X228150Y330360D01*
X228032Y330372D01*
X227914Y330380D01*
X227796Y330384D01*
X227678Y330384D01*
X227560Y330380D01*
X227442Y330372D01*
X227324Y330360D01*
X227207Y330344D01*
X227090Y330324D01*
X226975Y330300D01*
X226860Y330272D01*
X226746Y330241D01*
X226633Y330205D01*
X226521Y330166D01*
X226411Y330123D01*
X226303Y330077D01*
X226196Y330026D01*
X226090Y329972D01*
X225987Y329915D01*
X225886Y329854D01*
X225786Y329790D01*
X225689Y329722D01*
X225595Y329652D01*
X225502Y329578D01*
X225413Y329501D01*
X225326Y329421D01*
X225241Y329338D01*
X225160Y329252D01*
X225081Y329164D01*
X225006Y329073D01*
X224933Y328979D01*
X224864Y328883D01*
X224798Y328785D01*
X224736Y328685D01*
X224677Y328583D01*
X224621Y328478D01*
X224569Y328372D01*
X224521Y328264D01*
X224476Y328155D01*
X224435Y328044D01*
X224398Y327932D01*
X224364Y327818D01*
X224334Y327704D01*
X224309Y327589D01*
X224287Y327472D01*
X224269Y327355D01*
X224255Y327238D01*
X224245Y327120D01*
X224239Y327002D01*
X224237Y326884D01*
X224237Y325134D01*
X231236Y325134D01*
X215064Y319885D02*
X210690Y319885D01*
X215064Y319885D02*
X215165Y319887D01*
X215265Y319893D01*
X215365Y319902D01*
X215465Y319916D01*
X215564Y319933D01*
X215662Y319954D01*
X215760Y319979D01*
X215856Y320007D01*
X215951Y320040D01*
X216045Y320075D01*
X216138Y320115D01*
X216229Y320158D01*
X216318Y320204D01*
X216405Y320254D01*
X216491Y320307D01*
X216574Y320363D01*
X216655Y320422D01*
X216734Y320485D01*
X216810Y320550D01*
X216884Y320619D01*
X216955Y320690D01*
X217024Y320764D01*
X217089Y320840D01*
X217152Y320919D01*
X217211Y321000D01*
X217267Y321083D01*
X217320Y321169D01*
X217370Y321256D01*
X217416Y321345D01*
X217459Y321436D01*
X217499Y321529D01*
X217535Y321623D01*
X217567Y321718D01*
X217595Y321814D01*
X217620Y321912D01*
X217641Y322010D01*
X217658Y322109D01*
X217672Y322209D01*
X217681Y322309D01*
X217687Y322409D01*
X217689Y322510D01*
X217689Y326884D01*
X217690Y326884D02*
X217688Y327002D01*
X217682Y327120D01*
X217672Y327238D01*
X217658Y327355D01*
X217640Y327472D01*
X217618Y327589D01*
X217593Y327704D01*
X217563Y327818D01*
X217529Y327932D01*
X217492Y328044D01*
X217451Y328155D01*
X217406Y328264D01*
X217358Y328372D01*
X217306Y328478D01*
X217250Y328583D01*
X217191Y328685D01*
X217129Y328785D01*
X217063Y328883D01*
X216994Y328979D01*
X216921Y329073D01*
X216846Y329164D01*
X216767Y329252D01*
X216686Y329338D01*
X216601Y329421D01*
X216514Y329501D01*
X216425Y329578D01*
X216332Y329652D01*
X216238Y329722D01*
X216141Y329790D01*
X216041Y329854D01*
X215940Y329915D01*
X215837Y329972D01*
X215731Y330026D01*
X215624Y330077D01*
X215516Y330123D01*
X215406Y330166D01*
X215294Y330205D01*
X215181Y330241D01*
X215067Y330272D01*
X214952Y330300D01*
X214837Y330324D01*
X214720Y330344D01*
X214603Y330360D01*
X214485Y330372D01*
X214367Y330380D01*
X214249Y330384D01*
X214131Y330384D01*
X214013Y330380D01*
X213895Y330372D01*
X213777Y330360D01*
X213660Y330344D01*
X213543Y330324D01*
X213428Y330300D01*
X213313Y330272D01*
X213199Y330241D01*
X213086Y330205D01*
X212974Y330166D01*
X212864Y330123D01*
X212756Y330077D01*
X212649Y330026D01*
X212543Y329972D01*
X212440Y329915D01*
X212339Y329854D01*
X212239Y329790D01*
X212142Y329722D01*
X212048Y329652D01*
X211955Y329578D01*
X211866Y329501D01*
X211779Y329421D01*
X211694Y329338D01*
X211613Y329252D01*
X211534Y329164D01*
X211459Y329073D01*
X211386Y328979D01*
X211317Y328883D01*
X211251Y328785D01*
X211189Y328685D01*
X211130Y328583D01*
X211074Y328478D01*
X211022Y328372D01*
X210974Y328264D01*
X210929Y328155D01*
X210888Y328044D01*
X210851Y327932D01*
X210817Y327818D01*
X210787Y327704D01*
X210762Y327589D01*
X210740Y327472D01*
X210722Y327355D01*
X210708Y327238D01*
X210698Y327120D01*
X210692Y327002D01*
X210690Y326884D01*
X210690Y325134D01*
X217689Y325134D01*
X203519Y319885D02*
X203519Y330384D01*
X198270Y330384D01*
X198270Y328634D01*
X193348Y330384D02*
X193348Y319885D01*
X193785Y334758D02*
X193785Y335633D01*
X192911Y335633D01*
X192911Y334758D01*
X193785Y334758D01*
X186427Y330384D02*
X186427Y319885D01*
X186427Y330384D02*
X182052Y330384D01*
X181951Y330382D01*
X181851Y330376D01*
X181751Y330367D01*
X181651Y330353D01*
X181552Y330336D01*
X181454Y330315D01*
X181356Y330290D01*
X181260Y330262D01*
X181165Y330229D01*
X181071Y330194D01*
X180978Y330154D01*
X180887Y330111D01*
X180798Y330065D01*
X180711Y330015D01*
X180625Y329962D01*
X180542Y329906D01*
X180461Y329847D01*
X180382Y329784D01*
X180306Y329719D01*
X180232Y329650D01*
X180161Y329579D01*
X180092Y329505D01*
X180027Y329429D01*
X179964Y329350D01*
X179905Y329269D01*
X179849Y329186D01*
X179796Y329100D01*
X179746Y329013D01*
X179700Y328924D01*
X179657Y328833D01*
X179617Y328740D01*
X179582Y328646D01*
X179549Y328551D01*
X179521Y328455D01*
X179496Y328357D01*
X179475Y328259D01*
X179458Y328160D01*
X179444Y328060D01*
X179435Y327960D01*
X179429Y327860D01*
X179427Y327759D01*
X179428Y327759D02*
X179428Y319885D01*
X169822Y319885D02*
X165448Y319885D01*
X169822Y319885D02*
X169923Y319887D01*
X170023Y319893D01*
X170123Y319902D01*
X170223Y319916D01*
X170322Y319933D01*
X170420Y319954D01*
X170518Y319979D01*
X170614Y320007D01*
X170709Y320040D01*
X170803Y320075D01*
X170896Y320115D01*
X170987Y320158D01*
X171076Y320204D01*
X171163Y320254D01*
X171249Y320307D01*
X171332Y320363D01*
X171413Y320422D01*
X171492Y320485D01*
X171568Y320550D01*
X171642Y320619D01*
X171713Y320690D01*
X171782Y320764D01*
X171847Y320840D01*
X171910Y320919D01*
X171969Y321000D01*
X172025Y321083D01*
X172078Y321169D01*
X172128Y321256D01*
X172174Y321345D01*
X172217Y321436D01*
X172257Y321529D01*
X172293Y321623D01*
X172325Y321718D01*
X172353Y321814D01*
X172378Y321912D01*
X172399Y322010D01*
X172416Y322109D01*
X172430Y322209D01*
X172439Y322309D01*
X172445Y322409D01*
X172447Y322510D01*
X172447Y327759D01*
X172445Y327860D01*
X172439Y327960D01*
X172430Y328060D01*
X172416Y328160D01*
X172399Y328259D01*
X172378Y328357D01*
X172353Y328455D01*
X172325Y328551D01*
X172292Y328646D01*
X172257Y328740D01*
X172217Y328833D01*
X172174Y328924D01*
X172128Y329013D01*
X172078Y329100D01*
X172025Y329186D01*
X171969Y329269D01*
X171910Y329350D01*
X171847Y329429D01*
X171782Y329505D01*
X171713Y329579D01*
X171642Y329650D01*
X171568Y329719D01*
X171492Y329784D01*
X171413Y329847D01*
X171332Y329906D01*
X171249Y329962D01*
X171163Y330015D01*
X171076Y330065D01*
X170987Y330111D01*
X170896Y330154D01*
X170803Y330194D01*
X170709Y330229D01*
X170614Y330262D01*
X170518Y330290D01*
X170420Y330315D01*
X170322Y330336D01*
X170223Y330353D01*
X170123Y330367D01*
X170023Y330376D01*
X169923Y330382D01*
X169822Y330384D01*
X165448Y330384D01*
X165448Y317260D01*
X165447Y317260D02*
X165449Y317159D01*
X165455Y317059D01*
X165464Y316959D01*
X165478Y316859D01*
X165495Y316760D01*
X165516Y316662D01*
X165541Y316564D01*
X165569Y316468D01*
X165602Y316373D01*
X165637Y316279D01*
X165677Y316186D01*
X165720Y316095D01*
X165766Y316006D01*
X165816Y315919D01*
X165869Y315833D01*
X165925Y315750D01*
X165984Y315669D01*
X166047Y315590D01*
X166112Y315514D01*
X166181Y315440D01*
X166252Y315369D01*
X166326Y315300D01*
X166402Y315235D01*
X166481Y315172D01*
X166562Y315113D01*
X166645Y315057D01*
X166731Y315004D01*
X166818Y314954D01*
X166907Y314908D01*
X166998Y314865D01*
X167091Y314825D01*
X167185Y314790D01*
X167280Y314757D01*
X167376Y314729D01*
X167474Y314704D01*
X167572Y314683D01*
X167671Y314666D01*
X167771Y314652D01*
X167871Y314643D01*
X167971Y314637D01*
X168072Y314635D01*
X168072Y314636D02*
X171572Y314636D01*
X149266Y319885D02*
X149266Y335633D01*
X144891Y335633D01*
X144761Y335631D01*
X144632Y335625D01*
X144503Y335616D01*
X144374Y335602D01*
X144245Y335585D01*
X144117Y335564D01*
X143990Y335539D01*
X143864Y335511D01*
X143738Y335478D01*
X143614Y335442D01*
X143490Y335403D01*
X143368Y335359D01*
X143247Y335312D01*
X143128Y335262D01*
X143010Y335208D01*
X142894Y335150D01*
X142779Y335089D01*
X142667Y335025D01*
X142556Y334958D01*
X142447Y334887D01*
X142341Y334813D01*
X142237Y334736D01*
X142135Y334656D01*
X142036Y334572D01*
X141939Y334486D01*
X141844Y334397D01*
X141753Y334306D01*
X141664Y334211D01*
X141578Y334114D01*
X141494Y334015D01*
X141414Y333913D01*
X141337Y333809D01*
X141263Y333703D01*
X141192Y333594D01*
X141125Y333483D01*
X141061Y333371D01*
X141000Y333256D01*
X140942Y333140D01*
X140888Y333022D01*
X140838Y332903D01*
X140791Y332782D01*
X140747Y332660D01*
X140708Y332536D01*
X140672Y332412D01*
X140639Y332286D01*
X140611Y332160D01*
X140586Y332033D01*
X140565Y331905D01*
X140548Y331776D01*
X140534Y331647D01*
X140525Y331518D01*
X140519Y331389D01*
X140517Y331259D01*
X140517Y324260D01*
X140519Y324130D01*
X140525Y324001D01*
X140534Y323872D01*
X140548Y323743D01*
X140565Y323614D01*
X140586Y323486D01*
X140611Y323359D01*
X140639Y323233D01*
X140672Y323107D01*
X140708Y322983D01*
X140747Y322859D01*
X140791Y322737D01*
X140838Y322616D01*
X140888Y322497D01*
X140942Y322379D01*
X141000Y322263D01*
X141061Y322148D01*
X141125Y322036D01*
X141192Y321925D01*
X141263Y321816D01*
X141337Y321710D01*
X141414Y321606D01*
X141494Y321504D01*
X141578Y321405D01*
X141664Y321308D01*
X141753Y321213D01*
X141844Y321122D01*
X141939Y321033D01*
X142036Y320947D01*
X142135Y320863D01*
X142237Y320783D01*
X142341Y320706D01*
X142447Y320632D01*
X142556Y320561D01*
X142667Y320494D01*
X142779Y320430D01*
X142894Y320369D01*
X143010Y320311D01*
X143128Y320257D01*
X143247Y320207D01*
X143368Y320160D01*
X143490Y320116D01*
X143614Y320077D01*
X143738Y320041D01*
X143864Y320008D01*
X143990Y319980D01*
X144117Y319955D01*
X144245Y319934D01*
X144374Y319917D01*
X144503Y319903D01*
X144632Y319894D01*
X144761Y319888D01*
X144891Y319886D01*
X144891Y319885D02*
X149266Y319885D01*
X130656Y319885D02*
X126281Y319885D01*
X130656Y319885D02*
X130757Y319887D01*
X130857Y319893D01*
X130957Y319902D01*
X131057Y319916D01*
X131156Y319933D01*
X131254Y319954D01*
X131352Y319979D01*
X131448Y320007D01*
X131543Y320040D01*
X131637Y320075D01*
X131730Y320115D01*
X131821Y320158D01*
X131910Y320204D01*
X131997Y320254D01*
X132083Y320307D01*
X132166Y320363D01*
X132247Y320422D01*
X132326Y320485D01*
X132402Y320550D01*
X132476Y320619D01*
X132547Y320690D01*
X132616Y320764D01*
X132681Y320840D01*
X132744Y320919D01*
X132803Y321000D01*
X132859Y321083D01*
X132912Y321169D01*
X132962Y321256D01*
X133008Y321345D01*
X133051Y321436D01*
X133091Y321529D01*
X133127Y321623D01*
X133159Y321718D01*
X133187Y321814D01*
X133212Y321912D01*
X133233Y322010D01*
X133250Y322109D01*
X133264Y322209D01*
X133273Y322309D01*
X133279Y322409D01*
X133281Y322510D01*
X133281Y326884D01*
X133279Y327002D01*
X133273Y327120D01*
X133263Y327238D01*
X133249Y327355D01*
X133231Y327472D01*
X133209Y327589D01*
X133184Y327704D01*
X133154Y327818D01*
X133120Y327932D01*
X133083Y328044D01*
X133042Y328155D01*
X132997Y328264D01*
X132949Y328372D01*
X132897Y328478D01*
X132841Y328583D01*
X132782Y328685D01*
X132720Y328785D01*
X132654Y328883D01*
X132585Y328979D01*
X132512Y329073D01*
X132437Y329164D01*
X132358Y329252D01*
X132277Y329338D01*
X132192Y329421D01*
X132105Y329501D01*
X132016Y329578D01*
X131923Y329652D01*
X131829Y329722D01*
X131732Y329790D01*
X131632Y329854D01*
X131531Y329915D01*
X131428Y329972D01*
X131322Y330026D01*
X131215Y330077D01*
X131107Y330123D01*
X130997Y330166D01*
X130885Y330205D01*
X130772Y330241D01*
X130658Y330272D01*
X130543Y330300D01*
X130428Y330324D01*
X130311Y330344D01*
X130194Y330360D01*
X130076Y330372D01*
X129958Y330380D01*
X129840Y330384D01*
X129722Y330384D01*
X129604Y330380D01*
X129486Y330372D01*
X129368Y330360D01*
X129251Y330344D01*
X129134Y330324D01*
X129019Y330300D01*
X128904Y330272D01*
X128790Y330241D01*
X128677Y330205D01*
X128565Y330166D01*
X128455Y330123D01*
X128347Y330077D01*
X128240Y330026D01*
X128134Y329972D01*
X128031Y329915D01*
X127930Y329854D01*
X127830Y329790D01*
X127733Y329722D01*
X127639Y329652D01*
X127546Y329578D01*
X127457Y329501D01*
X127370Y329421D01*
X127285Y329338D01*
X127204Y329252D01*
X127125Y329164D01*
X127050Y329073D01*
X126977Y328979D01*
X126908Y328883D01*
X126842Y328785D01*
X126780Y328685D01*
X126721Y328583D01*
X126665Y328478D01*
X126613Y328372D01*
X126565Y328264D01*
X126520Y328155D01*
X126479Y328044D01*
X126442Y327932D01*
X126408Y327818D01*
X126378Y327704D01*
X126353Y327589D01*
X126331Y327472D01*
X126313Y327355D01*
X126299Y327238D01*
X126289Y327120D01*
X126283Y327002D01*
X126281Y326884D01*
X126281Y325134D01*
X133281Y325134D01*
X119124Y330384D02*
X119124Y314636D01*
X119124Y330384D02*
X114750Y330384D01*
X114649Y330382D01*
X114549Y330376D01*
X114449Y330367D01*
X114349Y330353D01*
X114250Y330336D01*
X114152Y330315D01*
X114054Y330290D01*
X113958Y330262D01*
X113863Y330229D01*
X113769Y330194D01*
X113676Y330154D01*
X113585Y330111D01*
X113496Y330065D01*
X113409Y330015D01*
X113323Y329962D01*
X113240Y329906D01*
X113159Y329847D01*
X113080Y329784D01*
X113004Y329719D01*
X112930Y329650D01*
X112859Y329579D01*
X112790Y329505D01*
X112725Y329429D01*
X112662Y329350D01*
X112603Y329269D01*
X112547Y329186D01*
X112494Y329100D01*
X112444Y329013D01*
X112398Y328924D01*
X112355Y328833D01*
X112315Y328740D01*
X112280Y328646D01*
X112247Y328551D01*
X112219Y328455D01*
X112194Y328357D01*
X112173Y328259D01*
X112156Y328160D01*
X112142Y328060D01*
X112133Y327960D01*
X112127Y327860D01*
X112125Y327759D01*
X112125Y322510D01*
X112127Y322409D01*
X112133Y322309D01*
X112142Y322209D01*
X112156Y322109D01*
X112173Y322010D01*
X112194Y321912D01*
X112219Y321814D01*
X112247Y321718D01*
X112280Y321623D01*
X112315Y321529D01*
X112355Y321436D01*
X112398Y321345D01*
X112444Y321256D01*
X112494Y321169D01*
X112547Y321083D01*
X112603Y321000D01*
X112662Y320919D01*
X112725Y320840D01*
X112790Y320764D01*
X112859Y320690D01*
X112930Y320619D01*
X113004Y320550D01*
X113080Y320485D01*
X113159Y320422D01*
X113240Y320363D01*
X113323Y320307D01*
X113409Y320254D01*
X113496Y320204D01*
X113585Y320158D01*
X113676Y320115D01*
X113769Y320075D01*
X113863Y320040D01*
X113958Y320007D01*
X114054Y319979D01*
X114152Y319954D01*
X114250Y319933D01*
X114349Y319916D01*
X114449Y319902D01*
X114549Y319893D01*
X114649Y319887D01*
X114750Y319885D01*
X119124Y319885D01*
X102691Y326009D02*
X98754Y326009D01*
X102691Y326009D02*
X102800Y326007D01*
X102909Y326001D01*
X103018Y325991D01*
X103127Y325978D01*
X103235Y325960D01*
X103342Y325939D01*
X103448Y325914D01*
X103554Y325885D01*
X103658Y325852D01*
X103761Y325816D01*
X103863Y325776D01*
X103963Y325732D01*
X104062Y325685D01*
X104158Y325634D01*
X104253Y325580D01*
X104346Y325523D01*
X104437Y325462D01*
X104526Y325398D01*
X104612Y325331D01*
X104696Y325261D01*
X104778Y325188D01*
X104856Y325112D01*
X104932Y325034D01*
X105005Y324952D01*
X105075Y324868D01*
X105142Y324782D01*
X105206Y324693D01*
X105267Y324602D01*
X105324Y324509D01*
X105378Y324414D01*
X105429Y324318D01*
X105476Y324219D01*
X105520Y324119D01*
X105560Y324017D01*
X105596Y323914D01*
X105629Y323810D01*
X105658Y323704D01*
X105683Y323598D01*
X105704Y323491D01*
X105722Y323383D01*
X105735Y323274D01*
X105745Y323165D01*
X105751Y323056D01*
X105753Y322947D01*
X105751Y322838D01*
X105745Y322729D01*
X105735Y322620D01*
X105722Y322511D01*
X105704Y322403D01*
X105683Y322296D01*
X105658Y322190D01*
X105629Y322084D01*
X105596Y321980D01*
X105560Y321877D01*
X105520Y321775D01*
X105476Y321675D01*
X105429Y321576D01*
X105378Y321480D01*
X105324Y321385D01*
X105267Y321292D01*
X105206Y321201D01*
X105142Y321112D01*
X105075Y321026D01*
X105005Y320942D01*
X104932Y320860D01*
X104856Y320782D01*
X104778Y320706D01*
X104696Y320633D01*
X104612Y320563D01*
X104526Y320496D01*
X104437Y320432D01*
X104346Y320371D01*
X104253Y320314D01*
X104158Y320260D01*
X104062Y320209D01*
X103963Y320162D01*
X103863Y320118D01*
X103761Y320078D01*
X103658Y320042D01*
X103554Y320009D01*
X103448Y319980D01*
X103342Y319955D01*
X103235Y319934D01*
X103127Y319916D01*
X103018Y319903D01*
X102909Y319893D01*
X102800Y319887D01*
X102691Y319885D01*
X98754Y319885D01*
X98754Y327759D01*
X98756Y327860D01*
X98762Y327960D01*
X98771Y328060D01*
X98785Y328160D01*
X98802Y328259D01*
X98823Y328357D01*
X98848Y328455D01*
X98876Y328551D01*
X98909Y328646D01*
X98944Y328740D01*
X98984Y328833D01*
X99027Y328924D01*
X99073Y329013D01*
X99123Y329100D01*
X99176Y329186D01*
X99232Y329269D01*
X99291Y329350D01*
X99354Y329429D01*
X99419Y329505D01*
X99488Y329579D01*
X99559Y329650D01*
X99633Y329719D01*
X99709Y329784D01*
X99788Y329847D01*
X99869Y329906D01*
X99952Y329962D01*
X100038Y330015D01*
X100125Y330065D01*
X100214Y330111D01*
X100305Y330154D01*
X100398Y330194D01*
X100492Y330230D01*
X100587Y330262D01*
X100683Y330290D01*
X100781Y330315D01*
X100879Y330336D01*
X100978Y330353D01*
X101078Y330367D01*
X101178Y330376D01*
X101278Y330382D01*
X101379Y330384D01*
X104879Y330384D01*
X90974Y330384D02*
X90974Y319885D01*
X90974Y330384D02*
X85725Y330384D01*
X85725Y328634D01*
X82005Y330384D02*
X76755Y330384D01*
X80255Y335633D02*
X80255Y322510D01*
X80253Y322409D01*
X80247Y322309D01*
X80238Y322209D01*
X80224Y322109D01*
X80207Y322010D01*
X80186Y321912D01*
X80161Y321814D01*
X80133Y321718D01*
X80100Y321623D01*
X80065Y321529D01*
X80025Y321436D01*
X79982Y321345D01*
X79936Y321256D01*
X79886Y321169D01*
X79833Y321083D01*
X79777Y321000D01*
X79718Y320919D01*
X79655Y320840D01*
X79590Y320764D01*
X79521Y320690D01*
X79450Y320619D01*
X79376Y320550D01*
X79300Y320485D01*
X79221Y320422D01*
X79140Y320363D01*
X79057Y320307D01*
X78971Y320254D01*
X78884Y320204D01*
X78795Y320158D01*
X78704Y320115D01*
X78611Y320075D01*
X78517Y320039D01*
X78422Y320007D01*
X78326Y319979D01*
X78228Y319954D01*
X78130Y319933D01*
X78031Y319916D01*
X77931Y319902D01*
X77831Y319893D01*
X77731Y319887D01*
X77630Y319885D01*
X76755Y319885D01*
X69900Y319885D02*
X69900Y330384D01*
X62026Y330384D01*
X61925Y330382D01*
X61825Y330376D01*
X61725Y330367D01*
X61625Y330353D01*
X61526Y330336D01*
X61428Y330315D01*
X61330Y330290D01*
X61234Y330262D01*
X61139Y330229D01*
X61045Y330194D01*
X60952Y330154D01*
X60861Y330111D01*
X60772Y330065D01*
X60685Y330015D01*
X60599Y329962D01*
X60516Y329906D01*
X60435Y329847D01*
X60356Y329784D01*
X60280Y329719D01*
X60206Y329650D01*
X60135Y329579D01*
X60066Y329505D01*
X60001Y329429D01*
X59938Y329350D01*
X59879Y329269D01*
X59823Y329186D01*
X59770Y329100D01*
X59720Y329013D01*
X59674Y328924D01*
X59631Y328833D01*
X59591Y328740D01*
X59556Y328646D01*
X59523Y328551D01*
X59495Y328455D01*
X59470Y328357D01*
X59449Y328259D01*
X59432Y328160D01*
X59418Y328060D01*
X59409Y327960D01*
X59403Y327860D01*
X59401Y327759D01*
X59402Y327759D02*
X59402Y319885D01*
X64651Y319885D02*
X64651Y330384D01*
X49374Y319885D02*
X44999Y319885D01*
X49374Y319885D02*
X49475Y319887D01*
X49575Y319893D01*
X49675Y319902D01*
X49775Y319916D01*
X49874Y319933D01*
X49972Y319954D01*
X50070Y319979D01*
X50166Y320007D01*
X50261Y320040D01*
X50355Y320075D01*
X50448Y320115D01*
X50539Y320158D01*
X50628Y320204D01*
X50715Y320254D01*
X50801Y320307D01*
X50884Y320363D01*
X50965Y320422D01*
X51044Y320485D01*
X51120Y320550D01*
X51194Y320619D01*
X51265Y320690D01*
X51334Y320764D01*
X51399Y320840D01*
X51462Y320919D01*
X51521Y321000D01*
X51577Y321083D01*
X51630Y321169D01*
X51680Y321256D01*
X51726Y321345D01*
X51769Y321436D01*
X51809Y321529D01*
X51845Y321623D01*
X51877Y321718D01*
X51905Y321814D01*
X51930Y321912D01*
X51951Y322010D01*
X51968Y322109D01*
X51982Y322209D01*
X51991Y322309D01*
X51997Y322409D01*
X51999Y322510D01*
X51998Y322510D02*
X51998Y326884D01*
X51999Y326884D02*
X51997Y327002D01*
X51991Y327120D01*
X51981Y327238D01*
X51967Y327355D01*
X51949Y327472D01*
X51927Y327589D01*
X51902Y327704D01*
X51872Y327818D01*
X51838Y327932D01*
X51801Y328044D01*
X51760Y328155D01*
X51715Y328264D01*
X51667Y328372D01*
X51615Y328478D01*
X51559Y328583D01*
X51500Y328685D01*
X51438Y328785D01*
X51372Y328883D01*
X51303Y328979D01*
X51230Y329073D01*
X51155Y329164D01*
X51076Y329252D01*
X50995Y329338D01*
X50910Y329421D01*
X50823Y329501D01*
X50734Y329578D01*
X50641Y329652D01*
X50547Y329722D01*
X50450Y329790D01*
X50350Y329854D01*
X50249Y329915D01*
X50146Y329972D01*
X50040Y330026D01*
X49933Y330077D01*
X49825Y330123D01*
X49715Y330166D01*
X49603Y330205D01*
X49490Y330241D01*
X49376Y330272D01*
X49261Y330300D01*
X49146Y330324D01*
X49029Y330344D01*
X48912Y330360D01*
X48794Y330372D01*
X48676Y330380D01*
X48558Y330384D01*
X48440Y330384D01*
X48322Y330380D01*
X48204Y330372D01*
X48086Y330360D01*
X47969Y330344D01*
X47852Y330324D01*
X47737Y330300D01*
X47622Y330272D01*
X47508Y330241D01*
X47395Y330205D01*
X47283Y330166D01*
X47173Y330123D01*
X47065Y330077D01*
X46958Y330026D01*
X46852Y329972D01*
X46749Y329915D01*
X46648Y329854D01*
X46548Y329790D01*
X46451Y329722D01*
X46357Y329652D01*
X46264Y329578D01*
X46175Y329501D01*
X46088Y329421D01*
X46003Y329338D01*
X45922Y329252D01*
X45843Y329164D01*
X45768Y329073D01*
X45695Y328979D01*
X45626Y328883D01*
X45560Y328785D01*
X45498Y328685D01*
X45439Y328583D01*
X45383Y328478D01*
X45331Y328372D01*
X45283Y328264D01*
X45238Y328155D01*
X45197Y328044D01*
X45160Y327932D01*
X45126Y327818D01*
X45096Y327704D01*
X45071Y327589D01*
X45049Y327472D01*
X45031Y327355D01*
X45017Y327238D01*
X45007Y327120D01*
X45001Y327002D01*
X44999Y326884D01*
X44999Y325134D01*
X51998Y325134D01*
X37930Y319885D02*
X37930Y330384D01*
X33556Y330384D01*
X33455Y330382D01*
X33355Y330376D01*
X33255Y330367D01*
X33155Y330353D01*
X33056Y330336D01*
X32958Y330315D01*
X32860Y330290D01*
X32764Y330262D01*
X32669Y330229D01*
X32575Y330194D01*
X32482Y330154D01*
X32391Y330111D01*
X32302Y330065D01*
X32215Y330015D01*
X32129Y329962D01*
X32046Y329906D01*
X31965Y329847D01*
X31886Y329784D01*
X31810Y329719D01*
X31736Y329650D01*
X31665Y329579D01*
X31596Y329505D01*
X31531Y329429D01*
X31468Y329350D01*
X31409Y329269D01*
X31353Y329186D01*
X31300Y329100D01*
X31250Y329013D01*
X31204Y328924D01*
X31161Y328833D01*
X31121Y328740D01*
X31086Y328646D01*
X31053Y328551D01*
X31025Y328455D01*
X31000Y328357D01*
X30979Y328259D01*
X30962Y328160D01*
X30948Y328060D01*
X30939Y327960D01*
X30933Y327860D01*
X30931Y327759D01*
X30931Y319885D01*
X25211Y330384D02*
X19962Y330384D01*
X23461Y335633D02*
X23461Y322510D01*
X23462Y322510D02*
X23460Y322409D01*
X23454Y322309D01*
X23445Y322209D01*
X23431Y322109D01*
X23414Y322010D01*
X23393Y321912D01*
X23368Y321814D01*
X23340Y321718D01*
X23307Y321623D01*
X23272Y321529D01*
X23232Y321436D01*
X23189Y321345D01*
X23143Y321256D01*
X23093Y321169D01*
X23040Y321083D01*
X22984Y321000D01*
X22925Y320919D01*
X22862Y320840D01*
X22797Y320764D01*
X22728Y320690D01*
X22657Y320619D01*
X22583Y320550D01*
X22507Y320485D01*
X22428Y320422D01*
X22347Y320363D01*
X22264Y320307D01*
X22178Y320254D01*
X22091Y320204D01*
X22002Y320158D01*
X21911Y320115D01*
X21818Y320075D01*
X21724Y320039D01*
X21629Y320007D01*
X21533Y319979D01*
X21435Y319954D01*
X21337Y319933D01*
X21238Y319916D01*
X21138Y319902D01*
X21038Y319893D01*
X20938Y319887D01*
X20837Y319885D01*
X19962Y319885D01*
D11*
X37300Y206190D03*
X62700Y206190D03*
X62700Y231590D03*
X37300Y231590D03*
X37300Y180790D03*
X62700Y180790D03*
D12*
X471932Y94234D02*
X487172Y94234D01*
X487172Y139446D02*
X471932Y139446D01*
X422148Y94234D02*
X406908Y94234D01*
X406908Y139446D02*
X422148Y139446D01*
D11*
X568960Y246380D03*
X568960Y220980D03*
X568960Y195580D03*
X568960Y170180D03*
D13*
X228600Y167640D03*
X228600Y15240D03*
X375920Y15240D03*
X375920Y167640D03*
D14*
X96520Y180790D02*
X62700Y180790D01*
D15*
X96520Y180790D03*
X304800Y294640D03*
D14*
X341020Y294640D01*
X457200Y178460D01*
D15*
X457200Y178460D03*
D13*
X314960Y284480D03*
D14*
X287020Y256540D01*
X223520Y193040D01*
X49550Y193040D02*
X37300Y180790D01*
X49550Y193040D02*
X223520Y193040D01*
D15*
X15240Y101600D03*
D14*
X30480Y116840D01*
X30480Y173970D02*
X37300Y180790D01*
X30480Y173970D02*
X30480Y116840D01*
X222841Y206190D02*
X284480Y267829D01*
X222841Y206190D02*
X62700Y206190D01*
D15*
X284480Y284480D03*
D14*
X284480Y267829D01*
X37300Y231590D02*
X23310Y231590D01*
X15240Y223520D01*
X15240Y128270D01*
D15*
X15240Y128270D03*
X274320Y274320D03*
D14*
X49550Y218440D02*
X37300Y206190D01*
X49550Y218440D02*
X218440Y218440D01*
X274320Y274320D01*
D15*
X15240Y115570D03*
D14*
X24130Y124460D01*
X24130Y193040D01*
X37280Y206190D01*
X37300Y206190D01*
D15*
X320040Y325120D03*
D14*
X490220Y325120D01*
X568960Y246380D01*
D15*
X320040Y314960D03*
D14*
X474980Y314960D01*
X568960Y220980D01*
D15*
X294640Y304800D03*
D14*
X459740Y304800D01*
X568960Y195580D01*
D15*
X288290Y241300D03*
D14*
X378460Y241300D01*
X449580Y170180D01*
X568960Y170180D01*
M02*
